<?xml version="1.0" encoding="utf-8"?>
<!-- Generator: Adobe Illustrator 16.0.0, SVG Export Plug-In . SVG Version: 6.00 Build 0)  -->
<!DOCTYPE svg PUBLIC "-//W3C//DTD SVG 1.1//EN" "http://www.w3.org/Graphics/SVG/1.1/DTD/svg11.dtd">
<svg version="1.1" id="Layer_1" xmlns="http://www.w3.org/2000/svg" xmlns:xlink="http://www.w3.org/1999/xlink" x="0px" y="0px"
	 width="103px" height="120.653px" viewBox="0 0 103 120.653" enable-background="new 0 0 103 120.653" xml:space="preserve">
<g>
	<path fill-rule="evenodd" clip-rule="evenodd" fill="#26A666" d="M73.135,100.768c-0.529,4.055-1.281,7.561-1.313,11.073
		c-0.016,1.614,1.139,3.441,2.236,4.787c0.682,0.837,2.246,0.954,3.416,1.394c-0.525,0.872-1.051,1.743-1.576,2.615
		c-3.541-0.387-7.082-0.773-10.428-1.139c1.258-6.43,2.33-11.904,3.492-17.849c-12.365,0-23.838,0-36.471,0
		c1.104,5.642,2.162,11.057,3.449,17.638c-3.117,0.466-6.674,0.998-10.23,1.53c-0.508-0.375-1.018-0.751-1.527-1.127
		c9.84-4.875,3.342-12.251,4.518-18.374C15.061,95.414,10.52,87.867,11.123,72.378c0.063-1.595,0.16-3.206,0.457-4.771
		c0.859-4.523-0.188-7.765-3.477-11.641c-3.928-4.626-5.971-11.021-8.053-16.925c-0.516-1.462,1.613-4.36,3.221-5.851
		c0.789-0.734,4.238-0.268,4.613,0.53c1.043,2.232,2.379,6.18,1.35,7.216c-4.977,5.013,0.246,7.762,1.801,11.296
		c0.348,0.787,1.02,1.433,2.074,2.869c5.158-13.815,6.047-30.099,25.264-31.887c-1.051-3.67-0.131-7.78-5.051-9.505
		c-1.059-0.371-2-3.281-1.664-4.71c0.25-1.069,2.795-2.438,4.035-2.201c1.26,0.239,2.783,2.142,3.127,3.571
		c1.002,4.186,1.475,8.499,2.164,12.826c6.666,0,12.67,0,19.361,0c0.744-4.138,1.279-8.438,2.383-12.589
		c0.412-1.546,1.949-3.463,3.352-3.855c1.057-0.296,3.461,1.307,3.896,2.546c0.412,1.175-0.656,4.061-1.59,4.318
		c-5.17,1.426-4.176,5.86-5.494,9.556c17.934,1.51,20.191,16.188,24.996,30.564c3.057-5.028,5.363-8.821,7.867-12.942
		c-5.674-2.313-4.031-6.056-2.512-8.919c0.592-1.112,4.262-1.708,5.781-0.979c3.346,1.604,3.672,4.641,2.127,8.139
		c-2.984,6.752-4.75,14.175-11.658,18.521c-0.652,0.41-0.352,2.512-0.311,3.823c0.193,6.357,0.998,12.75,0.563,19.06
		C89.029,90.817,83.752,98.069,73.135,100.768z M31.561,49.207c0.146,1.411,0.191,2.842,0.455,4.231
		c1.609,8.46,6.293,11.724,14.764,10.804c4.393-0.478,8.879-0.114,13.264-0.624c2.029-0.235,4.523-1.145,5.771-2.621
		c5.352-6.335,5.414-15.923,0.598-22.796c-4.813-6.867-13.65-9.8-21.711-7.202C36.986,33.486,31.596,40.961,31.561,49.207z
		 M20.645,70.779c2.043,13.715,18.846,27.265,32.09,26.261c12.875-0.977,28.598-15.272,28.758-26.261
		C61.227,70.779,40.965,70.779,20.645,70.779z"/>
	<path fill-rule="evenodd" clip-rule="evenodd" fill="#F8F8F6" d="M31.566,49.205c0.029-8.244,5.42-15.719,13.135-18.206
		c8.061-2.598,16.898,0.335,21.711,7.202c4.816,6.873,4.754,16.461-0.598,22.796c-1.248,1.477-3.742,2.386-5.771,2.621
		c-4.385,0.51-8.871,0.146-13.264,0.624c-8.471,0.92-13.154-2.344-14.764-10.804C31.752,52.049,31.707,50.618,31.566,49.205z
		 M51.049,43.096c0.139-1.852,0.277-3.703,0.416-5.548c-6.666-0.057-10.688,2.826-12.328,8.709
		c-1.422,5.104,0.713,10.448,5.32,13.314c4.553,2.832,10.875,2.114,14.742-1.67c4.113-4.026,4.617-9.141,1.41-15.068
		c-1.572,0.942-3.15,1.889-4.73,2.835C54.27,44.811,52.658,43.953,51.049,43.096z"/>
	<path fill-rule="evenodd" clip-rule="evenodd" fill="#22955B" d="M20.645,70.779c20.32,0,40.582,0,60.848,0
		c-0.16,10.988-15.883,25.284-28.758,26.261C39.49,98.044,22.688,84.494,20.645,70.779z M41.451,91.864
		c7.389,3.59,14.576,3.462,21.525-1.152c7.941-3.529,11.992-10.404,16.074-18.032c-2.633,0-4.559,0-6.482,0
		c-3.758,0.004-7.514,0.007-11.271,0.01c-12.381,0-24.762,0-38.02,0C27.906,81.109,32.555,88.431,41.451,91.864z"/>
	<path fill-rule="evenodd" clip-rule="evenodd" fill="#D20B56" d="M55.879,45.668c1.58-0.946,3.158-1.893,4.73-2.835
		c3.207,5.928,2.703,11.042-1.41,15.068c-3.867,3.784-10.189,4.502-14.742,1.67c-4.607-2.866-6.742-8.21-5.32-13.314
		c1.641-5.883,5.662-8.766,12.328-8.709c-0.139,1.845-0.277,3.696-0.416,5.546c-3.541,0.338-6.535,1.858-6.068,5.734
		c0.264,2.189,2.051,5.257,3.869,5.9c1.82,0.645,5.328-0.598,6.621-2.202C56.643,51.073,55.822,48.019,55.879,45.668z"/>
	<path fill-rule="evenodd" clip-rule="evenodd" fill="#060103" d="M55.879,45.668c-0.057,2.351,0.764,5.405-0.408,6.858
		c-1.293,1.604-4.801,2.847-6.621,2.202c-1.818-0.644-3.605-3.711-3.869-5.9c-0.467-3.876,2.527-5.396,6.068-5.734
		C52.658,43.953,54.27,44.811,55.879,45.668z"/>
	<path fill-rule="evenodd" clip-rule="evenodd" fill="#A00F59" d="M72.568,72.68c1.924,0,3.85,0,6.482,0
		c-4.082,7.628-8.133,14.503-16.074,18.032c-7.268-1.335-14.543-2.835-21.525,1.152c-8.896-3.434-13.545-10.755-18.174-19.175
		c13.258,0,25.639,0,38.02,0c-0.119,0.879-0.188,1.767-0.361,2.634c-0.904,4.462,1.158,5.826,5.416,6.22
		c4.281,0.397,5.965-1.129,6.035-5.142C72.408,75.159,72.506,73.92,72.568,72.68z"/>
	<path fill-rule="evenodd" clip-rule="evenodd" fill="#F8F8F6" d="M72.568,72.68c-0.063,1.24-0.16,2.479-0.182,3.722
		c-0.07,4.013-1.754,5.539-6.035,5.142c-4.258-0.394-6.32-1.758-5.416-6.22c0.174-0.867,0.242-1.755,0.361-2.634
		C65.055,72.687,68.811,72.684,72.568,72.68z"/>
	<path fill-rule="evenodd" clip-rule="evenodd" fill="#DA1A6D" d="M41.451,91.864c6.982-3.987,14.258-2.487,21.525-1.152
		C56.027,95.326,48.84,95.454,41.451,91.864z"/>
</g>
</svg>
