<?xml version="1.0" encoding="utf-8"?>
<!-- Generator: Adobe Illustrator 16.0.0, SVG Export Plug-In . SVG Version: 6.00 Build 0)  -->
<!DOCTYPE svg PUBLIC "-//W3C//DTD SVG 1.1//EN" "http://www.w3.org/Graphics/SVG/1.1/DTD/svg11.dtd">
<svg version="1.1" id="Layer_1" xmlns="http://www.w3.org/2000/svg" xmlns:xlink="http://www.w3.org/1999/xlink" x="0px" y="0px"
	 width="103px" height="120.653px" viewBox="0 0 103 120.653" enable-background="new 0 0 103 120.653" xml:space="preserve">
<g>
	<path fill-rule="evenodd" clip-rule="evenodd" fill="#d2a758" d="M89.238,85.219c-3.873,9.654-6.114,11.846-16.045,15.656
		c-0.604,4.668-1.21,9.361-1.818,14.051c1.715,1.312,3.432,2.628,5.147,3.946c-0.189,0.564-0.38,1.13-0.569,1.694
		c-3.574-0.406-7.148-0.813-10.522-1.196c1.36-6.38,2.491-11.688,3.734-17.521c-12.335,0-23.794,0-36.452,0
		c1.021,5.49,2.026,10.912,3.239,17.447c-3.043,0.406-6.608,0.881-10.176,1.356c-0.223-0.574-0.445-1.148-0.667-1.722
		c1.635-1.319,3.271-2.638,4.988-4.022c-0.516-4.399-1.051-8.954-1.654-14.099c-11.871-2.725-16.279-11.84-17.369-23.482
		c-0.565,0.203-1.131,0.404-1.695,0.607c0.638,3.291,1.627,6.566,1.799,9.883c0.133,2.551-0.463,5.275-1.415,7.652
		c-0.237,0.592-4.292,0.65-4.544,0.066c-1.02-2.354-1.527-5.039-1.657-7.629c-0.101-1.992,0.834-4.014,0.986-6.045
		c0.419-5.598,1.481-10.857,5.528-15.182c1.095-1.172,1.607-3.004,2.076-4.623c2.37-8.173,4.229-16.519,7.052-24.528
		c3.015-8.558,9.166-13.801,19.183-14.108c-0.931-3.81,0.046-8.042-5.117-9.795c-1.045-0.354-1.932-3.344-1.598-4.826
		c0.223-0.987,2.898-2.209,4.189-1.942c1.245,0.258,2.672,2.146,3.054,3.575c0.938,3.505,1.109,7.218,2.054,10.721
		c0.278,1.034,2.075,2.292,3.23,2.349c5.137,0.255,10.293,0.111,16.134,0.111c0.774-4.548,1.327-9.03,2.402-13.382
		c0.345-1.393,1.958-3.236,3.206-3.422c1.258-0.188,3.549,1.152,3.979,2.334c0.436,1.201-0.574,4.189-1.423,4.39
		c-5.361,1.263-4.131,5.834-5.679,9.672c13.438,0.776,18.771,9.713,21.918,20.75c1.554,5.45,2.66,11.03,4.278,16.459
		c0.774,2.598,2.374,4.938,3.412,7.471c1.524,3.719,3.115,7.436,4.237,11.283c0.962,3.301,1.66,6.768,1.789,10.186
		c0.076,2.043-0.8,4.391-1.981,6.09c-0.544,0.781-3.523,1.004-4.21,0.307c-1.324-1.342-2.142-3.451-2.512-5.371
		c-0.232-1.205,0.732-2.643,1.158-3.975c0.355-2.717,0.714-5.432,1.072-8.146c-0.533-0.023-1.066-0.047-1.602-0.07
		C89.999,80.531,89.619,82.875,89.238,85.219z M58.989,81.537c0.065,0.693,0.104,1.391,0.202,2.08
		c0.576,4.088,2.175,6.199,6.994,5.16c4.785-1.031,5.471-3.539,4.256-7.535c-0.306-1.008-0.607-2.016-0.911-3.023
		c2.171-2.029,4.341-4.057,6.512-6.084c-0.257-0.434-0.513-0.865-0.769-1.299C59.318,82.443,43.383,82.768,27.43,70.797
		C28.051,78.867,45.471,84.529,58.989,81.537z M66.498,49.41c0.116-8.911-6.697-15.896-15.608-16.005
		c-8.626-0.105-15.554,6.638-15.706,15.287c-0.162,9.231,6.285,16.121,15.224,16.265C59.334,65.104,66.382,58.293,66.498,49.41z"/>
	<path fill-rule="evenodd" clip-rule="evenodd" fill="#F8F8F6" d="M66.864,49.41c-0.116,8.884-7.164,15.694-16.091,15.547
		c-8.938-0.145-15.386-7.034-15.224-16.265c0.152-8.649,7.08-15.393,15.706-15.287C60.167,33.513,66.98,40.499,66.864,49.41z
		 M57.041,45.634c-3.357,1.068-5.14-0.319-5.682-3.642c-0.548-0.864-1.2-2.524-1.629-2.47c-4.249,0.554-7.11,3.038-8.171,7.183
		c-1.182,4.619,0.396,8.477,4.422,10.925c4.254,2.588,8.568,2.014,12.136-1.41c3.045-2.923,3.994-6.64,2.11-10.605
		C60.034,45.208,58.144,45.608,57.041,45.634z"/>
	<path fill-rule="evenodd" clip-rule="evenodd" fill="#c0392b" d="M59.355,81.537c-13.519,2.992-30.938-2.67-31.56-10.74
		c15.953,11.971,31.889,11.646,47.844,0.039c0.256,0.434,0.512,0.865,0.769,1.299c-2.171,2.027-4.341,4.055-6.512,6.084
		C66.383,79.324,62.869,80.432,59.355,81.537z"/>
	<path fill-rule="evenodd" clip-rule="evenodd" fill="#F6F7F3" d="M59.355,81.537c3.514-1.105,7.027-2.213,10.541-3.318
		c0.304,1.008,0.605,2.016,0.911,3.023c1.215,3.996,0.529,6.504-4.256,7.535c-4.819,1.039-6.418-1.072-6.994-5.16
		C59.46,82.928,59.421,82.23,59.355,81.537z"/>
	<path fill-rule="evenodd" clip-rule="evenodd" fill="#060103" d="M51.359,41.993c0.542,3.322,2.324,4.71,5.68,3.642
		c2.198,5.593,0.382,9.69-4.643,10.473c-4.068,0.632-7.623-1.813-8.218-5.652C43.468,45.857,45.75,43.168,51.359,41.993z"/>
	<path fill-rule="evenodd" clip-rule="evenodd" fill="#D01159" d="M51.359,41.993c-5.609,1.176-7.892,3.864-7.181,8.462
		c0.595,3.84,4.149,6.284,8.218,5.652c5.024-0.782,6.841-4.88,4.643-10.473c1.104-0.026,2.995-0.426,3.188-0.02
		c1.884,3.966,0.935,7.683-2.11,10.605c-3.567,3.424-7.882,3.998-12.136,1.41c-4.025-2.448-5.604-6.306-4.422-10.925
		c1.061-4.145,3.922-6.629,8.171-7.183C50.159,39.468,50.812,41.128,51.359,41.993z"/>
</g>
</svg>
