<?xml version="1.0" encoding="utf-8"?>
<!-- Generator: Adobe Illustrator 16.0.0, SVG Export Plug-In . SVG Version: 6.00 Build 0)  -->
<!DOCTYPE svg PUBLIC "-//W3C//DTD SVG 1.1//EN" "http://www.w3.org/Graphics/SVG/1.1/DTD/svg11.dtd">
<svg version="1.1" id="OBJECTS" xmlns="http://www.w3.org/2000/svg" xmlns:xlink="http://www.w3.org/1999/xlink"
                x="0px" y="0px" width="200px" height="202.5px" viewBox="0 0 200 202.5" enable-background="new 0 0 200 202.5"
                xml:space="preserve">
                <g>
                    <g>
                        <path fill="#c0392b" d="M34.166,76.887c0,0-1.463-7.86-3.401-11.625c-1.938-3.764-6.275,0.733-5.725,3.72
                       c0,0-2.718-4.761-5.405-6.459C10.09,56.485-1.057,70.501,9.959,80.2c8.579,7.11,12.455,9.883,12.455,9.883L34.166,76.887z" />
                    </g>
                    <path opacity="0.5" fill="#c0392b" d="M30.846,80.615c0.404-2.923,0.717-5.234,0.717-5.234s-10.331,8.043-11.904,7.162
                   C11.714,78.832,7.136,70.619,5.861,68.058C4.7,71.758,5.555,76.322,9.959,80.2c8.579,7.11,12.455,9.883,12.455,9.883L30.846,80.615
                   z" />
                    <g>
                        <path fill="#c0392b" d="M126.399,131.489c0,0-0.767,8.389-0.132,12.575c0.633,4.186,6.18,1.311,6.612-1.694
                       c0,0,0.627,4.848,2.63,7.315c7.115,8.77,22.157-0.949,14.817-13.659c-5.858-9.48-8.628-13.381-8.628-13.381L126.399,131.489z" />
                    </g>
                    <path opacity="0.5" fill="#c0392b" d="M126.268,144.064c0.556,3.677,4.9,1.904,6.243-0.616c-0.888,0.72-2.3,0.485-3.122-1.041
                   c-0.822-1.528,1.822-10.797,1.822-10.797c-0.111-0.595-2.155-0.629-4.117-0.522l-0.694,0.401
                   C126.399,131.489,125.633,139.878,126.268,144.064z" />
                    <g>
                        <path fill="#c0392b" d="M42.857,38.297c0,0-7.5-3.098-10.979,1.309c-3.48,4.406-3.821,28.986,1.462,30.97
                       c3.62,1.149,8.696,0.221,8.696,0.221L42.857,38.297z" />
                    </g>
                    <g>
                        <path fill="#c0392b" d="M127.571,40.439c0,0,7.647-2.715,10.899,1.862c3.253,4.577,2.351,29.142-3.025,30.856
                       c-3.674,0.965-8.696-0.22-8.696-0.22L127.571,40.439z" />
                    </g>
                    <path opacity="0.5" fill="#c0392b" d="M133.494,66.358c2.575-9.498-0.335-21.968-1.644-26.705c-2.34,0.099-4.279,0.786-4.279,0.786
                   l-0.822,32.498c0,0,5.022,1.185,8.696,0.22c1.286-0.41,2.313-2.136,3.092-4.575C135.815,68.563,133.119,68.041,133.494,66.358z" />
                    <path opacity="0.5" fill="#c0392b" d="M35.632,63.885c-2.092-9.616,1.444-21.923,2.991-26.589c2.332,0.218,4.234,1.001,4.234,1.001
                   l-0.822,32.5c0,0-5.076,0.929-8.695-0.221c-1.264-0.475-2.203-2.251-2.857-4.726C33.203,65.97,35.921,65.583,35.632,63.885z" />
                    <g>
                        <path fill="#E5E6E7" d="M83.433,51.971L83.433,51.971c-24.375-0.616-44.633,18.644-45.25,43.018l-1.009,39.922
                       c-0.248,9.793,7.49,17.932,17.282,18.18l52.806,1.335c9.792,0.247,17.932-7.49,18.179-17.282l1.01-39.923
                       C127.066,72.846,107.807,52.587,83.433,51.971z" />
                        <g>
                            <path fill="#E24530" d="M126.425,98.211c-16.282,7.1-26.976,22.989-27.425,40.746l-0.387,15.249l8.648,0.219
                           c9.792,0.247,17.932-7.49,18.179-17.282L126.425,98.211L126.425,98.211z" />
                            <path fill="#E24530" d="M38.158,95.979L38.158,95.979l-0.984,38.931c-0.248,9.793,7.49,17.932,17.282,18.18l8.648,0.219
                           l0.385-15.25C63.938,120.302,54.06,103.893,38.158,95.979z" />
                        </g>
                        <path opacity="0.5" fill="#E5E6E7" d="M113.956,65.328c3.73,6.678,5.78,14.408,5.573,22.608l-1.01,39.923
                       c-0.248,9.792-8.387,17.529-18.179,17.282l-52.806-1.336c-3.538-0.089-6.798-1.219-9.519-3.074
                       c2.228,7.003,8.68,12.162,16.44,12.358l52.806,1.335c9.792,0.247,17.932-7.49,18.179-17.282l1.01-39.923
                       C126.763,84.852,121.95,73.549,113.956,65.328z" />
                    </g>
                    <g>
                        <path fill="#FFFFFF" d="M126.399,131.489l15.3-8.844c-10.716-18.539-22.974-25.589-32.262-28.09
                       c-0.031-0.733-0.051-1.142-0.051-1.142s-4.564-8.95-25.3-9.476c-19.693-0.497-25.2,7.328-25.703,8.115
                       c-6.585-2.526-15.105-7.053-24.218-15.167L22.415,90.083c12.954,11.535,25.349,17.237,34.374,20.06
                       c-0.532,6.927-1.032,14.526-1.176,20.221c-0.129,5.108,0.741,9.81,2.942,13.719c-4.165,6.91-10.108,17.991-13.426,29.522
                       l19.076,5.479c2.53-8.659,7.612-18.082,11.525-24.428c2.012,0.329,4.183,0.541,6.555,0.602c2.651,0.066,5.068-0.063,7.29-0.353
                       c3.595,6.536,8.232,16.26,10.332,25.081l19.332-4.509c-2.824-12.086-8.479-23.826-12.304-30.874
                       c2.112-3.664,3.124-8.051,3.244-12.859c0.129-5.078,0.052-11.686-0.096-17.982C114.893,116.457,120.702,121.633,126.399,131.489z" />
                    </g>
                    <g>
                        <path fill="#FFFFFF" d="M131.839,49.271C127.237,9.233,85.959,9.895,85.959,9.895S44.767,7.148,38.148,46.903
                       c-6.619,39.755,29.106,47.796,45.656,48.215C100.354,95.536,136.439,89.311,131.839,49.271z" />
                    </g>
                    <path fill="#E5E6E7" d="M131.839,49.271c-1.157-10.065-4.634-17.555-9.188-23.133c3.276,5.105,5.714,11.505,6.644,19.585
                   c4.602,40.039-31.484,46.265-48.035,45.846c-10.473-0.265-28.613-3.595-38.854-16.069c9.483,15.416,29.993,19.329,41.399,19.617
                   C100.354,95.536,136.44,89.311,131.839,49.271z" />
                    <g>
                        <g>
                            <path fill="#c0392b" d="M82.571,143.074c-17.796-0.449-28.022-5.547-28.448-5.764c-2.175-1.105-3.042-3.765-1.938-5.94
                           c1.103-2.171,3.754-3.038,5.927-1.944c0.188,0.094,9.14,4.423,24.682,4.815c15.566,0.395,24.283-3.503,24.37-3.542
                           c2.211-1.008,4.834-0.049,5.855,2.159c1.021,2.206,0.078,4.817-2.123,5.851C110.477,138.905,100.41,143.525,82.571,143.074z" />
                        </g>
                    </g>
                    <path opacity="0.5" fill="#c0392b" d="M110.958,136.264c-0.42,0.196-10.486,4.816-28.325,4.365
                   c-17.796-0.449-28.021-5.548-28.448-5.764c-1.173-0.596-1.949-1.649-2.256-2.829c-0.647,2.026,0.237,4.279,2.195,5.274
                   c0.427,0.216,10.652,5.314,28.448,5.764c17.839,0.451,27.905-4.169,28.325-4.365c1.961-0.92,2.913-3.091,2.379-5.114
                   C112.919,134.729,112.121,135.719,110.958,136.264z" />
                    <g>
                        <g>
                            <path fill="#c0392b" d="M83.617,101.206c-15.452-0.391-26.049-6.143-26.708-6.508c-1.422-0.791-1.934-2.584-1.143-4.006
                           c0.791-1.42,2.583-1.931,4.002-1.145c0.327,0.178,22.393,11.984,48.49,1.146c1.5-0.624,3.225,0.088,3.85,1.59
                           c0.623,1.502-0.088,3.227-1.591,3.85C100.731,100.198,91.537,101.406,83.617,101.206z" />
                        </g>
                    </g>
                    <path opacity="0.5" fill="#c0392b" d="M57.884,92.188c0.351,0.179,24.098,12.028,52.136,1.239c0.767-0.296,1.587-0.28,2.311-0.03
                   c-0.002-0.371-0.071-0.747-0.223-1.112c-0.625-1.502-2.35-2.214-3.85-1.59c-26.097,10.838-48.163-0.969-48.49-1.146
                   c-1.419-0.786-3.211-0.276-4.002,1.145c-0.223,0.401-0.332,0.831-0.356,1.261C56.206,91.724,57.097,91.781,57.884,92.188z" />
                    <g>
                        <g>
                            <path fill="#D7ECF9" d="M92.987,103.164l-6.032,0.48c-2.261,0.181-4.536,0.127-6.786-0.159l-6.456-0.82
                           c-1.609-0.205-3.043,1.027-3.084,2.648l-0.245,9.696c-0.036,1.403,0.996,2.606,2.389,2.785l6.791,0.876
                           c2.25,0.289,4.522,0.347,6.784,0.171l6.825-0.53c1.4-0.108,2.491-1.259,2.527-2.663l0.245-9.684
                           C95.984,104.339,94.609,103.035,92.987,103.164z" />
                        </g>
                        <g>
                            <circle fill="#F05238" cx="74.95" cy="107.719" r="2.181" />
                        </g>
                        <g>
                            <circle fill="#F05238" cx="74.8" cy="113.688" r="2.181" />
                        </g>
                        <g>
                            <g>
                                <path fill="#c0392b" d="M85.224,110.039c-3.051-0.076-5.223-0.478-5.375-0.506c-0.709-0.134-1.175-0.816-1.042-1.525
                               c0.133-0.71,0.815-1.17,1.525-1.043c0.06,0.011,6.015,1.1,11.912-0.084c0.704-0.141,1.396,0.317,1.538,1.025
                               c0.143,0.708-0.316,1.396-1.023,1.538C90.074,109.983,87.421,110.095,85.224,110.039z" />
                            </g>
                        </g>
                        <g>
                            <g>
                                <path fill="#c0392b" d="M85.083,115.633c-3.051-0.076-5.223-0.478-5.375-0.506c-0.709-0.133-1.175-0.816-1.042-1.525
                               s0.81-1.175,1.526-1.043c0.059,0.012,6.015,1.102,11.91-0.083c0.71-0.143,1.398,0.316,1.54,1.024
                               c0.143,0.707-0.317,1.396-1.024,1.538C89.933,115.577,87.28,115.688,85.083,115.633z" />
                            </g>
                        </g>
                    </g>
                    <path fill="#c0392b" d="M99.154,124.737l-1.896-2.661c-0.363-0.511-0.972-0.788-1.596-0.729l-3.253,0.311
                   c-0.625,0.061-1.169,0.448-1.429,1.02l-1.357,2.972c-0.261,0.57-0.196,1.236,0.167,1.747l1.896,2.661
                   c0.363,0.511,0.973,0.789,1.596,0.729l3.254-0.311c0.623-0.061,1.168-0.448,1.429-1.019l1.356-2.973
                   C99.581,125.914,99.518,125.248,99.154,124.737z" />
                    <path fill="#c0392b" d="M66.978,123.924l2.028-2.562c0.389-0.492,1.011-0.739,1.631-0.647l3.233,0.476
                   c0.62,0.091,1.145,0.506,1.376,1.088l1.205,3.038c0.231,0.583,0.134,1.244-0.255,1.736l-2.028,2.562
                   c-0.389,0.492-1.011,0.738-1.631,0.648l-3.233-0.476c-0.62-0.092-1.144-0.507-1.375-1.09l-1.205-3.037
                   C66.491,125.077,66.588,124.416,66.978,123.924z" />
                    <g>
                        <g>
                            <path fill="#053849" d="M123.99,54.802c-3.954-29.139-38.439-28.77-38.439-28.77s-34.422-2.111-39.843,26.792
                           c-5.422,28.9,24.448,34.848,38.276,35.198C97.812,88.371,127.943,83.94,123.99,54.802z" />
                        </g>
                        <path opacity="0.5" fill="#053849" d="M123.99,54.802c-1.049-7.722-4.25-13.356-8.376-17.49c1.857,3.224,3.219,7.053,3.836,11.602
                       c3.954,29.138-26.178,33.568-40.006,33.219c-8.429-0.213-22.806-2.518-31.53-10.821c7.129,13.165,25.916,16.453,36.069,16.71
                       C97.812,88.371,127.943,83.94,123.99,54.802z" />
                        <g>
                            <path opacity="0.5" fill="#FFFFFF" d="M85.551,26.032c0,0-1.792-0.106-4.605,0.065c-4.223,10.708-13.9,30.233-32.649,45.923
                           c2.593,4.404,6.517,7.658,10.957,10.033c22.782-19.666,33.209-43.917,36.96-54.701C90.17,25.989,85.551,26.032,85.551,26.032z" />
                            <path opacity="0.5" fill="#FFFFFF" d="M106.964,31.131c-3.936,10.853-15.186,36.01-39.657,54.21
                           c3.19,0.978,6.393,1.639,9.364,2.059c21.762-18.053,32.355-40.566,36.679-52.159C111.333,33.592,109.166,32.243,106.964,31.131z" />
                        </g>
                    </g>
                    <g>
                        <path fill="#053849" d="M103.299,148.59c-3.83-0.098-7.594-2.699-9.721-5.754c-3.356-4.821-3.795-11.761-1.118-17.68
                       c0.502-1.112,1.813-1.606,2.923-1.102c1.111,0.502,1.605,1.812,1.103,2.923c-2.049,4.529-1.768,9.764,0.718,13.334
                       c1.643,2.36,4.944,4.447,7.405,3.707c1.064-0.319,1.63-1.09,1.916-1.681c0.518-1.067,0.562-2.433,0.114-3.566
                       c-0.305-0.774-0.93-1.588-1.592-2.45c-1.304-1.698-2.927-3.811-2.705-6.679c0.145-1.877,1.043-3.563,2.53-4.746
                       c1.588-1.262,3.666-1.811,5.701-1.5c1.208,0.182,2.037,1.308,1.855,2.514c-0.183,1.207-1.305,2.04-2.515,1.854
                       c-0.817-0.117-1.672,0.098-2.291,0.591c-0.365,0.29-0.813,0.808-0.877,1.628c-0.085,1.101,0.625,2.112,1.804,3.647
                       c0.818,1.066,1.666,2.169,2.198,3.52c0.9,2.28,0.808,4.941-0.249,7.117c-0.95,1.96-2.591,3.375-4.62,3.983
                       C105.027,148.506,104.162,148.611,103.299,148.59z" />
                    </g>
                    <g>
                        <path fill="#053849" d="M61.633,147.536c-0.863-0.021-1.723-0.171-2.561-0.47c-1.996-0.711-3.563-2.206-4.413-4.213
                       c-0.943-2.226-0.902-4.888,0.112-7.119c0.6-1.321,1.501-2.381,2.374-3.404c1.255-1.474,2.014-2.447,1.985-3.551
                       c-0.021-0.823-0.443-1.363-0.792-1.671c-0.595-0.523-1.434-0.781-2.259-0.706c-1.197,0.126-2.296-0.764-2.417-1.978
                       c-0.121-1.214,0.765-2.297,1.979-2.418c2.048-0.205,4.099,0.447,5.618,1.787c1.426,1.256,2.238,2.986,2.288,4.868
                       c0.076,2.875-1.65,4.903-3.038,6.532c-0.705,0.827-1.371,1.61-1.715,2.367c-0.504,1.109-0.529,2.477-0.066,3.568
                       c0.257,0.604,0.782,1.401,1.829,1.775c2.424,0.862,5.824-1.056,7.583-3.328c2.663-3.439,3.209-8.653,1.392-13.281
                       c-0.446-1.136,0.113-2.419,1.248-2.863c1.133-0.446,2.418,0.111,2.864,1.248c2.374,6.048,1.585,12.957-2.01,17.6
                       C69.353,145.226,65.464,147.633,61.633,147.536z" />
                    </g>
                    <path fill="#E5E6E7" d="M130.495,125.721c0,0-8.471-15.746-20.932-19.907l0.52,7.947c4.81,2.696,10.619,7.872,16.316,17.729
                   l2.551-1.475L130.495,125.721z" />
                    <g>
                        <g>
                            <path fill="#FC7765" d="M126.328,134.435c-0.992-0.024-1.946-0.551-2.479-1.472c-0.813-1.408-0.332-3.209,1.076-4.023l15.3-8.843
                           c1.41-0.816,3.211-0.333,4.023,1.076c0.813,1.408,0.332,3.209-1.076,4.023l-15.3,8.843
                           C127.387,134.32,126.852,134.447,126.328,134.435z" />
                        </g>
                    </g>
                    <path opacity="0.5" fill="#c0392b" d="M151.505,146.75c-12.41,8.608-18.625-4.38-18.625-4.38s0.627,4.848,2.63,7.315
                   C140.36,155.664,148.889,153.047,151.505,146.75z" />
                    <path fill="#c0392b" d="M133.102,110.403c-5.171-6.01-10.415-9.957-15.301-12.527c-0.655,2.538-1.394,7.759,2.403,10.987
                   C124.289,112.338,129.623,112.793,133.102,110.403z" />
                    <path fill="#c0392b" d="M31.886,97.617c6.373,4.5,12.417,7.672,17.766,9.912c0.251-1.931,0.699-8.491-4.289-11.346
                   C40.423,93.357,34.731,94.132,31.886,97.617z" />
                    <path fill="#E5E6E7" d="M58.113,103.179c0,0-19.39-7.568-29.89-17.003c-0.448-0.402-0.904-0.754-1.364-1.084l-4.444,4.991
                   c12.954,11.535,25.349,17.237,34.374,20.06C56.788,110.143,56.792,107.809,58.113,103.179z" />
                    <g>
                        <g>
                            <path fill="#FC7765" d="M22.339,93.027c-0.672-0.017-1.341-0.263-1.883-0.744c-1.214-1.082-1.322-2.944-0.241-4.159
                           l11.752-13.197c1.082-1.213,2.944-1.321,4.158-0.24c1.215,1.081,1.322,2.943,0.241,4.158L24.615,92.042
                           C24.015,92.715,23.175,93.048,22.339,93.027z" />
                        </g>
                    </g>
                    <path fill="#E5E6E7" d="M100.196,168.345c-1.161-1.17-8.396-15.313-8.649-16.575c-0.253-1.261-1.4-0.964-3.321-0.083
                   c-1.922,0.88-10.485,1.465-12.294-0.311c-1.81-1.776-2.202-1.081-2.497-0.708c-0.294,0.372-10.131,17.789-10.131,17.789
                   s1.799,0.479,4.447,1.186c2.489-5.585,5.47-10.92,7.979-14.987c2.012,0.329,4.183,0.541,6.555,0.602
                   c2.651,0.066,5.068-0.063,7.29-0.353c2.433,4.425,5.329,10.315,7.607,16.394C99.166,170.011,100.652,168.805,100.196,168.345z" />
                    <g>
                        <path fill="#c0392b" d="M49.184,161.403c-0.463,1.138-3.414,9.316-3.414,9.316s-8.488-8.861-18.394-6.462
                       c-9.905,2.398-11.504,14.605-11.504,14.605l42.779,17.508l9.687-27.992L49.184,161.403z" />
                    </g>
                    <g>
                        <path fill="#c0392b" d="M115.819,163.084c0.403,1.161,2.93,9.48,2.93,9.48s8.933-8.411,18.702-5.505
                       c9.769,2.907,10.735,15.181,10.735,15.181l-43.627,15.277l-8.228-28.455L115.819,163.084z" />
                    </g>
                    <g>
                        <path fill="#053849" d="M104.56,197.518l43.627-15.277c0,0-0.196-2.422-1.263-5.367l-43.841,15.537L104.56,197.518z" />
                    </g>
                    <g>
                        <path fill="#053849" d="M15.872,178.863l42.779,17.508l1.86-5.375l-42.576-18.585C16.277,175.782,15.872,178.863,15.872,178.863z" />
                    </g>
                    <g>
                        <path fill="#FC7765" d="M96.257,172.008c-1.232-0.032-2.359-0.84-2.741-2.082c-0.477-1.555,0.397-3.202,1.951-3.679l19.489-5.979
                       c1.554-0.477,3.203,0.397,3.68,1.952s-0.397,3.202-1.952,3.679l-19.488,5.979C96.883,171.975,96.565,172.016,96.257,172.008z" />
                    </g>
                    <path opacity="0.5" fill="#FC7765" d="M118.139,164.093l-19.489,5.979c-0.312,0.097-0.629,0.138-0.938,0.13
                   c-1.231-0.03-2.359-0.839-2.74-2.081c-0.172-0.561-0.163-1.133-0.015-1.658c-1.227,0.647-1.861,2.09-1.44,3.464
                   c0.382,1.242,1.509,2.05,2.741,2.082c0.309,0.008,0.626-0.033,0.938-0.13l19.488-5.979c0.994-0.304,1.704-1.089,1.967-2.021
                   C118.488,163.963,118.319,164.038,118.139,164.093z" />
                    <g>
                        <path fill="#FC7765" d="M68.264,171.324c-0.311-0.007-0.626-0.065-0.934-0.178l-19.154-6.977
                       c-1.529-0.557-2.316-2.246-1.759-3.774c0.556-1.528,2.247-2.315,3.775-1.76l19.154,6.977c1.529,0.556,2.316,2.247,1.759,3.775
                       C70.661,170.607,69.494,171.355,68.264,171.324z" />
                    </g>
                    <path opacity="0.5" fill="#FC7765" d="M70.275,166.17c0.113,0.523,0.092,1.082-0.105,1.623c-0.444,1.221-1.611,1.969-2.842,1.938
                   c-0.311-0.008-0.625-0.065-0.934-0.178l-19.154-6.977c-0.354-0.129-0.663-0.323-0.929-0.558c0.206,0.957,0.876,1.792,1.865,2.151
                   l19.154,6.977c0.308,0.112,0.623,0.171,0.934,0.178c1.23,0.031,2.397-0.717,2.841-1.937
                   C71.533,168.213,71.162,166.948,70.275,166.17z" />
                    <path fill="#053849" d="M115.46,188.892l-3.508-5.207c-1.731-2.569-4.811-3.842-7.851-3.234l-4.233,0.843l0.411,1.419l4.11-0.816
                   c2.454-0.487,4.942,0.535,6.341,2.611l3.485,5.17l2.183,3.694l1.416-0.495L115.46,188.892z" />
                    <path fill="#053849" d="M60.693,179.353c-3.002-0.758-6.145,0.355-8.002,2.833l-3.793,5.06l-2.672,4.041l1.389,0.568l2.485-3.762
                   l3.769-5.023c1.5-2.001,4.036-2.9,6.464-2.288l3.415,0.86l0.483-1.396L60.693,179.353z" />
                </g>
            </svg>
