<?xml version="1.0" encoding="utf-8"?>
<!-- Generator: Adobe Illustrator 16.0.0, SVG Export Plug-In . SVG Version: 6.00 Build 0)  -->
<!DOCTYPE svg PUBLIC "-//W3C//DTD SVG 1.1//EN" "http://www.w3.org/Graphics/SVG/1.1/DTD/svg11.dtd">
<svg version="1.1" id="OBJECTS" xmlns="http://www.w3.org/2000/svg" xmlns:xlink="http://www.w3.org/1999/xlink" x="0px" y="0px"
	 width="460.25px" height="309.522px" viewBox="0 0 460.25 309.522" enable-background="new 0 0 460.25 309.522"
	 xml:space="preserve">
<g>
	<path opacity="0.3" fill="#231F20" d="M460.25,301.588c0,0-39.372,7.935-87.94,7.935c-48.568,0-179.724-7.935-179.724-7.935
		s131.156-7.936,179.724-7.936C420.878,293.652,460.25,301.588,460.25,301.588z"/>
	<path fill="#898796" d="M412.255,221.54h-79.891c-6.627,0-12-5.372-12-12v-86.716c0-6.627,5.373-12,12-12h79.891
		c6.628,0,12,5.373,12,12v86.716C424.255,216.168,418.883,221.54,412.255,221.54z"/>
	<path opacity="0.1" fill="#231F20" d="M404.977,221.558h-65.333c-7.18,0-13-5.82-13-13v-66.856h91.333v66.856
		C417.977,215.737,412.156,221.558,404.977,221.558z"/>
	<g>
		<g>
			<path fill="#EFF7FA" d="M342.162,156.026c-0.083,0.78-0.198,1.563-0.328,2.344c-0.499,2.993-3.451,5.603-5.431,7.792
				c-4.752,5.258-10.172,9.96-16.262,13.61c-13.701,8.214-29.726,9.638-44.834,4.596c-5.468-1.825-3.729-2.985-3.428-9.182
				c0.129-2.656,1.526-5.024,3.818-6.382c2.69-1.593,5.99-1.531,9.001-1.282c6.163,0.509,12.456,0.309,18.288-1.946
				c5.052-1.954,8.938-6.179,12.716-9.892c1.958-1.925,3.626-4.129,5.379-6.234c1.694-2.036,3.645-4.83,5.857-6.308
				c4.075-2.721,10.699-0.169,13.288,3.436C342.291,149.45,342.513,152.72,342.162,156.026z"/>
		</g>
		<path fill="none" stroke="#D9D7E2" stroke-miterlimit="10" d="M281.189,178.563c0,0,9.973,2.675,21.274,0.327
			c7.979-1.658,20.682-10.039,20.682-10.039"/>
		<path opacity="0.1" fill="#231F20" d="M340.587,164.819c0.315-8.462-0.515-20.516-7.609-21.623
			c-11.59,6.316-19.145,17.253-30.417,22.538l14.274,15.878c0.008-0.014,5.224-2.801,6.308-3.918
			c3.772-3.887,5.675-4.81,9.881-8.029C335.067,168.103,337.826,166.543,340.587,164.819z"/>
		<path fill="#EFF7FA" d="M303.416,159.126l20.717,18.496l16.438-6.071c0,0,12.77-30.736-2.253-31.287
			C323.294,139.713,312.374,141.745,303.416,159.126z"/>
		<path opacity="0.1" fill="#231F20" d="M328.278,140.464l0,35.577l12.174-4.497c0,0,12.77-30.736-2.252-31.287
			C334.674,140.127,331.378,140.145,328.278,140.464z"/>
		<path fill="#EFF7FA" d="M276.553,179.575l1.225-8.432c0.322-2.218-1.215-4.276-3.432-4.599l-8.418-1.459
			c-4.527-0.657-8.769,2.509-9.427,7.036l0,0c-0.658,4.527,2.508,8.77,7.036,9.427l8.418,1.458
			C274.172,183.329,276.23,181.793,276.553,179.575z"/>
		<path fill="#EFF7FA" d="M275.989,170.855c0.236-0.295,0.413-0.646,0.503-1.049c0.246-1.087-0.275-2.206-0.946-3.097
			c-1.86-2.472-3.492-4.306-2.696-7.612c0.62-2.578-1.188-3.754-3.588-3.094c-4.004,1.1-4.459,7.24-2.799,10.302
			c1.171,2.161,3.585,3.524,5.48,5.019C273.181,172.302,275.054,172.021,275.989,170.855z"/>
		<path opacity="0.1" fill="#231F20" d="M275.511,166.753c0.079,0.062,0.142,0.136,0.212,0.205c1.438,0.792,2.313,2.406,2.063,4.126
			l-1.225,8.432c-0.322,2.218-2.381,3.755-4.599,3.433l-4.551-0.661l6.604-17.655L275.511,166.753z"/>
		<path fill="#EFF7FA" d="M275.645,165.349l-3.391,18.802c-0.404,2.239,1.084,4.382,3.323,4.785l0.01,0.002
			c2.239,0.404,4.382-1.084,4.786-3.323l3.391-18.801c0.404-2.239-1.084-4.382-3.323-4.786l-0.01-0.002
			C278.192,161.622,276.049,163.109,275.645,165.349z"/>
		<path fill="#054A8F" d="M322.983,141.407c-3.82,0.993-7.319,2.705-10.562,5.521l7.727,15.302l10.638-5.371L322.983,141.407z"/>
	</g>
	<g>
		<g>
			<path fill="#EFF7FA" d="M408.828,141.384c21.309,10.523,43.587,31.067,37.5,64.255c-1.04,5.67-2.433,4.11-8.61,4.682
				c-2.648,0.244-5.189-0.807-6.854-2.886c-1.955-2.44-2.356-5.716-2.532-8.732c-0.36-6.174-1.44-12.376-4.491-17.834
				c-2.643-4.728-7.372-7.983-11.578-11.203c-6.656-5.096-20.944-10.146-18.085-21.037
				C395.885,142.102,402.566,138.292,408.828,141.384z"/>
		</g>
		<path fill="none" stroke="#D9D7E2" stroke-miterlimit="10" d="M439.755,200.629c0,0,1.25-10.25-2.659-21.109
			c-2.761-7.667-12.841-19.069-12.841-19.069"/>
		<path opacity="0.1" fill="#231F20" d="M404.52,164.819c-0.315-8.462,0.515-20.516,7.609-21.623
			c11.59,6.316,22.99,15.631,29.501,28.371l-17.951,9.343c-0.008-0.014-0.013-0.028-0.021-0.042
			c-2.643-4.728-7.372-7.983-11.578-11.203C410.04,168.103,407.281,166.543,404.52,164.819z"/>
		<path fill="#EFF7FA" d="M442.545,162.289l-21.781,17.23l-16.047-7.038c0,0-10.918-31.441,4.11-31.098
			C423.856,141.727,434.637,144.406,442.545,162.289z"/>
		<path opacity="0.1" fill="#231F20" d="M418.837,142.181l-2.116,35.513l-11.885-5.213c0,0-10.919-31.441,4.11-31.098
			C412.472,141.464,415.761,141.677,418.837,142.181z"/>
		<path fill="#EFF7FA" d="M441.407,205.078l-8.52-0.03c-2.241-0.008-4.064,1.802-4.072,4.043l-0.059,16.635
			c-0.016,4.574,3.713,8.331,8.288,8.347l0,0c4.575,0.017,8.331-3.713,8.347-8.288l0.059-16.635
			C445.458,206.909,443.648,205.086,441.407,205.078z"/>
		<path fill="#EFF7FA" d="M432.847,206.869L432.847,206.869c-1.366-0.795-3.134-0.327-3.93,1.038l-5.205,8.942
			c-0.795,1.366-0.328,3.134,1.038,3.93l0,0c1.366,0.795,3.134,0.328,3.93-1.038l5.205-8.942
			C434.68,209.433,434.213,207.665,432.847,206.869z"/>
		<path opacity="0.1" fill="#231F20" d="M428.857,207.907c0.051-0.087,0.116-0.159,0.174-0.238c0.583-1.534,2.058-2.627,3.796-2.621
			l8.52,0.03c2.241,0.008,4.051,1.831,4.043,4.071l-0.016,4.599l-17.649-3.895L428.857,207.907z"/>
		<path fill="#EFF7FA" d="M427.449,207.972l19.091,0.721c2.274,0.086,4.187-1.688,4.272-3.961l0-0.011
			c0.086-2.273-1.688-4.187-3.961-4.272l-19.091-0.721c-2.273-0.086-4.187,1.688-4.272,3.961l0,0.011
			C423.401,205.973,425.175,207.886,427.449,207.972z"/>
		<path fill="#C64747" d="M424.066,143.437c3.754,1.219,7.145,3.135,10.214,6.14l-8.624,14.815l-10.299-5.995L424.066,143.437z"/>
	</g>
	<g>
		<path fill="#EFF7FA" d="M360.371,278.536c-0.031-0.406-0.074-0.818-0.144-1.242c-1.701-10.261-1.179-20.229,0.061-30.841
			c0.536-4.591,1.234-9.167,2.124-13.703c0.155-0.794,0.33-1.583,0.488-2.376c0.001-0.004,0.001-0.006,0.002-0.01
			c0.32-1.144,0.589-2.292,0.969-3.419c4.936-14.643-17.577-22.973-22.517-8.316c-2.743,8.137-3.97,17.077-4.967,25.574
			c-1.329,11.321-1.732,22.991-0.208,34.333"/>
		<path fill="#898796" d="M336.179,278.536h-12.343c-5.445,0-9.859,4.414-9.859,9.859v9.858h46.398v-17.901
			c0.039-0.574,0.045-1.166,0-1.782v-0.034h-0.004"/>
		<path opacity="0.1" fill="#231F20" d="M349.617,211.202c6.569,1.287,12.456,7.519,9.684,15.743
			c-0.379,1.127-0.649,2.275-0.969,3.419c-0.001,0.004-0.001,0.006-0.002,0.01c-0.158,0.793-0.333,1.582-0.488,2.376
			c-0.89,4.536-1.588,9.112-2.124,13.703c-1.239,10.612-1.761,20.58-0.061,30.841c0.07,0.424,0.113,0.836,0.144,1.242h0.004v0.034
			c0.045,0.616,0.04,1.208,0,1.782v17.901v3.334h4.833v-3.334v-17.901c0.039-0.574,0.045-1.166,0-1.782v-0.034h-0.004
			c-0.031-0.406-0.073-0.818-0.144-1.242c-1.701-10.261-1.179-20.229,0.06-30.841c0.536-4.591,1.235-9.167,2.125-13.703
			c0.155-0.794,0.33-1.583,0.488-2.376c0.001-0.004,0.001-0.006,0.002-0.01c0.32-1.144,0.589-2.292,0.969-3.419
			C367.586,216.705,357.615,209.564,349.617,211.202z"/>
		<path fill="#D9D7E2" d="M359.606,278.536h-22.604c-2.275,0-4.12-1.845-4.12-4.12v-0.01c0-2.275,1.845-4.12,4.12-4.12h22.604
			c2.275,0,4.12,1.845,4.12,4.12v0.01C363.727,276.691,361.882,278.536,359.606,278.536z"/>
		<rect x="313.977" y="298.254" fill="#D9D7E2" width="46.398" height="3.334"/>
		<line fill="none" stroke="#D9D7E2" stroke-miterlimit="10" x1="335.201" y1="263.504" x2="359.145" y2="263.504"/>
		<line fill="none" stroke="#D9D7E2" stroke-miterlimit="10" x1="335.369" y1="256.324" x2="359.145" y2="256.324"/>
	</g>
	<g>
		<path fill="#EFF7FA" d="M384.41,278.536c0.031-0.406,0.074-0.818,0.144-1.242c1.701-10.261,1.179-20.229-0.06-30.841
			c-0.536-4.591-1.235-9.167-2.124-13.703c-0.156-0.794-0.331-1.583-0.488-2.376c-0.001-0.004-0.002-0.006-0.003-0.01
			c-0.32-1.144-0.589-2.292-0.969-3.419c-4.936-14.643,17.577-22.973,22.517-8.316c2.743,8.137,3.97,17.077,4.967,25.574
			c1.329,11.321,1.731,22.991,0.208,34.333"/>
		<path fill="#898796" d="M408.602,278.536h12.343c5.445,0,9.859,4.414,9.859,9.859v9.858h-46.398v-17.901
			c-0.039-0.574-0.045-1.166,0-1.782v-0.034h0.004"/>
		<path opacity="0.1" fill="#231F20" d="M395.164,211.202c-6.569,1.287-12.456,7.519-9.684,15.743
			c0.38,1.127,0.649,2.275,0.969,3.419c0.001,0.004,0.001,0.006,0.002,0.01c0.158,0.793,0.332,1.582,0.488,2.376
			c0.89,4.536,1.588,9.112,2.124,13.703c1.239,10.612,1.761,20.58,0.061,30.841c-0.07,0.424-0.113,0.836-0.144,1.242h-0.004v0.034
			c-0.045,0.616-0.04,1.208,0,1.782v17.901v3.334h-4.833v-3.334v-17.901c-0.039-0.574-0.045-1.166,0-1.782v-0.034h0.004
			c0.031-0.406,0.074-0.818,0.144-1.242c1.701-10.261,1.179-20.229-0.061-30.841c-0.536-4.591-1.234-9.167-2.124-13.703
			c-0.156-0.794-0.331-1.583-0.488-2.376c-0.001-0.004-0.002-0.006-0.003-0.01c-0.32-1.144-0.589-2.292-0.969-3.419
			C377.195,216.705,387.166,209.564,395.164,211.202z"/>
		<path fill="#D9D7E2" d="M385.174,278.536h22.604c2.275,0,4.12-1.845,4.12-4.12v-0.01c0-2.275-1.845-4.12-4.12-4.12h-22.604
			c-2.275,0-4.12,1.845-4.12,4.12v0.01C381.054,276.691,382.899,278.536,385.174,278.536z"/>
		<rect x="384.406" y="298.254" fill="#D9D7E2" width="46.398" height="3.334"/>
		<line fill="none" stroke="#D9D7E2" stroke-miterlimit="10" x1="409.58" y1="263.504" x2="385.636" y2="263.504"/>
		<line fill="none" stroke="#D9D7E2" stroke-miterlimit="10" x1="409.412" y1="256.324" x2="385.636" y2="256.324"/>
	</g>
	<path fill="#D9D7E2" d="M421.977,99.425h-99.333c-6.6,0-12-5.4-12-12v-8.841c0-6.6,5.4-12,12-12h99.333c6.6,0,12,5.4,12,12v8.841
		C433.977,94.025,428.577,99.425,421.977,99.425z"/>
	<path fill="#FCFBFF" d="M380.31,130.254h-16c-24.75,0-45-20.25-45-45v-8.25c0-28.05,22.95-51,51-51h4c28.05,0,51,22.95,51,51v8.25
		C425.31,110.004,405.06,130.254,380.31,130.254z"/>
	<path opacity="0.1" fill="#231F20" d="M380.31,118.709h-16c-24.198,0-44.082-19.359-44.958-43.352
		c-0.018,0.548-0.042,1.095-0.042,1.647v8.25c0,24.75,20.25,45,45,45h16c24.75,0,45-20.25,45-45v-8.25
		c0-0.553-0.024-1.099-0.042-1.647C424.392,99.35,404.507,118.709,380.31,118.709z"/>
	<path fill="#292534" d="M386.977,120.906h-29.333c-17.05,0-31-13.95-31-31v-7.744c0-21.45,17.55-39,39-39h13.333
		c21.45,0,39,17.55,39,39v7.744C417.977,106.956,404.026,120.906,386.977,120.906z"/>
	<path fill="#3F3A4E" d="M386.977,110.824h-29.333c-16.658,0-30.349-13.318-30.97-29.831c-0.012,0.389-0.03,0.776-0.03,1.168v7.744
		c0,17.05,13.95,31,31,31h29.333c17.05,0,31-13.95,31-31v-7.744c0-0.392-0.018-0.779-0.03-1.168
		C417.326,97.506,403.634,110.824,386.977,110.824z"/>
	<g>
		<path fill="#FFFFFF" d="M334.005,87.254c0,0-0.111-0.242-0.279-0.693c-0.155-0.451-0.43-1.115-0.686-1.955
			c-0.14-0.422-0.277-0.883-0.417-1.393c-0.104-0.533-0.175-1.116-0.267-1.754c-0.094-0.638-0.147-1.323-0.223-2.062
			c-0.081-0.745-0.001-1.457-0.003-2.253c0.021-0.786,0.075-1.606,0.135-2.462c0.124-0.837,0.302-1.696,0.466-2.596
			c0.08-0.451,0.179-0.903,0.285-1.361c0.122-0.451,0.279-0.895,0.422-1.353c0.289-0.915,0.619-1.844,0.971-2.786
			c0.869-1.79,1.725-3.713,2.976-5.42c1.124-1.803,2.594-3.386,4.039-4.982c1.595-1.446,3.174-2.92,4.977-4.047
			c1.706-1.254,3.631-2.108,5.42-2.98c0.941-0.354,1.87-0.686,2.786-0.974c0.458-0.143,0.902-0.3,1.354-0.421
			c0.459-0.102,0.91-0.207,1.361-0.286c0.899-0.165,1.76-0.338,2.597-0.466c0.857-0.06,1.678-0.111,2.463-0.134
			c0.791,0.003,1.522-0.077,2.241,0.007c0.718,0.08,1.387,0.138,2.015,0.231c0.627,0.094,1.204,0.164,1.736,0.268
			c0.535,0.14,1.021,0.274,1.456,0.415c0.869,0.257,1.535,0.532,1.983,0.689c0.449,0.17,0.683,0.282,0.683,0.282
			s-0.237,0.136-0.672,0.351c-0.436,0.202-1.065,0.543-1.846,0.884c-0.385,0.169-0.812,0.357-1.276,0.561
			c-0.452,0.255-0.939,0.488-1.449,0.757c-1.023,0.51-2.155,1.023-3.314,1.739c-0.58,0.315-1.184,0.644-1.809,0.983
			c-0.596,0.399-1.216,0.771-1.839,1.166c-0.31,0.201-0.631,0.38-0.953,0.564c-0.314,0.204-0.617,0.44-0.928,0.66
			c-0.617,0.455-1.259,0.874-1.905,1.301c-1.204,1.013-2.53,1.873-3.71,2.978c-1.271,0.981-2.377,2.177-3.593,3.25
			c-1.073,1.214-2.274,2.316-3.257,3.587c-1.108,1.178-1.966,2.507-2.982,3.709c-0.429,0.646-0.849,1.288-1.304,1.905
			c-0.22,0.312-0.456,0.615-0.659,0.929c-0.182,0.323-0.367,0.643-0.566,0.953c-0.396,0.623-0.763,1.245-1.166,1.84
			c-0.346,0.613-0.644,1.227-0.983,1.81c-0.324,0.581-0.69,1.161-0.947,1.696c-0.271,0.536-0.511,1.061-0.78,1.56
			c-0.267,0.5-0.502,0.98-0.757,1.431c-0.206,0.482-0.378,0.935-0.564,1.338c-0.34,0.81-0.681,1.442-0.881,1.875
			C334.14,87.025,334.005,87.254,334.005,87.254z"/>
	</g>
	<path fill="#EFF7FA" d="M412.836,131.397h-81.053c-2.839,0-5.14-2.301-5.14-5.14v-0.006c0-2.839,2.301-5.14,5.14-5.14h81.053
		c2.839,0,5.14,2.301,5.14,5.14v0.006C417.977,129.096,415.675,131.397,412.836,131.397z"/>
	<path opacity="0.1" fill="#231F20" d="M412.836,127.733h-81.053c-2.192,0-4.051-1.378-4.79-3.311
		c-0.218,0.57-0.351,1.182-0.351,1.829v0.006c0,2.839,2.301,5.14,5.14,5.14h81.053c2.839,0,5.14-2.301,5.14-5.14v-0.006
		c0-0.646-0.133-1.259-0.351-1.829C416.887,126.355,415.029,127.733,412.836,127.733z"/>
	<path fill="#D9D7E2" d="M412.836,141.684h-81.053c-2.839,0-5.14-2.301-5.14-5.14v-0.007c0-2.839,2.301-5.14,5.14-5.14h81.053
		c2.839,0,5.14,2.301,5.14,5.14v0.007C417.977,139.383,415.675,141.684,412.836,141.684z"/>
	<path fill="#D9D7E2" d="M390.977,233.292h-37.333c-7.18,0-13-5.82-13-13v-66.856h63.333v66.856
		C403.977,227.472,398.156,233.292,390.977,233.292z"/>
	<path opacity="0.1" fill="#231F20" d="M340.643,220.292c0,1.835,0.385,3.58,1.072,5.163h53.608c3.245,0,6.206-1.197,8.484-3.164
		c0.101-0.653,0.169-1.317,0.169-1.999v-66.856h-63.333V220.292z"/>
	<path opacity="0.1" fill="#231F20" d="M412.836,138.02h-81.053c-2.192,0-4.051-1.378-4.79-3.311
		c-0.218,0.57-0.351,1.182-0.351,1.829v0.006c0,2.839,2.301,5.14,5.14,5.14h81.053c2.839,0,5.14-2.301,5.14-5.14v-0.006
		c0-0.646-0.133-1.259-0.351-1.829C416.887,136.642,415.029,138.02,412.836,138.02z"/>
	<path fill="#EFF7FA" d="M399.238,221.54h-53.856c-7.18,0-13-5.82-13-13v-66.856h79.856v66.856
		C412.238,215.72,406.417,221.54,399.238,221.54z"/>
	<path fill="#D9D7E2" d="M390.977,200.935h-37.333c-6.6,0-12-5.399-12-12v-10.611c0-6.6,5.4-12,12-12h37.333c6.6,0,12,5.4,12,12
		v10.611C402.977,195.535,397.577,200.935,390.977,200.935z"/>
	<path opacity="0.1" fill="#231F20" d="M396.284,167.41c1.391,1.958,2.219,4.342,2.219,6.913v10.611c0,6.601-5.4,12-12,12h-37.333
		c-1.764,0-3.436-0.396-4.948-1.086c2.179,3.068,5.753,5.086,9.782,5.086h37.333c6.6,0,12-5.399,12-12v-10.611
		C403.335,173.487,400.43,169.305,396.284,167.41z"/>
	<path fill="#898796" d="M391.414,179.629h-21.5c-1.341,0-2.438-1.097-2.438-2.438l0,0c0-1.34,1.097-2.438,2.438-2.438h21.5
		c1.341,0,2.438,1.098,2.438,2.438l0,0C393.852,178.532,392.755,179.629,391.414,179.629z"/>
	<path fill="#898796" d="M391.414,191.066h-21.5c-1.341,0-2.438-1.097-2.438-2.438l0,0c0-1.34,1.097-2.438,2.438-2.438h21.5
		c1.341,0,2.438,1.098,2.438,2.438l0,0C393.852,189.97,392.755,191.066,391.414,191.066z"/>
	<circle fill="#C64747" cx="356.227" cy="176.54" r="4.625"/>
	<circle fill="#898796" cx="356.227" cy="188.629" r="3.271"/>
	<rect x="367.143" y="141.684" fill="#D9D7E2" width="10.333" height="24.639"/>
	<line fill="none" stroke="#EFF7FA" stroke-miterlimit="10" x1="372.31" y1="141.684" x2="372.31" y2="166.323"/>
	<line fill="none" stroke="#D9D7E2" stroke-miterlimit="10" x1="332.382" y1="208.54" x2="412.238" y2="208.54"/>
	<g>
		<g>
			<path opacity="0.1" fill="#231F20" d="M232.166,26.463c7.777-0.326,15.614-1.522,23.569-4.438
				c1.405,18.965,2.81,37.93,4.215,56.896c-11.942,4.377-23.618,4.889-35.222,4.375C227.208,64.352,229.687,45.407,232.166,26.463z"
				/>
		</g>
		<g>
			<g>
				<path fill="#D9D7E2" d="M254.166,13.419c3.833,29.36,4.639,59.301,6.021,88.845c2.077,44.385,3.451,88.824,3.643,133.259
					c0.093,21.378-0.075,42.778-1.165,64.132c-0.165,3.224,4.836,3.208,5,0c2.09-40.967,1.285-82.114,0.227-123.1
					c-1.064-41.221-2.753-82.447-5.406-123.598c-0.85-13.18-1.611-26.435-3.321-39.539
					C258.754,10.269,253.749,10.229,254.166,13.419L254.166,13.419z"/>
			</g>
		</g>
	</g>

		<ellipse transform="matrix(0.9498 0.3128 -0.3128 0.9498 66.7782 -73.2891)" fill="#EFF7FA" cx="261.814" cy="171.487" rx="5.189" ry="8.686"/>
</g>
<polygon fill="#c0392b" points="10.92,176.56 266.346,158.571 256.108,11.115 0.682,29.103 "/>
</svg>
