<?xml version="1.0" encoding="utf-8"?>
<!-- Generator: Adobe Illustrator 16.0.0, SVG Export Plug-In . SVG Version: 6.00 Build 0)  -->
<!DOCTYPE svg PUBLIC "-//W3C//DTD SVG 1.1//EN" "http://www.w3.org/Graphics/SVG/1.1/DTD/svg11.dtd">
<svg version="1.1" id="Layer_1" xmlns="http://www.w3.org/2000/svg" xmlns:xlink="http://www.w3.org/1999/xlink" x="0px" y="0px"
	 width="960px" height="156px" viewBox="0 0 960 156" enable-background="new 0 0 960 156" xml:space="preserve">
<g>
	<g>
		<g>
			<g>
				<g>
					<g>
						<path fill="#2c3e50" d="M921.541,23.568H641.527v134.841h320.357V40.548C961.885,31.171,943.828,23.568,921.541,23.568z"/>
					</g>
				</g>
			</g>
			<g>
				<path fill="#2c3e50" d="M656.371,154.549l13.613-3.688l18.709-27.974v29.724l8.521,3.587l17.25-24.243l13.586,17.733
					l7.008-34.722l6.207,37.645c0,0,7.207-7.811,10.01-12.36c2.803-4.553,28.715-36.745,28.715-36.745l11.557,45.003l21.797,4.103
					l14.354-45.392l8.875,36.738l12.582-36.738l-1.771,35.896l13.615,9.495l24.348-22.644l4.484,16.748l21.625,4.996l-3.023-24.789
					l30.652,25.688l22.801-28.207v34.005H641.527v-4.162v-29.84L656.371,154.549z"/>
			</g>
			<g>
				<g>
					<path fill="#2c3e50" d="M961.885,43.796v-3.248c0,1.112-0.268,2.195-0.756,3.248H961.885z"/>
				</g>
			</g>
			<g opacity="0.5">
				<path fill="#2c3e50" d="M779.945,110.805c0.086,0.025,0.045,0.308-0.119,0.813C779.814,111.067,779.846,110.774,779.945,110.805
					z"/>
				<polygon fill="#2c3e50" points="864.082,23.568 889.762,23.568 886.256,48.758 920.363,158.409 888.541,158.409
					885.346,135.885 869.693,158.409 838.811,158.409 862.23,42.466 				"/>
				<path fill="#2c3e50" d="M680.809,58.647c0.082,0.042,0.047,0.494-0.1,1.303C680.697,59.069,680.729,58.604,680.809,58.647z"/>
				<path fill="#2c3e50" d="M737.354,61.568l-3.76,96.841h24.283c8.564-17.479,20.441-42.041,21.949-46.792
					c-0.012-0.55,0.02-0.843,0.119-0.813c0.086,0.025,0.045,0.308-0.119,0.813c0.148,4.729,4.254,29.301,7.266,46.792h43.785
					L824.65,58.196l-2.229-34.628h-57.85L737.354,61.568z"/>
				<path fill="#2c3e50" d="M641.527,23.568h59.455l-1.564,20.228l19.564,114.613h-29.738c-1.896-19.868-8.359-88.212-8.535-98.459
					c0.146-0.809,0.182-1.261,0.1-1.303c-0.08-0.044-0.111,0.422-0.1,1.303c-1.777,10.297-20.041,78.6-25.377,98.459h-13.805V23.568
					z"/>
				<path fill="#2c3e50" d="M937.666,37.625c0,0-8.969,53.659-8.918,60.642c-2.428-6.808-28.625-58.482-28.625-58.482
					L937.666,37.625z"/>
				<path fill="#2c3e50" d="M928.881,99.01c-0.09-0.021-0.133-0.278-0.133-0.743C928.922,98.762,928.973,99.028,928.881,99.01z"/>
			</g>
			<path fill="#34495e" d="M921.541,23.568H641.527v20.228h57.891l37.936,17.772l87.297-3.372l37.58-15.73l24.025,6.292
				l74.873-4.962c0.488-1.053,0.756-2.136,0.756-3.248C961.885,31.171,943.828,23.568,921.541,23.568z"/>
			<g>
				<path fill="#2c3e50" d="M664.516,37.445c0,0.724-3.484,1.311-7.781,1.311c-4.301,0-7.787-0.587-7.787-1.311
					c0-0.727,3.486-1.313,7.787-1.313C661.031,36.132,664.516,36.719,664.516,37.445z"/>
				<path fill="#2c3e50" d="M694.145,32.474c0,0.408-1.965,0.737-4.381,0.737s-4.381-0.329-4.381-0.737
					c0-0.407,1.965-0.736,4.381-0.736S694.145,32.066,694.145,32.474z"/>
				<path fill="#2c3e50" d="M733.063,26.138c0,0.409-1.961,0.739-4.383,0.739c-2.412,0-4.379-0.33-4.379-0.739
					c0-0.405,1.967-0.735,4.379-0.735C731.102,25.402,733.063,25.732,733.063,26.138z"/>
				<path fill="#2c3e50" d="M777.926,36.132c0,0.726-3.486,1.313-7.785,1.313s-7.783-0.588-7.783-1.313
					c0-0.721,3.484-1.309,7.783-1.309S777.926,35.411,777.926,36.132z"/>
				<path fill="#2c3e50" d="M826.102,39.323c0,0.407-1.959,0.737-4.379,0.737c-2.414,0-4.373-0.33-4.373-0.737
					s1.959-0.736,4.373-0.736C824.143,38.587,826.102,38.916,826.102,39.323z"/>
				<path fill="#2c3e50" d="M865.027,32.986c0,0.41-1.965,0.737-4.381,0.737c-2.42,0-4.379-0.327-4.379-0.737
					c0-0.404,1.959-0.736,4.379-0.736C863.063,32.25,865.027,32.582,865.027,32.986z"/>
				<ellipse fill="#2c3e50" cx="930.388" cy="30.599" rx="7.784" ry="1.313"/>
			</g>
			<path fill="#FFFDE8" d="M641.527,43.796l28.945,0.222l28.945,0.164l-0.682-0.131c12.537,5.969,24.959,11.976,37.586,17.908
				l0.463,0.219l0.699-0.025c29.102-1.11,58.227-2.11,87.311-3.313l0.551-0.023l0.389-0.159l37.453-15.787l-1.67,0.08l24.166,6.199
				l0.354,0.094l0.387-0.03l37.375-2.657l37.33-2.76l-37.537,2.202l-37.506,2.307l0.752,0.063l-23.889-6.388l-0.9-0.24l-0.775,0.321
				l-37.697,15.68l0.936-0.185c-29.119,1.045-58.189,2.291-87.283,3.43l1.158,0.19c-12.664-5.918-25.529-11.756-38.287-17.639
				l-0.281-0.131h-0.4l-28.945,0.167L641.527,43.796z"/>
			<g>
				<path fill="#2c3e50" d="M778.506,55.233c0,1.582,9.598,2.869,21.432,2.869c11.836,0,21.436-1.287,21.436-2.869
					c0-1.584-9.6-2.867-21.436-2.867C788.104,52.366,778.506,53.649,778.506,55.233z"/>
				<path opacity="0.4" fill="#2c3e50" d="M791.547,55.198c0,1.051,6.361,1.901,14.215,1.901c7.846,0,14.215-0.851,14.215-1.901
					c0-1.054-6.369-1.904-14.215-1.904C797.908,53.294,791.547,54.145,791.547,55.198z"/>
			</g>
			<g>
				<ellipse fill="#2c3e50" cx="900.122" cy="40.548" rx="21.431" ry="2.869"/>
				<path opacity="0.4" fill="#2c3e50" d="M891.727,40.516c0,1.047,6.363,1.9,14.215,1.9s14.223-0.854,14.223-1.9
					c0-1.051-6.371-1.901-14.223-1.901S891.727,39.465,891.727,40.516z"/>
			</g>
			<g>
				<path fill="#2c3e50" d="M715.516,33.11c0,0.924,5.578,1.669,12.447,1.669c6.877,0,12.449-0.745,12.449-1.669
					c0-0.919-5.572-1.667-12.449-1.667C721.094,31.443,715.516,32.191,715.516,33.11z"/>
				<path opacity="0.4" fill="#2c3e50" d="M723.09,33.089c0,0.613,3.695,1.108,8.258,1.108s8.258-0.495,8.258-1.108
					c0-0.609-3.695-1.103-8.258-1.103S723.09,32.479,723.09,33.089z"/>
			</g>
			<g>
				<path fill="#2c3e50" d="M757.689,27.071c0,0.916,5.574,1.662,12.451,1.662c6.875,0,12.449-0.746,12.449-1.662
					c0-0.924-5.574-1.669-12.449-1.669C763.264,25.402,757.689,26.147,757.689,27.071z"/>
				<path opacity="0.4" fill="#2c3e50" d="M765.266,27.048c0,0.61,3.691,1.104,8.254,1.104c4.561,0,8.266-0.493,8.266-1.104
					c0-0.608-3.705-1.104-8.266-1.104C768.957,25.943,765.266,26.439,765.266,27.048z"/>
			</g>
			<path fill="#34495e" d="M936.08,47.216l-7.332,51.051C928.748,98.267,941.887,76.717,936.08,47.216z"/>
			<path fill="#34495e" d="M887.672,53.294l30.338,97.567C918.01,150.861,887.564,79.125,887.672,53.294z"/>
			<path fill="#34495e" d="M824.943,62.915l5.795,93.283C830.738,156.198,818.551,93.506,824.943,62.915z"/>
			<path fill="#34495e" d="M885.346,135.885l-15.051,21.665C870.295,157.55,871.41,146.716,885.346,135.885z"/>
			<path fill="#34495e" d="M779.896,112.688l7.045,44.861C786.941,157.55,776.877,132.493,779.896,112.688z"/>
			<path fill="#34495e" d="M737.16,66.598l-3.566,88.485C733.594,155.083,730.723,91.935,737.16,66.598z"/>
			<path fill="#34495e" d="M680.777,61.823l7.916,90.788C688.693,152.611,691.977,92.379,680.777,61.823z"/>
		</g>
		<g>
			<g>
				<g>
					<g>
						<g>
							<path fill="#2c3e50" d="M808.49,26.52l21.477-21.093c0,0,5.271,0.597,5.422,0.438l35.25,0.042l35.246-0.042
								c0.15,0.159,5.418-0.438,5.418-0.438l21.492,21.112h-0.018c0.119,0.075,0.199,0.157,0.199,0.234
								c0,1.73-27.916,3.13-62.357,3.13c-34.436,0-62.35-1.399-62.35-3.13C808.27,26.69,808.357,26.603,808.49,26.52z"/>
						</g>
						<polygon opacity="0.5" fill="#2c3e50" points="902.752,6.464 904.471,6.425 908.119,13.646 902.307,8.058 897.451,6.233
													"/>
						<path opacity="0.5" fill="#2c3e50" d="M888.541,8.195l1.758,12.277l-6.715-12.114l-0.223-1.513c0,0,0.867-0.326,1.695-0.08
							C885.887,7.009,888.541,8.195,888.541,8.195z"/>
						<path opacity="0.5" fill="#2c3e50" d="M869.088,7.935l0.307,0.274c0,0-6.25,8.266-6.25,8.321c0,0.052-3.322-8.16-3.322-8.16
							l2.584-1.699L869.088,7.935z"/>
						<path opacity="0.5" fill="#2c3e50" d="M840.732,11.523c-0.908,0.739-1.828,1.474-2.729,2.211
							c0.254-2.604,0.994-6.356,0.994-6.356s3.961-1.078,5.363-0.939l1.725,1.031c-0.193,0.03-2.426,0.183-2.426,0.183
							S842.184,9.604,840.732,11.523z"/>
						<path fill="#CDA9C0" d="M870.619,3.354c22.471,0,40.684,0.928,40.684,2.072c0,0.507-0.963,0.968-6.889,1.328
							c-4.73-0.274-5.855-0.233-5.654,0.002c0.043,0.053,3.504,1.247,3.547,1.301c-3.861,0.19-8.672,0.038-13.766,0.138
							c-0.268-0.191-3.723-1.223-3.973-1.419c-0.377-0.296-0.996,1.427-0.984,1.582c-3.947,0.064-9.484-0.138-13.857-0.138
							c-2.141,0-6.428-1.422-6.863-1.17c-0.227,0.133-2.83,1.186-3.041,1.319c-6.758-0.072-11.096-0.499-16.162-0.718
							c0.02-0.167,0.656-0.978,0.738-1.143c0.137-0.284-4.549,0.646-5.4,0.868c-6.693-0.369-9.053-1.408-9.053-1.951
							C829.945,4.282,848.152,3.354,870.619,3.354z"/>
						<path fill="#FFFDE8" d="M911.303,5.427c-0.012,0.292-0.494,0.532-1.094,0.651c-0.582,0.134-1.227,0.219-1.871,0.288
							c-1.295,0.142-2.627,0.214-3.959,0.285h0.068l-2.648-0.169c-0.906-0.036-1.727-0.119-2.783-0.056
							c-0.182-0.016-0.963,0.17-0.563,0.444l0.494,0.183l0.98,0.374l1.916,0.698l0.406-0.274l-6.826,0.053l-6.916-0.003l0.627,0.145
							c-0.318-0.142-0.711-0.311-1.02-0.411l-0.914-0.307l-0.9-0.306c-0.295-0.1-0.637-0.213-0.795-0.282l-0.154-0.058l-0.082-0.025
							l-0.043-0.014l-0.021-0.009l-0.188-0.1l-0.061-0.025c-0.15-0.071-0.74-0.091-0.945-0.008c-0.188,0.063-0.227,0.1-0.309,0.153
							c-0.061,0.055-0.131,0.113-0.162,0.157c-0.15,0.186-0.238,0.347-0.32,0.516l-0.219,0.495l-0.092,0.25
							c-0.027,0.094-0.057,0.142-0.068,0.294l0.719-0.321l-12.842-0.142c-0.566-0.011-1.061,0-1.482-0.039
							c-0.348-0.03-0.875-0.111-1.318-0.196c-0.932-0.175-1.852-0.396-2.809-0.615c-0.494-0.105-0.926-0.22-1.615-0.31
							c-0.074-0.012-0.176-0.025-0.35-0.028c-0.133,0-0.289-0.025-0.664,0.072c-0.355,0.13-0.221,0.091-0.32,0.13l-0.137,0.061
							l-0.557,0.244l-2.227,0.976l0.6-0.128l-8.039-0.251c-1.346-0.04-2.697-0.125-4.043-0.187l-4.049-0.193l0.457,0.224
							l0.533-0.867l0.133-0.216l0.016-0.028l0,0l-0.016-0.107l-0.008-0.004l-0.006-0.008l-0.006-0.014
							c0.043,0.014-0.176-0.127-0.408-0.142c-0.332-0.021-0.324,0.004-0.488,0.006c-0.418,0.036-0.75,0.094-1.107,0.149
							c-1.389,0.236-2.686,0.502-3.984,0.829l0.219-0.017c-1.746-0.1-3.516-0.202-5.17-0.469c-0.838-0.113-1.652-0.274-2.363-0.49
							c-0.713-0.202-1.439-0.478-1.564-0.859c0.068,0.386,0.768,0.69,1.465,0.915c0.701,0.235,1.506,0.424,2.338,0.562
							c1.66,0.316,3.436,0.467,5.207,0.61l0.088,0.008l0.125-0.027c1.244-0.269,2.615-0.513,3.941-0.72
							c0.332-0.048,0.676-0.098,0.977-0.117c0.012-0.006,0.205,0,0.055-0.011c-0.168,0-0.236-0.155-0.193-0.091l0.014,0.01v0.009
							l0.006,0.003l0,0c0.02,0.094-0.025-0.127-0.02-0.103v0.003l-0.02,0.024l-0.154,0.229l-0.621,0.91l-0.125,0.187l0.582,0.036
							l4.012,0.252c1.338,0.08,2.666,0.183,4.016,0.243l8.166,0.312l0.277,0.014l0.324-0.142l2.258-0.967
							c0.281-0.155,1.082-0.399,0.443-0.233c0.332,0.047,0.84,0.164,1.291,0.267c0.926,0.215,1.863,0.449,2.891,0.648
							c0.531,0.099,1,0.19,1.707,0.254c0.625,0.054,1.215,0.042,1.721,0.056c4.242,0.081,8.559,0.089,12.9,0.105l0.621,0.002
							l0.094-0.326l0.131-0.427l0.193-0.469c0.068-0.151,0.158-0.31,0.258-0.434l0.055-0.07c-0.025,0.021-0.004,0.017-0.125,0.053
							c-0.162,0.081-0.705,0.056-0.811-0.022l0.041,0.02l0.016,0.006l0.004,0.003h0.006v0.002c-0.076-0.038,0.168,0.087-0.162-0.086
							l0.033,0.012l0.063,0.03l0.125,0.058l0.262,0.115c0.389,0.163,0.676,0.243,0.982,0.352l0.924,0.305l0.91,0.302l0.713,0.25
							l0.406,0.141l0.219-0.003l6.852-0.066l6.939-0.152l1.096-0.024l-0.684-0.25l-2.107-0.775l-1.02-0.363l-0.514-0.181
							c0.111,0.095-0.162,0.117,0.082,0.086c0.699-0.061,1.67-0.022,2.521-0.002l2.641,0.099l0.049,0.004l0.02-0.004
							c1.332-0.104,2.664-0.21,3.959-0.39c0.646-0.083,1.289-0.188,1.865-0.342C910.865,5.987,911.342,5.715,911.303,5.427z"/>
						<path fill="#2c3e50" d="M846.139,4.324c0.475,0.158,2.547,0.496,2.453,0.23c-0.039-0.113-0.119-0.225-0.203-0.332
							c3.711-0.153,8.305-0.27,13.441-0.328c0.414,0.263,2.32,1.078,2.271,0.762c-0.043-0.263-0.063-0.523-0.068-0.787
							c2.064-0.019,4.203-0.024,6.393-0.024c7.553,0,14.48,0.108,19.898,0.297c0,0.171,0.82,0.862,1.193,0.647
							c0.334-0.183,0.627-0.373,0.916-0.57c5.813,0.241,9.428,0.574,9.428,0.942c0,0.729-14.078,1.319-31.436,1.319
							c-17.361,0-31.428-0.591-31.428-1.319C838.998,4.845,841.682,4.555,846.139,4.324z"/>
						<path fill="#2c3e50" d="M869.977,4.793c8.215-0.025,16.318,0.439,24.283,1.23C888.498,6.3,879.965,6.48,870.426,6.48
							c-10.574,0-19.928-0.219-25.621-0.557C853.158,5.389,861.529,4.82,869.977,4.793z"/>
						<path opacity="0.5" fill="#2c3e50" d="M916.189,15.74c0,0,4.77,3.45,7.24,5.866c2.473,2.422,2.584,4.879,2.584,4.879
							l-3.924-3.332L916.189,15.74z"/>
						<path opacity="0.5" fill="#2c3e50" d="M897.451,13.659c0,0,4.768,4.376,7.246,7.443c2.471,3.066,2.576,6.188,2.576,6.188
							l-6.756-3.933L897.451,13.659z"/>
						<path opacity="0.5" fill="#2c3e50" d="M874.404,12.934c0,0-1.523,3.247-2,5.467c-0.482,2.217,0.656,4.304,0.656,4.304
							l3.049-3.092L874.404,12.934z"/>
						<path opacity="0.5" fill="#2c3e50" d="M848.021,18.819c0,0-3.316,2.998-5.031,5.101c-1.713,2.103-1.789,4.248-1.789,4.248
							l4.699-2.69L848.021,18.819z"/>
						<path opacity="0.5" fill="#2c3e50" d="M844.475,15.968c0,0-1.596,1.443-2.422,2.458c-0.834,1.014-0.865,2.047-0.865,2.047
							l2.268-1.299L844.475,15.968z"/>
						<path opacity="0.5" fill="#2c3e50" d="M897.551,24.275c0,0,0.539,1.578,1.164,2.621c0.625,1.039,1.934,1.909,1.934,1.909
							l0.205-1.615L897.551,24.275z"/>
						<path opacity="0.5" fill="#2c3e50" d="M912.166,13.701c0,0,0.533,1.579,1.158,2.621c0.627,1.039,1.936,1.909,1.936,1.909
							l0.205-1.615L912.166,13.701z"/>
						<path opacity="0.5" fill="#2c3e50" d="M833.35,11.066c0,0-3.313,2.998-5.031,5.103c-1.717,2.104-1.783,4.246-1.783,4.246
							l4.697-2.694L833.35,11.066z"/>
					</g>
					<path opacity="0.5" fill="#2c3e50" d="M820.195,22.806c0,0,1.391-1.075,2.133-1.84c0.752-0.759,0.896-1.548,0.896-1.548
						l-1.885,0.947L820.195,22.806z"/>
				</g>
				<g>
					<path fill="#ACB7DF" d="M858.883,24.342c0.412-0.466,1.508-0.737,2.365-0.289c0.65,0.353,0.508,0.785,0.363,1.194
						c-0.139,0.394-0.545,1.129-1.477,1.308c-0.133,0.028-0.27,0.021-0.408,0c-0.449,0.012-0.906-0.139-1.213-0.423
						C857.945,25.6,858.432,24.856,858.883,24.342z"/>
					<path fill="#ACB7DF" d="M855.441,26.874c0.301-0.229,0.914-0.349,1.164,0.039c0.193,0.31-0.338,0.778-1.088,0.473
						C855.186,27.251,855.234,27.034,855.441,26.874z"/>
					<path fill="#ACB7DF" d="M855.6,21.204c0.26-0.394,0.674-0.723,1.238-0.728c1.051-0.015,1.199,1.208,1.193,1.504
						c-0.006,0.316-0.025,0.748-0.619,0.986c-0.957,0.38-1.965-0.191-2.141-0.549C855.178,22.229,855.279,21.673,855.6,21.204z"/>
				</g>
				<g>
					<path fill="#ACB7DF" d="M881.275,21.097c-0.236,0.374-1.037,0.618-1.77,0.294c-0.564-0.25-0.531-0.585-0.486-0.909
						c0.041-0.308,0.229-0.887,0.924-1.056c0.094-0.022,0.199-0.022,0.307-0.011c0.35-0.022,0.729,0.078,1.014,0.288
						C881.795,20.099,881.545,20.687,881.275,21.097z"/>
					<path fill="#ACB7DF" d="M894.605,21.602c-0.189,0.188-0.646,0.298-0.904,0.005c-0.205-0.233,0.127-0.611,0.76-0.398
						C894.742,21.302,894.742,21.471,894.605,21.602z"/>
					<path fill="#ACB7DF" d="M895.441,25.982c-0.139,0.31-0.398,0.578-0.836,0.603c-0.809,0.04-1.127-0.896-1.178-1.127
						c-0.051-0.244-0.105-0.58,0.313-0.778c0.676-0.322,1.553,0.083,1.746,0.357C895.59,25.178,895.605,25.61,895.441,25.982z"/>
				</g>
				<g>
					<path fill="#ACB7DF" d="M902.207,13.137c0,0.388-0.625,0.709-1.533,0.481c-0.701-0.18-0.871-0.513-1.025-0.829
						c-0.145-0.299-0.313-0.881,0.25-1.119c0.08-0.033,0.182-0.044,0.293-0.047c0.32-0.061,0.75-0.003,1.15,0.169
						C902.094,12.113,902.213,12.709,902.207,13.137z"/>
					<path fill="#ACB7DF" d="M912.217,17.198c-0.068,0.202-0.438,0.359-0.863,0.105c-0.344-0.203-0.25-0.604,0.488-0.469
						C912.174,16.894,912.268,17.057,912.217,17.198z"/>
					<path fill="#ACB7DF" d="M915.697,21.337c0.055,0.316-0.033,0.604-0.445,0.678c-0.758,0.123-1.633-0.743-1.822-0.962
						c-0.193-0.23-0.453-0.546-0.168-0.787c0.457-0.385,1.545-0.089,1.902,0.155C915.352,20.546,915.627,20.961,915.697,21.337z"/>
				</g>
				<g>
					<path fill="#ACB7DF" d="M830.932,24.117c-0.236,0.373-1.039,0.618-1.775,0.294c-0.564-0.25-0.527-0.588-0.482-0.91
						c0.045-0.307,0.232-0.889,0.926-1.055c0.094-0.024,0.201-0.024,0.309-0.015c0.348-0.021,0.725,0.081,1.014,0.292
						C831.447,23.117,831.201,23.704,830.932,24.117z"/>
					<path fill="#ACB7DF" d="M849.791,9.749c-0.188,0.192-0.643,0.304-0.9,0.01c-0.205-0.234,0.131-0.612,0.762-0.399
						C849.93,9.453,849.93,9.622,849.791,9.749z"/>
					<path fill="#ACB7DF" d="M850.631,14.134c-0.139,0.311-0.402,0.582-0.84,0.604c-0.807,0.038-1.125-0.898-1.174-1.129
						c-0.053-0.246-0.109-0.578,0.311-0.778c0.676-0.322,1.553,0.083,1.748,0.357C850.781,13.329,850.793,13.763,850.631,14.134z"/>
				</g>
			</g>
			<g>
				<g>
					<g>
						<g>
							<path fill="#2c3e50" d="M650.225,28.16l11.063-10.865c0,0,2.715,0.305,2.797,0.222l18.158,0.025l18.158-0.025
								c0.074,0.083,2.791-0.222,2.791-0.222l11.074,10.873h-0.014c0.064,0.042,0.1,0.08,0.1,0.124
								c0,0.89-14.377,1.611-32.115,1.611c-17.746,0-32.123-0.722-32.123-1.611C650.113,28.248,650.156,28.202,650.225,28.16z"/>
						</g>
						<polygon opacity="0.5" fill="#2c3e50" points="698.785,17.826 699.674,17.808 701.551,21.529 698.555,18.65 696.051,17.711
													"/>
						<path opacity="0.5" fill="#2c3e50" d="M691.465,18.72l0.9,6.325l-3.453-6.243l-0.119-0.777c0,0,0.451-0.167,0.877-0.042
							C690.102,18.106,691.465,18.72,691.465,18.72z"/>
						<path opacity="0.5" fill="#2c3e50" d="M681.441,18.583l0.16,0.147c0,0-3.219,4.254-3.219,4.283
							c0,0.024-1.715-4.202-1.715-4.202l1.334-0.876L681.441,18.583z"/>
						<path opacity="0.5" fill="#2c3e50" d="M666.83,20.435c-0.463,0.38-0.939,0.759-1.4,1.139c0.131-1.344,0.514-3.272,0.514-3.272
							s2.039-0.557,2.758-0.484l0.889,0.532c-0.094,0.01-1.252,0.091-1.252,0.091S667.582,19.445,666.83,20.435z"/>
						<path fill="#CDA9C0" d="M682.236,16.225c11.57,0,20.955,0.48,20.955,1.07c0,0.261-0.494,0.496-3.549,0.682
							c-2.439-0.141-3.016-0.119-2.916,0.003c0.025,0.025,1.809,0.643,1.828,0.671c-1.988,0.096-4.467,0.019-7.09,0.069
							c-0.137-0.098-1.92-0.63-2.045-0.732c-0.193-0.151-0.514,0.74-0.508,0.814c-2.033,0.037-4.887-0.069-7.139-0.069
							c-1.102,0-3.311-0.733-3.535-0.601c-0.119,0.066-1.457,0.606-1.57,0.68c-3.479-0.037-5.715-0.259-8.33-0.372
							c0.016-0.083,0.346-0.504,0.383-0.588c0.074-0.146-2.34,0.332-2.777,0.449c-3.449-0.194-4.668-0.729-4.668-1.006
							C661.275,16.705,670.662,16.225,682.236,16.225z"/>
						<path fill="#FFFDE8" d="M703.191,17.295c-0.006,0.149-0.258,0.271-0.563,0.332c-0.303,0.072-0.633,0.114-0.965,0.149
							c-0.67,0.073-1.357,0.111-2.039,0.15h0.031l-1.359-0.091c-0.467-0.018-0.895-0.062-1.438-0.025
							c-0.094-0.011-0.496,0.085-0.289,0.228l0.25,0.094l0.514,0.193l0.982,0.357l0.213-0.141l-3.516,0.03l-3.566-0.003l0.324,0.073
							c-0.168-0.07-0.367-0.159-0.525-0.211l-0.475-0.158l-0.463-0.159c-0.152-0.05-0.326-0.109-0.406-0.144l-0.084-0.029
							l-0.035-0.015l-0.025-0.006l-0.012-0.005l-0.096-0.05l-0.031-0.015c-0.08-0.035-0.383-0.047-0.488-0.002
							c-0.1,0.03-0.119,0.05-0.162,0.077c-0.031,0.028-0.063,0.061-0.082,0.08c-0.074,0.095-0.117,0.181-0.162,0.267l-0.113,0.254
							l-0.049,0.131c-0.014,0.048-0.031,0.072-0.031,0.149l0.369-0.165l-6.613-0.07c-0.297-0.005-0.551,0-0.77-0.022
							c-0.176-0.017-0.451-0.058-0.676-0.102c-0.482-0.09-0.957-0.203-1.445-0.316c-0.256-0.053-0.482-0.113-0.832-0.161
							c-0.039-0.006-0.096-0.011-0.182-0.014c-0.068,0-0.152-0.014-0.346,0.036c-0.18,0.069-0.111,0.047-0.162,0.066l-0.074,0.033
							l-0.281,0.125l-1.152,0.504l0.314-0.066l-4.143-0.13c-0.695-0.02-1.391-0.062-2.084-0.094l-2.086-0.101l0.232,0.113
							l0.277-0.445l0.068-0.113l0.004-0.012l0,0l-0.004-0.056l-0.008-0.002v-0.003l-0.004-0.009c0.023,0.009-0.09-0.063-0.209-0.074
							c-0.176-0.01-0.168,0.002-0.25,0.002c-0.219,0.022-0.389,0.05-0.576,0.081c-0.713,0.122-1.375,0.257-2.053,0.426l0.113-0.01
							c-0.9-0.05-1.809-0.104-2.658-0.242c-0.432-0.058-0.852-0.142-1.221-0.251c-0.369-0.104-0.744-0.248-0.807-0.441
							c0.037,0.197,0.398,0.354,0.756,0.472c0.363,0.119,0.775,0.219,1.209,0.288c0.85,0.163,1.766,0.24,2.678,0.313l0.043,0.006
							l0.068-0.015c0.639-0.139,1.348-0.266,2.029-0.371c0.17-0.022,0.35-0.052,0.5-0.061c0.014-0.003,0.111,0,0.033-0.006
							c-0.09,0.003-0.119-0.079-0.104-0.047l0.008,0.006v0.002l0.006,0.004l0,0c0.006,0.05-0.014-0.064-0.014-0.054l0,0
							l-0.006,0.018l-0.08,0.115l-0.318,0.469l-0.07,0.094l0.299,0.022l2.074,0.128c0.686,0.042,1.367,0.097,2.068,0.124
							l4.207,0.161l0.135,0.008l0.17-0.074l1.164-0.496c0.145-0.08,0.557-0.205,0.232-0.119c0.17,0.025,0.434,0.081,0.662,0.137
							c0.477,0.109,0.959,0.229,1.49,0.332c0.27,0.052,0.514,0.1,0.877,0.133c0.324,0.027,0.631,0.02,0.887,0.027
							c2.189,0.042,4.412,0.047,6.646,0.056h0.318l0.051-0.169l0.068-0.22l0.1-0.24c0.037-0.08,0.082-0.161,0.131-0.225l0.031-0.033
							c-0.018,0.009-0.006,0.009-0.068,0.025c-0.082,0.041-0.363,0.029-0.414-0.012l0.02,0.009l0.008,0.003l0.006,0.002l0,0l0,0
							c-0.039-0.017,0.088,0.045-0.082-0.044l0.014,0.008l0.029,0.018l0.07,0.026l0.129,0.06c0.203,0.085,0.352,0.127,0.51,0.183
							l0.475,0.157l0.469,0.155l0.369,0.128l0.207,0.074l0.113-0.002l3.535-0.033l3.572-0.08l0.563-0.014l-0.35-0.128l-1.088-0.399
							l-0.527-0.186l-0.264-0.094c0.057,0.05-0.08,0.058,0.045,0.044c0.357-0.034,0.857-0.011,1.297-0.003l1.363,0.053l0.025,0.003
							l0.01-0.003c0.682-0.053,1.373-0.108,2.035-0.203c0.338-0.044,0.67-0.096,0.963-0.174
							C702.967,17.58,703.209,17.442,703.191,17.295z"/>
						<path fill="#2c3e50" d="M669.615,16.728c0.25,0.083,1.314,0.254,1.27,0.115c-0.025-0.058-0.061-0.113-0.105-0.171
							c1.91-0.078,4.281-0.136,6.928-0.169c0.213,0.135,1.195,0.557,1.164,0.396c-0.02-0.136-0.025-0.271-0.031-0.407
							c1.063-0.009,2.164-0.014,3.297-0.014c3.887,0,7.451,0.059,10.248,0.152c0,0.089,0.418,0.446,0.613,0.336
							c0.17-0.095,0.318-0.194,0.471-0.294c2.996,0.125,4.861,0.296,4.861,0.484c0,0.374-7.254,0.68-16.193,0.68
							c-8.947,0-16.193-0.306-16.193-0.68C665.943,16.993,667.326,16.843,669.615,16.728z"/>
						<path fill="#2c3e50" d="M681.9,16.968c4.232-0.014,8.408,0.225,12.512,0.632c-2.973,0.145-7.369,0.236-12.275,0.236
							c-5.449,0-10.268-0.115-13.201-0.286C673.23,17.275,677.549,16.979,681.9,16.968z"/>
						<path opacity="0.5" fill="#2c3e50" d="M705.707,22.606c0,0,2.457,1.776,3.734,3.023c1.27,1.244,1.326,2.513,1.326,2.513
							l-2.021-1.715L705.707,22.606z"/>
						<path opacity="0.5" fill="#2c3e50" d="M696.051,21.534c0,0,2.461,2.253,3.734,3.835c1.271,1.579,1.328,3.187,1.328,3.187
							l-3.479-2.025L696.051,21.534z"/>
						<path opacity="0.5" fill="#2c3e50" d="M684.184,21.16c0,0-0.791,1.674-1.033,2.815c-0.244,1.145,0.338,2.22,0.338,2.22
							l1.57-1.594L684.184,21.16z"/>
						<path opacity="0.5" fill="#2c3e50" d="M670.586,24.194c0,0-1.707,1.544-2.592,2.627c-0.879,1.083-0.92,2.186-0.92,2.186
							l2.422-1.385L670.586,24.194z"/>
						<path opacity="0.5" fill="#2c3e50" d="M668.758,22.724c0,0-0.818,0.742-1.246,1.269c-0.422,0.521-0.443,1.053-0.443,1.053
							l1.166-0.67L668.758,22.724z"/>
						<path opacity="0.5" fill="#2c3e50" d="M696.109,27.004c0,0,0.273,0.814,0.6,1.35c0.318,0.534,0.996,0.983,0.996,0.983
							l0.105-0.831L696.109,27.004z"/>
						<path opacity="0.5" fill="#2c3e50" d="M703.635,21.554c0,0,0.275,0.818,0.602,1.353c0.318,0.535,0.988,0.983,0.988,0.983
							l0.111-0.831L703.635,21.554z"/>
						<path opacity="0.5" fill="#2c3e50" d="M663.033,20.198c0,0-1.709,1.547-2.598,2.627c-0.881,1.087-0.918,2.189-0.918,2.189
							l2.42-1.389L663.033,20.198z"/>
					</g>
					<path opacity="0.5" fill="#2c3e50" d="M656.258,26.247c0,0,0.711-0.553,1.094-0.947c0.389-0.394,0.463-0.801,0.463-0.801
						l-0.971,0.49L656.258,26.247z"/>
				</g>
				<g>
					<path fill="#ACB7DF" d="M676.186,27.038c0.213-0.239,0.777-0.384,1.221-0.147c0.332,0.181,0.262,0.401,0.188,0.612
						c-0.074,0.205-0.281,0.582-0.764,0.676c-0.068,0.014-0.137,0.012-0.207,0c-0.238,0.006-0.467-0.072-0.631-0.219
						C675.703,27.686,675.953,27.304,676.186,27.038z"/>
					<path fill="#ACB7DF" d="M674.416,28.343c0.148-0.119,0.467-0.181,0.592,0.017c0.104,0.16-0.17,0.404-0.557,0.246
						C674.275,28.536,674.301,28.425,674.416,28.343z"/>
					<path fill="#ACB7DF" d="M674.49,25.422c0.139-0.202,0.348-0.371,0.637-0.377c0.547-0.006,0.621,0.624,0.621,0.776
						c0,0.163-0.012,0.388-0.318,0.51c-0.496,0.194-1.014-0.1-1.104-0.283C674.275,25.951,674.326,25.663,674.49,25.422z"/>
				</g>
				<g>
					<path fill="#ACB7DF" d="M687.725,25.366c-0.125,0.191-0.539,0.318-0.914,0.153c-0.295-0.131-0.275-0.302-0.25-0.469
						c0.02-0.157,0.119-0.461,0.475-0.546c0.051-0.011,0.107-0.011,0.156-0.006c0.182-0.011,0.377,0.041,0.527,0.15
						C687.986,24.852,687.861,25.156,687.725,25.366z"/>
					<path fill="#ACB7DF" d="M694.588,25.627c-0.1,0.094-0.332,0.152-0.463,0.003c-0.105-0.122,0.063-0.316,0.387-0.205
						C694.662,25.472,694.656,25.558,694.588,25.627z"/>
					<path fill="#ACB7DF" d="M695.02,27.883c-0.068,0.16-0.207,0.299-0.432,0.313c-0.42,0.02-0.582-0.467-0.607-0.586
						c-0.025-0.124-0.055-0.296,0.164-0.398c0.35-0.166,0.801,0.042,0.9,0.186C695.094,27.47,695.1,27.691,695.02,27.883z"/>
				</g>
				<g>
					<path fill="#ACB7DF" d="M698.504,21.266c0,0.2-0.326,0.365-0.789,0.246c-0.361-0.091-0.449-0.263-0.531-0.427
						c-0.074-0.155-0.162-0.451,0.133-0.576c0.037-0.017,0.092-0.022,0.15-0.022c0.16-0.033,0.387-0.002,0.592,0.086
						C698.447,20.739,698.504,21.045,698.504,21.266z"/>
					<path fill="#ACB7DF" d="M703.66,23.357c-0.031,0.105-0.225,0.186-0.445,0.053c-0.174-0.103-0.131-0.311,0.25-0.241
						C703.641,23.199,703.686,23.286,703.66,23.357z"/>
					<path fill="#ACB7DF" d="M705.455,25.488c0.025,0.164-0.02,0.313-0.23,0.35c-0.389,0.065-0.84-0.382-0.939-0.493
						c-0.1-0.119-0.23-0.282-0.088-0.407c0.238-0.197,0.795-0.044,0.982,0.08C705.275,25.081,705.418,25.295,705.455,25.488z"/>
				</g>
				<g>
					<path fill="#ACB7DF" d="M661.787,26.921c-0.125,0.194-0.537,0.315-0.912,0.152c-0.295-0.127-0.275-0.304-0.25-0.471
						c0.018-0.158,0.117-0.455,0.475-0.54c0.051-0.015,0.102-0.015,0.156-0.009c0.184-0.012,0.377,0.042,0.525,0.149
						C662.051,26.406,661.926,26.708,661.787,26.921z"/>
					<path fill="#ACB7DF" d="M671.506,19.522c-0.1,0.098-0.338,0.153-0.471,0.003c-0.105-0.119,0.07-0.316,0.396-0.207
						C671.576,19.368,671.576,19.453,671.506,19.522z"/>
					<path fill="#ACB7DF" d="M671.93,21.778c-0.068,0.161-0.199,0.302-0.424,0.31c-0.42,0.022-0.582-0.462-0.607-0.581
						c-0.023-0.122-0.057-0.297,0.154-0.398c0.354-0.167,0.805,0.044,0.904,0.183C672.014,21.365,672.018,21.59,671.93,21.778z"/>
				</g>
			</g>
		</g>
	</g>
	<g>
		<g>
			<g>
				<g>
					<g>
						<path fill="#2c3e50" d="M41.272,23.568h280.011v134.841H0.927V40.548C0.927,31.171,18.985,23.568,41.272,23.568z"/>
					</g>
				</g>
			</g>
			<g>
				<path fill="#2c3e50" d="M306.442,154.549l-13.614-3.688l-18.709-27.974v29.724l-8.521,3.587l-17.251-24.243l-13.584,17.733
					l-7.008-34.722l-6.207,37.645c0,0-7.208-7.811-10.011-12.36c-2.803-4.553-28.713-36.745-28.713-36.745l-11.558,45.003
					l-21.798,4.103l-14.354-45.392l-8.873,36.738l-12.583-36.738l1.771,35.896l-13.615,9.495l-24.346-22.644l-4.486,16.748
					l-21.624,4.996l3.022-24.789l-30.653,25.688l-22.8-28.207v34.005h320.356v-4.162v-29.84L306.442,154.549z"/>
			</g>
			<g>
				<g>
					<path fill="#2c3e50" d="M0.927,43.796v-3.248c0,1.112,0.269,2.195,0.756,3.248H0.927z"/>
				</g>
			</g>
			<g opacity="0.5">
				<path fill="#2c3e50" d="M182.868,110.805c-0.087,0.025-0.044,0.308,0.119,0.813
					C182.999,111.067,182.967,110.774,182.868,110.805z"/>
				<polygon fill="#2c3e50" points="98.73,23.568 73.051,23.568 76.556,48.758 42.448,158.409 74.271,158.409 77.468,135.885
					93.117,158.409 124.002,158.409 100.582,42.466 				"/>
				<path fill="#2c3e50" d="M198.24,23.568h-57.852l-2.227,34.628l-6.226,100.213h43.787c3.009-17.491,7.114-42.063,7.264-46.792
					c-0.163-0.505-0.207-0.787-0.119-0.813c0.1-0.03,0.131,0.263,0.119,0.813c1.507,4.751,13.383,29.313,21.949,46.792h24.283
					l-3.76-96.841L198.24,23.568z"/>
				<path fill="#2c3e50" d="M321.284,23.568h-59.453l1.563,20.228l-19.565,114.613h29.739c1.896-19.868,8.359-88.212,8.536-98.459
					c-0.146-0.809-0.182-1.261-0.1-1.303c0.081-0.044,0.112,0.422,0.1,1.303c1.777,10.297,20.04,78.6,25.378,98.459h13.802V23.568z"
					/>
				<path fill="#2c3e50" d="M25.148,37.625c0,0,8.966,53.659,8.916,60.642c2.428-6.808,28.625-58.482,28.625-58.482L25.148,37.625z"
					/>
				<path fill="#2c3e50" d="M33.933,99.01c0.088-0.021,0.131-0.278,0.131-0.743C33.888,98.762,33.839,99.028,33.933,99.01z"/>
			</g>
			<path fill="#34495e" d="M41.272,23.568h280.011v20.228h-57.89l-37.935,17.772l-87.297-3.372l-37.58-15.73l-24.026,6.292
				L1.684,43.796c-0.488-1.053-0.756-2.136-0.756-3.248C0.927,31.171,18.985,23.568,41.272,23.568z"/>
			<g>
				<path fill="#2c3e50" d="M282.003,30.1c0,0.724,3.484,1.31,7.783,1.31s7.784-0.586,7.784-1.31c0-0.727-3.486-1.313-7.784-1.313
					S282.003,29.373,282.003,30.1z"/>
				<path fill="#2c3e50" d="M268.669,32.474c0,0.408,1.964,0.737,4.38,0.737c2.415,0,4.379-0.329,4.379-0.737
					c0-0.407-1.964-0.736-4.379-0.736C270.633,31.737,268.669,32.066,268.669,32.474z"/>
				<path fill="#2c3e50" d="M229.751,26.138c0,0.409,1.958,0.739,4.379,0.739c2.415,0,4.38-0.33,4.38-0.739
					c0-0.405-1.966-0.735-4.38-0.735C231.709,25.402,229.751,25.732,229.751,26.138z"/>
				<path fill="#2c3e50" d="M184.888,36.132c0,0.726,3.485,1.313,7.784,1.313c4.298,0,7.784-0.588,7.784-1.313
					c0-0.721-3.485-1.309-7.784-1.309C188.373,34.823,184.888,35.411,184.888,36.132z"/>
				<path fill="#2c3e50" d="M136.709,39.323c0,0.407,1.959,0.737,4.38,0.737c2.416,0,4.375-0.33,4.375-0.737
					s-1.959-0.736-4.375-0.736C138.668,38.587,136.709,38.916,136.709,39.323z"/>
				<path fill="#2c3e50" d="M97.786,32.986c0,0.41,1.964,0.737,4.38,0.737c2.421,0,4.379-0.327,4.379-0.737
					c0-0.404-1.958-0.736-4.379-0.736C99.75,32.25,97.786,32.582,97.786,32.986z"/>
				<ellipse fill="#2c3e50" cx="32.425" cy="30.599" rx="7.783" ry="1.313"/>
			</g>
			<path fill="#FFFDE8" d="M321.284,43.796l-28.944,0.222l-28.945,0.164l0.683-0.131c-12.54,5.969-24.959,11.976-37.585,17.908
				l-0.464,0.219l-0.7-0.025c-29.102-1.11-58.228-2.11-87.311-3.313l-0.55-0.023l-0.388-0.159L99.625,42.87l1.67,0.08L77.13,49.149
				l-0.356,0.094l-0.388-0.03l-37.374-2.657l-37.33-2.76l37.536,2.202l37.505,2.307l-0.751,0.063l23.889-6.388l0.901-0.24
				l0.776,0.321l37.697,15.68l-0.938-0.185c29.12,1.045,58.189,2.291,87.285,3.43l-1.158,0.19
				c12.665-5.918,25.528-11.756,38.287-17.639l0.281-0.131h0.4l28.945,0.167L321.284,43.796z"/>
			<g>
				<path fill="#2c3e50" d="M178.481,52.366c0,1.582-9.599,2.867-21.43,2.867c-11.839,0-21.431-1.285-21.431-2.867
					c0-1.585,9.592-2.867,21.431-2.867C168.882,49.499,178.481,50.781,178.481,52.366z"/>
				<path opacity="0.4" fill="#2c3e50" d="M165.448,52.33c0,1.05-6.363,1.9-14.215,1.9c-7.853,0-14.223-0.851-14.223-1.9
					c0-1.053,6.37-1.903,14.223-1.903C159.085,50.427,165.448,51.277,165.448,52.33z"/>
			</g>
			<g>
				<ellipse fill="#2c3e50" cx="62.69" cy="40.548" rx="21.43" ry="2.869"/>
				<ellipse opacity="0.4" fill="#2c3e50" cx="56.868" cy="40.516" rx="14.219" ry="1.9"/>
			</g>
			<g>
				<path fill="#2c3e50" d="M247.295,33.11c0,0.924-5.575,1.669-12.445,1.669c-6.876,0-12.451-0.745-12.451-1.669
					c0-0.919,5.574-1.667,12.451-1.667C241.72,31.443,247.295,32.191,247.295,33.11z"/>
				<path opacity="0.4" fill="#2c3e50" d="M239.725,33.089c0,0.613-3.698,1.108-8.26,1.108c-4.561,0-8.259-0.495-8.259-1.108
					c0-0.609,3.698-1.103,8.259-1.103C236.027,31.986,239.725,32.479,239.725,33.089z"/>
			</g>
			<g>
				<path fill="#2c3e50" d="M235.651,47.613c0,0.924-5.576,1.669-12.445,1.669c-6.876,0-12.451-0.745-12.451-1.669
					c0-0.916,5.574-1.665,12.451-1.665C230.076,45.948,235.651,46.697,235.651,47.613z"/>
				<ellipse opacity="0.4" fill="#2c3e50" cx="219.821" cy="47.595" rx="8.259" ry="1.105"/>
			</g>
			<path fill="#34495e" d="M26.731,47.216l7.333,51.051C34.064,98.267,20.924,76.717,26.731,47.216z"/>
			<path fill="#34495e" d="M75.141,53.294L44.8,150.861C44.8,150.861,75.248,79.125,75.141,53.294z"/>
			<path fill="#34495e" d="M137.867,62.915l-5.794,93.283C132.073,156.198,144.262,93.506,137.867,62.915z"/>
			<path fill="#34495e" d="M77.468,135.885l15.048,21.665C92.516,157.55,91.402,146.716,77.468,135.885z"/>
			<path fill="#34495e" d="M182.917,112.688l-7.046,44.861C175.872,157.55,185.933,132.493,182.917,112.688z"/>
			<path fill="#34495e" d="M225.652,66.598l3.567,88.485C229.219,155.083,232.091,91.935,225.652,66.598z"/>
			<path fill="#34495e" d="M282.034,61.823l-7.915,90.788C274.119,152.611,270.834,92.379,282.034,61.823z"/>
		</g>
		<g>
			<g>
				<g>
					<g>
						<g>
							<path fill="#2c3e50" d="M172.224,27.598l-21.48-21.096c0,0-5.268,0.596-5.418,0.438l-35.252,0.042L74.829,6.939
								c-0.15,0.158-5.419-0.438-5.419-0.438L47.917,27.614h0.019c-0.12,0.077-0.201,0.157-0.201,0.238
								c0,1.727,27.919,3.128,62.357,3.128c34.439,0,62.351-1.401,62.351-3.128C172.443,27.769,172.356,27.68,172.224,27.598z"/>
						</g>
						<polygon opacity="0.5" fill="#2c3e50" points="77.963,7.541 76.242,7.503 72.595,14.724 78.407,9.135 83.262,7.309 						"/>
						<path opacity="0.5" fill="#2c3e50" d="M92.172,9.271l-1.758,12.277l6.715-12.113l0.225-1.512c0,0-0.871-0.326-1.696-0.082
							C94.825,8.088,92.172,9.271,92.172,9.271z"/>
						<path opacity="0.5" fill="#2c3e50" d="M111.626,9.01l-0.307,0.277c0,0,6.25,8.265,6.25,8.32c0,0.054,3.322-8.159,3.322-8.159
							l-2.583-1.699L111.626,9.01z"/>
						<path opacity="0.5" fill="#2c3e50" d="M139.982,12.601c0.908,0.74,1.827,1.475,2.728,2.211
							c-0.257-2.606-0.995-6.356-0.995-6.356s-3.96-1.077-5.362-0.941l-1.727,1.033c0.194,0.031,2.427,0.183,2.427,0.183
							S138.53,10.681,139.982,12.601z"/>
						<path fill="#CDA9C0" d="M110.092,4.43c-22.469,0-40.683,0.932-40.683,2.072c0,0.511,0.963,0.968,6.89,1.331
							c4.729-0.275,5.856-0.233,5.656,0c-0.044,0.052-3.504,1.25-3.548,1.302c3.861,0.188,8.671,0.036,13.765,0.136
							c0.27-0.188,3.724-1.223,3.974-1.416c0.375-0.297,0.994,1.427,0.983,1.58c3.947,0.065,9.485-0.137,13.858-0.137
							c2.14,0,6.427-1.421,6.863-1.169c0.225,0.13,2.828,1.187,3.041,1.319c6.757-0.073,11.094-0.5,16.162-0.719
							c-0.018-0.165-0.657-0.978-0.738-1.141c-0.138-0.288,4.548,0.646,5.4,0.866c6.695-0.367,9.054-1.409,9.054-1.953
							C150.77,5.361,132.561,4.43,110.092,4.43z"/>
						<path fill="#FFFDE8" d="M69.409,6.502c0.012,0.294,0.496,0.532,1.096,0.651c0.582,0.136,1.226,0.223,1.87,0.291
							c1.296,0.141,2.629,0.214,3.961,0.283h-0.068l2.646-0.167c0.908-0.039,1.727-0.119,2.784-0.055
							c0.183-0.017,0.964,0.169,0.563,0.44l-0.494,0.186l-0.983,0.373L78.87,9.204L78.463,8.93l6.827,0.053l6.915-0.003
							l-0.625,0.142c0.318-0.139,0.712-0.308,1.019-0.407l0.914-0.309l0.899-0.308c0.295-0.1,0.639-0.213,0.796-0.278l0.156-0.06
							l0.082-0.027l0.043-0.011l0.019-0.008l0.188-0.101l0.063-0.024c0.15-0.075,0.737-0.092,0.945-0.009
							c0.187,0.064,0.225,0.097,0.307,0.149c0.063,0.056,0.13,0.117,0.163,0.158c0.15,0.188,0.238,0.349,0.319,0.518l0.217,0.493
							l0.094,0.253c0.026,0.095,0.057,0.141,0.07,0.294l-0.72-0.324l12.839-0.139c0.57-0.011,1.064,0,1.483-0.039
							c0.351-0.031,0.876-0.11,1.32-0.199c0.932-0.172,1.852-0.394,2.81-0.612c0.494-0.105,0.925-0.219,1.614-0.311
							c0.075-0.012,0.175-0.025,0.35-0.027c0.131,0,0.289-0.024,0.663,0.071c0.357,0.127,0.219,0.092,0.319,0.127l0.138,0.062
							l0.557,0.247l2.229,0.973l-0.602-0.125l8.041-0.252c1.346-0.042,2.697-0.125,4.042-0.186l4.048-0.194l-0.457,0.223
							l-0.531-0.866l-0.132-0.215l-0.019-0.031l0,0l0.019-0.107l0.006-0.003l0.006-0.006l0.005-0.014
							c-0.043,0.014,0.176-0.127,0.407-0.145c0.332-0.019,0.325,0.004,0.488,0.006c0.419,0.039,0.75,0.098,1.106,0.152
							c1.39,0.235,2.685,0.502,3.987,0.829l-0.22-0.02c1.746-0.098,3.517-0.199,5.169-0.466c0.838-0.116,1.651-0.277,2.365-0.494
							c0.714-0.198,1.439-0.476,1.564-0.858c-0.07,0.386-0.77,0.693-1.465,0.914c-0.7,0.238-1.507,0.425-2.34,0.566
							c-1.658,0.315-3.435,0.465-5.205,0.609L141.671,8.6l-0.125-0.027c-1.245-0.269-2.616-0.513-3.942-0.721
							c-0.332-0.047-0.676-0.098-0.976-0.119c-0.012-0.005-0.206,0-0.056-0.009c0.169,0,0.238-0.157,0.194-0.094l-0.012,0.015v0.008
							l-0.007,0.002l0,0c-0.019,0.095,0.025-0.127,0.019-0.102v0.002l0.019,0.025l0.156,0.228l0.62,0.912l0.125,0.183l-0.582,0.038
							l-4.01,0.252c-1.34,0.078-2.666,0.183-4.018,0.242l-8.166,0.313l-0.275,0.012l-0.326-0.14l-2.258-0.967
							c-0.283-0.155-1.083-0.399-0.444-0.235c-0.332,0.05-0.84,0.163-1.29,0.267c-0.927,0.215-1.865,0.451-2.891,0.647
							c-0.532,0.1-1.001,0.193-1.708,0.255c-0.625,0.054-1.213,0.045-1.72,0.056c-4.242,0.083-8.56,0.092-12.902,0.105l-0.619,0.002
							l-0.094-0.324l-0.131-0.426l-0.194-0.471c-0.068-0.152-0.158-0.312-0.257-0.433l-0.056-0.069
							c0.025,0.02,0.006,0.016,0.124,0.053c0.163,0.078,0.708,0.056,0.814-0.025L96.64,8.076l-0.012,0.006l-0.007,0.002h-0.005
							v0.004c0.075-0.042-0.17,0.085,0.162-0.09l-0.031,0.015l-0.063,0.029L96.56,8.098l-0.263,0.114
							c-0.388,0.166-0.677,0.247-0.982,0.354l-0.925,0.306L93.48,9.171l-0.713,0.252L92.36,9.564l-0.219-0.003L85.29,9.495
							l-6.939-0.152l-1.095-0.025l0.682-0.252l2.109-0.773l1.02-0.363l0.513-0.18c-0.113,0.092,0.163,0.116-0.082,0.084
							c-0.7-0.06-1.671-0.02-2.521,0l-2.641,0.1l-0.049,0.002l-0.019-0.002c-1.333-0.105-2.665-0.211-3.96-0.392
							c-0.645-0.083-1.289-0.188-1.865-0.344C69.848,7.064,69.373,6.794,69.409,6.502z"/>
						<path fill="#2c3e50" d="M134.576,5.401c-0.475,0.159-2.546,0.497-2.453,0.23c0.038-0.113,0.119-0.225,0.2-0.332
							c-3.71-0.152-8.303-0.269-13.44-0.33c-0.412,0.263-2.321,1.081-2.271,0.765c0.043-0.264,0.062-0.523,0.068-0.786
							c-2.065-0.02-4.204-0.028-6.395-0.028c-7.552,0-14.478,0.111-19.897,0.3c0,0.169-0.82,0.858-1.195,0.645
							c-0.331-0.179-0.626-0.37-0.913-0.566c-5.813,0.24-9.429,0.57-9.429,0.941c0,0.729,14.077,1.318,31.434,1.318
							c17.362,0,31.429-0.589,31.429-1.318C141.715,5.92,139.03,5.632,134.576,5.401z"/>
						<path fill="#2c3e50" d="M110.737,5.868c-8.215-0.022-16.319,0.443-24.284,1.229c5.763,0.28,14.298,0.46,23.833,0.46
							c10.574,0,19.929-0.219,25.623-0.557C127.556,6.466,119.184,5.898,110.737,5.868z"/>
						<path opacity="0.5" fill="#2c3e50" d="M64.522,16.818c0,0-4.768,3.45-7.239,5.866c-2.472,2.422-2.584,4.876-2.584,4.876
							l3.923-3.33L64.522,16.818z"/>
						<path opacity="0.5" fill="#2c3e50" d="M83.262,14.738c0,0-4.768,4.371-7.245,7.441c-2.473,3.067-2.578,6.186-2.578,6.186
							l6.758-3.933L83.262,14.738z"/>
						<path opacity="0.5" fill="#2c3e50" d="M106.307,14.009c0,0,1.527,3.251,2.002,5.467c0.482,2.22-0.656,4.306-0.656,4.306
							l-3.047-3.092L106.307,14.009z"/>
						<path opacity="0.5" fill="#2c3e50" d="M132.693,19.896c0,0,3.315,2.998,5.03,5.103c1.714,2.103,1.789,4.246,1.789,4.246
							l-4.698-2.692L132.693,19.896z"/>
						<path opacity="0.5" fill="#2c3e50" d="M136.241,17.043c0,0,1.595,1.446,2.421,2.46c0.833,1.014,0.864,2.045,0.864,2.045
							l-2.265-1.296L136.241,17.043z"/>
						<path opacity="0.5" fill="#2c3e50" d="M83.163,25.353c0,0-0.538,1.58-1.164,2.621c-0.626,1.039-1.933,1.909-1.933,1.909
							l-0.207-1.615L83.163,25.353z"/>
						<path opacity="0.5" fill="#2c3e50" d="M68.546,14.779c0,0-0.532,1.579-1.158,2.621c-0.625,1.039-1.933,1.909-1.933,1.909
							l-0.207-1.615L68.546,14.779z"/>
						<path opacity="0.5" fill="#2c3e50" d="M147.365,12.141c0,0,3.31,3.001,5.031,5.104c1.714,2.105,1.783,4.247,1.783,4.247
							l-4.7-2.692L147.365,12.141z"/>
					</g>
					<path opacity="0.5" fill="#2c3e50" d="M160.517,23.885c0,0-1.389-1.075-2.133-1.841c-0.751-0.762-0.895-1.552-0.895-1.552
						l1.883,0.95L160.517,23.885z"/>
				</g>
				<g>
					<path fill="#ACB7DF" d="M121.831,25.419c-0.414-0.468-1.509-0.736-2.366-0.288c-0.65,0.353-0.505,0.782-0.362,1.194
						c0.138,0.391,0.544,1.126,1.476,1.309c0.133,0.027,0.269,0.019,0.407,0c0.451,0.01,0.909-0.139,1.215-0.425
						C122.769,26.678,122.282,25.935,121.831,25.419z"/>
					<path fill="#ACB7DF" d="M125.271,27.952c-0.299-0.233-0.913-0.35-1.163,0.035c-0.194,0.314,0.337,0.781,1.088,0.475
						C125.529,28.329,125.478,28.112,125.271,27.952z"/>
					<path fill="#ACB7DF" d="M125.116,22.283c-0.264-0.394-0.675-0.726-1.24-0.731c-1.05-0.012-1.201,1.21-1.195,1.507
						c0.007,0.315,0.026,0.748,0.62,0.986c0.958,0.376,1.965-0.19,2.14-0.548C125.535,23.305,125.435,22.75,125.116,22.283z"/>
				</g>
				<g>
					<path fill="#ACB7DF" d="M99.438,22.174c0.238,0.375,1.038,0.618,1.77,0.294c0.563-0.249,0.532-0.587,0.488-0.91
						c-0.043-0.306-0.232-0.885-0.926-1.054c-0.094-0.022-0.2-0.022-0.307-0.014c-0.351-0.02-0.725,0.08-1.013,0.29
						C98.917,21.177,99.167,21.762,99.438,22.174z"/>
					<path fill="#ACB7DF" d="M86.11,22.676c0.188,0.191,0.645,0.303,0.9,0.009c0.207-0.233-0.125-0.612-0.757-0.399
						C85.972,22.38,85.972,22.549,86.11,22.676z"/>
					<path fill="#ACB7DF" d="M85.271,27.06c0.138,0.311,0.4,0.58,0.839,0.604c0.807,0.039,1.125-0.9,1.176-1.129
						c0.05-0.246,0.106-0.578-0.313-0.781c-0.676-0.321-1.552,0.086-1.746,0.36C85.121,26.257,85.108,26.688,85.271,27.06z"/>
				</g>
				<g>
					<path fill="#ACB7DF" d="M78.507,14.214c0,0.388,0.626,0.709,1.533,0.479c0.702-0.177,0.87-0.509,1.026-0.825
						c0.145-0.299,0.313-0.881-0.25-1.12c-0.082-0.032-0.182-0.044-0.294-0.046c-0.319-0.062-0.751-0.003-1.151,0.169
						C78.62,13.19,78.501,13.787,78.507,14.214z"/>
					<path fill="#ACB7DF" d="M68.497,18.275c0.068,0.2,0.438,0.357,0.864,0.105c0.344-0.201,0.25-0.606-0.488-0.468
						C68.54,17.971,68.445,18.134,68.497,18.275z"/>
					<path fill="#ACB7DF" d="M65.019,22.412c-0.057,0.316,0.03,0.607,0.444,0.68c0.756,0.125,1.633-0.745,1.819-0.962
						c0.194-0.23,0.458-0.546,0.169-0.789c-0.455-0.383-1.545-0.087-1.901,0.155C65.361,21.623,65.086,22.036,65.019,22.412z"/>
				</g>
				<g>
					<path fill="#ACB7DF" d="M149.78,25.194c0.239,0.375,1.04,0.615,1.778,0.292c0.562-0.247,0.526-0.588,0.481-0.906
						c-0.043-0.311-0.23-0.891-0.925-1.059c-0.094-0.022-0.201-0.022-0.307-0.011c-0.35-0.023-0.726,0.08-1.014,0.29
						C149.267,24.194,149.512,24.782,149.78,25.194z"/>
					<path fill="#ACB7DF" d="M130.921,10.828c0.188,0.19,0.646,0.302,0.901,0.008c0.207-0.235-0.131-0.612-0.764-0.399
						C130.785,10.531,130.785,10.7,130.921,10.828z"/>
					<path fill="#ACB7DF" d="M130.083,15.211c0.138,0.311,0.401,0.582,0.838,0.602c0.808,0.042,1.127-0.897,1.177-1.124
						c0.051-0.248,0.107-0.583-0.313-0.782c-0.676-0.322-1.552,0.085-1.746,0.36C129.934,14.408,129.921,14.84,130.083,15.211z"/>
				</g>
			</g>
			<g>
				<g>
					<g>
						<g>
							<path fill="#2c3e50" d="M234.356,26.819l-7.252-7.122c0,0-1.776,0.203-1.828,0.149l-11.9,0.014l-11.895-0.014
								c-0.056,0.054-1.833-0.149-1.833-0.149l-7.251,7.126h0.007c-0.044,0.028-0.069,0.054-0.069,0.081
								c0,0.585,9.423,1.056,21.049,1.056c11.625,0,21.047-0.471,21.047-1.056C234.43,26.874,234.399,26.847,234.356,26.819z"/>
						</g>
						<polygon opacity="0.5" fill="#2c3e50" points="202.533,20.049 201.957,20.035 200.726,22.474 202.683,20.586 204.323,19.97
													"/>
						<path opacity="0.5" fill="#2c3e50" d="M207.333,20.634l-0.594,4.146l2.265-4.09l0.081-0.513c0,0-0.295-0.111-0.576-0.028
							C208.227,20.232,207.333,20.634,207.333,20.634z"/>
						<path opacity="0.5" fill="#2c3e50" d="M213.902,20.542l-0.107,0.098c0,0,2.109,2.787,2.109,2.808
							c0,0.016,1.126-2.756,1.126-2.756l-0.875-0.572L213.902,20.542z"/>
						<path opacity="0.5" fill="#2c3e50" d="M223.468,21.759c0.307,0.246,0.62,0.494,0.927,0.745
							c-0.086-0.881-0.338-2.146-0.338-2.146s-1.333-0.363-1.815-0.319l-0.575,0.35c0.062,0.011,0.819,0.061,0.819,0.061
							S222.98,21.11,223.468,21.759z"/>
						<path fill="#CDA9C0" d="M213.383,18.996c-7.584,0-13.735,0.316-13.735,0.701c0,0.172,0.327,0.327,2.329,0.449
							c1.595-0.092,1.978-0.077,1.908,0c-0.018,0.019-1.182,0.424-1.202,0.439c1.308,0.065,2.929,0.012,4.65,0.048
							c0.094-0.063,1.257-0.413,1.339-0.479c0.131-0.1,0.337,0.481,0.332,0.535c1.338,0.02,3.203-0.048,4.679-0.048
							c0.726,0,2.171-0.479,2.316-0.396c0.081,0.044,0.957,0.399,1.032,0.445c2.277-0.024,3.742-0.169,5.456-0.243
							c-0.006-0.056-0.225-0.329-0.25-0.385c-0.051-0.098,1.532,0.219,1.82,0.294c2.259-0.125,3.054-0.475,3.054-0.66
							C227.111,19.313,220.965,18.996,213.383,18.996z"/>
						<path fill="#FFFDE8" d="M199.648,19.697c0.007,0.098,0.169,0.18,0.37,0.219c0.2,0.048,0.412,0.078,0.632,0.098
							c0.438,0.05,0.888,0.074,1.338,0.1h-0.024l0.894-0.059c0.307-0.011,0.582-0.041,0.938-0.02
							c0.064-0.006,0.327,0.059,0.188,0.149l-0.162,0.063l-0.332,0.125l-0.645,0.236l-0.138-0.093l2.304,0.02l2.334-0.002
							l-0.213,0.048c0.106-0.046,0.244-0.104,0.344-0.14l0.307-0.103l0.307-0.105c0.1-0.03,0.212-0.069,0.269-0.094l0.05-0.02
							l0.031-0.008l0.013-0.003l0.007-0.003l0.062-0.036l0.019-0.008c0.057-0.022,0.257-0.03,0.326-0.004
							c0.063,0.023,0.075,0.037,0.1,0.054c0.025,0.016,0.043,0.038,0.056,0.052c0.05,0.062,0.082,0.117,0.106,0.175l0.075,0.167
							l0.031,0.085c0.007,0.031,0.02,0.05,0.02,0.1l-0.238-0.109l4.336-0.046c0.188-0.004,0.356,0,0.5-0.014
							c0.112-0.011,0.294-0.038,0.445-0.069c0.313-0.058,0.625-0.13,0.945-0.205c0.168-0.035,0.313-0.074,0.544-0.104
							c0.025-0.005,0.063-0.009,0.119-0.011c0.05,0,0.1-0.01,0.225,0.027c0.119,0.042,0.075,0.028,0.113,0.042l0.043,0.019
							l0.188,0.083l0.75,0.33l-0.2-0.042l2.709-0.085c0.457-0.017,0.914-0.042,1.364-0.064l1.37-0.063l-0.156,0.072l-0.175-0.288
							l-0.05-0.075l-0.006-0.011l0,0l0.006-0.036h0.007v-0.003l0.005-0.005c-0.019,0.005,0.056-0.042,0.131-0.048
							c0.113-0.008,0.113,0,0.169,0.003c0.137,0.012,0.25,0.031,0.375,0.05c0.47,0.077,0.901,0.169,1.34,0.28l-0.069-0.006
							c0.588-0.036,1.188-0.068,1.739-0.158c0.288-0.041,0.563-0.095,0.801-0.166c0.245-0.069,0.489-0.161,0.526-0.291
							c-0.02,0.13-0.256,0.235-0.495,0.311c-0.232,0.08-0.508,0.144-0.789,0.188c-0.557,0.107-1.156,0.157-1.752,0.207l-0.038,0.004
							L224,20.396c-0.419-0.088-0.882-0.172-1.333-0.241c-0.112-0.016-0.225-0.035-0.325-0.041c-0.007,0-0.075,0-0.019-0.003
							c0.05,0,0.075-0.053,0.063-0.033l-0.006,0.006v0.002v0.003l0,0c-0.006,0.031,0.006-0.044,0.006-0.036v0.003l0.006,0.005
							l0.056,0.079l0.207,0.307l0.043,0.063l-0.199,0.012l-1.352,0.086c-0.451,0.027-0.901,0.061-1.358,0.083l-2.753,0.105
							l-0.094,0.002l-0.113-0.046l-0.763-0.328c-0.093-0.05-0.362-0.135-0.149-0.079c-0.113,0.016-0.282,0.055-0.432,0.091
							c-0.313,0.072-0.632,0.151-0.977,0.217c-0.181,0.038-0.337,0.065-0.575,0.088c-0.212,0.018-0.413,0.014-0.582,0.018
							c-1.433,0.029-2.89,0.032-4.355,0.038h-0.213l-0.031-0.111l-0.043-0.144l-0.063-0.158c-0.025-0.053-0.056-0.105-0.087-0.147
							l-0.019-0.021c0.007,0.008,0,0.006,0.043,0.017c0.058,0.028,0.239,0.019,0.271-0.009l-0.013,0.006l-0.007,0.003v0.003l0,0l0,0
							c0.025-0.012-0.057,0.03,0.057-0.028l-0.013,0.003l-0.019,0.012l-0.044,0.016l-0.094,0.039
							c-0.124,0.056-0.225,0.086-0.325,0.119l-0.313,0.103l-0.307,0.103l-0.243,0.086l-0.138,0.048h-0.069l-2.314-0.022
							l-2.347-0.053l-0.363-0.011l0.227-0.084l0.713-0.26l0.343-0.123l0.176-0.06c-0.038,0.032,0.05,0.041-0.031,0.027
							c-0.239-0.02-0.563-0.006-0.852,0l-0.889,0.032h-0.018h-0.006c-0.451-0.032-0.902-0.068-1.34-0.13
							c-0.218-0.029-0.431-0.063-0.625-0.116C199.799,19.889,199.635,19.795,199.648,19.697z"/>
						<path fill="#2c3e50" d="M221.648,19.326c-0.163,0.052-0.863,0.167-0.826,0.077c0.013-0.035,0.038-0.075,0.063-0.11
							c-1.251-0.053-2.796-0.092-4.536-0.114c-0.138,0.09-0.783,0.366-0.764,0.261c0.013-0.089,0.019-0.177,0.019-0.269
							c-0.695-0.006-1.413-0.008-2.159-0.008c-2.546,0-4.886,0.038-6.713,0.1c0,0.058-0.275,0.294-0.407,0.219
							c-0.107-0.059-0.207-0.125-0.306-0.191c-1.959,0.08-3.178,0.193-3.178,0.318c0,0.244,4.749,0.446,10.604,0.446
							c5.863,0,10.612-0.202,10.612-0.446C224.057,19.501,223.15,19.403,221.648,19.326z"/>
						<path fill="#2c3e50" d="M213.602,19.483c-2.771-0.008-5.506,0.15-8.203,0.417c1.952,0.094,4.831,0.154,8.046,0.154
							c3.573,0,6.726-0.075,8.653-0.188C219.276,19.686,216.454,19.493,213.602,19.483z"/>
						<path opacity="0.5" fill="#2c3e50" d="M197.998,23.181c0,0-1.609,1.163-2.441,1.981c-0.838,0.814-0.87,1.646-0.87,1.646
							l1.32-1.125L197.998,23.181z"/>
						<path opacity="0.5" fill="#2c3e50" d="M204.323,22.476c0,0-1.608,1.479-2.44,2.514c-0.838,1.033-0.871,2.09-0.871,2.09
							l2.279-1.33L204.323,22.476z"/>
						<path opacity="0.5" fill="#2c3e50" d="M212.106,22.233c0,0,0.513,1.097,0.675,1.844c0.163,0.749-0.226,1.456-0.226,1.456
							l-1.026-1.047L212.106,22.233z"/>
						<path opacity="0.5" fill="#2c3e50" d="M221.01,24.217c0,0,1.119,1.015,1.701,1.724c0.575,0.712,0.601,1.436,0.601,1.436
							l-1.583-0.91L221.01,24.217z"/>
						<path opacity="0.5" fill="#2c3e50" d="M222.211,23.255c0,0,0.538,0.488,0.813,0.832c0.282,0.34,0.295,0.689,0.295,0.689
							l-0.763-0.438L222.211,23.255z"/>
						<path opacity="0.5" fill="#2c3e50" d="M204.292,26.063c0,0-0.182,0.534-0.394,0.884c-0.214,0.35-0.652,0.646-0.652,0.646
							l-0.068-0.546L204.292,26.063z"/>
						<path opacity="0.5" fill="#2c3e50" d="M199.361,22.493c0,0-0.182,0.532-0.395,0.884c-0.213,0.353-0.651,0.643-0.651,0.643
							l-0.075-0.546L199.361,22.493z"/>
						<path opacity="0.5" fill="#2c3e50" d="M225.965,21.604c0,0,1.114,1.009,1.695,1.721c0.583,0.713,0.606,1.433,0.606,1.433
							l-1.589-0.908L225.965,21.604z"/>
					</g>
					<path opacity="0.5" fill="#2c3e50" d="M230.402,25.565c0,0-0.463-0.362-0.72-0.62c-0.251-0.258-0.299-0.526-0.299-0.526
						l0.63,0.321L230.402,25.565z"/>
				</g>
				<g>
					<path fill="#ACB7DF" d="M217.343,26.084c-0.138-0.157-0.506-0.249-0.794-0.097c-0.225,0.116-0.175,0.264-0.125,0.402
						c0.044,0.132,0.182,0.38,0.501,0.439c0.043,0.012,0.087,0.009,0.138,0c0.15,0.006,0.306-0.044,0.407-0.141
						C217.662,26.509,217.5,26.257,217.343,26.084z"/>
					<path fill="#ACB7DF" d="M218.507,26.938c-0.101-0.075-0.307-0.119-0.394,0.014c-0.063,0.105,0.112,0.263,0.369,0.161
						C218.595,27.065,218.576,26.992,218.507,26.938z"/>
					<path fill="#ACB7DF" d="M218.457,25.023c-0.093-0.13-0.231-0.241-0.419-0.244c-0.356-0.005-0.407,0.407-0.407,0.508
						c0,0.104,0.006,0.251,0.213,0.332c0.319,0.13,0.664-0.063,0.72-0.187C218.595,25.372,218.563,25.182,218.457,25.023z"/>
				</g>
				<g>
					<path fill="#ACB7DF" d="M209.785,24.989c0.082,0.125,0.35,0.208,0.6,0.098c0.188-0.084,0.176-0.197,0.164-0.305
						c-0.013-0.105-0.082-0.302-0.314-0.361c-0.031-0.004-0.068-0.004-0.106-0.002c-0.119-0.006-0.244,0.027-0.338,0.1
						C209.609,24.649,209.697,24.849,209.785,24.989z"/>
					<path fill="#ACB7DF" d="M205.287,25.158c0.062,0.062,0.219,0.101,0.299,0.004c0.075-0.081-0.037-0.209-0.25-0.137
						C205.242,25.059,205.242,25.112,205.287,25.158z"/>
					<path fill="#ACB7DF" d="M205.004,26.639c0.044,0.105,0.132,0.194,0.283,0.202c0.274,0.014,0.381-0.302,0.394-0.383
						c0.019-0.08,0.044-0.193-0.1-0.263c-0.232-0.107-0.526,0.033-0.594,0.125C204.955,26.366,204.948,26.511,205.004,26.639z"/>
				</g>
				<g>
					<path fill="#ACB7DF" d="M202.721,22.299c0,0.133,0.211,0.242,0.519,0.163c0.232-0.06,0.288-0.171,0.343-0.276
						c0.051-0.105,0.107-0.3-0.086-0.38c-0.025-0.01-0.057-0.016-0.095-0.016c-0.112-0.023-0.256,0-0.393,0.058
						C202.758,21.955,202.721,22.155,202.721,22.299z"/>
					<path fill="#ACB7DF" d="M199.342,23.674c0.02,0.065,0.15,0.119,0.293,0.033c0.114-0.066,0.082-0.202-0.169-0.158
						C199.354,23.568,199.323,23.624,199.342,23.674z"/>
					<path fill="#ACB7DF" d="M198.166,25.067c-0.02,0.108,0.014,0.204,0.149,0.229c0.257,0.042,0.551-0.248,0.614-0.323
						c0.069-0.075,0.157-0.184,0.057-0.267c-0.15-0.127-0.52-0.027-0.639,0.052C198.284,24.801,198.191,24.943,198.166,25.067z"/>
				</g>
				<g>
					<path fill="#ACB7DF" d="M226.778,26.009c0.081,0.125,0.352,0.208,0.602,0.098c0.187-0.086,0.174-0.197,0.162-0.305
						c-0.012-0.105-0.075-0.302-0.312-0.36c-0.033-0.009-0.07-0.009-0.107-0.003c-0.112-0.008-0.244,0.027-0.338,0.098
						C226.604,25.669,226.691,25.865,226.778,26.009z"/>
					<path fill="#ACB7DF" d="M220.415,21.158c0.063,0.063,0.213,0.102,0.3,0.002c0.069-0.08-0.044-0.205-0.256-0.136
						C220.365,21.059,220.365,21.116,220.415,21.158z"/>
					<path fill="#ACB7DF" d="M220.134,22.637c0.043,0.105,0.131,0.194,0.281,0.203c0.276,0.014,0.382-0.303,0.394-0.38
						c0.02-0.083,0.038-0.193-0.106-0.263c-0.225-0.111-0.52,0.03-0.588,0.121C220.078,22.366,220.078,22.51,220.134,22.637z"/>
				</g>
			</g>
		</g>
	</g>
	<g>
		<g>
			<path fill="#34495e" d="M536.18,121.378l5.92,33.705C542.1,155.083,544.088,134.64,536.18,121.378z"/>
			<g>
				<g>
					<rect x="320.972" y="23.568" fill="#2c3e50" width="320.356" height="134.841"/>
					<g>
						<path fill="#2c3e50" d="M626.486,154.549l-13.615-3.688l-18.709-27.974v29.724l-8.521,3.587l-17.25-24.243l-13.584,17.733
							l-7.008-34.722l-6.207,37.645c0,0-7.207-7.811-10.012-12.36c-2.803-4.553-28.711-36.745-28.711-36.745l-11.559,45.003
							l-21.799,4.103l-14.354-45.392l-8.871,36.738l-12.583-36.738l1.771,35.896l-13.616,9.495l-24.346-22.644l-4.486,16.748
							l-21.625,4.996l3.022-24.789l-30.654,25.688l-22.799-28.207v34.005h320.356v-4.162v-29.84L626.486,154.549z"/>
					</g>
					<g opacity="0.5">
						<path fill="#2c3e50" d="M468.01,23.568h-19.634l-11.581,24.317l-13.209,110.523h40.183l-21.969-99.764
							C441.799,58.646,457.699,36.719,468.01,23.568z"/>
						<path fill="#2c3e50" d="M409.458,23.568h-53.635l0.344,28.786c0,0,22.181,75.505,29.802,106.055h29.727V45.894L409.458,23.568
							z"/>
						<polygon fill="#2c3e50" points="641.328,23.568 589.414,23.568 608.51,45.134 582.463,158.409 604.807,158.409
							607.465,83.972 628.07,158.409 641.328,158.409 						"/>
						<path fill="#2c3e50" d="M558.572,23.568h-48.441c3.65,15.019,8.076,35.077,8.076,35.077l-28.441,99.764h31.762l14.652-37.031
							l6.506,37.031h20.561l-3.121-95.494C560.125,62.915,559.551,43.083,558.572,23.568z"/>
						<polygon fill="#2c3e50" points="338.516,145.086 367.11,120.658 340.981,77.385 						"/>
					</g>
					<polygon fill="#34495e" points="641.328,43.796 641.328,23.568 320.972,23.568 320.972,43.796 356.167,52.354 415.695,45.894
						436.794,47.886 441.799,58.646 518.207,58.646 560.125,62.915 608.51,45.134 					"/>
					<path fill="#FFFDE8" d="M641.328,43.796l-32.875,1.095l-0.174,0.005l-0.156,0.053c-16.201,5.747-32.219,11.585-48.33,17.379
						l-41.238-4.283l-0.164-0.017l-0.184-0.004l-38.203-0.048l-36.979,0.04l-4.842-10.243l-0.182-0.386l-0.895-0.08l-21.124-1.959
						l-0.318-0.031l-0.301,0.036l-59.109,6.687l-35.283-8.243l34.844,8.814l0.238,0.061l0.288-0.03l59.36-6.174l19.878,1.912
						l4.75,10.386l0.23,0.507l1.238,0.002l38.206,0.039l38.042-0.053l41.771,4.185l0.662,0.063l0.49-0.183
						c15.924-5.991,31.947-11.926,47.791-17.955L641.328,43.796z"/>
					<g>
						<path fill="#2c3e50" d="M360.252,30.1c0,0.724-3.484,1.31-7.784,1.31c-4.297,0-7.783-0.586-7.783-1.31
							c0-0.727,3.485-1.313,7.783-1.313C356.768,28.786,360.252,29.373,360.252,30.1z"/>
						<path fill="#2c3e50" d="M373.586,32.474c0,0.408-1.964,0.737-4.379,0.737c-2.416,0-4.38-0.329-4.38-0.737
							c0-0.407,1.964-0.736,4.38-0.736C371.622,31.737,373.586,32.066,373.586,32.474z"/>
						<path fill="#2c3e50" d="M412.504,26.138c0,0.409-1.958,0.739-4.379,0.739c-2.416,0-4.38-0.33-4.38-0.739
							c0-0.405,1.964-0.735,4.38-0.735C410.546,25.402,412.504,25.732,412.504,26.138z"/>
						<path fill="#2c3e50" d="M457.367,36.132c0,0.726-3.484,1.313-7.783,1.313s-7.785-0.588-7.785-1.313
							c0-0.721,3.486-1.309,7.785-1.309S457.367,35.411,457.367,36.132z"/>
						<path fill="#2c3e50" d="M505.545,39.323c0,0.407-1.959,0.737-4.381,0.737c-2.414,0-4.373-0.33-4.373-0.737
							s1.959-0.736,4.373-0.736C503.586,38.587,505.545,38.916,505.545,39.323z"/>
						<path fill="#2c3e50" d="M544.471,32.986c0,0.41-1.965,0.737-4.381,0.737c-2.422,0-4.381-0.327-4.381-0.737
							c0-0.404,1.959-0.736,4.381-0.736C542.506,32.25,544.471,32.582,544.471,32.986z"/>
						<ellipse fill="#2c3e50" cx="609.831" cy="30.599" rx="7.784" ry="1.313"/>
					</g>
				</g>
				<g>
					<path fill="#2c3e50" d="M577.037,48.739c0,2.732-16.537,4.946-36.947,4.946c-20.402,0-36.947-2.214-36.947-4.946
						c0-2.731,16.545-4.943,36.947-4.943C560.5,43.796,577.037,46.008,577.037,48.739z"/>
					<path opacity="0.4" fill="#2c3e50" d="M554.568,48.679c0,1.812-10.973,3.28-24.508,3.28c-13.539,0-24.516-1.469-24.516-3.28
						c0-1.813,10.977-3.281,24.516-3.281C543.596,45.397,554.568,46.866,554.568,48.679z"/>
				</g>
				<g>
					<path fill="#2c3e50" d="M376.758,43.242c0,1.222-7.389,2.208-16.5,2.208c-9.116,0-16.505-0.986-16.505-2.208
						c0-1.22,7.389-2.208,16.505-2.208C369.369,41.034,376.758,42.022,376.758,43.242z"/>
					<path opacity="0.4" fill="#2c3e50" d="M366.723,43.214c0,0.809-4.899,1.463-10.95,1.463c-6.044,0-10.944-0.654-10.944-1.463
						s4.9-1.463,10.944-1.463C361.824,41.751,366.723,42.405,366.723,43.214z"/>
				</g>
				<g>
					<path fill="#2c3e50" d="M517.51,31.409c0,1.345-8.141,2.434-18.184,2.434s-18.176-1.089-18.176-2.434
						c0-1.343,8.133-2.432,18.176-2.432S517.51,30.066,517.51,31.409z"/>
					<path opacity="0.4" fill="#2c3e50" d="M506.453,31.38c0,0.892-5.4,1.612-12.064,1.612c-6.656,0-12.055-0.721-12.055-1.612
						c0-0.893,5.398-1.613,12.055-1.613C501.053,29.767,506.453,30.487,506.453,31.38z"/>
				</g>
				<path fill="#34495e" d="M356.799,54.517l28.331,100.566C385.13,155.083,371.659,71.485,356.799,54.517z"/>
				<path fill="#34495e" d="M340.981,77.385l-2.465,67.701C338.516,145.086,330.719,102.079,340.981,77.385z"/>
				<path fill="#34495e" d="M434.93,63.508l-10.756,89.958C424.174,153.466,423.585,90.986,434.93,63.508z"/>
				<path fill="#34495e" d="M515.438,68.362l-24.26,85.104C491.178,153.466,500.822,84.763,515.438,68.362z"/>
				<path fill="#34495e" d="M604.418,62.915l-20.623,89.696C583.795,152.611,605.813,86.714,604.418,62.915z"/>
			</g>
		</g>
		<g>
			<g>
				<g>
					<g>
						<g>
							<path fill="#2c3e50" d="M421.747,26.278l-13.553-13.313c0,0-3.323,0.378-3.423,0.278l-22.244,0.025l-22.244-0.025
								c-0.092,0.1-3.416-0.278-3.416-0.278l-13.564,13.321h0.012c-0.075,0.05-0.124,0.099-0.124,0.152
								c0,1.089,17.613,1.972,39.349,1.972c21.731,0,39.344-0.883,39.344-1.972C421.883,26.386,421.833,26.331,421.747,26.278z"/>
						</g>
						<polygon opacity="0.5" fill="#2c3e50" points="362.26,13.623 361.178,13.596 358.875,18.151 362.542,14.627 365.609,13.475
													"/>
						<path opacity="0.5" fill="#2c3e50" d="M371.233,14.713l-1.114,7.747l4.236-7.645l0.144-0.953c0,0-0.551-0.205-1.07-0.054
							C372.904,13.965,371.233,14.713,371.233,14.713z"/>
						<path opacity="0.5" fill="#2c3e50" d="M383.51,14.549l-0.201,0.175c0,0,3.948,5.215,3.948,5.248
							c0,0.036,2.097-5.148,2.097-5.148l-1.626-1.069L383.51,14.549z"/>
						<path opacity="0.5" fill="#2c3e50" d="M401.398,16.816c0.576,0.465,1.158,0.928,1.728,1.393
							c-0.169-1.646-0.632-4.009-0.632-4.009s-2.497-0.68-3.384-0.597l-1.09,0.654c0.126,0.014,1.534,0.114,1.534,0.114
							S400.485,15.603,401.398,16.816z"/>
						<path fill="#CDA9C0" d="M382.54,11.658c-14.178,0-25.672,0.588-25.672,1.308c0,0.322,0.607,0.607,4.349,0.838
							c2.978-0.175,3.691-0.145,3.567,0.003c-0.025,0.033-2.216,0.786-2.241,0.82c2.441,0.119,5.477,0.021,8.692,0.086
							c0.169-0.12,2.347-0.768,2.503-0.893c0.237-0.191,0.625,0.9,0.62,0.995c2.496,0.042,5.987-0.083,8.747-0.083
							c1.352,0,4.055-0.898,4.331-0.741c0.143,0.084,1.783,0.749,1.92,0.832c4.267-0.044,7.001-0.313,10.199-0.451
							c-0.013-0.105-0.414-0.618-0.463-0.721c-0.087-0.183,2.866,0.405,3.404,0.549c4.224-0.235,5.713-0.893,5.713-1.234
							C408.207,12.246,396.718,11.658,382.54,11.658z"/>
						<path fill="#FFFDE8" d="M356.867,12.966c0.006,0.185,0.313,0.336,0.688,0.411c0.371,0.086,0.776,0.142,1.183,0.183
							c0.814,0.089,1.658,0.133,2.498,0.181h-0.045l1.673-0.108c0.575-0.022,1.094-0.072,1.757-0.034
							c0.118-0.01,0.607,0.105,0.357,0.28l-0.313,0.117l-0.62,0.234l-1.207,0.441l-0.257-0.175l4.306,0.036l4.368-0.003
							l-0.395,0.089c0.201-0.086,0.451-0.194,0.638-0.255l0.583-0.199l0.569-0.191c0.182-0.061,0.4-0.133,0.493-0.177l0.101-0.037
							l0.05-0.019l0.031-0.006l0.013-0.006l0.12-0.061l0.038-0.017c0.093-0.048,0.469-0.058,0.593-0.006
							c0.12,0.039,0.145,0.063,0.194,0.095c0.044,0.036,0.087,0.074,0.106,0.1c0.094,0.116,0.144,0.219,0.2,0.324l0.138,0.313
							l0.056,0.16c0.02,0.059,0.038,0.089,0.044,0.186l-0.451-0.205l8.103-0.086c0.356-0.009,0.669,0,0.932-0.028
							c0.226-0.019,0.557-0.068,0.839-0.124c0.588-0.11,1.163-0.25,1.771-0.385c0.312-0.067,0.582-0.142,1.013-0.199
							c0.05-0.006,0.113-0.012,0.225-0.014c0.082,0,0.182-0.018,0.419,0.044c0.225,0.08,0.139,0.058,0.201,0.08l0.087,0.039
							l0.35,0.155l1.408,0.615l-0.381-0.078l5.075-0.16c0.851-0.028,1.702-0.081,2.552-0.117l2.553-0.125l-0.288,0.142l-0.337-0.545
							l-0.081-0.14l-0.013-0.014v-0.002l0.013-0.067l0.005-0.002v-0.006l0.006-0.008c-0.031,0.008,0.106-0.078,0.257-0.09
							c0.207-0.014,0.207,0,0.307,0.003c0.269,0.022,0.475,0.062,0.7,0.095c0.876,0.149,1.689,0.315,2.515,0.524l-0.137-0.016
							c1.101-0.058,2.221-0.124,3.26-0.29c0.532-0.075,1.039-0.177,1.495-0.311c0.45-0.127,0.907-0.304,0.983-0.544
							c-0.044,0.242-0.482,0.436-0.927,0.578c-0.438,0.148-0.95,0.269-1.477,0.354c-1.039,0.203-2.166,0.294-3.279,0.386
							l-0.056,0.006l-0.082-0.02c-0.782-0.167-1.651-0.322-2.483-0.452c-0.213-0.03-0.432-0.061-0.62-0.077
							c-0.005-0.003-0.131,0-0.031-0.006c0.1,0,0.145-0.097,0.119-0.056l-0.006,0.006v0.006l-0.006,0.002l0,0
							c-0.013,0.062,0.012-0.077,0.012-0.066v0.003l0.012,0.017l0.101,0.142l0.388,0.576l0.082,0.116l-0.37,0.024l-2.528,0.159
							c-0.851,0.05-1.683,0.116-2.54,0.152l-5.151,0.196l-0.175,0.009l-0.207-0.086l-1.42-0.613
							c-0.182-0.096-0.688-0.251-0.282-0.146c-0.211,0.029-0.532,0.102-0.813,0.169c-0.588,0.133-1.176,0.282-1.827,0.407
							c-0.331,0.063-0.631,0.121-1.075,0.159c-0.396,0.037-0.771,0.028-1.09,0.037c-2.678,0.053-5.4,0.058-8.14,0.066h-0.388
							l-0.063-0.205l-0.082-0.271l-0.125-0.294c-0.044-0.097-0.094-0.193-0.157-0.274l-0.038-0.042
							c0.013,0.012,0.007,0.012,0.082,0.031c0.1,0.05,0.444,0.038,0.506-0.012l-0.024,0.009l-0.006,0.005h-0.006v0.004l0,0
							c0.044-0.023-0.106,0.056,0.1-0.056l-0.02,0.011l-0.037,0.02l-0.082,0.033l-0.168,0.072c-0.245,0.105-0.426,0.155-0.62,0.222
							l-0.581,0.193l-0.576,0.188l-0.444,0.159l-0.256,0.09h-0.144l-4.323-0.044l-4.38-0.097l-0.688-0.015l0.431-0.157l1.328-0.488
							l0.644-0.232l0.324-0.113c-0.067,0.062,0.102,0.075-0.05,0.056c-0.443-0.04-1.051-0.017-1.589-0.003l-1.67,0.063l-0.032,0.003
							l-0.013-0.003c-0.838-0.066-1.683-0.133-2.496-0.244c-0.407-0.055-0.813-0.121-1.177-0.219
							C357.142,13.319,356.842,13.15,356.867,12.966z"/>
						<path fill="#2c3e50" d="M397.988,12.271c-0.299,0.101-1.607,0.313-1.545,0.145c0.025-0.069,0.075-0.139,0.125-0.21
							c-2.34-0.094-5.237-0.169-8.485-0.209c-0.256,0.169-1.464,0.682-1.433,0.485c0.032-0.166,0.038-0.332,0.043-0.499
							c-1.301-0.008-2.651-0.016-4.035-0.016c-4.761,0-9.135,0.069-12.557,0.188c0.005,0.107-0.513,0.543-0.751,0.409
							c-0.207-0.113-0.394-0.238-0.576-0.359c-3.666,0.149-5.95,0.359-5.95,0.592c0,0.461,8.884,0.832,19.833,0.832
							c10.957,0,19.835-0.371,19.835-0.832C402.493,12.599,400.797,12.415,397.988,12.271z"/>
						<path fill="#2c3e50" d="M382.946,12.564c-5.187-0.014-10.298,0.28-15.329,0.776c3.642,0.18,9.029,0.288,15.042,0.288
							c6.676,0,12.577-0.135,16.175-0.349C393.559,12.941,388.277,12.584,382.946,12.564z"/>
						<path opacity="0.5" fill="#2c3e50" d="M353.783,19.476c0,0-3.009,2.178-4.567,3.702c-1.565,1.527-1.634,3.079-1.634,3.079
							l2.478-2.104L353.783,19.476z"/>
						<path opacity="0.5" fill="#2c3e50" d="M365.609,18.162c0,0-3.009,2.76-4.575,4.697c-1.558,1.934-1.627,3.9-1.627,3.9
							l4.262-2.479L365.609,18.162z"/>
						<path opacity="0.5" fill="#2c3e50" d="M380.149,17.705c0,0,0.963,2.048,1.264,3.447c0.3,1.402-0.414,2.718-0.414,2.718
							l-1.926-1.95L380.149,17.705z"/>
						<path opacity="0.5" fill="#2c3e50" d="M396.8,21.418c0,0,2.096,1.89,3.178,3.218c1.083,1.329,1.126,2.682,1.126,2.682
							l-2.966-1.698L396.8,21.418z"/>
						<path opacity="0.5" fill="#2c3e50" d="M399.04,19.62c0,0,1.007,0.912,1.526,1.552c0.525,0.64,0.545,1.288,0.545,1.288
							l-1.427-0.817L399.04,19.62z"/>
						<path opacity="0.5" fill="#2c3e50" d="M365.545,24.862c0,0-0.343,0.995-0.739,1.651c-0.393,0.657-1.212,1.205-1.212,1.205
							l-0.139-1.017L365.545,24.862z"/>
						<path opacity="0.5" fill="#2c3e50" d="M356.323,18.189c0,0-0.338,0.995-0.732,1.651c-0.393,0.657-1.22,1.206-1.22,1.206
							l-0.132-1.02L356.323,18.189z"/>
						<path opacity="0.5" fill="#2c3e50" d="M406.06,16.524c0,0,2.09,1.894,3.171,3.221c1.083,1.326,1.127,2.679,1.127,2.679
							l-2.966-1.698L406.06,16.524z"/>
					</g>
					<path opacity="0.5" fill="#2c3e50" d="M414.362,23.935c0,0-0.875-0.68-1.351-1.161c-0.475-0.48-0.563-0.978-0.563-0.978
						l1.188,0.598L414.362,23.935z"/>
				</g>
				<g>
					<path fill="#ACB7DF" d="M389.941,24.901c-0.255-0.294-0.95-0.466-1.488-0.178c-0.414,0.22-0.32,0.494-0.232,0.751
						c0.087,0.246,0.345,0.709,0.939,0.826c0.082,0.016,0.169,0.012,0.25,0c0.286,0.008,0.575-0.086,0.769-0.269
						C390.537,25.696,390.23,25.228,389.941,24.901z"/>
					<path fill="#ACB7DF" d="M392.119,26.5c-0.187-0.144-0.576-0.219-0.738,0.025c-0.119,0.194,0.213,0.492,0.688,0.298
						C392.282,26.738,392.251,26.603,392.119,26.5z"/>
					<path fill="#ACB7DF" d="M392.02,22.925c-0.162-0.249-0.425-0.459-0.782-0.463c-0.664-0.008-0.757,0.766-0.757,0.951
						c0.006,0.199,0.019,0.474,0.395,0.624c0.601,0.238,1.238-0.123,1.352-0.35C392.282,23.568,392.22,23.219,392.02,22.925z"/>
				</g>
				<g>
					<path fill="#ACB7DF" d="M375.813,22.856c0.15,0.235,0.658,0.391,1.121,0.182c0.357-0.153,0.332-0.37,0.306-0.572
						c-0.025-0.191-0.15-0.557-0.582-0.666c-0.062-0.014-0.131-0.014-0.2-0.008c-0.219-0.014-0.457,0.054-0.638,0.183
						C375.488,22.225,375.645,22.597,375.813,22.856z"/>
					<path fill="#ACB7DF" d="M367.404,23.173c0.119,0.119,0.407,0.188,0.569,0.005c0.125-0.147-0.081-0.388-0.483-0.253
						C367.317,22.984,367.317,23.092,367.404,23.173z"/>
					<path fill="#ACB7DF" d="M366.878,25.938c0.082,0.196,0.25,0.365,0.526,0.383c0.513,0.021,0.713-0.568,0.738-0.713
						c0.031-0.155,0.069-0.366-0.194-0.493c-0.426-0.202-0.976,0.054-1.102,0.227C366.779,25.431,366.773,25.702,366.878,25.938z"/>
				</g>
				<g>
					<path fill="#ACB7DF" d="M362.604,17.83c0,0.246,0.394,0.451,0.971,0.304c0.437-0.113,0.543-0.32,0.644-0.517
						c0.093-0.194,0.2-0.561-0.157-0.711c-0.051-0.021-0.112-0.03-0.181-0.03c-0.207-0.038-0.476-0.002-0.733,0.105
						C362.679,17.187,362.604,17.562,362.604,17.83z"/>
					<path fill="#ACB7DF" d="M356.286,20.396c0.043,0.127,0.281,0.228,0.55,0.066c0.213-0.127,0.158-0.383-0.306-0.297
						C356.317,20.204,356.254,20.308,356.286,20.396z"/>
					<path fill="#ACB7DF" d="M354.095,23.006c-0.038,0.199,0.02,0.382,0.276,0.427c0.482,0.083,1.032-0.469,1.151-0.607
						c0.125-0.144,0.288-0.344,0.107-0.495c-0.288-0.244-0.976-0.056-1.202,0.097C354.309,22.507,354.133,22.77,354.095,23.006z"/>
				</g>
				<g>
					<path fill="#ACB7DF" d="M407.586,24.759c0.151,0.24,0.651,0.392,1.121,0.189c0.351-0.158,0.332-0.372,0.3-0.577
						c-0.025-0.193-0.143-0.559-0.582-0.664c-0.056-0.018-0.125-0.018-0.194-0.009c-0.218-0.013-0.456,0.051-0.638,0.187
						C407.262,24.131,407.417,24.499,407.586,24.759z"/>
					<path fill="#ACB7DF" d="M395.679,15.696c0.125,0.116,0.408,0.188,0.569,0.006c0.132-0.149-0.081-0.388-0.475-0.255
						C395.598,15.508,395.598,15.612,395.679,15.696z"/>
					<path fill="#ACB7DF" d="M395.153,18.462c0.088,0.196,0.251,0.365,0.526,0.379c0.513,0.024,0.714-0.565,0.745-0.711
						c0.031-0.153,0.069-0.363-0.201-0.491c-0.425-0.202-0.976,0.053-1.101,0.228C395.061,17.955,395.054,18.226,395.153,18.462z"/>
				</g>
			</g>
			<g>
				<g>
					<g>
						<g>
							<path fill="#2c3e50" d="M601.002,27.624l-7.246-7.12c0,0-1.783,0.202-1.834,0.147l-11.9,0.016l-11.893-0.016
								c-0.049,0.055-1.834-0.147-1.834-0.147l-7.252,7.126h0.006c-0.037,0.028-0.07,0.056-0.07,0.084
								c0,0.582,9.426,1.055,21.051,1.055s21.049-0.473,21.049-1.055C601.078,27.684,601.045,27.655,601.002,27.624z"/>
						</g>
						<polygon opacity="0.5" fill="#2c3e50" points="569.186,20.858 568.602,20.845 567.371,23.28 569.336,21.393 570.975,20.778
													"/>
						<path opacity="0.5" fill="#2c3e50" d="M573.984,21.44l-0.594,4.145l2.264-4.089l0.076-0.513c0,0-0.295-0.109-0.576-0.025
							C574.873,21.039,573.984,21.44,573.984,21.44z"/>
						<path opacity="0.5" fill="#2c3e50" d="M580.549,21.352l-0.107,0.091c0,0,2.115,2.794,2.115,2.81
							c0,0.021,1.119-2.754,1.119-2.754l-0.869-0.574L580.549,21.352z"/>
						<path opacity="0.5" fill="#2c3e50" d="M590.121,22.563c0.307,0.253,0.613,0.499,0.92,0.748
							c-0.088-0.881-0.332-2.145-0.332-2.145s-1.338-0.363-1.814-0.319l-0.582,0.347c0.063,0.011,0.82,0.064,0.82,0.064
							S589.633,21.917,590.121,22.563z"/>
						<path fill="#CDA9C0" d="M580.029,19.806c-7.584,0-13.734,0.313-13.734,0.698c0,0.174,0.326,0.326,2.328,0.451
							c1.596-0.095,1.979-0.081,1.908,0c-0.014,0.017-1.184,0.422-1.195,0.438c1.301,0.064,2.928,0.012,4.648,0.048
							c0.088-0.063,1.252-0.413,1.338-0.477c0.127-0.105,0.34,0.479,0.332,0.532c1.334,0.021,3.197-0.048,4.682-0.048
							c0.719,0,2.164-0.479,2.314-0.394c0.076,0.042,0.951,0.399,1.025,0.443c2.283-0.024,3.742-0.165,5.457-0.24
							c-0.006-0.059-0.225-0.33-0.25-0.386c-0.045-0.097,1.537,0.217,1.826,0.294c2.252-0.127,3.053-0.477,3.053-0.662
							C593.762,20.119,587.613,19.806,580.029,19.806z"/>
						<path fill="#FFFDE8" d="M566.295,20.504c0.004,0.1,0.17,0.183,0.373,0.222c0.193,0.045,0.408,0.075,0.627,0.097
							c0.438,0.048,0.891,0.072,1.342,0.098h-0.027l0.893-0.06c0.309-0.011,0.59-0.038,0.941-0.016
							c0.063-0.006,0.326,0.055,0.193,0.146l-0.168,0.063l-0.33,0.125l-0.646,0.238l-0.139-0.095l2.303,0.018h2.334l-0.213,0.05
							c0.113-0.05,0.246-0.105,0.346-0.139l0.313-0.105l0.299-0.102c0.1-0.034,0.219-0.073,0.271-0.096l0.049-0.02l0.031-0.01
							l0.012-0.006l0.008-0.003l0.068-0.031l0.018-0.008c0.051-0.025,0.25-0.03,0.32-0.002c0.063,0.021,0.074,0.032,0.1,0.05
							c0.023,0.02,0.051,0.041,0.057,0.052c0.051,0.063,0.082,0.119,0.111,0.175l0.07,0.169l0.029,0.083
							c0.014,0.034,0.02,0.048,0.025,0.1l-0.242-0.107l4.334-0.05c0.195-0.004,0.357,0,0.502-0.012
							c0.119-0.012,0.295-0.038,0.443-0.066c0.318-0.061,0.627-0.136,0.951-0.208c0.162-0.035,0.313-0.075,0.545-0.105
							c0.025-0.002,0.057-0.008,0.113-0.008c0.051,0,0.1-0.012,0.23,0.022c0.119,0.047,0.07,0.033,0.107,0.044l0.043,0.02
							l0.188,0.086l0.752,0.329l-0.201-0.046l2.717-0.084c0.449-0.014,0.906-0.041,1.363-0.063l1.363-0.066l-0.15,0.077l-0.18-0.294
							l-0.045-0.071l-0.006-0.009l0,0l0.006-0.036l0,0v-0.005l0.006-0.003c-0.02,0.003,0.057-0.041,0.139-0.047
							c0.111-0.009,0.105,0,0.162,0c0.143,0.011,0.256,0.03,0.375,0.05c0.469,0.079,0.9,0.172,1.344,0.279l-0.074-0.005
							c0.59-0.034,1.189-0.066,1.746-0.155c0.281-0.042,0.557-0.098,0.801-0.167c0.238-0.068,0.482-0.163,0.525-0.293
							c-0.023,0.132-0.262,0.235-0.494,0.311c-0.236,0.08-0.514,0.144-0.787,0.19c-0.564,0.105-1.164,0.159-1.76,0.205l-0.031,0.004
							l-0.043-0.01c-0.42-0.091-0.883-0.174-1.326-0.243c-0.113-0.017-0.232-0.033-0.332-0.041c-0.006-0.004-0.068,0-0.02-0.004
							c0.057,0,0.084-0.052,0.064-0.03v0.006v0.003h-0.008l0,0c-0.006,0.029,0.008-0.042,0.008-0.036l0,0l0.006,0.012l0.055,0.077
							l0.207,0.305l0.045,0.063l-0.193,0.014l-1.359,0.083c-0.451,0.028-0.9,0.062-1.357,0.084l-2.754,0.105l-0.094,0.002
							l-0.111-0.046l-0.758-0.328c-0.094-0.053-0.369-0.133-0.15-0.077c-0.111,0.016-0.289,0.056-0.438,0.089
							c-0.313,0.074-0.625,0.151-0.977,0.219c-0.174,0.036-0.338,0.066-0.576,0.088c-0.211,0.018-0.412,0.012-0.582,0.018
							c-1.432,0.027-2.889,0.03-4.354,0.036l-0.207,0.002l-0.029-0.111l-0.045-0.146l-0.068-0.158
							c-0.025-0.05-0.051-0.105-0.088-0.147l-0.02-0.021c0.012,0.005,0,0.005,0.045,0.016c0.057,0.031,0.238,0.023,0.275-0.008
							l-0.02,0.008v0.004h-0.006l0,0l0,0c0.025-0.015-0.057,0.03,0.055-0.028l-0.01,0.006l-0.02,0.008l-0.045,0.021l-0.088,0.038
							c-0.131,0.056-0.225,0.083-0.33,0.119l-0.314,0.103l-0.307,0.1l-0.236,0.086l-0.139,0.05h-0.074l-2.316-0.024l-2.338-0.054
							l-0.373-0.008l0.229-0.083l0.713-0.261l0.342-0.125l0.178-0.062c-0.039,0.034,0.057,0.04-0.025,0.031
							c-0.236-0.021-0.563-0.008-0.852,0l-0.893,0.03l-0.014,0.004l-0.014-0.004c-0.445-0.033-0.902-0.071-1.332-0.127
							c-0.221-0.03-0.438-0.066-0.633-0.117C566.445,20.695,566.283,20.604,566.295,20.504z"/>
						<path fill="#2c3e50" d="M588.295,20.135c-0.162,0.054-0.857,0.167-0.828,0.078c0.014-0.042,0.039-0.078,0.07-0.114
							c-1.252-0.05-2.803-0.091-4.543-0.11c-0.139,0.089-0.781,0.363-0.764,0.258c0.02-0.089,0.02-0.177,0.025-0.267
							c-0.701-0.005-1.42-0.008-2.158-0.008c-2.553,0-4.887,0.036-6.721,0.1c0,0.058-0.273,0.292-0.398,0.219
							c-0.113-0.063-0.213-0.125-0.309-0.191c-1.963,0.08-3.184,0.191-3.184,0.318c0,0.244,4.748,0.443,10.611,0.443
							c5.857,0,10.611-0.199,10.611-0.443C590.709,20.31,589.795,20.213,588.295,20.135z"/>
						<path fill="#2c3e50" d="M580.248,20.29c-2.773-0.008-5.506,0.15-8.199,0.416c1.949,0.097,4.826,0.154,8.049,0.154
							c3.566,0,6.727-0.074,8.646-0.188C585.922,20.492,583.1,20.302,580.248,20.29z"/>
						<path opacity="0.5" fill="#2c3e50" d="M564.648,23.989c0,0-1.607,1.161-2.447,1.979c-0.832,0.816-0.869,1.646-0.869,1.646
							l1.322-1.123L564.648,23.989z"/>
						<path opacity="0.5" fill="#2c3e50" d="M570.975,23.286c0,0-1.607,1.473-2.445,2.514c-0.832,1.033-0.869,2.086-0.869,2.086
							l2.275-1.327L570.975,23.286z"/>
						<path opacity="0.5" fill="#2c3e50" d="M578.752,23.038c0,0,0.514,1.099,0.676,1.846c0.162,0.751-0.219,1.453-0.219,1.453
							l-1.033-1.042L578.752,23.038z"/>
						<path opacity="0.5" fill="#2c3e50" d="M587.662,25.025c0,0,1.121,1.012,1.695,1.724c0.582,0.71,0.602,1.433,0.602,1.433
							l-1.584-0.905L587.662,25.025z"/>
						<path opacity="0.5" fill="#2c3e50" d="M588.857,24.063c0,0,0.537,0.488,0.82,0.832c0.275,0.341,0.287,0.689,0.287,0.689
							l-0.764-0.437L588.857,24.063z"/>
						<path opacity="0.5" fill="#2c3e50" d="M570.938,26.868c0,0-0.182,0.533-0.391,0.885s-0.656,0.646-0.656,0.646l-0.066-0.546
							L570.938,26.868z"/>
						<path opacity="0.5" fill="#2c3e50" d="M566.008,23.3c0,0-0.182,0.535-0.395,0.883c-0.207,0.35-0.652,0.646-0.652,0.646
							l-0.068-0.546L566.008,23.3z"/>
						<path opacity="0.5" fill="#2c3e50" d="M592.611,22.407c0,0,1.121,1.015,1.695,1.724c0.584,0.712,0.605,1.435,0.605,1.435
							l-1.588-0.908L592.611,22.407z"/>
					</g>
					<path opacity="0.5" fill="#2c3e50" d="M597.055,26.372c0,0-0.471-0.363-0.721-0.62c-0.256-0.258-0.305-0.526-0.305-0.526
						l0.637,0.321L597.055,26.372z"/>
				</g>
				<g>
					<path fill="#ACB7DF" d="M583.996,26.891c-0.145-0.158-0.514-0.25-0.801-0.097c-0.221,0.119-0.176,0.264-0.125,0.401
						c0.049,0.133,0.188,0.379,0.5,0.444c0.043,0.008,0.094,0.004,0.137,0c0.15,0.002,0.307-0.048,0.412-0.145
						C584.309,27.314,584.145,27.065,583.996,26.891z"/>
					<path fill="#ACB7DF" d="M585.154,27.747c-0.102-0.081-0.309-0.119-0.395,0.011c-0.064,0.105,0.117,0.264,0.369,0.16
						C585.24,27.874,585.223,27.799,585.154,27.747z"/>
					<path fill="#ACB7DF" d="M585.104,25.832c-0.088-0.133-0.227-0.243-0.42-0.247c-0.355-0.002-0.406,0.408-0.406,0.507
						c0.006,0.109,0.012,0.256,0.213,0.336c0.32,0.127,0.664-0.063,0.727-0.188C585.24,26.176,585.209,25.99,585.104,25.832z"/>
				</g>
				<g>
					<path fill="#ACB7DF" d="M576.432,25.796c0.08,0.125,0.357,0.208,0.6,0.1c0.195-0.086,0.182-0.199,0.164-0.307
						c-0.014-0.105-0.074-0.302-0.314-0.357c-0.031-0.01-0.068-0.01-0.1-0.006c-0.117-0.006-0.25,0.03-0.346,0.1
						C576.262,25.458,576.344,25.654,576.432,25.796z"/>
					<path fill="#ACB7DF" d="M571.934,25.965c0.068,0.063,0.217,0.103,0.305,0c0.07-0.075-0.043-0.205-0.256-0.133
						C571.889,25.863,571.889,25.921,571.934,25.965z"/>
					<path fill="#ACB7DF" d="M571.65,27.445c0.051,0.104,0.139,0.196,0.283,0.204c0.273,0.015,0.379-0.304,0.398-0.382
						c0.014-0.083,0.039-0.194-0.105-0.264c-0.232-0.107-0.525,0.028-0.588,0.122C571.602,27.173,571.602,27.32,571.65,27.445z"/>
				</g>
				<g>
					<path fill="#ACB7DF" d="M569.367,23.108c0,0.13,0.213,0.241,0.52,0.16c0.238-0.061,0.293-0.171,0.342-0.28
						c0.053-0.1,0.109-0.296-0.08-0.376c-0.023-0.012-0.064-0.014-0.1-0.014c-0.105-0.022-0.258-0.002-0.387,0.058
						C569.402,22.766,569.367,22.964,569.367,23.108z"/>
					<path fill="#ACB7DF" d="M565.986,24.477c0.025,0.069,0.152,0.123,0.297,0.039c0.111-0.069,0.08-0.204-0.172-0.158
						C566.008,24.375,565.969,24.431,565.986,24.477z"/>
					<path fill="#ACB7DF" d="M564.813,25.877c-0.02,0.105,0.012,0.201,0.148,0.227c0.256,0.044,0.559-0.25,0.613-0.324
						c0.07-0.077,0.158-0.186,0.064-0.264c-0.156-0.133-0.527-0.032-0.646,0.05C564.93,25.607,564.838,25.749,564.813,25.877z"/>
				</g>
				<g>
					<path fill="#ACB7DF" d="M593.424,26.813c0.082,0.127,0.357,0.21,0.602,0.102c0.188-0.086,0.176-0.199,0.162-0.311
						c-0.012-0.102-0.074-0.298-0.313-0.354c-0.031-0.009-0.063-0.009-0.1-0.006c-0.119-0.006-0.244,0.03-0.346,0.1
						C593.25,26.478,593.338,26.675,593.424,26.813z"/>
					<path fill="#ACB7DF" d="M587.061,21.967c0.063,0.062,0.221,0.1,0.301,0.002c0.076-0.079-0.037-0.207-0.258-0.135
						C587.018,21.864,587.018,21.923,587.061,21.967z"/>
					<path fill="#ACB7DF" d="M586.779,23.447c0.045,0.102,0.131,0.193,0.281,0.201c0.275,0.014,0.383-0.302,0.395-0.382
						c0.02-0.08,0.037-0.194-0.1-0.261c-0.232-0.111-0.525,0.028-0.596,0.122C586.73,23.175,586.725,23.318,586.779,23.447z"/>
				</g>
			</g>
		</g>
	</g>
</g>
</svg>
