<?xml version="1.0" encoding="utf-8"?>
<!-- Generator: Adobe Illustrator 16.0.0, SVG Export Plug-In . SVG Version: 6.00 Build 0)  -->
<!DOCTYPE svg PUBLIC "-//W3C//DTD SVG 1.1//EN" "http://www.w3.org/Graphics/SVG/1.1/DTD/svg11.dtd">
<svg version="1.1" id="Layer_1" xmlns="http://www.w3.org/2000/svg" xmlns:xlink="http://www.w3.org/1999/xlink" x="0px" y="0px"
	 width="258.605px" height="45.952px" viewBox="0 0 258.605 45.952" enable-background="new 0 0 258.605 45.952"
	 xml:space="preserve">
<g>
	<g>
		<g>
			<g>
				<linearGradient id="SVGID_1_" gradientUnits="userSpaceOnUse" x1="130.5225" y1="6.5049" x2="130.5225" y2="41.6806">
					<stop  offset="0.2174" style="stop-color:#f39c12"/>
					<stop  offset="0.9316" style="stop-color:#775148"/>
				</linearGradient>
				<path fill="url(#SVGID_1_)" stroke="#f39c12" stroke-width="0.6951" stroke-linecap="round" stroke-linejoin="round" d="
					M-16.339,67.438c0,0,46.389-15.754,79.266-23.027s131.196-6.66,164.795-7.596c33.594-0.934,51.039-26.465,51.039-26.465
					s-19.499-5.68-72.611,1.668c-53.116,7.344-81.94,13.955-105.309,10.793c-23.368-3.17-42.634-14.805-63.32-14.729
					C16.831,8.156-10.092-1.502-17.717-4.723L-16.339,67.438z"/>
				<path opacity="0.4" fill="#C5C5C5" d="M206.149,12.018c-53.116,7.344-81.94,13.955-105.309,10.793
					c-23.368-3.17-42.634-14.805-63.32-14.729C16.831,8.156-10.092-1.502-17.717-4.723l0.931,12.412
					c14.795-4.629,28.885,2.295,49.507,9.477c24.556,8.551,7.782-0.189,0.094-3.346c-5.718-2.346,12.658-7.629,39.775,4.357
					c13.675,6.035,19.427,10.586,35.462,13.369c15.002,2.607-9.313-2.926-15.965-6.969c-6.657-4.047,14.936,3.027,31.402,0.516
					c21.014-3.203,25.859,4.09,30.779,2.496c6.006-1.953-0.682-0.189-7.35-2.199c-6.666-2.01,23.521-2.643,38.363-7.26
					c24.761-7.688,69.265-5.949,91.205-4.893c1.504-1.768,2.273-2.889,2.273-2.889S259.262,4.67,206.149,12.018z"/>
				<path opacity="0.38" fill="#FF981D" d="M-17.77,11.139c0,0,13.886-5.941,37.459,6.043c14.88,7.572,14.644,8.258,25.707,9.107
					c11.063,0.848,17.578,1.055,21.116,3.146c3.535,2.084-11.144,2.607-26.185,4.6c-14.915,1.977-43.844,1.492-58.431-1.943
					C-32.692,28.66-17.77,11.139-17.77,11.139z"/>
				<g opacity="0.38">
					<path fill="#FF950F" d="M62.927,44.41c32.877-7.273,131.196-6.66,164.795-7.596c19.041-0.533,32.885-8.961,41.316-16.164
						c-7.071-0.691-16.242-0.943-28.14-0.35c-46.187,2.313-79.059,7.791-70.928,10.258c8.133,2.475-9.149,2.174-28.15,0.816
						c-19.007-1.359-29.634,0.824-21.988,2.225c7.646,1.404-8.667,4.316-27.17,1.525c-18.498-2.785-19.728-3.85-18.027,0.781
						c1.683,4.6-68.003,14.012-91.506,3.119l0.483,25.717C-16.388,64.742,30.05,51.684,62.927,44.41z"/>
				</g>
			</g>
			<g>
				<linearGradient id="SVGID_2_" gradientUnits="userSpaceOnUse" x1="133.2646" y1="25.2441" x2="133.2646" y2="51.8746">
					<stop  offset="0.2174" style="stop-color:#D75632"/>
					<stop  offset="0.9316" style="stop-color:#775148"/>
				</linearGradient>
				<path fill="url(#SVGID_2_)" stroke="#f39c12" stroke-width="0.6951" stroke-linecap="round" stroke-linejoin="round" d="
					M287.646,19.523c-18.592-3.746-37.068,13.475-59.313,14.426c-22.245,0.949-41.136,2.621-56.502-5.127
					c-15.366-7.75-16.979,8.318-56.663,4.422c-39.683-3.891-56.807-6.93-87.355,6.846C-2.73,53.863-29.68,54.041-29.68,54.041
					l5.732,19.93c0,0,107.603-29.377,169.488-24.043c61.891,5.334,110.229,7.809,128.008-4.383
					C291.329,33.352,306.237,23.266,287.646,19.523z"/>
				<path opacity="0.3" fill="#BEC5C3" d="M227.619,36.313c-12.109-1.057-21.374,4.975-41.749-0.982
					c-25.813-7.555-26.862-5.201-40.436,0.857c-13.574,6.053-25.52,4.83-27.617,4.537c-2.093-0.291,15.438-1.418,18.507-3.689
					c3.069-2.275-42.424-1.012-57.888-2.795c-15.464-1.775-29.622-1.119-60.84,12.631c-25.199,11.1-47.276,7.17-47.276,7.17
					S-2.73,53.863,27.812,40.09c30.549-13.775,47.673-10.736,87.355-6.846c39.684,3.896,41.297-12.172,56.663-4.422
					c15.366,7.748,34.257,6.076,56.502,5.127c14.932-0.635,28.166-8.596,40.874-12.635c-9.362,6.551-23.082,14.783-35.558,17.016
					C197.838,44.742,236.753,37.105,227.619,36.313z"/>
				<path opacity="0.3" fill="#D75632" stroke="#62F101" stroke-width="0.6951" stroke-linecap="round" stroke-linejoin="round" d="
					M34.12,43.734c24.126-10.863,75.271,0.775,130.678-4.867c38.313-3.902,28.447,14.465,100.788-7.783
					c13.757-4.23,21.035-1.416,24.833,2.119c-4.236,3.697-10.359,7.875-16.87,12.342c-17.779,12.191-66.117,9.717-128.008,4.383
					C83.655,44.594-23.947,73.971-23.947,73.971l-4.331-15.059C-11.94,56.457,17.361,51.273,34.12,43.734z"/>
			</g>
		</g>
	</g>
</g>
</svg>
