<?xml version="1.0" encoding="utf-8"?>
<!-- Generator: Adobe Illustrator 16.0.0, SVG Export Plug-In . SVG Version: 6.00 Build 0)  -->
<!DOCTYPE svg PUBLIC "-//W3C//DTD SVG 1.1//EN" "http://www.w3.org/Graphics/SVG/1.1/DTD/svg11.dtd">
<svg version="1.1" id="Layer_1" xmlns="http://www.w3.org/2000/svg" xmlns:xlink="http://www.w3.org/1999/xlink" x="0px" y="0px"
	 width="428px" height="79px" viewBox="0 0 428 79" enable-background="new 0 0 428 79" xml:space="preserve">
<g>
	<g>
		<g enable-background="new    ">
			<g enable-background="new    ">
				<defs>
					<path id="SVGID_1_" enable-background="new    " d="M32.775,40.837V43.7c0-1.476-0.603-2.606-1.809-3.393
						c-1.034-0.674-2.372-1.011-4.005-1.011c-0.101,0-0.203,0.001-0.306,0.003v-2.862c0.104-0.002,0.205-0.004,0.306-0.004
						c1.633,0,2.971,0.337,4.005,1.011C32.172,38.231,32.775,39.362,32.775,40.837z"/>
				</defs>
				<clipPath id="SVGID_2_">
					<use xlink:href="#SVGID_1_"  overflow="visible"/>
				</clipPath>
				<g clip-path="url(#SVGID_2_)" enable-background="new    ">
					<path fill="#850000" d="M32.775,40.837V43.7c0-1.476-0.603-2.606-1.809-3.393c-1.034-0.674-2.372-1.011-4.005-1.011
						c-0.101,0-0.203,0.001-0.306,0.003v-2.862c0.104-0.002,0.205-0.004,0.306-0.004c1.633,0,2.971,0.337,4.005,1.011
						C32.172,38.231,32.775,39.362,32.775,40.837"/>
				</g>
			</g>
			<g enable-background="new    ">
				<defs>
					<path id="SVGID_3_" enable-background="new    " d="M44.7,35.431v2.862c0,3.445-0.837,6.432-2.52,8.94v-2.862
						C43.863,41.862,44.7,38.876,44.7,35.431z"/>
				</defs>
				<clipPath id="SVGID_4_">
					<use xlink:href="#SVGID_3_"  overflow="visible"/>
				</clipPath>
				<g clip-path="url(#SVGID_4_)" enable-background="new    ">
					<path fill="#940000" d="M44.7,35.431v2.862c0,1.474-0.153,2.863-0.46,4.167v-2.862C44.547,38.294,44.7,36.904,44.7,35.431"/>
					<path fill="#8F0000" d="M44.24,39.598v2.862c-0.263,1.117-0.639,2.17-1.127,3.161v-2.862
						C43.602,41.769,43.977,40.715,44.24,39.598"/>
					<path fill="#8A0000" d="M43.113,42.759v2.862c-0.275,0.558-0.586,1.095-0.933,1.612v-2.862
						C42.527,43.854,42.838,43.317,43.113,42.759"/>
				</g>
			</g>
			<g>
				<polygon fill="#930000" points="26.655,36.438 26.655,39.3 26.214,47.958 26.214,45.096 				"/>
			</g>
			<g enable-background="new    ">
				<defs>
					<path id="SVGID_5_" enable-background="new    " d="M42.18,44.372v2.862c-1.422,2.111-3.204,3.604-5.328,4.488v-2.862
						C38.976,47.976,40.758,46.483,42.18,44.372z"/>
				</defs>
				<clipPath id="SVGID_6_">
					<use xlink:href="#SVGID_5_"  overflow="visible"/>
				</clipPath>
				<g clip-path="url(#SVGID_6_)" enable-background="new    ">
					<path fill="#8A0000" d="M42.18,44.372v2.862c-0.283,0.42-0.58,0.815-0.89,1.186v-2.862
						C41.601,45.186,41.897,44.791,42.18,44.372"/>
					<path fill="#850000" d="M41.29,45.557v2.862c-1.254,1.495-2.736,2.595-4.438,3.302v-2.862
						C38.554,48.151,40.036,47.052,41.29,45.557"/>
				</g>
			</g>
			<g enable-background="new    ">
				<defs>
					<path id="SVGID_7_" enable-background="new    " d="M31.812,54.496v2.862c0-2.226-1.62-3.339-4.86-3.339
						c-0.333,0-0.675,0.026-1.026,0.062v-2.862c0.351-0.035,0.693-0.062,1.026-0.062C30.192,51.157,31.812,52.27,31.812,54.496z"/>
				</defs>
				<clipPath id="SVGID_8_">
					<use xlink:href="#SVGID_7_"  overflow="visible"/>
				</clipPath>
				<g clip-path="url(#SVGID_8_)" enable-background="new    ">
					<path fill="#850000" d="M31.812,54.496v2.862c0-2.226-1.62-3.339-4.86-3.339c-0.333,0-0.675,0.026-1.026,0.062v-2.862
						c0.351-0.035,0.693-0.062,1.026-0.062C30.192,51.157,31.812,52.27,31.812,54.496"/>
				</g>
			</g>
			<g>
				<polygon fill="#930000" points="25.926,51.218 25.926,54.081 25.746,61.122 25.746,58.259 				"/>
			</g>
			<g enable-background="new    ">
				<defs>
					<path id="SVGID_9_" enable-background="new    " d="M9.015,65.053v2.862c-0.135-4.47-0.414-11.759-0.846-21.857
						C7.872,40.634,7.44,33.195,6.855,23.742V20.88c0.585,9.453,1.017,16.892,1.314,22.316C8.601,53.294,8.88,60.583,9.015,65.053z"
						/>
				</defs>
				<clipPath id="SVGID_10_">
					<use xlink:href="#SVGID_9_"  overflow="visible"/>
				</clipPath>
				<g clip-path="url(#SVGID_10_)" enable-background="new    ">
					<path fill="#850000" d="M9.015,65.053v2.862c-0.135-4.47-0.414-11.759-0.846-21.857C7.872,40.634,7.44,33.195,6.855,23.742
						V20.88c0.585,9.453,1.017,16.892,1.314,22.316C8.601,53.294,8.88,60.583,9.015,65.053"/>
				</g>
			</g>
			<g>
				<path fill="#E50000" d="M42.18,44.372c-1.422,2.111-3.204,3.604-5.328,4.488c1.368,0.574,2.475,1.528,3.339,2.845
					c0.855,1.325,1.287,2.73,1.287,4.231c0,3.72-2.016,6.441-6.066,8.164c-3.123,1.342-7.227,2.014-12.303,2.014
					c-4.374,0-9.072-0.353-14.094-1.06c-0.135-4.47-0.414-11.759-0.846-21.857C7.872,37.772,7.44,30.333,6.855,20.88
					c3.708-0.715,8.406-1.069,14.085-1.069c15.84,0,23.76,5.204,23.76,15.62C44.7,38.876,43.863,41.862,42.18,44.372z
					 M26.826,45.106c3.966,0,5.949-1.425,5.949-4.269c0-1.475-0.603-2.606-1.809-3.393c-1.034-0.674-2.372-1.011-4.005-1.011
					c-0.101,0-0.203,0.001-0.306,0.004l-0.441,8.658C26.423,45.103,26.627,45.106,26.826,45.106 M26.471,58.276
					c3.558,0,5.341-1.26,5.341-3.78c0-2.227-1.62-3.339-4.86-3.339c-0.333,0-0.675,0.026-1.026,0.062l-0.18,7.041
					C25.995,58.271,26.237,58.276,26.471,58.276"/>
			</g>
			<g enable-background="new    ">
				<defs>
					<path id="SVGID_11_" enable-background="new    " d="M41.478,55.936v2.862c0,3.72-2.016,6.44-6.066,8.164
						c-3.123,1.343-7.227,2.014-12.303,2.014c-4.374,0-9.072-0.354-14.094-1.06v-2.862c5.022,0.707,9.72,1.06,14.094,1.06
						c5.076,0,9.18-0.671,12.303-2.014C39.462,62.376,41.478,59.655,41.478,55.936z"/>
				</defs>
				<clipPath id="SVGID_12_">
					<use xlink:href="#SVGID_11_"  overflow="visible"/>
				</clipPath>
				<g clip-path="url(#SVGID_12_)" enable-background="new    ">
					<path fill="#940000" d="M41.478,55.936v2.862c0,0.723-0.076,1.407-0.229,2.054V57.99
						C41.402,57.343,41.478,56.658,41.478,55.936"/>
					<path fill="#8F0000" d="M41.25,57.99v2.862c-0.134,0.57-0.327,1.111-0.58,1.623v-2.862C40.922,59.101,41.116,58.56,41.25,57.99
						"/>
					<path fill="#8A0000" d="M40.67,59.613v2.862c-0.267,0.54-0.599,1.046-0.997,1.521v-2.862
						C40.071,60.659,40.403,60.152,40.67,59.613"/>
					<path fill="#850000" d="M39.673,61.134v2.862c-1.002,1.194-2.422,2.183-4.261,2.965c-3.123,1.343-7.227,2.014-12.303,2.014
						c-4.374,0-9.072-0.354-14.094-1.06v-2.862c5.022,0.707,9.72,1.06,14.094,1.06c5.076,0,9.18-0.671,12.303-2.014
						C37.251,63.317,38.671,62.328,39.673,61.134"/>
				</g>
			</g>
		</g>
		<g enable-background="new    ">
			<g enable-background="new    ">
				<defs>
					<path id="SVGID_13_" enable-background="new    " d="M71.484,36.518v2.862c-1.647-0.159-3.438-0.257-5.391-0.292v-2.862
						C68.046,36.261,69.837,36.358,71.484,36.518z"/>
				</defs>
				<clipPath id="SVGID_14_">
					<use xlink:href="#SVGID_13_"  overflow="visible"/>
				</clipPath>
				<g clip-path="url(#SVGID_14_)" enable-background="new    ">
					<path fill="#850000" d="M71.484,36.518v2.862c-1.647-0.159-3.438-0.257-5.391-0.292v-2.862
						C68.046,36.261,69.837,36.358,71.484,36.518"/>
				</g>
			</g>
			<g enable-background="new    ">
				<defs>
					<path id="SVGID_15_" enable-background="new    " d="M76.164,37.118v2.862c-0.72-0.115-2.286-0.318-4.68-0.601v-2.862
						C73.878,36.8,75.444,37.003,76.164,37.118z"/>
				</defs>
				<clipPath id="SVGID_16_">
					<use xlink:href="#SVGID_15_"  overflow="visible"/>
				</clipPath>
				<g clip-path="url(#SVGID_16_)" enable-background="new    ">
					<path fill="#850000" d="M76.164,37.118v2.862c-0.72-0.115-2.286-0.318-4.68-0.601v-2.862
						C73.878,36.8,75.444,37.003,76.164,37.118"/>
				</g>
			</g>
			<g>
				<polygon fill="#930000" points="77.424,18.91 77.424,21.772 76.164,39.98 76.164,37.118 				"/>
			</g>
			<g enable-background="new    ">
				<defs>
					<path id="SVGID_17_" enable-background="new    " d="M47.778,40.537v2.862c-0.153-5.15-0.54-12.359-1.143-21.627V18.91
						C47.238,28.178,47.625,35.386,47.778,40.537z"/>
				</defs>
				<clipPath id="SVGID_18_">
					<use xlink:href="#SVGID_17_"  overflow="visible"/>
				</clipPath>
				<g clip-path="url(#SVGID_18_)" enable-background="new    ">
					<path fill="#850000" d="M47.778,40.537v2.862c-0.153-5.15-0.54-12.359-1.143-21.627V18.91
						C47.238,28.178,47.625,35.386,47.778,40.537"/>
				</g>
			</g>
			<g>
				<polygon fill="#920000" points="66.093,36.226 66.093,39.088 65.652,44.583 65.652,41.721 				"/>
			</g>
			<g enable-background="new    ">
				<defs>
					<path id="SVGID_19_" enable-background="new    " d="M70.161,49.08v2.862c-0.79-0.04-1.868-0.06-3.231-0.06
						c-0.454,0-0.94,0.002-1.458,0.006v-2.862c0.517-0.004,1.003-0.006,1.458-0.006C68.293,49.021,69.371,49.041,70.161,49.08z"/>
				</defs>
				<clipPath id="SVGID_20_">
					<use xlink:href="#SVGID_19_"  overflow="visible"/>
				</clipPath>
				<g clip-path="url(#SVGID_20_)" enable-background="new    ">
					<path fill="#850000" d="M70.161,49.08v2.862c-0.79-0.04-1.868-0.06-3.231-0.06c-0.454,0-0.94,0.002-1.458,0.006v-2.862
						c0.517-0.004,1.003-0.006,1.458-0.006C68.293,49.021,69.371,49.041,70.161,49.08"/>
				</g>
			</g>
			<g enable-background="new    ">
				<defs>
					<path id="SVGID_21_" enable-background="new    " d="M74.409,49.602v2.862c-0.567-0.133-1.98-0.31-4.248-0.521V49.08
						C72.429,49.292,73.842,49.469,74.409,49.602z"/>
				</defs>
				<clipPath id="SVGID_22_">
					<use xlink:href="#SVGID_21_"  overflow="visible"/>
				</clipPath>
				<g clip-path="url(#SVGID_22_)" enable-background="new    ">
					<path fill="#850000" d="M74.409,49.602v2.862c-0.567-0.133-1.98-0.31-4.248-0.521V49.08
						C72.429,49.292,73.842,49.469,74.409,49.602"/>
				</g>
			</g>
			<g enable-background="new    ">
				<defs>
					<path id="SVGID_23_" enable-background="new    " d="M76.164,41.58v2.862c-0.216,0.707-0.558,2.032-1.026,3.967
						c-0.27,1.167-0.513,2.518-0.729,4.056v-2.862c0.216-1.538,0.459-2.889,0.729-4.055C75.606,43.612,75.948,42.287,76.164,41.58z"
						/>
				</defs>
				<clipPath id="SVGID_24_">
					<use xlink:href="#SVGID_23_"  overflow="visible"/>
				</clipPath>
				<g clip-path="url(#SVGID_24_)" enable-background="new    ">
					<path fill="#8F0000" d="M76.164,41.58v2.862c-0.212,0.695-0.546,1.986-1.001,3.866v-2.862
						C75.618,43.566,75.952,42.274,76.164,41.58"/>
					<path fill="#940000" d="M75.163,45.446v2.862c-0.008,0.034-0.016,0.067-0.024,0.101c-0.27,1.167-0.513,2.518-0.729,4.056
						v-2.862c0.216-1.538,0.459-2.889,0.729-4.055C75.146,45.513,75.154,45.479,75.163,45.446"/>
				</g>
			</g>
			<g>
				<polygon fill="#930000" points="65.472,49.027 65.472,51.889 65.184,58.303 65.184,55.441 				"/>
			</g>
			<g>
				<rect x="48.624" y="63.083" fill="#800000" width="26.226" height="2.862"/>
			</g>
			<g>
				<polygon fill="#800000" points="48.624,63.083 48.624,65.945 47.778,43.399 47.778,40.537 				"/>
			</g>
			<g>
				<path fill="#E50000" d="M77.424,18.91l-1.26,18.208c-0.72-0.115-2.286-0.318-4.68-0.601c-1.647-0.159-3.438-0.256-5.391-0.292
					l-0.441,5.495c0.577,0.015,1.254,0.021,2.029,0.021c2.103,0,4.933-0.053,8.483-0.163c-0.216,0.707-0.558,2.032-1.026,3.967
					c-0.27,1.166-0.513,2.518-0.729,4.055c-0.567-0.133-1.98-0.31-4.248-0.521c-0.79-0.04-1.868-0.06-3.231-0.06
					c-0.454,0-0.94,0.002-1.458,0.006l-0.288,6.415c1.458-0.026,4.158-0.15,8.082-0.38c0.747-0.053,1.962-0.283,3.663-0.689
					c-0.153,0.592-0.522,2.023-1.08,4.285c-0.279,1.175-0.612,2.651-0.999,4.426H48.624l-0.846-22.546
					c-0.153-5.151-0.54-12.359-1.143-21.627H77.424z"/>
			</g>
			<g enable-background="new    ">
				<defs>
					<path id="SVGID_25_" enable-background="new    " d="M76.929,54.372v2.862c-0.153,0.592-0.522,2.023-1.08,4.285
						c-0.279,1.175-0.612,2.65-0.999,4.426v-2.862c0.387-1.775,0.72-3.251,0.999-4.426C76.407,56.396,76.776,54.964,76.929,54.372z"
						/>
				</defs>
				<clipPath id="SVGID_26_">
					<use xlink:href="#SVGID_25_"  overflow="visible"/>
				</clipPath>
				<g clip-path="url(#SVGID_26_)" enable-background="new    ">
					<path fill="#8F0000" d="M76.929,54.372v2.862c-0.153,0.592-0.522,2.023-1.08,4.285c-0.021,0.086-0.042,0.174-0.063,0.264
						v-2.862c0.021-0.089,0.042-0.178,0.063-0.264C76.407,56.396,76.776,54.964,76.929,54.372"/>
					<path fill="#940000" d="M75.787,58.921v2.862c-0.266,1.13-0.578,2.517-0.937,4.162v-2.862
						C75.208,61.438,75.521,60.051,75.787,58.921"/>
				</g>
			</g>
		</g>
		<g enable-background="new    ">
			<g>
				<polygon fill="#930000" points="100.275,16.949 100.275,19.811 98.61,56.448 98.61,53.586 				"/>
			</g>
			<g enable-background="new    ">
				<defs>
					<path id="SVGID_27_" enable-background="new    " d="M110.355,52.411v2.862c-0.198,0.769-0.558,2.217-1.08,4.338v-2.862
						C109.797,54.628,110.157,53.18,110.355,52.411z"/>
				</defs>
				<clipPath id="SVGID_28_">
					<use xlink:href="#SVGID_27_"  overflow="visible"/>
				</clipPath>
				<g clip-path="url(#SVGID_28_)" enable-background="new    ">
					<path fill="#8F0000" d="M110.355,52.411v2.862c-0.198,0.769-0.558,2.217-1.08,4.338v-2.862
						C109.797,54.628,110.157,53.18,110.355,52.411"/>
				</g>
			</g>
			<g enable-background="new    ">
				<defs>
					<path id="SVGID_29_" enable-background="new    " d="M109.275,56.749v2.862c-0.279,1.254-0.513,2.703-0.702,4.373v-2.862
						C108.762,59.452,108.996,58.003,109.275,56.749z"/>
				</defs>
				<clipPath id="SVGID_30_">
					<use xlink:href="#SVGID_29_"  overflow="visible"/>
				</clipPath>
				<g clip-path="url(#SVGID_30_)" enable-background="new    ">
					<path fill="#940000" d="M109.275,56.749v2.862c-0.279,1.254-0.513,2.703-0.702,4.373v-2.862
						C108.762,59.452,108.996,58.003,109.275,56.749"/>
				</g>
			</g>
			<g>
				<rect x="82.059" y="61.122" fill="#800000" width="26.514" height="2.862"/>
			</g>
			<g enable-background="new    ">
				<defs>
					<path id="SVGID_31_" enable-background="new    " d="M82.059,61.122v2.862c-0.099-4.505-0.342-11.926-0.738-22.254
						c-0.252-5.292-0.711-12.598-1.377-21.918v-2.862c0.666,9.321,1.125,16.627,1.377,21.919
						C81.717,49.195,81.96,56.616,82.059,61.122z"/>
				</defs>
				<clipPath id="SVGID_32_">
					<use xlink:href="#SVGID_31_"  overflow="visible"/>
				</clipPath>
				<g clip-path="url(#SVGID_32_)" enable-background="new    ">
					<path fill="#850000" d="M82.059,61.122v2.862c-0.099-4.505-0.342-11.926-0.738-22.254c-0.252-5.292-0.711-12.598-1.377-21.918
						v-2.862c0.666,9.321,1.125,16.627,1.377,21.919C81.717,49.195,81.96,56.616,82.059,61.122"/>
				</g>
			</g>
			<g>
				<path fill="#E50000" d="M100.275,16.949L98.61,53.586c1.89,0,4.734-0.194,8.523-0.601c0.783-0.08,1.854-0.265,3.222-0.574
					c-0.198,0.769-0.558,2.217-1.08,4.337c-0.279,1.254-0.513,2.704-0.702,4.374H82.059c-0.099-4.506-0.342-11.927-0.738-22.254
					c-0.252-5.292-0.711-12.598-1.377-21.919H100.275z"/>
			</g>
		</g>
		<g enable-background="new    ">
			<g enable-background="new    ">
				<defs>
					<path id="SVGID_33_" enable-background="new    " d="M136.932,41.182v2.862c0-5.328-1.836-7.987-5.508-7.987
						c-3.573,0-5.364,2.677-5.364,8.048v-2.862c0-5.372,1.791-8.049,5.364-8.049C135.096,33.195,136.932,35.854,136.932,41.182z"/>
				</defs>
				<clipPath id="SVGID_34_">
					<use xlink:href="#SVGID_33_"  overflow="visible"/>
				</clipPath>
				<g clip-path="url(#SVGID_34_)" enable-background="new    ">
					<path fill="#850000" d="M136.932,41.182v2.862c0-5.328-1.836-7.987-5.508-7.987c-1.582,0-2.815,0.525-3.697,1.576v-2.862
						c0.882-1.051,2.115-1.576,3.697-1.576C135.096,33.195,136.932,35.854,136.932,41.182"/>
					<path fill="#8A0000" d="M127.727,34.771v2.862c-0.264,0.314-0.497,0.676-0.698,1.085v-2.862
						C127.229,35.448,127.462,35.086,127.727,34.771"/>
					<path fill="#8F0000" d="M127.028,35.857v2.862c-0.25,0.507-0.451,1.086-0.604,1.739v-2.862
						C126.577,36.944,126.779,36.364,127.028,35.857"/>
					<path fill="#940000" d="M126.424,37.596v2.862c-0.242,1.034-0.364,2.25-0.364,3.648v-2.862
						C126.06,39.845,126.182,38.629,126.424,37.596"/>
				</g>
			</g>
			<g enable-background="new    ">
				<defs>
					<path id="SVGID_35_" enable-background="new    " d="M151.017,36.129v2.862c0,6.768-1.773,12.483-5.328,17.166
						c-3.735,4.886-8.505,7.333-14.328,7.333c-5.994,0-10.845-2.465-14.562-7.395c-3.492-4.639-5.238-10.336-5.238-17.104v-2.862
						c0,6.767,1.746,12.465,5.238,17.104c3.717,4.93,8.568,7.395,14.562,7.395c5.823,0,10.593-2.448,14.328-7.333
						C149.244,48.612,151.017,42.896,151.017,36.129z"/>
				</defs>
				<clipPath id="SVGID_36_">
					<use xlink:href="#SVGID_35_"  overflow="visible"/>
				</clipPath>
				<g clip-path="url(#SVGID_36_)" enable-background="new    ">
					<path fill="#940000" d="M151.017,36.129v2.862c0,2.667-0.275,5.171-0.827,7.513v-2.862
						C150.742,41.3,151.017,38.796,151.017,36.129"/>
					<path fill="#8F0000" d="M150.19,43.641v2.862c-0.468,1.986-1.134,3.855-1.999,5.609V49.25
						C149.057,47.497,149.723,45.627,150.19,43.641"/>
					<path fill="#8A0000" d="M148.191,49.25v2.862c-0.703,1.425-1.537,2.772-2.502,4.044c-0.219,0.287-0.442,0.565-0.668,0.835
						v-2.862c0.227-0.27,0.449-0.548,0.668-0.835C146.654,52.022,147.489,50.675,148.191,49.25"/>
					<path fill="#850000" d="M145.021,54.129v2.862c-3.63,4.329-8.178,6.498-13.66,6.498c-5.994,0-10.845-2.465-14.562-7.395
						c-3.492-4.639-5.238-10.336-5.238-17.104v-2.862c0,6.767,1.746,12.465,5.238,17.104c3.717,4.93,8.568,7.395,14.562,7.395
						C136.842,60.627,141.391,58.459,145.021,54.129"/>
				</g>
			</g>
			<g>
				<path fill="#E50000" d="M145.311,19.131c3.807,4.143,5.706,9.806,5.706,16.998c0,6.767-1.773,12.483-5.328,17.166
					c-3.735,4.885-8.505,7.333-14.328,7.333c-5.994,0-10.845-2.465-14.562-7.395c-3.492-4.638-5.238-10.336-5.238-17.104
					c0-7.236,1.899-12.907,5.706-17.033c3.6-3.87,8.298-5.805,14.094-5.805C137.067,13.291,141.711,15.235,145.311,19.131z
					 M135.348,47.198c1.053-1.935,1.584-3.94,1.584-6.016c0-5.328-1.836-7.987-5.508-7.987c-3.573,0-5.364,2.677-5.364,8.049
					c0,2.146,0.468,4.152,1.404,6.007c1.053,2.094,2.358,3.136,3.897,3.136C132.864,50.388,134.196,49.328,135.348,47.198"/>
			</g>
		</g>
		<g enable-background="new    ">
			<g enable-background="new    ">
				<defs>
					<path id="SVGID_37_" enable-background="new    " d="M180.114,23.372v2.862c-0.918-3.357-2.088-7.457-3.519-12.307v-2.862
						C178.026,15.915,179.196,20.015,180.114,23.372z"/>
				</defs>
				<clipPath id="SVGID_38_">
					<use xlink:href="#SVGID_37_"  overflow="visible"/>
				</clipPath>
				<g clip-path="url(#SVGID_38_)" enable-background="new    ">
					<path fill="#850000" d="M180.114,23.372v2.862c-0.918-3.357-2.088-7.457-3.519-12.307v-2.862
						C178.026,15.915,179.196,20.015,180.114,23.372"/>
				</g>
			</g>
			<g enable-background="new    ">
				<defs>
					<path id="SVGID_39_" enable-background="new    " d="M160.224,33.726v2.862c-1.782-5.469-4.41-13.022-7.884-22.661v-2.862
						C155.814,20.704,158.442,28.257,160.224,33.726z"/>
				</defs>
				<clipPath id="SVGID_40_">
					<use xlink:href="#SVGID_39_"  overflow="visible"/>
				</clipPath>
				<g clip-path="url(#SVGID_40_)" enable-background="new    ">
					<path fill="#850000" d="M160.224,33.726v2.862c-1.782-5.469-4.41-13.022-7.884-22.661v-2.862
						C155.814,20.704,158.442,28.257,160.224,33.726"/>
				</g>
			</g>
			<g enable-background="new    ">
				<defs>
					<path id="SVGID_41_" enable-background="new    " d="M213.603,11.064v2.862c-1.719,4.736-4.4,12.51-8.027,23.324v-2.862
						C209.202,23.575,211.884,15.8,213.603,11.064z"/>
				</defs>
				<clipPath id="SVGID_42_">
					<use xlink:href="#SVGID_41_"  overflow="visible"/>
				</clipPath>
				<g clip-path="url(#SVGID_42_)" enable-background="new    ">
					<path fill="#8F0000" d="M213.603,11.064v2.862c-1.719,4.736-4.4,12.51-8.027,23.324v-2.862
						C209.202,23.575,211.884,15.8,213.603,11.064"/>
				</g>
			</g>
			<g>
				<rect x="188.754" y="55.238" fill="#800000" width="10.521" height="2.862"/>
			</g>
			<g enable-background="new    ">
				<defs>
					<path id="SVGID_43_" enable-background="new    " d="M183.48,34.618v2.862c-1.603,5-3.763,11.874-6.472,20.62v-2.862
						C179.718,46.491,181.878,39.618,183.48,34.618z"/>
				</defs>
				<clipPath id="SVGID_44_">
					<use xlink:href="#SVGID_43_"  overflow="visible"/>
				</clipPath>
				<g clip-path="url(#SVGID_44_)" enable-background="new    ">
					<path fill="#8F0000" d="M183.48,34.618v2.862c-1.603,5-3.763,11.874-6.472,20.62v-2.862
						C179.718,46.491,181.878,39.618,183.48,34.618"/>
				</g>
			</g>
			<g>
				<rect x="166.632" y="55.238" fill="#800000" width="10.377" height="2.862"/>
			</g>
			<g enable-background="new    ">
				<defs>
					<path id="SVGID_45_" enable-background="new    " d="M166.632,55.238V58.1c-1.242-4.391-3.384-11.564-6.408-21.512v-2.862
						C163.248,43.674,165.39,50.847,166.632,55.238z"/>
				</defs>
				<clipPath id="SVGID_46_">
					<use xlink:href="#SVGID_45_"  overflow="visible"/>
				</clipPath>
				<g clip-path="url(#SVGID_46_)" enable-background="new    ">
					<path fill="#850000" d="M166.632,55.238V58.1c-1.242-4.391-3.384-11.564-6.408-21.512v-2.862
						C163.248,43.674,165.39,50.847,166.632,55.238"/>
				</g>
			</g>
			<g enable-background="new    ">
				<defs>
					<path id="SVGID_47_" enable-background="new    " d="M188.754,55.238V58.1c-0.98-4.029-2.736-10.902-5.273-20.62v-2.862
						C186.018,44.336,187.773,51.209,188.754,55.238z"/>
				</defs>
				<clipPath id="SVGID_48_">
					<use xlink:href="#SVGID_47_"  overflow="visible"/>
				</clipPath>
				<g clip-path="url(#SVGID_48_)" enable-background="new    ">
					<path fill="#850000" d="M188.754,55.238V58.1c-0.98-4.029-2.736-10.902-5.273-20.62v-2.862
						C186.018,44.336,187.773,51.209,188.754,55.238"/>
				</g>
			</g>
			<g enable-background="new    ">
				<defs>
					<path id="SVGID_49_" enable-background="new    " d="M205.575,34.389v2.862c-1.584,5.018-3.682,11.971-6.3,20.85v-2.862
						C201.894,46.359,203.991,39.406,205.575,34.389z"/>
				</defs>
				<clipPath id="SVGID_50_">
					<use xlink:href="#SVGID_49_"  overflow="visible"/>
				</clipPath>
				<g clip-path="url(#SVGID_50_)" enable-background="new    ">
					<path fill="#8F0000" d="M205.575,34.389v2.862c-1.584,5.018-3.682,11.971-6.3,20.85v-2.862
						C201.894,46.359,203.991,39.406,205.575,34.389"/>
				</g>
			</g>
			<g>
				<path fill="#E50000" d="M213.603,11.064c-1.719,4.736-4.4,12.51-8.027,23.324c-1.584,5.018-3.682,11.971-6.3,20.849h-10.521
					c-0.98-4.028-2.736-10.902-5.273-20.62c-1.603,5-3.763,11.873-6.472,20.62h-10.377c-1.242-4.391-3.384-11.564-6.408-21.512
					c-1.782-5.469-4.41-13.022-7.884-22.661h19.98c0.414,1.874,1.134,4.912,2.169,9.109l3.105,11.511
					c0.567-1.599,1.404-4.364,2.52-8.313c-0.918-3.357-2.088-7.457-3.519-12.307h18.162c0.315,1.838,0.837,4.815,1.558,8.941
					c0.53,2.739,1.251,6.635,2.169,11.679l3.015-11.741c0.549-2.217,1.179-5.186,1.908-8.879H213.603z"/>
			</g>
		</g>
		<g enable-background="new    ">
			<g enable-background="new    ">
				<defs>
					<path id="SVGID_51_" enable-background="new    " d="M271.374,11.064v2.862c-0.333,4.709-0.774,12.395-1.323,23.032v-2.862
						C270.6,23.459,271.041,15.773,271.374,11.064z"/>
				</defs>
				<clipPath id="SVGID_52_">
					<use xlink:href="#SVGID_51_"  overflow="visible"/>
				</clipPath>
				<g clip-path="url(#SVGID_52_)" enable-background="new    ">
					<path fill="#940000" d="M271.374,11.064v2.862c-0.333,4.709-0.774,12.395-1.323,23.032v-2.862
						C270.6,23.459,271.041,15.773,271.374,11.064"/>
				</g>
			</g>
			<g enable-background="new    ">
				<defs>
					<path id="SVGID_53_" enable-background="new    " d="M228.426,34.097v2.862c-0.18-5.504-0.621-13.181-1.323-23.032v-2.862
						C227.805,20.916,228.246,28.593,228.426,34.097z"/>
				</defs>
				<clipPath id="SVGID_54_">
					<use xlink:href="#SVGID_53_"  overflow="visible"/>
				</clipPath>
				<g clip-path="url(#SVGID_54_)" enable-background="new    ">
					<path fill="#850000" d="M228.426,34.097v2.862c-0.18-5.504-0.621-13.181-1.323-23.032v-2.862
						C227.805,20.916,228.246,28.593,228.426,34.097"/>
				</g>
			</g>
			<g>
				<polygon fill="#800000" points="253.797,38.152 253.797,41.014 252.303,13.927 252.303,11.064 				"/>
			</g>
			<g>
				<polygon fill="#930000" points="247.668,11.064 247.668,13.927 246.291,41.128 246.291,38.267 				"/>
			</g>
			<g enable-background="new    ">
				<defs>
					<path id="SVGID_55_" enable-background="new    " d="M247.614,44.159v2.862c-0.315-0.76-0.828-1.847-1.558-3.251v-2.862
						C246.786,42.313,247.299,43.399,247.614,44.159z"/>
				</defs>
				<clipPath id="SVGID_56_">
					<use xlink:href="#SVGID_55_"  overflow="visible"/>
				</clipPath>
				<g clip-path="url(#SVGID_56_)" enable-background="new    ">
					<path fill="#850000" d="M247.614,44.159v2.862c-0.315-0.76-0.828-1.847-1.558-3.251v-2.862
						C246.786,42.313,247.299,43.399,247.614,44.159"/>
				</g>
			</g>
			<g>
				<polygon fill="#800000" points="249.135,47.702 249.135,50.564 247.614,47.021 247.614,44.159 				"/>
			</g>
			<g enable-background="new    ">
				<defs>
					<path id="SVGID_57_" enable-background="new    " d="M253.968,45.573v2.862c-0.351,0.115-1.062,0.389-2.133,0.831
						c-1.269,0.539-2.169,0.972-2.7,1.299v-2.862c0.531-0.327,1.432-0.76,2.7-1.299C252.906,45.962,253.617,45.688,253.968,45.573z"
						/>
				</defs>
				<clipPath id="SVGID_58_">
					<use xlink:href="#SVGID_57_"  overflow="visible"/>
				</clipPath>
				<g clip-path="url(#SVGID_58_)" enable-background="new    ">
					<path fill="#850000" d="M253.968,45.573v2.862c-0.351,0.115-1.062,0.389-2.133,0.831c-1.269,0.539-2.169,0.972-2.7,1.299
						v-2.862c0.531-0.327,1.432-0.76,2.7-1.299C252.906,45.962,253.617,45.688,253.968,45.573"/>
				</g>
			</g>
			<g>
				<polygon fill="#800000" points="254.292,55.238 254.292,58.1 253.968,48.435 253.968,45.573 				"/>
			</g>
			<g>
				<polygon fill="#930000" points="246.057,40.908 246.057,43.77 245.769,58.1 245.769,55.238 				"/>
			</g>
			<g>
				<rect x="229.271" y="55.238" fill="#800000" width="16.497" height="2.862"/>
			</g>
			<g>
				<polygon fill="#800000" points="229.271,55.238 229.271,58.1 228.426,36.958 228.426,34.097 				"/>
			</g>
			<g>
				<rect x="254.292" y="55.238" fill="#800000" width="14.94" height="2.862"/>
			</g>
			<g enable-background="new    ">
				<defs>
					<path id="SVGID_59_" enable-background="new    " d="M270.051,34.097v2.862c-0.152,5.063-0.423,12.104-0.818,21.142v-2.862
						C269.628,46.2,269.898,39.159,270.051,34.097z"/>
				</defs>
				<clipPath id="SVGID_60_">
					<use xlink:href="#SVGID_59_"  overflow="visible"/>
				</clipPath>
				<g clip-path="url(#SVGID_60_)" enable-background="new    ">
					<path fill="#940000" d="M270.051,34.097v2.862c-0.152,5.063-0.423,12.104-0.818,21.142v-2.862
						C269.628,46.2,269.898,39.159,270.051,34.097"/>
				</g>
			</g>
			<g>
				<path fill="#E50000" d="M271.374,11.064c-0.333,4.709-0.774,12.395-1.323,23.032c-0.152,5.063-0.423,12.104-0.818,21.141h-14.94
					l-0.324-9.665c-0.351,0.114-1.062,0.389-2.133,0.83c-1.269,0.539-2.169,0.972-2.7,1.299l-1.521-3.543
					c-0.315-0.76-0.828-1.846-1.558-3.251l-0.288,14.33h-16.497l-0.846-21.141c-0.18-5.504-0.621-13.181-1.323-23.032h20.565
					l-1.377,27.202c1.003,0.093,1.975,0.142,2.916,0.142c0.401,0,0.798-0.008,1.188-0.027c0.838-0.018,1.972-0.097,3.402-0.229
					l-1.494-27.087H271.374z"/>
			</g>
		</g>
		<g enable-background="new    ">
			<g enable-background="new    ">
				<defs>
					<path id="SVGID_61_" enable-background="new    " d="M298.617,32.586v2.862c-1.639-0.15-3.438-0.248-5.392-0.283v-2.862
						C295.179,32.338,296.979,32.436,298.617,32.586z"/>
				</defs>
				<clipPath id="SVGID_62_">
					<use xlink:href="#SVGID_61_"  overflow="visible"/>
				</clipPath>
				<g clip-path="url(#SVGID_62_)" enable-background="new    ">
					<path fill="#850000" d="M298.617,32.586v2.862c-1.639-0.15-3.438-0.248-5.392-0.283v-2.862
						C295.179,32.338,296.979,32.436,298.617,32.586"/>
				</g>
			</g>
			<g enable-background="new    ">
				<defs>
					<path id="SVGID_63_" enable-background="new    " d="M303.306,33.195v2.862c-0.72-0.115-2.286-0.318-4.688-0.609v-2.862
						C301.02,32.877,302.586,33.081,303.306,33.195z"/>
				</defs>
				<clipPath id="SVGID_64_">
					<use xlink:href="#SVGID_63_"  overflow="visible"/>
				</clipPath>
				<g clip-path="url(#SVGID_64_)" enable-background="new    ">
					<path fill="#850000" d="M303.306,33.195v2.862c-0.72-0.115-2.286-0.318-4.688-0.609v-2.862
						C301.02,32.877,302.586,33.081,303.306,33.195"/>
				</g>
			</g>
			<g>
				<polygon fill="#930000" points="304.566,14.987 304.566,17.85 303.306,36.058 303.306,33.195 				"/>
			</g>
			<g enable-background="new    ">
				<defs>
					<path id="SVGID_65_" enable-background="new    " d="M274.92,36.615v2.862c-0.162-5.16-0.54-12.369-1.143-21.627v-2.862
						C274.38,24.246,274.758,31.455,274.92,36.615z"/>
				</defs>
				<clipPath id="SVGID_66_">
					<use xlink:href="#SVGID_65_"  overflow="visible"/>
				</clipPath>
				<g clip-path="url(#SVGID_66_)" enable-background="new    ">
					<path fill="#850000" d="M274.92,36.615v2.862c-0.162-5.16-0.54-12.369-1.143-21.627v-2.862
						C274.38,24.246,274.758,31.455,274.92,36.615"/>
				</g>
			</g>
			<g>
				<polygon fill="#920000" points="293.226,32.303 293.226,35.166 292.785,40.652 292.785,37.79 				"/>
			</g>
			<g enable-background="new    ">
				<defs>
					<path id="SVGID_67_" enable-background="new    " d="M297.303,45.158v2.862c-0.804-0.046-1.893-0.068-3.272-0.068
						c-0.442,0-0.914,0.002-1.416,0.006v-2.862c0.502-0.004,0.974-0.006,1.416-0.006C295.41,45.089,296.499,45.111,297.303,45.158z"
						/>
				</defs>
				<clipPath id="SVGID_68_">
					<use xlink:href="#SVGID_67_"  overflow="visible"/>
				</clipPath>
				<g clip-path="url(#SVGID_68_)" enable-background="new    ">
					<path fill="#850000" d="M297.303,45.158v2.862c-0.804-0.046-1.893-0.068-3.272-0.068c-0.442,0-0.914,0.002-1.416,0.006v-2.862
						c0.502-0.004,0.974-0.006,1.416-0.006C295.41,45.089,296.499,45.111,297.303,45.158"/>
				</g>
			</g>
			<g enable-background="new    ">
				<defs>
					<path id="SVGID_69_" enable-background="new    " d="M301.551,45.67v2.862c-0.566-0.132-1.988-0.3-4.248-0.513v-2.862
						C299.563,45.37,300.984,45.538,301.551,45.67z"/>
				</defs>
				<clipPath id="SVGID_70_">
					<use xlink:href="#SVGID_69_"  overflow="visible"/>
				</clipPath>
				<g clip-path="url(#SVGID_70_)" enable-background="new    ">
					<path fill="#850000" d="M301.551,45.67v2.862c-0.566-0.132-1.988-0.3-4.248-0.513v-2.862
						C299.563,45.37,300.984,45.538,301.551,45.67"/>
				</g>
			</g>
			<g enable-background="new    ">
				<defs>
					<path id="SVGID_71_" enable-background="new    " d="M303.306,37.648v2.862c-0.216,0.707-0.558,2.032-1.025,3.967
						c-0.271,1.175-0.514,2.527-0.729,4.055V45.67c0.216-1.528,0.459-2.88,0.729-4.055C302.748,39.68,303.09,38.355,303.306,37.648z
						"/>
				</defs>
				<clipPath id="SVGID_72_">
					<use xlink:href="#SVGID_71_"  overflow="visible"/>
				</clipPath>
				<g clip-path="url(#SVGID_72_)" enable-background="new    ">
					<path fill="#8F0000" d="M303.306,37.648v2.862c-0.211,0.692-0.543,1.977-0.996,3.845v-2.862
						C302.763,39.625,303.095,38.34,303.306,37.648"/>
					<path fill="#940000" d="M302.31,41.494v2.862c-0.01,0.041-0.02,0.081-0.029,0.122c-0.271,1.175-0.514,2.527-0.729,4.055V45.67
						c0.216-1.528,0.459-2.88,0.729-4.055C302.29,41.574,302.3,41.534,302.31,41.494"/>
				</g>
			</g>
			<g>
				<polygon fill="#930000" points="292.614,45.096 292.614,47.958 292.317,54.372 292.317,51.51 				"/>
			</g>
			<g>
				<rect x="275.766" y="59.161" fill="#800000" width="26.218" height="2.862"/>
			</g>
			<g>
				<polygon fill="#800000" points="275.766,59.161 275.766,62.022 274.92,39.477 274.92,36.615 				"/>
			</g>
			<g>
				<path fill="#E50000" d="M304.566,14.987l-1.261,18.208c-0.72-0.114-2.286-0.318-4.688-0.609
					c-1.639-0.15-3.438-0.248-5.392-0.283l-0.44,5.486c0.619,0.018,1.353,0.027,2.198,0.027c2.088,0,4.863-0.055,8.322-0.168
					c-0.216,0.707-0.558,2.032-1.025,3.967c-0.271,1.175-0.514,2.527-0.729,4.055c-0.566-0.132-1.988-0.3-4.248-0.512
					c-0.804-0.046-1.893-0.068-3.272-0.068c-0.442,0-0.914,0.002-1.416,0.006l-0.297,6.414c1.467-0.018,4.167-0.142,8.091-0.371
					c0.738-0.062,1.962-0.292,3.663-0.689c-0.162,0.592-0.522,2.023-1.089,4.285c-0.271,1.167-0.604,2.642-0.999,4.426h-26.218
					l-0.846-22.546c-0.162-5.16-0.54-12.369-1.143-21.627H304.566z"/>
			</g>
			<g enable-background="new    ">
				<defs>
					<path id="SVGID_73_" enable-background="new    " d="M304.071,50.45v2.862c-0.162,0.592-0.522,2.023-1.089,4.285
						c-0.271,1.166-0.604,2.642-0.999,4.426v-2.862c0.396-1.785,0.729-3.26,0.999-4.426
						C303.549,52.473,303.909,51.042,304.071,50.45z"/>
				</defs>
				<clipPath id="SVGID_74_">
					<use xlink:href="#SVGID_73_"  overflow="visible"/>
				</clipPath>
				<g clip-path="url(#SVGID_74_)" enable-background="new    ">
					<path fill="#8F0000" d="M304.071,50.45v2.862c-0.16,0.586-0.516,1.996-1.072,4.22V54.67
						C303.556,52.445,303.911,51.036,304.071,50.45"/>
					<path fill="#940000" d="M302.999,54.67v2.862c-0.006,0.021-0.011,0.043-0.017,0.065c-0.271,1.166-0.604,2.642-0.999,4.426
						v-2.862c0.396-1.785,0.729-3.26,0.999-4.426C302.988,54.713,302.993,54.691,302.999,54.67"/>
				</g>
			</g>
		</g>
		<g enable-background="new    ">
			<g enable-background="new    ">
				<defs>
					<path id="SVGID_75_" enable-background="new    " d="M333.132,39.698v2.862c0-1.82-0.783-3.127-2.349-3.913
						c-1.012-0.504-2.246-0.757-3.709-0.757c-0.202,0-0.409,0.004-0.62,0.015v-2.862c0.211-0.01,0.418-0.015,0.62-0.015
						c1.463,0,2.697,0.252,3.709,0.757C332.349,36.57,333.132,37.878,333.132,39.698z"/>
				</defs>
				<clipPath id="SVGID_76_">
					<use xlink:href="#SVGID_75_"  overflow="visible"/>
				</clipPath>
				<g clip-path="url(#SVGID_76_)" enable-background="new    ">
					<path fill="#850000" d="M333.132,39.698v2.862c0-1.82-0.783-3.127-2.349-3.913c-1.012-0.504-2.246-0.757-3.709-0.757
						c-0.202,0-0.409,0.004-0.62,0.015v-2.862c0.211-0.01,0.418-0.015,0.62-0.015c1.463,0,2.697,0.252,3.709,0.757
						C332.349,36.57,333.132,37.878,333.132,39.698"/>
				</g>
			</g>
			<g>
				<polygon fill="#930000" points="326.454,35.042 326.454,37.904 326.274,47.737 326.274,44.875 				"/>
			</g>
			<g enable-background="new    ">
				<defs>
					<path id="SVGID_77_" enable-background="new    " d="M346.434,33.487v2.862c0,3.524-1.008,6.652-3.023,9.373
						c-1.773,2.376-4.005,4.082-6.678,5.125v-2.862c2.673-1.042,4.904-2.748,6.678-5.124
						C345.426,40.14,346.434,37.012,346.434,33.487z"/>
				</defs>
				<clipPath id="SVGID_78_">
					<use xlink:href="#SVGID_77_"  overflow="visible"/>
				</clipPath>
				<g clip-path="url(#SVGID_78_)" enable-background="new    ">
					<path fill="#940000" d="M346.434,33.487v2.862c0,1.327-0.143,2.598-0.429,3.812V37.3
						C346.291,36.085,346.434,34.814,346.434,33.487"/>
					<path fill="#8F0000" d="M346.005,37.3v2.862c-0.262,1.112-0.644,2.176-1.145,3.192v-2.862
						C345.361,39.476,345.743,38.412,346.005,37.3"/>
					<path fill="#8A0000" d="M344.86,40.492v2.862c-0.405,0.821-0.889,1.611-1.45,2.369c-0.19,0.255-0.387,0.503-0.588,0.743v-2.862
						c0.201-0.24,0.397-0.487,0.588-0.743C343.972,42.103,344.455,41.313,344.86,40.492"/>
					<path fill="#850000" d="M342.822,43.604v2.862c-1.67,1.992-3.704,3.451-6.09,4.381v-2.862
						C339.118,47.055,341.152,45.596,342.822,43.604"/>
				</g>
			</g>
			<g enable-background="new    ">
				<defs>
					<path id="SVGID_79_" enable-background="new    " d="M329.991,58.418v2.862c-0.892-1.458-2.214-3.905-3.951-7.359v-2.862
						C327.777,54.514,329.1,56.96,329.991,58.418z"/>
				</defs>
				<clipPath id="SVGID_80_">
					<use xlink:href="#SVGID_79_"  overflow="visible"/>
				</clipPath>
				<g clip-path="url(#SVGID_80_)" enable-background="new    ">
					<path fill="#850000" d="M329.991,58.418v2.862c-0.892-1.458-2.214-3.905-3.951-7.359v-2.862
						C327.777,54.514,329.1,56.96,329.991,58.418"/>
				</g>
			</g>
			<g enable-background="new    ">
				<defs>
					<path id="SVGID_81_" enable-background="new    " d="M346.02,58.418v2.862c-0.918,0.327-2.942,1.148-6.065,2.474v-2.862
						C343.077,59.567,345.102,58.746,346.02,58.418z"/>
				</defs>
				<clipPath id="SVGID_82_">
					<use xlink:href="#SVGID_81_"  overflow="visible"/>
				</clipPath>
				<g clip-path="url(#SVGID_82_)" enable-background="new    ">
					<path fill="#850000" d="M346.02,58.418v2.862c-0.918,0.327-2.942,1.148-6.065,2.474v-2.862
						C343.077,59.567,345.102,58.746,346.02,58.418"/>
				</g>
			</g>
			<g>
				<polygon fill="#930000" points="326.04,51.059 326.04,53.921 325.689,63.984 325.689,61.122 				"/>
			</g>
			<g>
				<rect x="309.192" y="61.122" fill="#800000" width="16.497" height="2.862"/>
			</g>
			<g enable-background="new    ">
				<defs>
					<path id="SVGID_83_" enable-background="new    " d="M309.192,61.122v2.862c-0.217-4.178-0.514-11.069-0.909-20.673
						c-0.171-5.654-0.576-13.491-1.197-23.5v-2.862c0.621,10.009,1.026,17.846,1.197,23.5
						C308.679,50.052,308.976,56.943,309.192,61.122z"/>
				</defs>
				<clipPath id="SVGID_84_">
					<use xlink:href="#SVGID_83_"  overflow="visible"/>
				</clipPath>
				<g clip-path="url(#SVGID_84_)" enable-background="new    ">
					<path fill="#850000" d="M309.192,61.122v2.862c-0.217-4.178-0.514-11.069-0.909-20.673c-0.171-5.654-0.576-13.491-1.197-23.5
						v-2.862c0.621,10.009,1.026,17.846,1.197,23.5C308.679,50.052,308.976,56.943,309.192,61.122"/>
				</g>
			</g>
			<g enable-background="new    ">
				<defs>
					<path id="SVGID_85_" enable-background="new    " d="M339.954,60.893v2.862c-2.188,0.981-4.248,1.935-6.183,2.88v-2.862
						C335.706,62.827,337.767,61.873,339.954,60.893z"/>
				</defs>
				<clipPath id="SVGID_86_">
					<use xlink:href="#SVGID_85_"  overflow="visible"/>
				</clipPath>
				<g clip-path="url(#SVGID_86_)" enable-background="new    ">
					<path fill="#850000" d="M339.954,60.893v2.862c-2.188,0.981-4.248,1.935-6.183,2.88v-2.862
						C335.706,62.827,337.767,61.873,339.954,60.893"/>
				</g>
			</g>
			<g>
				<path fill="#E50000" d="M340.926,53.418c1.107,1.264,2.809,2.934,5.094,5c-0.918,0.327-2.942,1.148-6.065,2.474
					c-2.188,0.98-4.248,1.934-6.183,2.88c-0.567-0.689-1.827-2.474-3.78-5.354c-0.892-1.458-2.214-3.905-3.951-7.359l-0.351,10.063
					h-16.497c-0.217-4.179-0.514-11.07-0.909-20.673c-0.171-5.654-0.576-13.491-1.197-23.5c5.373-0.557,10.27-0.831,14.706-0.831
					c16.425,0,24.642,5.787,24.642,17.369c0,3.525-1.008,6.652-3.023,9.374c-1.773,2.376-4.005,4.082-6.678,5.124
					C337.299,48.842,338.694,50.653,340.926,53.418z M330.612,43.815c1.674-0.928,2.52-2.297,2.52-4.117s-0.783-3.127-2.349-3.914
					c-1.012-0.504-2.246-0.757-3.709-0.757c-0.202,0-0.409,0.005-0.62,0.015l-0.18,9.833
					C327.894,44.875,329.343,44.521,330.612,43.815"/>
			</g>
			<g enable-background="new    ">
				<defs>
					<path id="SVGID_87_" enable-background="new    " d="M333.771,63.772v2.862c-0.567-0.689-1.827-2.474-3.78-5.354v-2.862
						C331.944,61.299,333.204,63.083,333.771,63.772z"/>
				</defs>
				<clipPath id="SVGID_88_">
					<use xlink:href="#SVGID_87_"  overflow="visible"/>
				</clipPath>
				<g clip-path="url(#SVGID_88_)" enable-background="new    ">
					<path fill="#850000" d="M333.771,63.772v2.862c-0.567-0.689-1.827-2.474-3.78-5.354v-2.862
						C331.944,61.299,333.204,63.083,333.771,63.772"/>
				</g>
			</g>
		</g>
		<g enable-background="new    ">
			<g enable-background="new    ">
				<defs>
					<path id="SVGID_89_" enable-background="new    " d="M372.975,36.518v2.862c-1.638-0.159-3.438-0.257-5.391-0.292v-2.862
						C369.537,36.261,371.337,36.358,372.975,36.518z"/>
				</defs>
				<clipPath id="SVGID_90_">
					<use xlink:href="#SVGID_89_"  overflow="visible"/>
				</clipPath>
				<g clip-path="url(#SVGID_90_)" enable-background="new    ">
					<path fill="#850000" d="M372.975,36.518v2.862c-1.638-0.159-3.438-0.257-5.391-0.292v-2.862
						C369.537,36.261,371.337,36.358,372.975,36.518"/>
				</g>
			</g>
			<g enable-background="new    ">
				<defs>
					<path id="SVGID_91_" enable-background="new    " d="M377.664,37.118v2.862c-0.729-0.115-2.286-0.318-4.689-0.601v-2.862
						C375.378,36.8,376.935,37.003,377.664,37.118z"/>
				</defs>
				<clipPath id="SVGID_92_">
					<use xlink:href="#SVGID_91_"  overflow="visible"/>
				</clipPath>
				<g clip-path="url(#SVGID_92_)" enable-background="new    ">
					<path fill="#850000" d="M377.664,37.118v2.862c-0.729-0.115-2.286-0.318-4.689-0.601v-2.862
						C375.378,36.8,376.935,37.003,377.664,37.118"/>
				</g>
			</g>
			<g>
				<polygon fill="#930000" points="378.924,18.91 378.924,21.772 377.664,39.98 377.664,37.118 				"/>
			</g>
			<g enable-background="new    ">
				<defs>
					<path id="SVGID_93_" enable-background="new    " d="M349.269,40.537v2.862c-0.152-5.15-0.53-12.359-1.143-21.627V18.91
						C348.738,28.178,349.116,35.386,349.269,40.537z"/>
				</defs>
				<clipPath id="SVGID_94_">
					<use xlink:href="#SVGID_93_"  overflow="visible"/>
				</clipPath>
				<g clip-path="url(#SVGID_94_)" enable-background="new    ">
					<path fill="#850000" d="M349.269,40.537v2.862c-0.152-5.15-0.53-12.359-1.143-21.627V18.91
						C348.738,28.178,349.116,35.386,349.269,40.537"/>
				</g>
			</g>
			<g>
				<polygon fill="#920000" points="367.584,36.226 367.584,39.088 367.143,44.583 367.143,41.721 				"/>
			</g>
			<g enable-background="new    ">
				<defs>
					<path id="SVGID_95_" enable-background="new    " d="M371.652,49.08v2.862c-0.79-0.04-1.863-0.06-3.224-0.06
						c-0.454,0-0.939,0.002-1.457,0.006v-2.862c0.518-0.004,1.003-0.006,1.457-0.006C369.789,49.021,370.862,49.041,371.652,49.08z"
						/>
				</defs>
				<clipPath id="SVGID_96_">
					<use xlink:href="#SVGID_95_"  overflow="visible"/>
				</clipPath>
				<g clip-path="url(#SVGID_96_)" enable-background="new    ">
					<path fill="#850000" d="M371.652,49.08v2.862c-0.79-0.04-1.863-0.06-3.224-0.06c-0.454,0-0.939,0.002-1.457,0.006v-2.862
						c0.518-0.004,1.003-0.006,1.457-0.006C369.789,49.021,370.862,49.041,371.652,49.08"/>
				</g>
			</g>
			<g enable-background="new    ">
				<defs>
					<path id="SVGID_97_" enable-background="new    " d="M375.9,49.602v2.862c-0.567-0.133-1.98-0.31-4.248-0.521V49.08
						C373.92,49.292,375.333,49.469,375.9,49.602z"/>
				</defs>
				<clipPath id="SVGID_98_">
					<use xlink:href="#SVGID_97_"  overflow="visible"/>
				</clipPath>
				<g clip-path="url(#SVGID_98_)" enable-background="new    ">
					<path fill="#850000" d="M375.9,49.602v2.862c-0.567-0.133-1.98-0.31-4.248-0.521V49.08
						C373.92,49.292,375.333,49.469,375.9,49.602"/>
				</g>
			</g>
			<g enable-background="new    ">
				<defs>
					<path id="SVGID_99_" enable-background="new    " d="M377.664,41.58v2.862c-0.216,0.707-0.559,2.032-1.026,3.967
						c-0.278,1.167-0.521,2.518-0.737,4.056v-2.862c0.216-1.538,0.459-2.889,0.737-4.055
						C377.105,43.612,377.448,42.287,377.664,41.58z"/>
				</defs>
				<clipPath id="SVGID_100_">
					<use xlink:href="#SVGID_99_"  overflow="visible"/>
				</clipPath>
				<g clip-path="url(#SVGID_100_)" enable-background="new    ">
					<path fill="#8F0000" d="M377.664,41.58v2.862c-0.216,0.707-0.559,2.032-1.026,3.967c-0.007,0.027-0.013,0.055-0.02,0.083
						v-2.862c0.007-0.027,0.013-0.055,0.02-0.082C377.105,43.612,377.448,42.287,377.664,41.58"/>
					<path fill="#940000" d="M376.618,45.628v2.862c-0.271,1.147-0.507,2.472-0.718,3.973v-2.862
						C376.111,48.1,376.348,46.776,376.618,45.628"/>
				</g>
			</g>
			<g>
				<polygon fill="#930000" points="366.972,49.027 366.972,51.889 366.675,58.303 366.675,55.441 				"/>
			</g>
			<g>
				<rect x="350.124" y="63.083" fill="#800000" width="26.217" height="2.862"/>
			</g>
			<g>
				<polygon fill="#800000" points="350.124,63.083 350.124,65.945 349.269,43.399 349.269,40.537 				"/>
			</g>
			<g>
				<path fill="#E50000" d="M378.924,18.91l-1.26,18.208c-0.729-0.115-2.286-0.318-4.689-0.601
					c-1.638-0.159-3.438-0.256-5.391-0.292l-0.441,5.495c0.58,0.015,1.258,0.021,2.033,0.021c2.104,0,4.931-0.053,8.488-0.163
					c-0.216,0.707-0.559,2.032-1.026,3.967c-0.278,1.166-0.521,2.518-0.737,4.055c-0.567-0.133-1.98-0.31-4.248-0.521
					c-0.79-0.04-1.863-0.06-3.224-0.06c-0.454,0-0.939,0.002-1.457,0.006l-0.297,6.415c1.467-0.026,4.158-0.15,8.082-0.38
					c0.747-0.053,1.971-0.283,3.663-0.689c-0.153,0.592-0.513,2.023-1.08,4.285c-0.279,1.175-0.603,2.651-0.999,4.426h-26.217
					l-0.855-22.546c-0.152-5.151-0.53-12.359-1.143-21.627H378.924z"/>
			</g>
			<g enable-background="new    ">
				<defs>
					<path id="SVGID_101_" enable-background="new    " d="M378.42,54.372v2.862c-0.153,0.592-0.513,2.023-1.08,4.285
						c-0.279,1.175-0.603,2.65-0.999,4.426v-2.862c0.396-1.775,0.72-3.251,0.999-4.426C377.907,56.396,378.267,54.964,378.42,54.372
						z"/>
				</defs>
				<clipPath id="SVGID_102_">
					<use xlink:href="#SVGID_101_"  overflow="visible"/>
				</clipPath>
				<g clip-path="url(#SVGID_102_)" enable-background="new    ">
					<path fill="#8F0000" d="M378.42,54.372v2.862c-0.153,0.592-0.513,2.023-1.08,4.285c-0.014,0.056-0.027,0.113-0.04,0.171v-2.862
						c0.013-0.058,0.026-0.115,0.04-0.171C377.907,56.396,378.267,54.964,378.42,54.372"/>
					<path fill="#940000" d="M377.3,58.828v2.862c-0.271,1.146-0.581,2.564-0.959,4.255v-2.862
						C376.719,61.393,377.029,59.974,377.3,58.828"/>
				</g>
			</g>
		</g>
		<g enable-background="new    ">
			<g enable-background="new    ">
				<defs>
					<path id="SVGID_103_" enable-background="new    " d="M398.598,30.28v2.862c-0.936-4.435-2.367-11.671-4.293-21.707V8.573
						C396.23,18.609,397.662,25.845,398.598,30.28z"/>
				</defs>
				<clipPath id="SVGID_104_">
					<use xlink:href="#SVGID_103_"  overflow="visible"/>
				</clipPath>
				<g clip-path="url(#SVGID_104_)" enable-background="new    ">
					<path fill="#850000" d="M398.598,30.28v2.862c-0.936-4.435-2.367-11.671-4.293-21.707V8.573
						C396.23,18.609,397.662,25.845,398.598,30.28"/>
				</g>
			</g>
			<g enable-background="new    ">
				<defs>
					<path id="SVGID_105_" enable-background="new    " d="M419.307,8.573v2.862c-1.494,6.229-3.032,13.332-4.616,21.309
						c-0.774,3.631-1.549,7.262-2.322,10.911c-0.855,4.073-1.287,6.847-1.287,8.313v-2.862c0-1.466,0.432-4.24,1.287-8.313
						c0.773-3.649,1.548-7.28,2.322-10.911C416.274,21.905,417.813,14.802,419.307,8.573z"/>
				</defs>
				<clipPath id="SVGID_106_">
					<use xlink:href="#SVGID_105_"  overflow="visible"/>
				</clipPath>
				<g clip-path="url(#SVGID_106_)" enable-background="new    ">
					<path fill="#8F0000" d="M419.307,8.573v2.862c-0.125,0.522-0.251,1.05-0.377,1.585v-2.862
						C419.056,9.624,419.182,9.096,419.307,8.573"/>
					<path fill="#940000" d="M418.93,10.158v2.862c-1.375,5.841-2.788,12.415-4.239,19.724c-0.774,3.631-1.549,7.262-2.322,10.911
						c-0.855,4.073-1.287,6.847-1.287,8.313v-2.862c0-1.466,0.432-4.24,1.287-8.313c0.773-3.649,1.548-7.28,2.322-10.911
						C416.142,22.574,417.555,15.999,418.93,10.158"/>
				</g>
			</g>
			<g enable-background="new    ">
				<defs>
					<path id="SVGID_107_" enable-background="new    " d="M401.973,51.315v2.862c-0.639-4.285-1.764-11.291-3.375-21.035V30.28
						C400.209,40.024,401.334,47.031,401.973,51.315z"/>
				</defs>
				<clipPath id="SVGID_108_">
					<use xlink:href="#SVGID_107_"  overflow="visible"/>
				</clipPath>
				<g clip-path="url(#SVGID_108_)" enable-background="new    ">
					<path fill="#850000" d="M401.973,51.315v2.862c-0.639-4.285-1.764-11.291-3.375-21.035V30.28
						C400.209,40.024,401.334,47.031,401.973,51.315"/>
				</g>
			</g>
			<g enable-background="new    ">
				<defs>
					<path id="SVGID_109_" enable-background="new    " d="M411.162,50.131v2.862c-0.135,0.027-1.566,0.186-4.293,0.477
						c-1.53,0.186-3.159,0.415-4.896,0.707v-2.862c1.737-0.292,3.366-0.521,4.896-0.707
						C409.596,50.317,411.027,50.158,411.162,50.131z"/>
				</defs>
				<clipPath id="SVGID_110_">
					<use xlink:href="#SVGID_109_"  overflow="visible"/>
				</clipPath>
				<g clip-path="url(#SVGID_110_)" enable-background="new    ">
					<path fill="#850000" d="M411.162,50.131v2.862c-0.135,0.027-1.566,0.186-4.293,0.477c-1.53,0.186-3.159,0.415-4.896,0.707
						v-2.862c1.737-0.292,3.366-0.521,4.896-0.707C409.596,50.317,411.027,50.158,411.162,50.131"/>
				</g>
			</g>
			<g>
				<path fill="#E50000" d="M419.307,8.573c-1.494,6.229-3.032,13.332-4.616,21.309c-0.774,3.631-1.549,7.262-2.322,10.911
					c-0.855,4.073-1.287,6.847-1.287,8.313c0,0.424,0.027,0.769,0.081,1.025c-0.135,0.027-1.566,0.186-4.293,0.478
					c-1.53,0.186-3.159,0.415-4.896,0.707c-0.639-4.285-1.764-11.291-3.375-21.035c-0.936-4.435-2.367-11.671-4.293-21.707H419.307z
					"/>
			</g>
		</g>
	</g>
</g>
<g>
	<g>
		<g enable-background="new    ">
			<g>
				<polygon fill="#9C0000" points="420,48.345 420,53.04 407,73.232 407,68.537 				"/>
			</g>
			<g>
				<polygon fill="#800000" points="407,68.537 407,73.232 394,53.199 394,48.504 				"/>
			</g>
			<g>
				<polygon fill="#EB0000" points="420.018,48.345 407.021,68.537 393.711,48.504 				"/>
			</g>
		</g>
	</g>
</g>
</svg>
