<?xml version="1.0" encoding="utf-8"?>
<!-- Generator: Adobe Illustrator 16.0.0, SVG Export Plug-In . SVG Version: 6.00 Build 0)  -->
<!DOCTYPE svg PUBLIC "-//W3C//DTD SVG 1.1//EN" "http://www.w3.org/Graphics/SVG/1.1/DTD/svg11.dtd">
<svg version="1.1" id="Layer_1" xmlns="http://www.w3.org/2000/svg" xmlns:xlink="http://www.w3.org/1999/xlink" x="0px" y="0px"
	 width="351px" height="330px" viewBox="0 0 351 330" enable-background="new 0 0 351 330" xml:space="preserve">
<g>
	<ellipse fill="#FFFFFF" cx="175.539" cy="177.757" rx="64.421" ry="3.808"/>
	<g>
		<defs>
			<path id="SVGID_1_" d="M280.585,170.055H70.523c0-53.232,47.025-109.99,105.032-109.99
				C233.562,60.064,280.585,116.822,280.585,170.055z"/>
		</defs>
		<clipPath id="SVGID_2_">
			<use xlink:href="#SVGID_1_"  overflow="visible"/>
		</clipPath>
		<path clip-path="url(#SVGID_2_)" fill="#08AAAC" d="M280.585,170.055H70.523c0-53.232,47.025-109.99,105.032-109.99
			C233.562,60.064,280.585,116.822,280.585,170.055z"/>
		<g clip-path="url(#SVGID_2_)">
			<path fill="#1CACB7" d="M79.515,178.637h191.587c6.437,0,11.493-4.653,11.024-10.108c-4.87-56.764-50.828-108.44-106.804-108.44
				c-56.089,0-102.12,49.759-106.833,108.463C68.052,173.998,73.088,178.637,79.515,178.637z"/>
			<path opacity="0.2" fill="#FFFFFF" d="M79.515,178.637h191.587c6.437,0,11.493-4.653,11.024-10.108
				c-4.87-56.764-50.828-108.44-106.804-108.44c-56.089,0-102.12,49.759-106.833,108.463
				C68.052,173.998,73.088,178.637,79.515,178.637z"/>
			<path fill="#1CACB7" d="M92.123,174.353l169.522,1.071c6.438,0,11.492-4.654,11.025-10.108
				c-4.87-56.765-36.306-102.776-97.348-102.776c-66.269,0-96.116,54.622-96.116,101.727
				C79.207,169.727,85.696,174.353,92.123,174.353z"/>
			<path opacity="0.2" fill="#376F89" d="M241.828,165.822c0,0,5.898-34.04-8.631-46.604c-3.428-2.964-8.207-4.152-11.925-4.617
				c-2.586-0.322-4.802,1.051-3.947,2.428c3.485,5.617,10.887,19.032,9.99,30.373c-0.207,2.62-4.192,1.955-7.037,1.097
				c-1.856-0.56-2.974-1.647-2.883-2.808c0.371-4.73,1.531-17.868-0.139-20.951c-0.126-0.232-0.557-0.325-1.096-0.342
				c-1.716-0.051-3.123,0.749-3.123,1.69v21.156c0,1.131-1.316,2.136-3.271,2.498l-3.813,0.704c-1.707,0.316-3.471-0.39-3.441-1.377
				l0.493-16.827c0.192-2.3-3.104-4.241-7.305-4.294c-4.934-0.061-10.954,0.114-13.852,1.164
				c-5.374,1.947-0.173,28.067-0.173,28.067l-14.667,0.512l-3.558-19.613l-6.52-1.286l-1.26,11.481l-5.486,0.834l1.799-16.18
				c0.042-0.369,0.033-0.739-0.026-1.109l-1.773-11.143l-7.14,4.211c-3.663,2.16-5.886,4.938-6.305,7.877l-2.882,20.176h-9.078
				c0,0-2.942-7.503,0-13.315c1.471-2.906-0.5-2.893-2.838-2.153c-3.152,0.996-5.269,2.747-5.912,4.711
				c-1.192,3.647-3.13,10.399-2.562,14.265c0.805,5.48-9.291,3.176-9.291,3.176s-1.672-5.007,0.429-9.301
				c2.101-4.296-11.768,2.626-11.768,2.626l3.698,17.045L241.828,165.822z"/>
			<path opacity="0.2" fill="#FFFFFF" d="M98.25,176.197l96.515,0.992c5.966,0,34.769-1.445,38.657-17.403
				c7.327-30.067-6.725-97.247-58.054-97.247c-61.425,0-89.091,52.613-89.091,96.274C86.277,174.71,92.293,176.197,98.25,176.197z"
				/>
			<path opacity="0.2" fill="#FFFFFF" d="M147.632,174.094L147.632,174.094c19.806,0.616,70.948,4.319,76.123-18.667
				c6.79-30.159-1.307-93.022-48.433-92.888c-52.317,0.15-86.283,57.945-72.467,95.45
				C107.757,171.299,141.674,174.094,147.632,174.094z"/>
			<path opacity="0.2" fill="#FFFFFF" d="M131.713,143.871L131.713,143.871c7.184-6.119,9.318-7.597,14.057-29.633
				c8.428-39.179,35.431-45.581,25.975-48.527c-29.806-2.142-76.551,34.923-63.621,72.654
				C111.035,146.858,124.148,147.66,131.713,143.871z"/>
			<path opacity="0.3" fill="#376F89" d="M218.712,77.763c0,0,60.351,37.736,44.027,91.668
				c-7.987,26.389-145.761,22.971-187.134,8.672c-9.246-3.195-7.248-10.855-6.172-17.828c0.739-4.786,6.015-20.782,11.193-6.841
				c9.192,24.739,104.586,26.645,132.22,2.608C252.755,121.329,218.712,77.763,218.712,77.763z"/>
			<defs>
				<filter id="Adobe_OpacityMaskFilter" filterUnits="userSpaceOnUse" x="105.915" y="65.628" width="91.122" height="84.997">
					<feFlood  style="flood-color:white;flood-opacity:1" result="back"/>
					<feBlend  in="SourceGraphic" in2="back" mode="normal"/>
				</filter>
			</defs>
			<mask maskUnits="userSpaceOnUse" x="105.915" y="65.628" width="91.122" height="84.997" id="SVGID_3_">
				<g filter="url(#Adobe_OpacityMaskFilter)">
					<defs>
						
							<filter id="Adobe_OpacityMaskFilter_1_" filterUnits="userSpaceOnUse" x="105.915" y="65.628" width="91.122" height="84.997">
							<feFlood  style="flood-color:white;flood-opacity:1" result="back"/>
							<feBlend  in="SourceGraphic" in2="back" mode="normal"/>
						</filter>
					</defs>
					<mask maskUnits="userSpaceOnUse" x="105.915" y="65.628" width="91.122" height="84.997" id="SVGID_3_">
						<g filter="url(#Adobe_OpacityMaskFilter_1_)">
						</g>
					</mask>
					
						<radialGradient id="SVGID_4_" cx="-57.7119" cy="558.9756" r="67.7151" gradientTransform="matrix(0.7065 0 0 0.6003 192.2491 -227.4263)" gradientUnits="userSpaceOnUse">
						<stop  offset="0" style="stop-color:#FFFFFF"/>
						<stop  offset="1" style="stop-color:#000000"/>
					</radialGradient>
					<path mask="url(#SVGID_3_)" fill="url(#SVGID_4_)" d="M131.808,149L131.808,149c11.511,2.388,49.336,3.839,56.586-8.302
						c16.353-27.383,9.772-72.309-22.064-74.987c-22.888-1.925-70.168,29.995-58.629,63.739C112.28,142.842,125.851,149,131.808,149
						z"/>
				</g>
			</mask>
			
				<radialGradient id="SVGID_5_" cx="-57.7119" cy="558.9756" r="67.7151" gradientTransform="matrix(0.7065 0 0 0.6003 192.2491 -227.4263)" gradientUnits="userSpaceOnUse">
				<stop  offset="0" style="stop-color:#FFFFFF"/>
				<stop  offset="1" style="stop-color:#FFFFFF"/>
			</radialGradient>
			<path opacity="0.4" fill="url(#SVGID_5_)" d="M131.808,149L131.808,149c11.511,2.388,49.336,3.839,56.586-8.302
				c16.353-27.383,9.772-72.309-22.064-74.987c-22.888-1.925-70.168,29.995-58.629,63.739C112.28,142.842,125.851,149,131.808,149z"
				/>
			<defs>
				<filter id="Adobe_OpacityMaskFilter_2_" filterUnits="userSpaceOnUse" x="219.805" y="63.541" width="71.87" height="127.68">
					<feFlood  style="flood-color:white;flood-opacity:1" result="back"/>
					<feBlend  in="SourceGraphic" in2="back" mode="normal"/>
				</filter>
			</defs>
			<mask maskUnits="userSpaceOnUse" x="219.805" y="63.541" width="71.87" height="127.68" id="SVGID_6_">
				<g filter="url(#Adobe_OpacityMaskFilter_2_)">
					<defs>
						<filter id="Adobe_OpacityMaskFilter_3_" filterUnits="userSpaceOnUse" x="219.805" y="63.541" width="71.87" height="127.68">
							<feFlood  style="flood-color:white;flood-opacity:1" result="back"/>
							<feBlend  in="SourceGraphic" in2="back" mode="normal"/>
						</filter>
					</defs>
					<mask maskUnits="userSpaceOnUse" x="219.805" y="63.541" width="71.87" height="127.68" id="SVGID_6_">
						<g filter="url(#Adobe_OpacityMaskFilter_3_)">
						</g>
					</mask>
					<linearGradient id="SVGID_7_" gradientUnits="userSpaceOnUse" x1="229.1191" y1="129.8154" x2="286.3018" y2="121.7789">
						<stop  offset="0" style="stop-color:#000000"/>
						<stop  offset="0.3399" style="stop-color:#000000"/>
						<stop  offset="1" style="stop-color:#FFFFFF"/>
					</linearGradient>
					<path mask="url(#SVGID_6_)" fill="url(#SVGID_7_)" d="M219.805,63.541c47.674,21.482,85.008,89.79,67.459,117.858
						c-17.548,28.066-48.63-12.945-48.63-12.945S279.009,137.443,219.805,63.541z"/>
				</g>
			</mask>
			<linearGradient id="SVGID_8_" gradientUnits="userSpaceOnUse" x1="229.1191" y1="129.8154" x2="286.3018" y2="121.7789">
				<stop  offset="0" style="stop-color:#BC2FB9"/>
				<stop  offset="0.3399" style="stop-color:#BC2FB9"/>
				<stop  offset="1" style="stop-color:#FF005C"/>
			</linearGradient>
			<path opacity="0.7" fill="url(#SVGID_8_)" d="M219.805,63.541c47.674,21.482,85.008,89.79,67.459,117.858
				c-17.548,28.066-48.63-12.945-48.63-12.945S279.009,137.443,219.805,63.541z"/>
		</g>
	</g>
	<path opacity="0.3" fill="#0B0A0C" d="M86.499,115.06c18.588-7.298,84.617-32.082,176.151-3.195
		c-3.181-7.014-6.965-10.914-6.965-10.914s-108.789-25.276-138.214-9.915C90.756,104.98,86.499,115.06,86.499,115.06z"/>
	<linearGradient id="SVGID_9_" gradientUnits="userSpaceOnUse" x1="83.1377" y1="88.0488" x2="264.9912" y2="88.0488">
		<stop  offset="0" style="stop-color:#C64200"/>
		<stop  offset="0.7488" style="stop-color:#9B1600"/>
		<stop  offset="1" style="stop-color:#AA00CE"/>
	</linearGradient>
	<path fill="url(#SVGID_9_)" d="M260.912,109.211c-41.525-16.878-125.086-18.276-172.868,3.31l-4.906,1.592
		c0,0,40.415-52.126,92.491-52.126c49.323,0,89.362,47.775,89.362,47.775L260.912,109.211z"/>
	<polygon fill="#8F3C81" points="175.336,8.624 174.996,8.624 172.413,58.486 177.474,58.469 	"/>
	<path fill="#B547B2" d="M210.503,73.268c0,9.213-15.892-4.916-35.495-4.916c-19.604,0-35.496,14.129-35.496,4.916
		c0-9.215,15.892-22.573,35.496-22.573C194.612,50.695,210.503,64.053,210.503,73.268z"/>
	<g>
		<defs>
			<circle id="SVGID_10_" cx="175.194" cy="8.757" r="2.998"/>
		</defs>
		<clipPath id="SVGID_11_">
			<use xlink:href="#SVGID_10_"  overflow="visible"/>
		</clipPath>
		<circle clip-path="url(#SVGID_11_)" fill="#B547B2" cx="175.042" cy="8.898" r="2.857"/>
		
			<ellipse transform="matrix(0.9433 -0.3319 0.3319 0.9433 7.1128 58.5027)" opacity="0.1" clip-path="url(#SVGID_11_)" fill="#FFFFFF" cx="174.803" cy="8.431" rx="2.882" ry="2.323"/>
		
			<ellipse transform="matrix(0.742 -0.6704 0.6704 0.742 39.5926 118.7506)" opacity="0.2" clip-path="url(#SVGID_11_)" fill="#FFFFFF" cx="174.091" cy="7.932" rx="2.081" ry="1.646"/>
	</g>
	<linearGradient id="SVGID_12_" gradientUnits="userSpaceOnUse" x1="60.2314" y1="169.5215" x2="292.1191" y2="169.5215">
		<stop  offset="0" style="stop-color:#C64473"/>
		<stop  offset="0.3498" style="stop-color:#B72358"/>
		<stop  offset="1" style="stop-color:#930035"/>
	</linearGradient>
	<path fill="url(#SVGID_12_)" d="M292.119,169.968c0-5.664-51.416-8.576-115.817-8.576c-64.4,0-116.071,4.369-116.071,8.606v0.06
		c0,4.195,3.401,7.596,7.597,7.595l216.701-0.092C288.722,177.559,292.119,174.159,292.119,169.968L292.119,169.968L292.119,169.968
		C292.119,169.973,292.119,169.973,292.119,169.968z"/>
	<path fill="#573060" d="M285.443,177.506c0,0-49.717,6.438-115.786,6.438c-64.277,0-101.918-6.292-101.918-6.292
		s37.641-6.199,101.918-6.199C233.933,171.453,285.443,177.506,285.443,177.506z"/>
	<linearGradient id="SVGID_13_" gradientUnits="userSpaceOnUse" x1="80.1143" y1="192.2314" x2="270.8213" y2="192.2314">
		<stop  offset="0" style="stop-color:#EFBD50"/>
		<stop  offset="0.2069" style="stop-color:#F4BC71"/>
		<stop  offset="1" style="stop-color:#C16000"/>
	</linearGradient>
	<path fill="url(#SVGID_13_)" d="M270.457,179.466c-3.596-1.702-44.525-2.849-94.958-2.849c-50.432,0-91.362,1.146-94.958,2.849
		h-0.427v28.38h190.707v-28.38H270.457z"/>
	<path opacity="0.3" fill="#0B0A0C" d="M270.457,179.466c-3.596-1.702-44.525-2.849-94.958-2.849
		c-50.432,0-91.362,1.146-94.958,2.849h-0.427v4.479l190.707,5.437v-9.915H270.457z"/>
	<ellipse fill="#934538" cx="175.536" cy="207.996" rx="95.244" ry="2.742"/>
	<linearGradient id="SVGID_14_" gradientUnits="userSpaceOnUse" x1="102.6841" y1="298.7334" x2="249.1963" y2="298.7334">
		<stop  offset="0" style="stop-color:#EFBD50"/>
		<stop  offset="0.2463" style="stop-color:#F4BC71"/>
		<stop  offset="0.4975" style="stop-color:#C64200"/>
		<stop  offset="0.7488" style="stop-color:#9B1600"/>
		<stop  offset="1" style="stop-color:#AA00CE"/>
	</linearGradient>
	<rect x="102.684" y="295.885" fill="url(#SVGID_14_)" width="146.512" height="5.697"/>
	<linearGradient id="SVGID_15_" gradientUnits="userSpaceOnUse" x1="36.71" y1="315.3145" x2="315.418" y2="315.3145">
		<stop  offset="0" style="stop-color:#EFBD50"/>
		<stop  offset="0.2463" style="stop-color:#F4BC71"/>
		<stop  offset="0.4975" style="stop-color:#C64200"/>
		<stop  offset="0.7488" style="stop-color:#9B1600"/>
		<stop  offset="1" style="stop-color:#AA00CE"/>
	</linearGradient>
	<polygon fill="url(#SVGID_15_)" points="289.898,311.226 62.007,311.226 36.71,319.404 315.418,319.404 	"/>
	<linearGradient id="SVGID_16_" gradientUnits="userSpaceOnUse" x1="77.4492" y1="306.3223" x2="274.6191" y2="306.3223">
		<stop  offset="0" style="stop-color:#EFBD50"/>
		<stop  offset="0.2463" style="stop-color:#F4BC71"/>
		<stop  offset="0.4975" style="stop-color:#C64200"/>
		<stop  offset="0.7488" style="stop-color:#9B1600"/>
		<stop  offset="1" style="stop-color:#AA00CE"/>
	</linearGradient>
	<polygon fill="url(#SVGID_16_)" points="265.188,301.42 86.764,301.42 77.449,311.226 274.619,311.226 	"/>
	<polygon opacity="0.1" fill="#FFFFFF" points="265.188,301.42 86.764,301.42 77.449,311.226 274.619,311.226 	"/>
	<linearGradient id="SVGID_17_" gradientUnits="userSpaceOnUse" x1="3.5474" y1="323.4922" x2="348.5791" y2="323.4922">
		<stop  offset="0" style="stop-color:#EFBD50"/>
		<stop  offset="0.2463" style="stop-color:#F4BC71"/>
		<stop  offset="0.4975" style="stop-color:#C64200"/>
		<stop  offset="0.7488" style="stop-color:#9B1600"/>
		<stop  offset="1" style="stop-color:#AA00CE"/>
	</linearGradient>
	<polygon fill="url(#SVGID_17_)" points="330.699,319.404 21.126,319.404 3.547,327.581 348.579,327.581 	"/>
	<polygon opacity="0.1" fill="#FFFFFF" points="289.898,311.226 62.007,311.226 36.71,319.404 315.418,319.404 	"/>
	<polygon opacity="0.1" fill="#FFFFFF" points="330.699,319.404 21.126,319.404 3.547,327.581 348.579,327.581 	"/>
	<linearGradient id="SVGID_18_" gradientUnits="userSpaceOnUse" x1="114.5044" y1="293.1455" x2="237.376" y2="293.1455">
		<stop  offset="0" style="stop-color:#EFBD50"/>
		<stop  offset="0.2463" style="stop-color:#F4BC71"/>
		<stop  offset="0.4975" style="stop-color:#C64200"/>
		<stop  offset="0.7488" style="stop-color:#9B1600"/>
		<stop  offset="1" style="stop-color:#AA00CE"/>
	</linearGradient>
	<rect x="114.504" y="290.406" fill="url(#SVGID_18_)" width="122.872" height="5.479"/>
	<linearGradient id="SVGID_19_" gradientUnits="userSpaceOnUse" x1="127.7144" y1="288.3242" x2="224.1758" y2="288.3242">
		<stop  offset="0" style="stop-color:#EFBD50"/>
		<stop  offset="0.2463" style="stop-color:#F4BC71"/>
		<stop  offset="0.4975" style="stop-color:#C64200"/>
		<stop  offset="0.7488" style="stop-color:#9B1600"/>
		<stop  offset="1" style="stop-color:#AA00CE"/>
	</linearGradient>
	<rect x="127.714" y="286.242" fill="url(#SVGID_19_)" width="96.461" height="4.164"/>
	<linearGradient id="SVGID_20_" gradientUnits="userSpaceOnUse" x1="115.7129" y1="251.2891" x2="236.1768" y2="251.2891">
		<stop  offset="0" style="stop-color:#EFBD50"/>
		<stop  offset="0.2463" style="stop-color:#F4BC71"/>
		<stop  offset="0.4975" style="stop-color:#C64200"/>
		<stop  offset="0.7488" style="stop-color:#9B1600"/>
		<stop  offset="1" style="stop-color:#AA00CE"/>
	</linearGradient>
	<rect x="115.713" y="249.105" fill="url(#SVGID_20_)" width="120.464" height="4.368"/>
	<polygon opacity="0.3" fill="#0B0A0C" points="236.177,252.117 115.713,250.723 115.713,249.105 236.177,249.105 	"/>
	<linearGradient id="SVGID_21_" gradientUnits="userSpaceOnUse" x1="141.0996" y1="275.4883" x2="210.79" y2="275.4883">
		<stop  offset="0" style="stop-color:#EFBD50"/>
		<stop  offset="0.2463" style="stop-color:#F4BC71"/>
		<stop  offset="0.4975" style="stop-color:#C64200"/>
		<stop  offset="0.7488" style="stop-color:#9B1600"/>
		<stop  offset="1" style="stop-color:#AA00CE"/>
	</linearGradient>
	<rect x="141.1" y="264.733" fill="url(#SVGID_21_)" width="69.69" height="21.509"/>
	<polygon opacity="0.3" fill="#0B0A0C" points="210.79,278.226 141.1,270.847 141.1,264.733 210.79,264.733 	"/>
	<linearGradient id="SVGID_22_" gradientUnits="userSpaceOnUse" x1="123.4956" y1="255.5742" x2="228.3945" y2="255.5742">
		<stop  offset="0" style="stop-color:#EFBD50"/>
		<stop  offset="0.2463" style="stop-color:#F4BC71"/>
		<stop  offset="0.4975" style="stop-color:#C64200"/>
		<stop  offset="0.7488" style="stop-color:#9B1600"/>
		<stop  offset="1" style="stop-color:#AA00CE"/>
	</linearGradient>
	<rect x="123.496" y="253.474" fill="url(#SVGID_22_)" width="104.899" height="4.202"/>
	<polygon opacity="0.3" fill="#0B0A0C" points="228.395,255.575 123.496,254.623 123.496,253.474 228.395,253.474 	"/>
	<linearGradient id="SVGID_23_" gradientUnits="userSpaceOnUse" x1="129.8423" y1="261.5684" x2="222.0488" y2="261.5684">
		<stop  offset="0" style="stop-color:#EFBD50"/>
		<stop  offset="0.2463" style="stop-color:#F4BC71"/>
		<stop  offset="0.4975" style="stop-color:#C64200"/>
		<stop  offset="0.7488" style="stop-color:#9B1600"/>
		<stop  offset="1" style="stop-color:#AA00CE"/>
	</linearGradient>
	<rect x="129.842" y="257.676" fill="url(#SVGID_23_)" width="92.207" height="7.785"/>
	<polygon opacity="0.3" fill="#0B0A0C" points="222.049,261.569 129.842,259.622 129.842,257.676 222.049,257.676 	"/>
	<linearGradient id="SVGID_24_" gradientUnits="userSpaceOnUse" x1="99.9795" y1="220.9766" x2="252.6582" y2="220.9766">
		<stop  offset="0" style="stop-color:#EFBD50"/>
		<stop  offset="0.2069" style="stop-color:#F4BC71"/>
		<stop  offset="1" style="stop-color:#C16000"/>
	</linearGradient>
	<path fill="url(#SVGID_24_)" d="M252.658,207.616c0-0.102-33.244-0.184-76.441-0.184s-76.237,0.082-76.237,0.184
		c0,0.009,0,0.018,0,0.025v26.88h152.679v-26.88C252.658,207.634,252.658,207.625,252.658,207.616z"/>
	<path opacity="0.3" fill="#0B0A0C" d="M252.658,207.616c0-0.102-33.244-0.184-76.441-0.184s-76.237,0.082-76.237,0.184
		c0,0.009,0,0.018,0,0.025v7.394l152.679-4.297v-3.097C252.658,207.634,252.658,207.625,252.658,207.616z"/>
	<polygon opacity="0.3" fill="#0B0A0C" points="252.658,231.343 99.979,229.254 99.979,226.701 252.613,226.701 	"/>
	<polygon opacity="0.3" fill="#0B0A0C" points="71.6,171.453 87.199,175.254 90.806,178.237 91.835,206.688 95.429,209.48 
		89.388,209.167 	"/>
	<polygon opacity="0.3" fill="#0B0A0C" points="92.601,171.453 104.027,173.78 114.382,177.294 113.033,205.858 116.024,207.503 
		113.79,221.548 108.304,221.42 	"/>
	<polygon opacity="0.3" fill="#0B0A0C" points="121.547,171.453 133.875,172.116 146.095,176.617 145.527,205.256 146.095,207.433 
		142.193,221.42 135.637,221.548 134.875,203.535 	"/>
	<polygon opacity="0.3" fill="#0B0A0C" points="153.332,173.723 165.87,171.453 180.954,176.621 178.494,205.257 178.234,207.49 
		173.765,221.893 165.87,222.744 163.264,203.871 	"/>
	<polygon opacity="0.3" fill="#0B0A0C" points="186.11,174.858 197.917,171.83 213.916,176.858 211.505,205.457 209.75,207.473 
		204.981,221.468 197.035,221.468 195.9,205.008 	"/>
	<g>
		<polygon fill="#8F3C81" points="258.216,160.62 243.286,177.365 239.247,221.548 		"/>
		<polygon fill="#8F3C81" points="286.488,164.69 263.863,178.377 261.948,221.548 		"/>
		<polygon fill="#8F3C81" points="222.77,158.129 215.84,176.687 213.905,221.548 		"/>
		<polygon fill="#8F3C81" points="185.078,157.214 182.857,176.354 183.534,221.548 		"/>
		<polygon fill="#823479" points="91.835,162.736 107.974,177.356 111.211,221.548 		"/>
		<polygon fill="#823479" points="65.791,166.649 86.597,178.418 90.511,221.548 		"/>
		<polygon fill="#823479" points="127.178,158.707 135.993,176.354 135.637,221.548 		"/>
		<polygon fill="#823479" points="164.209,157.214 166.556,176.354 165.754,221.548 		"/>
	</g>
	<polygon opacity="0.3" fill="#0B0A0C" points="226.201,205.675 232.188,173.234 245.255,175.157 240.67,205.996 239.247,207.846 
		232.367,222.035 227.401,222.035 227.685,207.433 	"/>
	<polygon opacity="0.3" fill="#0B0A0C" points="246.511,221.548 261.54,175.238 266.944,176.441 278.625,175.238 262.429,210.738 
		262.551,207.996 258.932,209.322 252.942,209.548 252.658,216.233 	"/>
	<g>
		<polygon fill="#A04896" points="198.69,157.214 185.078,157.214 183.534,221.548 195.601,221.548 		"/>
		<polygon fill="#AA57A4" points="164.326,157.887 150.714,157.887 153.803,221.548 165.87,221.548 		"/>
		<polygon fill="#AA57A4" points="127.178,159.38 116.024,160.051 126.799,221.548 135.637,221.548 		"/>
		<polygon fill="#AA57A4" points="91.835,162.736 84.054,163.336 104.027,221.548 111.211,221.548 		"/>
		<polygon fill="#AA57A4" points="65.791,166.649 60.178,167.814 85.217,221.548 90.511,221.548 		"/>
		<polygon fill="#A04896" points="213.905,221.548 223.272,221.548 234.747,159.364 222.77,158.802 		"/>
		<polygon fill="#A04896" points="239.247,221.548 246.511,221.548 265.981,161.556 258.216,160.62 		"/>
		<polygon fill="#A04896" points="261.948,221.548 267.204,221.548 292.119,165.843 286.488,164.69 		"/>
	</g>
	<linearGradient id="SVGID_25_" gradientUnits="userSpaceOnUse" x1="90.8062" y1="245.5479" x2="260.6494" y2="245.5479">
		<stop  offset="0" style="stop-color:#EFBD50"/>
		<stop  offset="0.2463" style="stop-color:#F4BC71"/>
		<stop  offset="0.4975" style="stop-color:#C64200"/>
		<stop  offset="0.7488" style="stop-color:#9B1600"/>
		<stop  offset="1" style="stop-color:#AA00CE"/>
	</linearGradient>
	<path fill="url(#SVGID_25_)" d="M254.883,242.468c-3.005,0-37.224-0.651-79.386-0.651s-76.38,0.651-79.386,0.651h-5.305l5.27,6.812
		h158.824l5.75-6.812H254.883z"/>
	<linearGradient id="SVGID_26_" gradientUnits="userSpaceOnUse" x1="90.8062" y1="237.5674" x2="260.6494" y2="237.5674">
		<stop  offset="0" style="stop-color:#C64473"/>
		<stop  offset="0.3498" style="stop-color:#B72358"/>
		<stop  offset="1" style="stop-color:#930035"/>
	</linearGradient>
	<rect x="90.806" y="232.751" fill="url(#SVGID_26_)" width="169.843" height="9.633"/>
	<linearGradient id="SVGID_27_" gradientUnits="userSpaceOnUse" x1="79.2686" y1="224.0605" x2="272.1855" y2="224.0605">
		<stop  offset="0" style="stop-color:#C64473"/>
		<stop  offset="0.3498" style="stop-color:#B72358"/>
		<stop  offset="1" style="stop-color:#930035"/>
	</linearGradient>
	<rect x="79.269" y="221.42" fill="url(#SVGID_27_)" width="192.917" height="5.281"/>
	<g>
		<defs>
			<path id="SVGID_28_" d="M264.991,109.762c-43.725-20.327-131.054-22.904-181.854,4.351c1.355-6.653,36.168-57.832,92.491-57.832
				C229.517,56.28,264.991,102.853,264.991,109.762z"/>
		</defs>
		<clipPath id="SVGID_29_">
			<use xlink:href="#SVGID_28_"  overflow="visible"/>
		</clipPath>
		<linearGradient id="SVGID_30_" gradientUnits="userSpaceOnUse" x1="83.1377" y1="85.1963" x2="264.9912" y2="85.1963">
			<stop  offset="0" style="stop-color:#EFBD50"/>
			<stop  offset="0.2069" style="stop-color:#F4BC71"/>
			<stop  offset="1" style="stop-color:#C16000"/>
		</linearGradient>
		<path clip-path="url(#SVGID_29_)" fill="url(#SVGID_30_)" d="M264.991,109.762c-43.725-20.327-131.054-22.904-181.854,4.351
			c1.355-6.653,36.168-57.832,92.491-57.832C229.517,56.28,264.991,102.853,264.991,109.762z"/>
		<defs>
			<filter id="Adobe_OpacityMaskFilter_4_" filterUnits="userSpaceOnUse" x="83.138" y="50.556" width="139.229" height="76.015">
				<feFlood  style="flood-color:white;flood-opacity:1" result="back"/>
				<feBlend  in="SourceGraphic" in2="back" mode="normal"/>
			</filter>
		</defs>
		<mask maskUnits="userSpaceOnUse" x="83.138" y="50.556" width="139.229" height="76.015" id="SVGID_31_">
			<g filter="url(#Adobe_OpacityMaskFilter_4_)">
				<defs>
					<filter id="Adobe_OpacityMaskFilter_5_" filterUnits="userSpaceOnUse" x="83.138" y="50.556" width="139.229" height="76.015">
						<feFlood  style="flood-color:white;flood-opacity:1" result="back"/>
						<feBlend  in="SourceGraphic" in2="back" mode="normal"/>
					</filter>
				</defs>
				<mask maskUnits="userSpaceOnUse" x="83.138" y="50.556" width="139.229" height="76.015" id="SVGID_31_">
					<g filter="url(#Adobe_OpacityMaskFilter_5_)">
					</g>
				</mask>
				<radialGradient id="SVGID_32_" cx="152.752" cy="88.5625" r="56.0836" gradientUnits="userSpaceOnUse">
					<stop  offset="0" style="stop-color:#FFFFFF"/>
					<stop  offset="1" style="stop-color:#000000"/>
				</radialGradient>
				<path clip-path="url(#SVGID_29_)" mask="url(#SVGID_31_)" fill="url(#SVGID_32_)" d="M139.483,126.02
					c-19.546,3.097-46.716-7.693-56.345-11.907c1.355-6.653,60.892-102.356,139.229-45.705
					C169.207,48.623,138.317,114.112,139.483,126.02z"/>
			</g>
		</mask>
		<radialGradient id="SVGID_33_" cx="152.752" cy="88.5625" r="56.0836" gradientUnits="userSpaceOnUse">
			<stop  offset="0" style="stop-color:#FFFFFF"/>
			<stop  offset="1" style="stop-color:#FFFFFF"/>
		</radialGradient>
		<path opacity="0.4" clip-path="url(#SVGID_29_)" fill="url(#SVGID_33_)" d="M139.483,126.02
			c-19.546,3.097-46.716-7.693-56.345-11.907c1.355-6.653,60.892-102.356,139.229-45.705
			C169.207,48.623,138.317,114.112,139.483,126.02z"/>
		<path opacity="0.2" clip-path="url(#SVGID_29_)" fill="#BF2B52" d="M83.138,114.112c-12.614-41.012,146.104-146.385,181.854-4.351
			C229.241,49.321,139.831,45.592,83.138,114.112z"/>
		<path opacity="0.2" clip-path="url(#SVGID_29_)" fill="#962245" d="M227.255,108.07c-7.995-38.146-25.061-48.051-39.981-57.375
			c-7.675-4.796,63.004,0.612,77.717,59.067C244.623,109.284,234.822,107.436,227.255,108.07z"/>
		<path opacity="0.7" clip-path="url(#SVGID_29_)" fill="#B547B2" d="M254.034,113.448c-7.995-38.144-38.283-47.844-53.203-57.168
			c-7.675-4.798,49.447-4.974,64.16,53.481C244.623,109.284,261.602,112.814,254.034,113.448z"/>
		<defs>
			<filter id="Adobe_OpacityMaskFilter_6_" filterUnits="userSpaceOnUse" x="116.019" y="59.876" width="58.029" height="33.305">
				<feFlood  style="flood-color:white;flood-opacity:1" result="back"/>
				<feBlend  in="SourceGraphic" in2="back" mode="normal"/>
			</filter>
		</defs>
		<mask maskUnits="userSpaceOnUse" x="116.019" y="59.876" width="58.029" height="33.305" id="SVGID_34_">
			<g filter="url(#Adobe_OpacityMaskFilter_6_)">
				<defs>
					<filter id="Adobe_OpacityMaskFilter_7_" filterUnits="userSpaceOnUse" x="116.019" y="59.876" width="58.029" height="33.305">
						<feFlood  style="flood-color:white;flood-opacity:1" result="back"/>
						<feBlend  in="SourceGraphic" in2="back" mode="normal"/>
					</filter>
				</defs>
				<mask maskUnits="userSpaceOnUse" x="116.019" y="59.876" width="58.029" height="33.305" id="SVGID_34_">
					<g filter="url(#Adobe_OpacityMaskFilter_7_)">
					</g>
				</mask>
				<radialGradient id="SVGID_35_" cx="145.0337" cy="76.5283" r="23.6553" gradientUnits="userSpaceOnUse">
					<stop  offset="0" style="stop-color:#FFFFFF"/>
					<stop  offset="1" style="stop-color:#000000"/>
				</radialGradient>
				<path clip-path="url(#SVGID_29_)" mask="url(#SVGID_34_)" fill="url(#SVGID_35_)" d="M171.713,59.888
					c-31.997-0.447-50.693,12.28-55.052,24.402c-5.389,14.989,24.687,7.46,31.913,3.031
					C155.802,82.892,181.917,60.029,171.713,59.888z"/>
			</g>
		</mask>
		<radialGradient id="SVGID_36_" cx="145.0337" cy="76.5283" r="23.6553" gradientUnits="userSpaceOnUse">
			<stop  offset="0" style="stop-color:#FFFFFF"/>
			<stop  offset="1" style="stop-color:#FFFFFF"/>
		</radialGradient>
		<path opacity="0.4" clip-path="url(#SVGID_29_)" fill="url(#SVGID_36_)" d="M171.713,59.888
			c-31.997-0.447-50.693,12.28-55.052,24.402c-5.389,14.989,24.687,7.46,31.913,3.031C155.802,82.892,181.917,60.029,171.713,59.888
			z"/>
	</g>
</g>
</svg>
