<?xml version="1.0" encoding="utf-8"?>
<!-- Generator: Adobe Illustrator 16.0.0, SVG Export Plug-In . SVG Version: 6.00 Build 0)  -->
<!DOCTYPE svg PUBLIC "-//W3C//DTD SVG 1.1//EN" "http://www.w3.org/Graphics/SVG/1.1/DTD/svg11.dtd">
<svg version="1.1" id="Layer_1" xmlns="http://www.w3.org/2000/svg" xmlns:xlink="http://www.w3.org/1999/xlink" x="0px" y="0px"
	 width="339px" height="317px" viewBox="0 0 339 317" enable-background="new 0 0 339 317" xml:space="preserve">
<g>
	<g>
		<g>
			<path fill="#CE7361" d="M177.61,175.438c-0.116,0.014,0.545-0.051,0.433-0.028l-0.884,0.083l-49.789,1.972l1.916,16.155
				l49.468-4.679l-4.492,0.51c0.115-0.004,4.8-0.547,4.916-0.561c2.932-0.348,4.966-3.642,4.526-7.355
				C183.263,177.822,180.542,175.092,177.61,175.438z"/>
			
				<ellipse transform="matrix(0.993 -0.1179 0.1179 0.993 -20.9643 16.4761)" fill="#DB8175" cx="128.818" cy="185.484" rx="5.725" ry="8.134"/>
		</g>
		<polygon fill="#A05045" points="199.379,143.631 184.689,143.58 179.915,154.897 161.546,156.181 152.176,139.448 
			131.953,139.098 134.003,152.967 164.704,195.464 182.664,195.251 200.685,156.579 		"/>
		<polygon fill="#DC7E68" points="184.831,143.565 179.472,145.674 173.599,155.337 179.985,154.89 		"/>
		<polygon fill="#DC7E68" points="132.091,139.084 126.865,145.567 128.013,156.938 134.203,152.947 		"/>
		<polygon fill="#C16B59" points="164.704,195.464 155.479,197.14 128.013,156.938 134.203,152.947 		"/>
		<g>
			<defs>
				<path id="SVGID_1_" d="M194.933,172.019c-0.13,0.013,0.609-0.048,0.483-0.024l-0.866,0.063l-55.478,1.22l1.823,18.064
					l55.173-4.246l-5.083,0.488c0.128-0.002,5.337-0.514,5.467-0.527c3.279-0.331,5.597-3.966,5.178-8.118
					C201.209,174.784,198.211,171.687,194.933,172.019z"/>
			</defs>
			<clipPath id="SVGID_2_">
				<use xlink:href="#SVGID_1_"  overflow="visible"/>
			</clipPath>
			<path clip-path="url(#SVGID_2_)" fill="#DC7E68" d="M194.933,172.019c-0.13,0.013,0.609-0.048,0.483-0.024l-0.866,0.063
				l-55.478,1.22l1.823,18.064l55.173-4.246l-5.083,0.488c0.128-0.002,5.337-0.514,5.467-0.527c3.279-0.331,5.597-3.966,5.178-8.118
				C201.209,174.784,198.211,171.687,194.933,172.019z"/>
			<polygon opacity="0.25" clip-path="url(#SVGID_2_)" fill="#FFFFFF" points="133.983,171.348 198.99,170.212 203.344,176.313 
				133.983,179.007 			"/>
			<polygon opacity="0.7" clip-path="url(#SVGID_2_)" fill="#823C46" points="138.926,186.869 205.972,182.278 201.278,189.362 
				138.926,194.752 			"/>
		</g>
		<path fill="#E58977" d="M164.197,167.96l0.468,4.64c0,0,5.819,0.357,6.07,7.623c0.254,7.367-4.442,8.504-4.442,8.504l0.489,4.849
			c11.432-1.154,14.691-10.108,14.045-16.519C179.79,166.778,164.197,167.96,164.197,167.96L164.197,167.96z"/>
		<path opacity="0.3" fill="#0B0A0C" d="M167.493,169.059l11.144-1.99c0.649,0,10.411,0.85,13.386,5.142h-2.225
			c1.481,1.647,2.621,3.958,2.801,7.285c0.619,11.426-6.295,13.74-6.295,13.74l-16.226,1.45c0,0,9.509-5.077,8.002-15.914
			C176.573,167.935,167.493,169.059,167.493,169.059z"/>
		<path fill="#C16B59" d="M164.197,167.96l14.13-0.892c0,0,10.399,0.632,10.976,11.279c0.619,11.426-6.295,13.765-6.295,13.765
			l-16.226,1.463c0,0,9.509-5.071,8.002-15.909C173.277,166.829,164.197,167.96,164.197,167.96z"/>
		
			<ellipse transform="matrix(0.9949 -0.1005 0.1005 0.9949 -17.6071 15.0205)" fill="#E58977" cx="140.289" cy="182.278" rx="6.39" ry="9.078"/>
	</g>
	<g>
		<defs>
			<path id="SVGID_3_" d="M109.529,222.193h117.497l-16.348-28.013h-0.005c-3.07-6.042-21.216-9.684-43.032-9.684
				c-21.718,0-39.7,3.462-42.996,8.647v0.027l0.093,0.016c-0.018,0.028,0.02-0.258,0.003-0.229L109.529,222.193z"/>
		</defs>
		<linearGradient id="SVGID_4_" gradientUnits="userSpaceOnUse" x1="109.5288" y1="203.3457" x2="227.0259" y2="203.3457">
			<stop  offset="0" style="stop-color:#EFBD50"/>
			<stop  offset="0.2463" style="stop-color:#F4BC71"/>
			<stop  offset="0.4975" style="stop-color:#C64200"/>
			<stop  offset="0.7488" style="stop-color:#9B1600"/>
			<stop  offset="1" style="stop-color:#AA00CE"/>
		</linearGradient>
		<use xlink:href="#SVGID_3_"  overflow="visible" fill="url(#SVGID_4_)"/>
		<clipPath id="SVGID_5_">
			<use xlink:href="#SVGID_3_"  overflow="visible"/>
		</clipPath>
		<linearGradient id="SVGID_6_" gradientUnits="userSpaceOnUse" x1="109.5288" y1="203.3457" x2="227.0259" y2="203.3457">
			<stop  offset="0" style="stop-color:#EFBD50"/>
			<stop  offset="0.2463" style="stop-color:#F4BC71"/>
			<stop  offset="0.4975" style="stop-color:#C64200"/>
			<stop  offset="0.7488" style="stop-color:#9B1600"/>
			<stop  offset="1" style="stop-color:#AA00CE"/>
		</linearGradient>
		<path clip-path="url(#SVGID_5_)" fill="url(#SVGID_6_)" d="M109.529,222.193h117.497l-16.348-28.013h-0.005
			c-3.07-6.042-21.216-9.684-43.032-9.684c-21.718,0-39.7,3.462-42.996,8.647v0.027l0.093,0.016
			c-0.018,0.028,0.02-0.258,0.003-0.229L109.529,222.193z"/>
		<linearGradient id="SVGID_7_" gradientUnits="userSpaceOnUse" x1="97.5283" y1="208.4941" x2="157.5215" y2="208.4941">
			<stop  offset="0" style="stop-color:#EFBD50"/>
			<stop  offset="0.2463" style="stop-color:#F4BC71"/>
			<stop  offset="0.4975" style="stop-color:#C64200"/>
			<stop  offset="0.7488" style="stop-color:#9B1600"/>
			<stop  offset="1" style="stop-color:#AA00CE"/>
		</linearGradient>
		<path opacity="0.25" clip-path="url(#SVGID_5_)" fill="url(#SVGID_7_)" d="M157.521,180.321
			c-1.185,0.048-12.766,56.347-12.766,56.347l-47.227-4.895l26.801-47.841L157.521,180.321z"/>
		<linearGradient id="SVGID_8_" gradientUnits="userSpaceOnUse" x1="188.2671" y1="207.6064" x2="235.8208" y2="207.6064">
			<stop  offset="0" style="stop-color:#EFBD50"/>
			<stop  offset="0.2463" style="stop-color:#F4BC71"/>
			<stop  offset="0.4975" style="stop-color:#C64200"/>
			<stop  offset="0.7488" style="stop-color:#9B1600"/>
			<stop  offset="1" style="stop-color:#AA00CE"/>
		</linearGradient>
		<polygon opacity="0.7" clip-path="url(#SVGID_5_)" fill="url(#SVGID_8_)" points="188.267,180.936 196.246,234.277 
			235.821,234.277 208.373,182.56 		"/>
	</g>
	<g>
		<defs>
			<path id="SVGID_9_" d="M310.004,242.522c0,20.886-64.983,35.013-143.685,35.013c-78.702,0-140.998-13.404-140.998-34.289
				c0-20.887,62.296-46.453,140.998-46.453C245.021,196.793,310.004,221.637,310.004,242.522z"/>
		</defs>
		<linearGradient id="SVGID_10_" gradientUnits="userSpaceOnUse" x1="25.3213" y1="237.1641" x2="310.0039" y2="237.1641">
			<stop  offset="0" style="stop-color:#EFBD50"/>
			<stop  offset="0.2069" style="stop-color:#F4BC71"/>
			<stop  offset="1" style="stop-color:#C16000"/>
		</linearGradient>
		<use xlink:href="#SVGID_9_"  overflow="visible" opacity="0.3" fill="url(#SVGID_10_)"/>
		<clipPath id="SVGID_11_">
			<use xlink:href="#SVGID_9_"  overflow="visible" opacity="0.3"/>
		</clipPath>
		<linearGradient id="SVGID_12_" gradientUnits="userSpaceOnUse" x1="25.3213" y1="237.1641" x2="310.0039" y2="237.1641">
			<stop  offset="0" style="stop-color:#EFBD50"/>
			<stop  offset="0.2069" style="stop-color:#F4BC71"/>
			<stop  offset="1" style="stop-color:#C16000"/>
		</linearGradient>
		<path clip-path="url(#SVGID_11_)" fill="url(#SVGID_12_)" d="M310.004,242.522c0,20.886-64.983,35.013-143.685,35.013
			c-78.702,0-140.998-13.404-140.998-34.289c0-20.887,62.296-46.453,140.998-46.453
			C245.021,196.793,310.004,221.637,310.004,242.522z"/>
		<path clip-path="url(#SVGID_11_)" fill="#FFCC73" d="M310.004,242.522c0,20.886-64.983,35.013-143.685,35.013
			c-78.702,0-140.998-13.404-140.998-34.289c0-20.887,62.296-46.453,140.998-46.453
			C245.021,196.793,310.004,221.637,310.004,242.522z"/>
		<linearGradient id="SVGID_13_" gradientUnits="userSpaceOnUse" x1="32.0093" y1="239.1211" x2="316.6924" y2="239.1211">
			<stop  offset="0" style="stop-color:#EFBD50"/>
			<stop  offset="0.2069" style="stop-color:#F4BC71"/>
			<stop  offset="1" style="stop-color:#C16000"/>
		</linearGradient>
		<path clip-path="url(#SVGID_11_)" fill="url(#SVGID_13_)" d="M316.692,244.479c0,20.886-64.985,35.012-143.686,35.012
			S32.009,266.089,32.009,245.203c0-20.887,62.296-46.453,140.997-46.453S316.692,223.593,316.692,244.479z"/>
	</g>
	<linearGradient id="SVGID_14_" gradientUnits="userSpaceOnUse" x1="25.2329" y1="240.4551" x2="310.2354" y2="240.4551">
		<stop  offset="0" style="stop-color:#C64473"/>
		<stop  offset="0.3498" style="stop-color:#B72358"/>
		<stop  offset="1" style="stop-color:#930035"/>
	</linearGradient>
	<path fill="url(#SVGID_14_)" d="M310.235,243.476c0,20.887-88.645,31.775-142.501,31.775c-44.737,0-142.501-10.889-142.501-31.775
		c0-20.886,63.8-37.816,142.501-37.816S310.235,222.59,310.235,243.476z"/>
	<ellipse fill="#573060" cx="167.734" cy="244.113" rx="142.413" ry="35.463"/>
	<linearGradient id="SVGID_15_" gradientUnits="userSpaceOnUse" x1="23.6904" y1="260.8164" x2="310.1475" y2="260.8164">
		<stop  offset="0" style="stop-color:#EFBD50"/>
		<stop  offset="0.2463" style="stop-color:#F4BC71"/>
		<stop  offset="0.4975" style="stop-color:#C64200"/>
		<stop  offset="0.7488" style="stop-color:#9B1600"/>
		<stop  offset="1" style="stop-color:#AA00CE"/>
	</linearGradient>
	<path fill="url(#SVGID_15_)" d="M303.056,250.756h-0.006c0,0,0.006,0.022,0.006-0.009c0-16.814-61.094-30.404-136.456-30.404
		c-75.363,0-136.456,13.568-136.456,30.384c0,0.031,0.005,0.029,0.005,0.029h-0.005l-6.454,50.533h286.457L303.056,250.756z"/>
	<polygon opacity="0.3" fill="#0B0A0C" points="37.86,229.733 46.218,236.393 42.039,291.998 30.853,301.307 35.754,291.311 
		37.769,242.791 	"/>
	<polygon opacity="0.3" fill="#0B0A0C" points="59.282,221.173 67.492,229.551 64.774,290.581 52.98,301.307 57.084,290.304 
		59.072,242.334 	"/>
	<polygon opacity="0.3" fill="#0B0A0C" points="83.45,215.54 91.156,225.396 88.805,289.616 76.811,301.307 82.9,289.754 
		84.888,241.784 	"/>
	<polygon opacity="0.3" fill="#0B0A0C" points="110.969,211.41 119.702,222.193 116.955,289.067 105.824,301.307 107.793,288.93 
		111.86,241.784 	"/>
	<polygon opacity="0.3" fill="#0B0A0C" points="139.649,209.323 149.317,220.583 147.852,288.492 137.237,301.307 136.905,286.733 
		137.965,239.634 	"/>
	<polygon opacity="0.3" fill="#0B0A0C" points="169.823,208.652 182.868,220.343 183.967,288.408 171.684,301.466 165.467,288.93 
		166.527,241.83 	"/>
	<polygon opacity="0.3" fill="#0B0A0C" points="201.047,209.628 218.021,222.573 218.021,288.408 205.577,301.561 199.522,291.676 
		200.583,244.577 	"/>
	<polygon opacity="0.3" fill="#0B0A0C" points="231.435,212.39 248.271,226.369 250.218,288.996 237.067,301.763 230.281,296.071 
		231.341,248.971 	"/>
	<path opacity="0.25" fill="#FFFFFF" d="M309.275,295.035L309.275,295.035C309.941,299.757,309.275,295.065,309.275,295.035
		c0-6.589-89.2-6.627-142.675-6.627c-51.313,0-142.144,2.184-142.144,6.866c0,0,0-0.031,0,0l0,0l-0.766,6.015h286.457
		L309.275,295.035z"/>
	<path opacity="0.03" fill="#0B0A0C" d="M199.379,143.631c0.983,9.743-13.215,19.486-26.471,19.395
		c-9.792-0.066-18.437-6.116-19.42-15.859c-0.983-9.742,6.117-18.438,15.859-19.421C179.09,126.762,198.395,133.889,199.379,143.631
		z"/>
	<g>
		<defs>
			<circle id="SVGID_16_" cx="169.114" cy="141.724" r="17.73"/>
		</defs>
		<linearGradient id="SVGID_17_" gradientUnits="userSpaceOnUse" x1="151.3823" y1="141.7246" x2="186.8452" y2="141.7246">
			<stop  offset="0" style="stop-color:#9B1600"/>
			<stop  offset="1" style="stop-color:#7C0038"/>
		</linearGradient>
		<use xlink:href="#SVGID_16_"  overflow="visible" fill="url(#SVGID_17_)"/>
		<clipPath id="SVGID_18_">
			<use xlink:href="#SVGID_16_"  overflow="visible"/>
		</clipPath>
		<path opacity="0.5" clip-path="url(#SVGID_18_)" fill="#8F3C81" d="M187.094,138.876c0.493,10.213-8.115,22.128-25.689,18.115
			c-29.374-6.706,27.391,9.202,27.391,9.202l1.141-37.069L187.094,138.876z"/>
		<path opacity="0.08" clip-path="url(#SVGID_18_)" fill="#FFFFFF" d="M182.879,130.006c-9.541-4.422-18.51-17.45-11.417,6.656
			c-29.638,23.754-24.22-3.477-24.22-3.477l21.873-14.53L182.879,130.006z"/>
	</g>
	<polygon fill="#A05045" points="152.176,139.448 161.546,156.181 165.24,163.373 168.16,166.079 143.16,153.047 131.953,139.098 	
		"/>
	<g>
		<defs>
			<path id="SVGID_19_" d="M283.081,117.03c-7.054,21.589-75.591,37.25-110.773,25.756c-32.088-10.483-81.925-62.545-74.199-86.19
				C105.748,39.989,289.753,99.842,283.081,117.03z"/>
		</defs>
		<clipPath id="SVGID_20_">
			<use xlink:href="#SVGID_19_"  overflow="visible"/>
		</clipPath>
		<path clip-path="url(#SVGID_20_)" fill="#8F3C81" d="M282.677,117.387c-7.054,21.59-75.188,36.894-110.37,25.399
			c-32.088-10.483-81.925-62.545-74.199-86.19C105.748,39.989,277.112,98.042,282.677,117.387z"/>
		<path opacity="0.25" clip-path="url(#SVGID_20_)" fill="#FFFFFF" d="M266.044,101.924c-5.425,19.086-57.01,38.063-106.449,26.952
			c-46.877-10.535-66.773-52.9-61.487-72.28C105.651,39.958,272.67,84.721,266.044,101.924z"/>
	</g>
	<g>
		<defs>
			<path id="SVGID_21_" d="M282.605,118.262c-7.053,21.59-75.116,36.019-110.298,24.524c-32.088-10.483-81.925-62.545-74.199-86.19
				C108.208,25.682,290.6,101.157,282.605,118.262z"/>
		</defs>
		<clipPath id="SVGID_22_">
			<use xlink:href="#SVGID_21_"  overflow="visible"/>
		</clipPath>
		<g opacity="0.15" clip-path="url(#SVGID_22_)">
			<path fill="#FFFFFF" d="M109.421,70.199c0,0,12.463,38.732,46.466,64.669c-22.734-20.23-34.826-40.065-42.188-62.534
				C108.392,56.135,109.421,70.199,109.421,70.199z"/>
			<path fill="#FFFFFF" d="M183.953,79.784c0,0-18.11,40.709-14.797,61.862c0.922-25.614,13.566-50.047,17.507-61.85
				C192.062,63.628,183.953,79.784,183.953,79.784z"/>
			<path fill="#FFFFFF" d="M226.143,98.052c0,0-12.548,29.638-52.404,45.179c26.397-7.717,50.328-31.854,54.269-43.656
				C233.406,83.406,226.143,98.052,226.143,98.052z"/>
			<path fill="#FFFFFF" d="M259.446,122.918c0,0-31.639,20.581-75.433,22.557c33.21-0.906,67.15-12.105,77.298-21.033
				C274.11,113.182,259.446,122.918,259.446,122.918z"/>
			<path fill="#FFFFFF" d="M143.683,66.456c0,0-7.083,42.052,18.837,72.159c-22.117-31.561-16.075-61.778-16.898-73.035
				C144.378,48.579,143.683,66.456,143.683,66.456z"/>
		</g>
	</g>
	<g>
		<g>
			<defs>
				<path id="SVGID_23_" d="M282.556,117.729c-5.141,14.273-50.572,15.412-101.651-1.276
					c-51.079-16.688-88.917-44.578-82.797-59.857c2.778-6.936,50.226-9.246,101.304,7.442
					C250.491,80.727,285.479,111.52,282.556,117.729z"/>
			</defs>
			<use xlink:href="#SVGID_23_"  overflow="visible" fill="#C7737C"/>
			<clipPath id="SVGID_24_">
				<use xlink:href="#SVGID_23_"  overflow="visible"/>
			</clipPath>
			<path opacity="0.25" clip-path="url(#SVGID_24_)" fill="#FFFFFF" d="M282.605,118.262c-7.498,17.147-47.318,31.349-101.704,9.887
				c-54.385-21.463-92.903-52.974-86.034-70.382s56.527-14.121,110.912,7.341C260.166,86.57,285.237,112.246,282.605,118.262z"/>
			<path opacity="0.2" clip-path="url(#SVGID_24_)" fill="#0B0A0C" d="M230.48,64.735c-0.558,2.563-24.903,45.846-24.903,45.846
				l-7.235-3.654L230.48,64.735z"/>
			<path opacity="0.2" clip-path="url(#SVGID_24_)" fill="#0B0A0C" d="M234.5,62.08c-0.557,2.563-4.754,77.063-4.754,77.063
				l-7.234-3.653L234.5,62.08z"/>
			<path opacity="0.2" clip-path="url(#SVGID_24_)" fill="#0B0A0C" d="M234.5,62.08c-0.557,2.563-87.898,36.514-87.898,36.514
				l16.153,1.248L234.5,62.08z"/>
			<path opacity="0.25" clip-path="url(#SVGID_24_)" fill="#FFFFFF" d="M273.141,136.116c-6.511,16.499-49.039,13.013-100.583-7.328
				c-51.545-20.342-89.029-49.841-82.518-66.34c6.511-16.499,54.552-13.748,106.096,6.593
				C247.68,89.383,279.651,119.617,273.141,136.116z"/>
			<g clip-path="url(#SVGID_24_)">
				<defs>
					
						<ellipse id="SVGID_25_" transform="matrix(0.9564 0.2921 -0.2921 0.9564 43.2606 -47.1048)" cx="179.393" cy="121.335" rx="47.633" ry="20.19"/>
				</defs>
				<clipPath id="SVGID_26_">
					<use xlink:href="#SVGID_25_"  overflow="visible"/>
				</clipPath>
				
					<ellipse transform="matrix(0.9564 0.2921 -0.2921 0.9564 43.2606 -47.1048)" clip-path="url(#SVGID_26_)" fill="#BE303E" cx="179.393" cy="121.335" rx="47.633" ry="20.19"/>
				
					<ellipse transform="matrix(0.977 0.2131 -0.2131 0.977 28.9035 -31.32)" opacity="0.25" clip-path="url(#SVGID_26_)" fill="#FFFFFF" cx="159.754" cy="118.432" rx="41.391" ry="19.976"/>
			</g>
		</g>
	</g>
	<polygon fill="#934538" points="200.247,107.517 208.849,43.68 207.706,43.68 198.342,106.55 	"/>
	<polygon fill="#E58977" points="193.138,104.741 206.694,43.957 207.706,44.276 198.342,106.927 	"/>
	<circle fill="#BE303E" cx="207.892" cy="44.86" r="10.054"/>
	<polygon fill="#934538" points="217.229,125.701 210.965,52.287 210.017,51.582 213.027,124.964 	"/>
	<polygon fill="#E58977" points="209.756,124.219 208.504,52.486 210.017,51.582 213.027,124.964 	"/>
	<polygon fill="#E58977" points="152.957,99.842 201.561,51.12 200.543,50.351 146.602,98.594 	"/>
	<polygon fill="#934538" points="152.884,99.842 201.543,51.12 201.543,52.538 156.738,99.392 	"/>
	<path fill="#E58977" d="M209.864,37.806l0.613,0.161c0.973,0.255,1.958-0.369,2.141-1.358l3.846-20.696l-0.541-0.467l-7.248,20.099
		C208.331,36.501,208.88,37.548,209.864,37.806z"/>
	<circle fill="#BE303E" cx="216.354" cy="15.244" r="3.908"/>
	<g>
		<polygon fill="#A04896" points="205.577,301.561 199.963,190.422 193.342,190.021 194.131,301.137 		"/>
		<polygon fill="#A04896" points="171.684,301.466 169.436,189.362 162.939,189.385 159.658,301.632 		"/>
		<polygon fill="#A04896" points="137.237,301.307 140.05,190.141 133.241,190.579 126.458,301.137 		"/>
		<polygon fill="#A04896" points="105.748,301.307 111.036,192.757 104.686,193.61 95.818,301.137 		"/>
		<polygon fill="#A04896" points="76.811,301.307 83.475,197.364 78.208,198.521 68.584,301.137 		"/>
		<polygon fill="#A04896" points="30.853,301.307 37.157,214.096 33.497,216.773 23.477,301.137 		"/>
		<polygon fill="#A04896" points="52.98,301.307 59.139,203.909 54.57,205.549 45.605,301.137 		"/>
		<polygon fill="#A04896" points="237.067,301.763 230.051,193.506 223.894,192.689 224.222,301.15 		"/>
		<polygon fill="#A04896" points="264.302,301.763 256.804,198.414 251.985,197.343 255.406,301.34 		"/>
		<polygon fill="#A04896" points="289.852,301.805 280.118,205.277 276.26,203.863 281.363,301.4 		"/>
		<polygon fill="#A04896" points="310.26,301.763 297.417,213.517 294.631,211.845 303.658,301.449 		"/>
	</g>
	<g>
		<polygon fill="#823479" points="30.853,301.307 41.16,291.987 44.449,237.32 37.86,229.733 37.86,228.077 45.439,224.128 
			45.265,217.874 37.116,214.096 30.853,301.307 		"/>
		<polygon fill="#823479" points="52.98,301.307 61.17,290.685 64.732,230.634 59.282,221.173 59.282,219.095 64.774,217.33 
			64.774,210.923 59.139,203.909 52.98,301.307 		"/>
		<polygon fill="#823479" points="76.811,301.307 84.03,289.74 87.164,225.957 83.45,215.54 83.45,212.973 89.479,211.864 
			90.271,204.47 83.475,197.364 76.811,301.307 		"/>
		<polygon fill="#823479" points="137.237,301.307 140.229,288.369 141.123,220.908 139.649,209.323 139.729,206.388 
			141.351,206.32 141.68,195.919 140.05,190.141 137.237,301.307 		"/>
		<polygon fill="#823479" points="105.748,301.307 110.519,289.014 113.833,222.837 110.892,211.41 110.91,208.772 114.534,208.354 
			115.287,199.273 110.93,192.757 105.748,301.307 		"/>
	</g>
	<g>
		<polygon fill="#8F3C81" points="162.939,189.385 162.239,193.624 162.069,205.688 162.463,205.699 162.397,208.67 161.57,220.441 
			159.463,288.369 159.673,301.137 159.673,301.137 		"/>
		<polygon fill="#8F3C81" points="194.131,301.137 193.342,190.021 191.106,197.376 191.106,206.185 192.606,206.259 
			192.406,209.114 191.106,220.893 191.106,288.37 194.131,301.137 		"/>
		<polygon fill="#8F3C81" points="220.874,222.891 223.66,211.491 223.64,208.718 220.607,208.333 220.359,200.017 223.894,192.689 
			224.222,301.15 224.222,301.15 220.663,288.545 		"/>
		<polygon fill="#8F3C81" points="255.395,301.018 250.218,288.996 248.271,226.369 251.767,215.48 251.758,212.929 
			247.843,212.193 247.523,205.391 251.985,197.343 255.395,301.018 		"/>
		<polygon fill="#8F3C81" points="281.344,301.137 273.454,289.808 270.877,231.211 275.146,220.924 275.146,218.83 270.6,217.381 
			270.439,209.216 276.234,203.863 281.344,301.137 		"/>
		<polygon fill="#8F3C81" points="303.627,301.137 293.432,291.045 288.94,237.283 294.899,228.104 294.465,226.258 
			288.196,223.309 287.633,215.358 294.631,211.845 303.627,301.137 		"/>
	</g>
	<linearGradient id="SVGID_27_" gradientUnits="userSpaceOnUse" x1="7.6499" y1="303.4063" x2="324.6279" y2="303.4063">
		<stop  offset="0" style="stop-color:#EFBD50"/>
		<stop  offset="0.2463" style="stop-color:#F4BC71"/>
		<stop  offset="0.4975" style="stop-color:#C64200"/>
		<stop  offset="0.7488" style="stop-color:#9B1600"/>
		<stop  offset="1" style="stop-color:#AA00CE"/>
	</linearGradient>
	<polygon fill="url(#SVGID_27_)" points="324.628,305.675 7.65,305.675 23.477,301.137 310.147,301.137 	"/>
	<polygon opacity="0.1" fill="#FFFFFF" points="324.628,305.675 7.65,305.675 23.477,301.137 310.147,301.137 	"/>
	<linearGradient id="SVGID_28_" gradientUnits="userSpaceOnUse" x1="7.6499" y1="308.5137" x2="324.6279" y2="308.5137">
		<stop  offset="0" style="stop-color:#EFBD50"/>
		<stop  offset="0.2463" style="stop-color:#F4BC71"/>
		<stop  offset="0.4975" style="stop-color:#C64200"/>
		<stop  offset="0.7488" style="stop-color:#9B1600"/>
		<stop  offset="1" style="stop-color:#AA00CE"/>
	</linearGradient>
	<polygon fill="url(#SVGID_28_)" points="323.632,311.495 8.285,311.495 7.65,305.533 324.628,305.533 	"/>
	<polygon opacity="0.3" fill="#0B0A0C" points="258.144,216.879 273.893,223.944 275.891,293.308 264.248,301.018 	"/>
	<polygon opacity="0.3" fill="#0B0A0C" points="281.896,222.911 294.072,229.379 298.399,295.979 289.852,301.805 	"/>
	<path opacity="0.3" fill="#0B0A0C" d="M299.949,230.912c0,0,7.033,20.664,6.897,20.812l-1.335,1.437
		c-0.083,0.089-0.169,0.174-0.259,0.255l-1.638,1.347L299.949,230.912z"/>
</g>
</svg>
