<?xml version="1.0" encoding="utf-8"?>
<!-- Generator: Adobe Illustrator 16.0.0, SVG Export Plug-In . SVG Version: 6.00 Build 0)  -->
<!DOCTYPE svg PUBLIC "-//W3C//DTD SVG 1.1//EN" "http://www.w3.org/Graphics/SVG/1.1/DTD/svg11.dtd">
<svg version="1.1" id="Layer_1" xmlns="http://www.w3.org/2000/svg" xmlns:xlink="http://www.w3.org/1999/xlink" x="0px" y="0px"
	 width="351px" height="330px" viewBox="0 0 351 330" enable-background="new 0 0 351 330" xml:space="preserve">
<g>
	<g>
		<polygon fill="#DC7E68" points="27.206,309.726 43.04,309.726 47.92,193.216 37.086,195.901 		"/>
		<polygon fill="#AF5443" points="35.933,309.726 46.058,309.726 50.248,192.614 42.971,194.381 		"/>
		<polygon fill="#FDDE9E" points="43.007,234.127 94.036,227.394 91.958,265.777 41.254,267.993 		"/>
		<polygon fill="#FDDE9E" points="44.766,268.604 94.036,265.1 91.615,309.726 43.04,309.726 		"/>
		<polygon fill="#934538" points="44.766,268.834 91.273,267.497 91.958,265.777 41.254,267.993 		"/>
		<polygon fill="#934538" points="43.007,234.127 94.036,227.394 91.958,224.936 36.715,233.694 		"/>
		<polygon fill="#FDDE9E" points="39.989,198.288 92.389,185.894 91.958,224.936 36.715,233.694 		"/>
		<polygon fill="#DC7E68" points="80.242,309.726 98.195,309.726 100.663,180.095 86.477,183.646 		"/>
		<polygon fill="#AF5443" points="91.615,309.726 98.195,309.726 100.663,180.095 94.984,181.447 		"/>
		<polygon fill="#DC7E68" points="186.222,309.726 203.87,309.726 194.689,189.179 180.258,185.765 		"/>
		<polygon fill="#AF5443" points="191.057,309.726 203.87,309.726 194.622,188.289 186.222,186.701 		"/>
		<polygon fill="#E2A45A" points="125.786,223.316 184.7,230.498 186.591,266.872 125.786,264.698 		"/>
		<polygon fill="#E2A45A" points="130.304,264.137 184.215,267.999 186.222,309.726 130.304,309.726 		"/>
		<polygon fill="#934538" points="126.578,266.452 184.215,267.999 186.591,266.872 126.242,264.698 		"/>
		<polygon fill="#934538" points="125.786,223.316 184.7,230.498 190.434,228.354 125.786,220.317 		"/>
		<polygon fill="#E2A45A" points="123.742,178.616 187.778,189.016 190.808,228.354 126.283,220.317 		"/>
		<polygon fill="#FDDE9E" points="125.786,223.316 97.367,227.094 95.71,265.963 125.786,264.698 		"/>
		<polygon fill="#FDDE9E" points="126.242,265.549 99.017,266.588 98.195,309.726 124.842,309.726 		"/>
		<polygon fill="#934538" points="126.578,266.452 99.017,266.931 95.71,265.963 126.283,264.698 		"/>
		<polygon fill="#934538" points="125.786,223.316 97.367,227.094 93.843,224.91 125.786,220.317 		"/>
		<polygon fill="#FDDE9E" points="125.372,178.881 94.758,185.894 93.843,224.91 126.283,220.317 		"/>
		<polygon fill="#DC7E68" points="116.286,309.726 136.498,309.726 131.041,175.836 116.543,176.857 		"/>
		<polygon fill="#AF5443" points="127.675,309.726 136.498,309.726 131.357,174.703 125.47,174.776 		"/>
		<polygon fill="#DC7E68" points="22.132,197.173 23.046,204.911 127.32,181.674 127.172,170.221 		"/>
		<polygon fill="#934538" points="36.32,205.079 23.046,204.911 127.32,181.674 125.656,186.572 		"/>
		<polygon fill="#AF5443" points="202.731,188.519 201.501,195.391 127.32,181.646 127.172,170.221 		"/>
		<polygon fill="#934538" points="195.32,197.697 201.501,195.28 127.32,181.591 125.656,186.489 		"/>
	</g>
	<polygon fill="#FDDE9E" points="22.132,197.15 127.172,170.188 130.304,101.435 51.838,126.373 	"/>
	<polygon fill="#FDDE9E" points="28.997,195.391 120.459,171.944 122.534,121.229 51.646,139.354 	"/>
	<polygon fill="#AF5443" points="28.997,195.391 71.856,184.403 75.765,142.535 51.646,139.354 	"/>
	<polygon fill="#934538" points="75.765,142.535 122.181,129.851 122.534,121.229 51.646,139.354 	"/>
	<polygon fill="#E2A45A" points="200.698,189.644 127.172,170.221 130.304,101.435 178.24,116.868 	"/>
	<polygon opacity="0.3" fill="#0B0A0C" points="36.417,205.079 125.705,186.489 195.344,197.697 196.083,207.304 156.583,208.029 
		141.165,222.171 133.129,221.231 132.091,193.98 125.523,192.614 36.417,207.304 	"/>
	<polygon opacity="0.3" fill="#0B0A0C" points="40.556,233.959 43.007,234.127 84.25,228.686 84.115,231.406 45.175,235.266 
		43.09,267.913 41.254,267.993 42.936,235.487 	"/>
	<polygon opacity="0.3" fill="#0B0A0C" points="93.843,224.91 97.367,227.094 116.451,224.529 116.443,228.686 100.663,230.215 
		98.195,266.045 95.71,266.045 97.222,230.54 	"/>
	<polygon opacity="0.3" fill="#0B0A0C" points="41.254,267.993 44.766,268.834 82.317,267.755 82.097,272.214 49.342,271.434 
		47.92,309.797 43.04,309.726 44.45,271.317 	"/>
	<polygon opacity="0.3" fill="#0B0A0C" points="95.71,265.963 99.017,266.931 116.37,266.629 116.357,273.104 103.813,272.464 
		103.067,312.236 97.669,312.236 98.909,272.214 	"/>
	<polygon opacity="0.3" fill="#0B0A0C" points="133.317,224.226 184.737,230.498 187.915,229.304 185.006,235.487 174.738,236.172 
		150.639,265.549 134.795,265.007 133.317,228.686 	"/>
	<polygon opacity="0.3" fill="#0B0A0C" points="134.858,266.675 184.215,267.999 186.591,266.872 184.563,275.242 171.327,274.434 
		151.017,311.232 136.498,311.232 135.07,272.22 	"/>
	<g>
		<polygon fill="#8F3C81" points="243.082,14.506 242.708,14.506 239.87,61.449 245.431,61.524 		"/>
		<path fill="#B547B2" d="M273.687,72.974c0,7.017-14.148,12.706-31.603,12.706c-17.451,0-31.601-5.689-31.601-12.706
			c0-7.016,14.15-17.188,31.601-17.188C259.538,55.785,273.687,65.958,273.687,72.974z"/>
		<g>
			<defs>
				<circle id="SVGID_1_" cx="243.081" cy="14.506" r="2.669"/>
			</defs>
			<clipPath id="SVGID_2_">
				<use xlink:href="#SVGID_1_"  overflow="visible"/>
			</clipPath>
			<circle clip-path="url(#SVGID_2_)" fill="#B547B2" cx="243.081" cy="14.506" r="2.669"/>
			
				<ellipse transform="matrix(0.9434 -0.3317 0.3317 0.9434 9.146 81.3544)" opacity="0.1" clip-path="url(#SVGID_2_)" fill="#FFFFFF" cx="242.859" cy="13.889" rx="2.692" ry="2.171"/>
			
				<ellipse transform="matrix(0.7419 -0.6705 0.6705 0.7419 53.5056 165.8518)" opacity="0.2" clip-path="url(#SVGID_2_)" fill="#FFFFFF" cx="242.193" cy="13.423" rx="1.945" ry="1.539"/>
		</g>
		<path fill="#1CACB7" d="M142.532,201.195h194.673c6.539,0,11.679-5.564,11.203-12.088
			C343.459,121.22,296.76,59.416,239.884,59.416c-56.993,0-103.766,59.51-108.554,129.717
			C130.885,195.648,136.002,201.195,142.532,201.195z"/>
		<path opacity="0.2" fill="#FFFFFF" d="M142.532,201.195h194.673c6.539,0,11.679-5.564,11.203-12.088
			C343.459,121.22,296.76,59.416,239.884,59.416c-56.993,0-103.766,59.51-108.554,129.717
			C130.885,195.648,136.002,201.195,142.532,201.195z"/>
		<path fill="#1CACB7" d="M155.344,196.072l172.253,1.28c6.539,0,11.678-5.566,11.203-12.089
			c-4.95-67.888-36.892-122.915-98.916-122.915c-67.337,0-97.665,65.325-97.665,121.659
			C142.219,190.539,148.813,196.072,155.344,196.072z"/>
		<path opacity="0.2" fill="#376F89" d="M307.461,185.87c0,0,5.994-40.709-8.771-55.736c-3.482-3.545-8.34-4.966-12.116-5.521
			c-2.628-0.386-4.88,1.255-4.012,2.902c3.542,6.718,11.063,22.761,10.151,36.326c-0.211,3.133-4.261,2.337-7.15,1.311
			c-1.887-0.67-3.021-1.97-2.929-3.356c0.377-5.659,1.555-21.371-0.141-25.059c-0.128-0.278-0.565-0.389-1.115-0.408
			c-1.743-0.061-3.172,0.896-3.172,2.021v25.302c0,1.353-1.338,2.555-3.324,2.986l-3.875,0.845
			c-1.735,0.377-3.526-0.467-3.498-1.649l0.501-20.122c0.195-2.753-3.153-5.073-7.422-5.136c-5.013-0.073-11.131,0.137-14.075,1.392
			c-5.461,2.33-0.175,33.566-0.175,33.566l-14.905,0.614l-3.615-23.458l-6.623-1.538l-1.281,13.73l-5.574,0.999l1.828-19.351
			c0.042-0.442,0.032-0.886-0.026-1.327l-1.802-13.326l-7.255,5.036c-3.722,2.584-5.979,5.904-6.407,9.421l-2.928,24.129h-9.225
			c0,0-2.989-8.975,0-15.925c1.495-3.476-0.508-3.459-2.884-2.575c-3.203,1.193-5.354,3.286-6.007,5.635
			c-1.211,4.361-3.181,12.438-2.604,17.059c0.818,6.556-9.44,3.799-9.44,3.799s-1.699-5.987,0.436-11.124
			c2.136-5.137-11.957,3.142-11.957,3.142l3.758,20.385L307.461,185.87z"/>
		<path opacity="0.2" fill="#FFFFFF" d="M161.569,198.278l98.069,1.187c6.062,0,35.328-1.729,39.28-20.813
			c7.444-35.961-6.834-116.303-58.989-116.303c-62.415,0-90.526,62.922-90.526,115.14
			C149.404,196.499,155.516,198.278,161.569,198.278z"/>
		<path opacity="0.2" fill="#FFFFFF" d="M211.747,195.762L211.747,195.762c20.124,0.737,72.092,5.167,77.349-22.323
			c6.9-36.069-1.327-111.252-49.212-111.09c-53.16,0.18-87.673,69.299-73.635,114.153
			C171.23,192.42,205.693,195.762,211.747,195.762z"/>
		<path opacity="0.2" fill="#FFFFFF" d="M195.572,159.617L195.572,159.617c7.299-7.318,9.468-9.085,14.284-35.438
			c8.563-46.856,36.001-54.514,26.393-58.037c-30.287-2.562-77.784,41.767-64.646,86.892
			C174.561,163.189,187.885,164.149,195.572,159.617z"/>
		<path opacity="0.3" fill="#376F89" d="M283.972,80.555c0,0,61.322,45.131,44.735,109.63
			c-8.114,31.559-148.107,27.474-190.146,10.372c-9.395-3.822-7.366-12.981-6.272-21.321c0.751-5.723,6.112-24.854,11.375-8.184
			c9.339,29.59,106.271,31.867,134.349,3.122C318.563,132.659,283.972,80.555,283.972,80.555z"/>
		<g opacity="0.7">
			<path fill="#376F89" d="M174.561,94.634c0,0,76.101-37.141,128.518,4.273l0,0C303.078,98.907,255.466,53.33,174.561,94.634z"/>
			<path fill="#376F89" d="M149.404,141.521c0,0,75.677-54.24,181.139-2.282C304.471,122.688,209.856,90.164,149.404,141.521
				L149.404,141.521z"/>
			<path fill="#376F89" d="M137.875,183.604c0,0,71.148-42.083,200.554-2.8l0,0C338.43,180.805,227.921,134.548,137.875,183.604z"/>
			<path fill="#376F89" d="M235.715,63.259c-17.402,4.323-70.454,44.08-70.032,125.173
				C172.547,112.797,209.856,73.508,235.715,63.259z"/>
			<path fill="#376F89" d="M245.857,63.259c3.241,13.772,11.21,78.263,1.467,131.967
				C249.099,154.222,252.673,101.213,245.857,63.259z"/>
			<path fill="#376F89" d="M271.16,72.227c19.378,15.888,41.577,39.221,42.277,121.461C318.99,128.536,300.945,93.153,271.16,72.227
				z"/>
		</g>
		<defs>
			<filter id="Adobe_OpacityMaskFilter" filterUnits="userSpaceOnUse" x="169.358" y="66.042" width="92.59" height="101.652">
				<feFlood  style="flood-color:white;flood-opacity:1" result="back"/>
				<feBlend  in="SourceGraphic" in2="back" mode="normal"/>
			</filter>
		</defs>
		<mask maskUnits="userSpaceOnUse" x="169.358" y="66.042" width="92.59" height="101.652" id="SVGID_3_">
			<g filter="url(#Adobe_OpacityMaskFilter)">
				<defs>
					<filter id="Adobe_OpacityMaskFilter_1_" filterUnits="userSpaceOnUse" x="169.358" y="66.042" width="92.59" height="101.652">
						<feFlood  style="flood-color:white;flood-opacity:1" result="back"/>
						<feBlend  in="SourceGraphic" in2="back" mode="normal"/>
					</filter>
				</defs>
				<mask maskUnits="userSpaceOnUse" x="169.358" y="66.042" width="92.59" height="101.652" id="SVGID_3_">
					<g filter="url(#Adobe_OpacityMaskFilter_1_)">
					</g>
				</mask>
				<radialGradient id="SVGID_4_" cx="215.6533" cy="116.8682" r="48.6134" gradientUnits="userSpaceOnUse">
					<stop  offset="0" style="stop-color:#FFFFFF"/>
					<stop  offset="1" style="stop-color:#000000"/>
				</radialGradient>
				<path mask="url(#SVGID_3_)" fill="url(#SVGID_4_)" d="M195.668,165.751L195.668,165.751c11.697,2.855,50.132,4.592,57.498-9.929
					c16.616-32.748,9.93-86.479-22.421-89.681c-23.256-2.303-71.297,35.873-59.573,76.229
					C175.825,158.388,189.615,165.751,195.668,165.751z"/>
			</g>
		</mask>
		<radialGradient id="SVGID_5_" cx="215.6533" cy="116.8682" r="48.6134" gradientUnits="userSpaceOnUse">
			<stop  offset="0" style="stop-color:#FFFFFF"/>
			<stop  offset="1" style="stop-color:#FFFFFF"/>
		</radialGradient>
		<path opacity="0.4" fill="url(#SVGID_5_)" d="M195.668,165.751L195.668,165.751c11.697,2.855,50.132,4.592,57.498-9.929
			c16.616-32.748,9.93-86.479-22.421-89.681c-23.256-2.303-71.297,35.873-59.573,76.229
			C175.825,158.388,189.615,165.751,195.668,165.751z"/>
		<linearGradient id="SVGID_6_" gradientUnits="userSpaceOnUse" x1="130.9253" y1="200.9004" x2="348.8418" y2="200.9004">
			<stop  offset="0" style="stop-color:#EFBD50"/>
			<stop  offset="0.2463" style="stop-color:#F4BC71"/>
			<stop  offset="0.5566" style="stop-color:#C64200"/>
			<stop  offset="0.7783" style="stop-color:#9B1600"/>
			<stop  offset="0.8621" style="stop-color:#9B1600"/>
			<stop  offset="1" style="stop-color:#AA00CE"/>
		</linearGradient>
		<path fill="url(#SVGID_6_)" d="M348.807,200.441l-0.025-0.168c-1.84-10.042-49.886-17.971-108.897-17.971
			c-59.011,0-107.059,7.929-108.898,17.971h-0.061l0.035,0.166c-0.022,0.153-0.035,0.324-0.035,0.479
			c0,0.715,1.979,6.981,1.979,6.981c0.12,0.043,2.342,0.083,6.234,0.112c16.335,6.741,55.286,11.485,100.746,11.485
			c45.356,0,84.235-4.722,100.636-11.437c4.069-0.007,6.343-0.009,6.343-0.009s1.979-6.43,1.979-7.134
			C348.842,200.766,348.829,200.594,348.807,200.441z"/>
		<path fill="#573060" d="M132.904,208.349c0,8.799,47.896,15.931,106.98,15.931c59.083,0,106.979-7.132,106.979-15.931
			c0-8.797-47.896-16.57-106.979-16.57C180.8,191.778,132.904,199.552,132.904,208.349z"/>
		<path fill="#1CACB7" d="M152.063,227.854h175.611c5.899,0,10.107,0.515,10.107-1.038c0-19.485-46.591-27.782-97.898-27.782
			c-51.413,0-97.926,8.555-97.926,27.787C141.957,228.366,146.172,227.854,152.063,227.854z"/>
		<polygon opacity="0.3" fill="#0B0A0C" points="149.532,202.745 157.275,205.079 162.061,208.432 156.583,221.282 155.187,221.49 
					"/>
		<polygon opacity="0.3" fill="#0B0A0C" points="169.961,198.607 180.987,200.9 184.592,204.206 175.442,219.202 173.563,219.364 		
			"/>
		<polygon opacity="0.3" fill="#0B0A0C" points="194.206,195.774 205.197,198.181 208.256,202.427 197.671,217.773 195.615,217.873 
					"/>
		<polygon opacity="0.3" fill="#0B0A0C" points="219.215,194.272 231.563,197.697 231.711,200.532 221.664,217.397 219.65,217.038 
					"/>
		<path opacity="0.2" fill="#FFFFFF" d="M161.123,227.854h141.955c5.9,0,19.093,0.515,19.093-1.038
			c0-19.485-42.684-26.501-68.965-26.501c-51.412,0-102.189,7.273-102.189,26.506C151.017,228.366,155.232,227.854,161.123,227.854z
			"/>
		<path opacity="0.2" fill="#FFFFFF" d="M157.611,221.203c14.259-17.92,54.136-25.441,95.595-13.505
			c22.039,6.345,0,22.432-37.553,23.393C193.583,231.654,149.286,231.668,157.611,221.203z"/>
		<defs>
			<filter id="Adobe_OpacityMaskFilter_2_" filterUnits="userSpaceOnUse" x="164.461" y="201.247" width="76.077" height="29.94">
				<feFlood  style="flood-color:white;flood-opacity:1" result="back"/>
				<feBlend  in="SourceGraphic" in2="back" mode="normal"/>
			</filter>
		</defs>
		<mask maskUnits="userSpaceOnUse" x="164.461" y="201.247" width="76.077" height="29.94" id="SVGID_7_">
			<g filter="url(#Adobe_OpacityMaskFilter_2_)">
				<defs>
					<filter id="Adobe_OpacityMaskFilter_3_" filterUnits="userSpaceOnUse" x="164.461" y="201.247" width="76.077" height="29.94">
						<feFlood  style="flood-color:white;flood-opacity:1" result="back"/>
						<feBlend  in="SourceGraphic" in2="back" mode="normal"/>
					</filter>
				</defs>
				<mask maskUnits="userSpaceOnUse" x="164.461" y="201.247" width="76.077" height="29.94" id="SVGID_7_">
					<g filter="url(#Adobe_OpacityMaskFilter_3_)">
					</g>
				</mask>
				<radialGradient id="SVGID_8_" cx="202.4995" cy="216.2168" r="28.9055" gradientUnits="userSpaceOnUse">
					<stop  offset="0" style="stop-color:#FFFFFF"/>
					<stop  offset="1" style="stop-color:#000000"/>
				</radialGradient>
				<path mask="url(#SVGID_7_)" fill="url(#SVGID_8_)" d="M165.681,220.2c14.258-17.92,73.591-29.279,74.843-5.28
					c0.526,10.085-14.203,15.942-24.872,16.171C193.582,231.563,157.354,230.665,165.681,220.2z"/>
			</g>
		</mask>
		<radialGradient id="SVGID_9_" cx="202.4995" cy="216.2168" r="28.9055" gradientUnits="userSpaceOnUse">
			<stop  offset="0" style="stop-color:#FFFFFF"/>
			<stop  offset="1" style="stop-color:#FFFFFF"/>
		</radialGradient>
		<path opacity="0.4" fill="url(#SVGID_9_)" d="M165.681,220.2c14.258-17.92,73.591-29.279,74.843-5.28
			c0.526,10.085-14.203,15.942-24.872,16.171C193.582,231.563,157.354,230.665,165.681,220.2z"/>
		<path opacity="0.3" fill="#376F89" d="M299.528,203.751c13.59,2.517,39.788,8.517,32.026,24.185
			c-4.625,9.333-67.761-3.656-67.761-3.656s27.244-8.554,25.463-16.25S293.829,202.696,299.528,203.751z"/>
		<g>
			<defs>
				<path id="SVGID_10_" d="M346.862,212.269c0,70.204-47.896,29.208-106.979,29.208c-59.083,0-106.98,23.701-106.98-29.208
					c0-9.435,47.896-18.365,106.98-18.365C298.967,193.903,346.862,202.834,346.862,212.269z"/>
			</defs>
			<clipPath id="SVGID_11_">
				<use xlink:href="#SVGID_10_"  overflow="visible"/>
			</clipPath>
			<g clip-path="url(#SVGID_11_)">
				<polygon fill="#BE303E" points="231.688,190.231 233.475,234.415 244.791,234.415 245.537,190.231 				"/>
				<polygon fill="#8F3C81" points="231.845,193.958 233.475,234.294 233.475,234.294 231.434,195.226 				"/>
				<polygon fill="#BE303E" points="258.194,190.85 256.746,234.917 267.316,234.917 271.138,192.255 				"/>
				<polygon fill="#8F3C81" points="258.085,194.188 256.746,234.934 256.746,234.934 256.981,195.797 				"/>
				<polygon fill="#AF283C" points="284.766,193.767 281.089,234.917 291.659,234.917 297.676,195.232 				"/>
				<polygon fill="#8F3C81" points="284.595,195.692 281.089,234.934 281.089,234.934 282.264,198.111 				"/>
				<polygon fill="#AF283C" points="321.349,197.717 309.092,195.057 302.549,236.354 313.118,237.89 				"/>
				<polygon fill="#8F3C81" points="304.791,200.936 308.561,198.419 302.549,236.354 302.549,236.354 				"/>
				<polygon fill="#AF283C" points="331.787,200.087 320.805,237.929 329.453,237.929 342.771,203.056 				"/>
				<polygon fill="#8F3C81" points="330.988,202.952 320.805,238.138 320.805,238.138 325.075,206.001 				"/>
				<polygon fill="#CC3B50" points="219.147,190.629 206.41,191.696 208.704,230.9 219.914,230.9 				"/>
				<polygon fill="#5F3765" points="219.215,194.272 220.661,196.467 219.914,231.091 219.914,231.091 				"/>
				<polygon fill="#CC3B50" points="193.989,192.38 181.742,193.908 185.644,229.489 196.212,227.256 				"/>
				<polygon fill="#5F3765" points="194.206,195.774 196.533,197.674 196.212,227.256 196.212,227.256 				"/>
				<polygon fill="#CC3B50" points="169.491,195.431 174.433,228.849 164.311,229.237 156.972,197.917 				"/>
				<polygon fill="#5F3765" points="169.961,198.607 174.433,228.849 174.433,228.849 173.784,200.045 				"/>
				<polygon fill="#CC3B50" points="138.306,204.506 146.074,232.125 155.513,229.502 148.855,199.719 				"/>
				<polygon fill="#5F3765" points="154.546,205.766 155.513,229.502 155.513,229.502 149.532,202.745 				"/>
			</g>
		</g>
		<polygon opacity="0.3" fill="#0B0A0C" points="245.475,193.93 256.974,197.136 257.664,197.763 256.97,201.195 245.088,216.845 		
			"/>
		<polygon opacity="0.3" fill="#0B0A0C" points="270.914,194.746 282.242,198.771 283.771,200.314 282.309,204.729 268.897,217.266 
					"/>
		<polygon opacity="0.3" fill="#0B0A0C" points="297.414,196.957 305.72,200.314 307.349,202.407 306.471,207.177 304.503,210.055 
			294.155,218.452 		"/>
		<polygon opacity="0.3" fill="#0B0A0C" points="320.771,200.537 329.1,203.925 329.963,206.047 325.416,216.217 323.579,217.266 
			316.692,220.444 		"/>
		<polygon opacity="0.3" fill="#0B0A0C" points="341.371,206.717 345.192,209.06 338.729,213.695 336.039,220.683 337.506,224.279 
			334.954,223.522 		"/>
		<linearGradient id="SVGID_12_" gradientUnits="userSpaceOnUse" x1="137.2949" y1="232.3145" x2="342.4717" y2="232.3145">
			<stop  offset="0" style="stop-color:#EFBD50"/>
			<stop  offset="0.2463" style="stop-color:#F4BC71"/>
			<stop  offset="0.5566" style="stop-color:#C64200"/>
			<stop  offset="0.7783" style="stop-color:#9B1600"/>
			<stop  offset="0.8621" style="stop-color:#9B1600"/>
			<stop  offset="1" style="stop-color:#AA00CE"/>
		</linearGradient>
		<path fill="url(#SVGID_12_)" d="M342.472,227.573c0-5.952-45.93-10.742-102.588-10.742c-56.659,0-102.589,4.773-102.589,10.725
			c0,0.299,9.181,20.241,9.181,20.241l186.578-0.007l9.18-19.4h-0.108C342.351,228.39,342.472,227.871,342.472,227.573z"/>
		<ellipse fill="#573060" cx="239.884" cy="247.677" rx="93.17" ry="9.786"/>
		<linearGradient id="SVGID_13_" gradientUnits="userSpaceOnUse" x1="179.0059" y1="249.3496" x2="300.9453" y2="249.3496">
			<stop  offset="0" style="stop-color:#EFBD50"/>
			<stop  offset="0.2463" style="stop-color:#F4BC71"/>
			<stop  offset="0.5566" style="stop-color:#C64200"/>
			<stop  offset="0.7783" style="stop-color:#9B1600"/>
			<stop  offset="0.8621" style="stop-color:#9B1600"/>
			<stop  offset="1" style="stop-color:#AA00CE"/>
		</linearGradient>
		<path fill="url(#SVGID_13_)" d="M300.627,248.421c0-2.836-26.977-5.223-60.699-5.223c-33.724,0-60.922,2.353-60.922,5.188v7.116
			h121.939L300.627,248.421z"/>
		<path opacity="0.3" fill="#0B0A0C" d="M300.627,248.421c0-2.836-26.977-5.223-60.699-5.223c-33.724,0-60.922,2.353-60.922,5.188
			c0,0,0.184-1.586,0,2.095c29.25-8.199,113.789-1.817,121.808,3.389C300.752,252.567,300.627,248.421,300.627,248.421z"/>
		<path fill="#573060" d="M178.821,255.325c0,2.009,27.338,3.637,61.063,3.637c33.724,0,61.062-1.628,61.062-3.637
			c0-2.008-27.338-4.056-61.062-4.056C206.16,251.27,178.821,253.317,178.821,255.325z"/>
		<linearGradient id="SVGID_14_" gradientUnits="userSpaceOnUse" x1="187.0391" y1="256.8047" x2="292.7949" y2="256.8047">
			<stop  offset="0" style="stop-color:#EFBD50"/>
			<stop  offset="0.2463" style="stop-color:#F4BC71"/>
			<stop  offset="0.5566" style="stop-color:#C64200"/>
			<stop  offset="0.7783" style="stop-color:#9B1600"/>
			<stop  offset="0.8621" style="stop-color:#9B1600"/>
			<stop  offset="1" style="stop-color:#AA00CE"/>
		</linearGradient>
		<path fill="url(#SVGID_14_)" d="M292.52,255.76c0-2.089-23.422-3.174-52.644-3.174c-29.223,0-52.837,1.011-52.837,3.1v5.339
			h105.756L292.52,255.76z"/>
		<path opacity="0.3" fill="#0B0A0C" d="M292.52,255.76c0-2.089-23.422-3.174-52.644-3.174c-29.223,0-52.837,1.011-52.837,3.1
			c0,0,0,1.096,0,2.433c14.728-6.849,84.851-4.744,105.624,0.333C292.632,257.354,292.52,255.76,292.52,255.76z"/>
		<ellipse fill="#573060" cx="239.883" cy="260.797" rx="52.912" ry="2.678"/>
		<linearGradient id="SVGID_15_" gradientUnits="userSpaceOnUse" x1="211.269" y1="271.9678" x2="268.4971" y2="271.9678">
			<stop  offset="0" style="stop-color:#EFBD50"/>
			<stop  offset="0.2463" style="stop-color:#F4BC71"/>
			<stop  offset="0.4975" style="stop-color:#C64200"/>
			<stop  offset="0.7488" style="stop-color:#9B1600"/>
			<stop  offset="1" style="stop-color:#AA00CE"/>
		</linearGradient>
		<path fill="url(#SVGID_15_)" d="M268.489,261.136l0.008-0.111h-0.021c-0.439-0.502-13.067-1.209-28.593-1.209
			s-28.153,0.707-28.593,1.209h-0.021l0.007,0.111c0,0.004-0.007,0.051-0.007,0.054c0,0.012,0.013-0.024,0.02-0.013l6.49,22.943
			h44.204l6.494-22.922c0.008-0.011,0.021-0.031,0.021-0.043C268.497,261.152,268.49,261.14,268.489,261.136z"/>
		<path opacity="0.3" fill="#0B0A0C" d="M268.489,261.136l0.008-0.111h-0.021c-0.439-0.502-13.067-1.209-28.593-1.209
			s-28.153,0.707-28.593,1.209h-0.021l0.007,0.111c0,0.004-0.007,0.051-0.007,0.054c0,0.012,0.013-0.024,0.02-0.013
			c0,0,0.998,3.527,1.928,6.816c10.306-4.793,39.26-1.647,51.733,5.656c1.083-3.922,3.527-12.451,3.527-12.451
			c0.008-0.011,0.021-0.031,0.021-0.043C268.497,261.152,268.49,261.14,268.489,261.136z"/>
	</g>
	<linearGradient id="SVGID_16_" gradientUnits="userSpaceOnUse" x1="85.4717" y1="291.418" x2="315.5703" y2="291.418">
		<stop  offset="0" style="stop-color:#EFBD50"/>
		<stop  offset="0.2069" style="stop-color:#F4BC71"/>
		<stop  offset="1" style="stop-color:#C16000"/>
	</linearGradient>
	<polygon fill="url(#SVGID_16_)" points="315.57,287.635 315.57,279.134 86.889,282.228 85.472,303.701 315.57,303.701 
		315.57,295.166 307.035,295.166 307.035,287.635 	"/>
	<linearGradient id="SVGID_17_" gradientUnits="userSpaceOnUse" x1="84.7222" y1="291.418" x2="315.5703" y2="291.418">
		<stop  offset="0" style="stop-color:#EFBD50"/>
		<stop  offset="0.2463" style="stop-color:#F4BC71"/>
		<stop  offset="0.5566" style="stop-color:#C64200"/>
		<stop  offset="0.7783" style="stop-color:#9B1600"/>
		<stop  offset="0.8621" style="stop-color:#9B1600"/>
		<stop  offset="1" style="stop-color:#AA00CE"/>
	</linearGradient>
	<polygon opacity="0.5" fill="url(#SVGID_17_)" points="315.57,287.635 315.57,279.134 86.143,282.228 84.722,303.701 
		315.57,303.701 315.57,295.166 307.537,295.166 307.537,287.635 	"/>
	<rect x="162.903" y="287.268" fill="#1CACB7" width="144.77" height="8.075"/>
	<defs>
		<filter id="Adobe_OpacityMaskFilter_4_" filterUnits="userSpaceOnUse" x="162.903" y="287.268" width="135.881" height="8.075">
			<feFlood  style="flood-color:white;flood-opacity:1" result="back"/>
			<feBlend  in="SourceGraphic" in2="back" mode="normal"/>
		</filter>
	</defs>
	<mask maskUnits="userSpaceOnUse" x="162.903" y="287.268" width="135.881" height="8.075" id="SVGID_18_">
		<g filter="url(#Adobe_OpacityMaskFilter_4_)">
			<defs>
				<filter id="Adobe_OpacityMaskFilter_5_" filterUnits="userSpaceOnUse" x="162.903" y="287.268" width="135.881" height="8.075">
					<feFlood  style="flood-color:white;flood-opacity:1" result="back"/>
					<feBlend  in="SourceGraphic" in2="back" mode="normal"/>
				</filter>
			</defs>
			<mask maskUnits="userSpaceOnUse" x="162.903" y="287.268" width="135.881" height="8.075" id="SVGID_18_">
				<g filter="url(#Adobe_OpacityMaskFilter_5_)">
				</g>
			</mask>
			<linearGradient id="SVGID_19_" gradientUnits="userSpaceOnUse" x1="162.9028" y1="291.3047" x2="298.7842" y2="291.3047">
				<stop  offset="0" style="stop-color:#FFFFFF"/>
				<stop  offset="1" style="stop-color:#000000"/>
			</linearGradient>
			<rect x="162.903" y="287.268" mask="url(#SVGID_18_)" fill="url(#SVGID_19_)" width="135.881" height="8.075"/>
		</g>
	</mask>
	<linearGradient id="SVGID_20_" gradientUnits="userSpaceOnUse" x1="162.9028" y1="291.3047" x2="298.7842" y2="291.3047">
		<stop  offset="0" style="stop-color:#FFFFFF"/>
		<stop  offset="1" style="stop-color:#FFFFFF"/>
	</linearGradient>
	<rect x="162.903" y="287.268" opacity="0.4" fill="url(#SVGID_20_)" width="135.881" height="8.075"/>
	<linearGradient id="SVGID_21_" gradientUnits="userSpaceOnUse" x1="162.9028" y1="291.3047" x2="307.6729" y2="291.3047">
		<stop  offset="0" style="stop-color:#FFFFFF"/>
		<stop  offset="0.4975" style="stop-color:#FFFFFF"/>
		<stop  offset="1" style="stop-color:#AA00CE"/>
	</linearGradient>
	<rect x="162.903" y="287.268" opacity="0.4" fill="url(#SVGID_21_)" width="144.77" height="8.075"/>
	<polygon opacity="0.3" fill="#573060" points="165.569,291.305 165.345,295.343 162.903,295.343 162.903,287.268 307.673,287.268 
		307.673,290.664 	"/>
	<polygon fill="#8F3C81" points="2.159,312.236 342.668,312.236 328.69,303.701 16.137,303.701 	"/>
	<polygon fill="#573060" points="4.039,320.771 341.304,320.771 342.668,312.236 2.159,312.236 	"/>
	<polygon opacity="0.3" fill="#0B0A0C" points="75.692,142.482 122.146,129.824 121.832,136.179 87.09,150.818 80.097,182.198 
		71.856,184.403 	"/>
	<polygon fill="#EA9381" points="63.278,125.9 68.549,124.962 68.549,131.991 61.27,133.498 	"/>
	<polygon fill="#934538" points="63.278,125.9 68.549,124.962 68.549,125.339 64.079,126.411 	"/>
	<polygon fill="#AF5443" points="63.278,125.9 61.27,133.498 61.27,133.498 64.079,126.411 	"/>
	<polygon fill="#EA9381" points="75.39,123.017 81.141,121.688 80.306,129.24 73.821,130.987 	"/>
	<polygon fill="#934538" points="75.37,123.017 81.141,121.688 81.118,121.891 76.188,123.593 	"/>
	<polygon fill="#AF5443" points="75.39,123.017 73.821,130.987 73.821,130.987 76.218,123.593 	"/>
	<polygon fill="#EA9381" points="88.193,120.192 93.653,118.813 92.681,126.14 86.573,127.785 	"/>
	<polygon fill="#934538" points="87.922,120.004 93.692,118.677 93.67,118.879 88.74,120.581 	"/>
	<polygon fill="#AF5443" points="87.942,120.004 86.573,127.785 86.573,127.785 88.77,120.581 	"/>
	<polygon fill="#EA9381" points="101.523,116.136 107.215,114.822 106.129,122.385 99.551,124.156 	"/>
	<polygon fill="#934538" points="101.469,115.988 107.215,114.822 107.18,115.067 102.284,116.564 	"/>
	<polygon fill="#AF5443" points="101.498,115.988 99.551,124.156 99.551,124.156 102.326,116.564 	"/>
	<polygon fill="#EA9381" points="113.903,112.787 120.302,110.234 119.541,118.867 112.983,120.443 	"/>
	<polygon fill="#934538" points="113.903,112.787 120.302,110.234 120.277,110.517 114.848,113.05 	"/>
	<polygon fill="#AF5443" points="113.903,112.787 112.983,120.443 112.983,120.443 114.878,113.05 	"/>
</g>
</svg>
