<?xml version="1.0" encoding="utf-8"?>
<!-- Generator: Adobe Illustrator 16.0.0, SVG Export Plug-In . SVG Version: 6.00 Build 0)  -->
<!DOCTYPE svg PUBLIC "-//W3C//DTD SVG 1.1//EN" "http://www.w3.org/Graphics/SVG/1.1/DTD/svg11.dtd">
<svg version="1.1" id="Layer_1" xmlns="http://www.w3.org/2000/svg" xmlns:xlink="http://www.w3.org/1999/xlink" x="0px" y="0px"
	 width="439px" height="74px" viewBox="0 0 439 74" enable-background="new 0 0 439 74" xml:space="preserve">
<g>
	<g>
		<g enable-background="new    ">
			<g enable-background="new    ">
				<defs>
					<path id="SVGID_1_" enable-background="new    " d="M94.677,29.551l-0.875,1.68c-0.712-0.134-2.258-0.383-4.623-0.736
						l0.875-1.681C92.419,29.167,93.965,29.416,94.677,29.551z"/>
				</defs>
				<clipPath id="SVGID_2_">
					<use xlink:href="#SVGID_1_"  overflow="visible"/>
				</clipPath>
				<g clip-path="url(#SVGID_2_)" enable-background="new    ">
					<path fill="#850000" d="M94.677,29.551l-0.875,1.68c-0.712-0.134-2.258-0.383-4.623-0.736l0.875-1.681
						C92.419,29.167,93.965,29.416,94.677,29.551"/>
				</g>
			</g>
			<g enable-background="new    ">
				<defs>
					<path id="SVGID_3_" enable-background="new    " d="M90.055,28.814l-0.875,1.681c-1.625-0.209-3.391-0.364-5.313-0.465
						l0.875-1.681C86.664,28.45,88.43,28.604,90.055,28.814z"/>
				</defs>
				<clipPath id="SVGID_4_">
					<use xlink:href="#SVGID_3_"  overflow="visible"/>
				</clipPath>
				<g clip-path="url(#SVGID_4_)" enable-background="new    ">
					<path fill="#850000" d="M90.055,28.814l-0.875,1.681c-1.625-0.209-3.391-0.364-5.313-0.465l0.875-1.681
						C86.664,28.45,88.43,28.604,90.055,28.814"/>
				</g>
			</g>
			<g enable-background="new    ">
				<defs>
					<path id="SVGID_5_" enable-background="new    " d="M93.288,41.459l-0.875,1.681c-0.562-0.146-1.958-0.365-4.195-0.646
						l0.875-1.681C91.331,41.095,92.726,41.313,93.288,41.459z"/>
				</defs>
				<clipPath id="SVGID_6_">
					<use xlink:href="#SVGID_5_"  overflow="visible"/>
				</clipPath>
				<g clip-path="url(#SVGID_6_)" enable-background="new    ">
					<path fill="#850000" d="M93.288,41.459l-0.875,1.681c-0.562-0.146-1.958-0.365-4.195-0.646l0.875-1.681
						C91.331,41.095,92.726,41.313,93.288,41.459"/>
				</g>
			</g>
			<g enable-background="new    ">
				<defs>
					<path id="SVGID_7_" enable-background="new    " d="M89.093,40.813l-0.875,1.681c-0.778-0.065-1.84-0.121-3.182-0.168
						c-0.447-0.016-0.926-0.03-1.435-0.044l0.875-1.681c0.509,0.014,0.987,0.028,1.435,0.044
						C87.253,40.692,88.314,40.749,89.093,40.813z"/>
				</defs>
				<clipPath id="SVGID_8_">
					<use xlink:href="#SVGID_7_"  overflow="visible"/>
				</clipPath>
				<g clip-path="url(#SVGID_8_)" enable-background="new    ">
					<path fill="#850000" d="M89.093,40.813l-0.875,1.681c-0.778-0.065-1.84-0.121-3.182-0.168c-0.447-0.016-0.926-0.03-1.435-0.044
						l0.875-1.681c0.509,0.014,0.987,0.028,1.435,0.044C87.253,40.692,88.314,40.749,89.093,40.813"/>
				</g>
			</g>
			<g enable-background="new    ">
				<defs>
					<path id="SVGID_9_" enable-background="new    " d="M66.832,31.853l-0.875,1.681c-0.29-4.944-0.866-11.869-1.71-20.775
						l0.875-1.681C65.966,19.984,66.542,26.909,66.832,31.853z"/>
				</defs>
				<clipPath id="SVGID_10_">
					<use xlink:href="#SVGID_9_"  overflow="visible"/>
				</clipPath>
				<g clip-path="url(#SVGID_10_)" enable-background="new    ">
					<path fill="#850000" d="M66.832,31.853l-0.875,1.681c-0.29-4.944-0.866-11.869-1.71-20.775l0.875-1.681
						C65.966,19.984,66.542,26.909,66.832,31.853"/>
				</g>
			</g>
			<g>
				<polygon fill="#800000" points="68.275,53.5 67.4,55.18 65.957,33.534 66.832,31.853 				"/>
			</g>
			<g>
				<polygon fill="#810000" points="94.087,54.401 93.212,56.082 67.4,55.18 68.275,53.5 				"/>
			</g>
			<g>
				<path fill="#F30000" d="M95.425,12.136l-0.748,17.415c-0.712-0.135-2.258-0.383-4.623-0.737
					c-1.625-0.209-3.391-0.364-5.313-0.465l-0.286,5.254c0.569,0.034,1.235,0.063,1.998,0.09c2.069,0.072,4.854,0.119,8.345,0.135
					c-0.193,0.67-0.494,1.93-0.902,3.768c-0.234,1.109-0.437,2.396-0.607,3.863c-0.562-0.146-1.958-0.365-4.195-0.646
					c-0.778-0.065-1.84-0.121-3.182-0.168c-0.447-0.016-0.926-0.03-1.435-0.044l-0.11,6.14c1.434,0.025,4.088-0.001,7.944-0.086
					c0.733-0.025,1.923-0.204,3.586-0.535c-0.134,0.563-0.459,1.922-0.947,4.071c-0.243,1.117-0.531,2.521-0.863,4.209L68.275,53.5
					l-1.443-21.646c-0.29-4.944-0.866-11.869-1.71-20.775L95.425,12.136z"/>
			</g>
		</g>
		<g enable-background="new    ">
			<g enable-background="new    ">
				<defs>
					<path id="SVGID_11_" enable-background="new    " d="M62.097,32.242l-0.875,1.681c-0.218,0.418-0.459,0.823-0.724,1.214
						l0.875-1.681C61.638,33.065,61.879,32.66,62.097,32.242z"/>
				</defs>
				<clipPath id="SVGID_12_">
					<use xlink:href="#SVGID_11_"  overflow="visible"/>
				</clipPath>
				<g clip-path="url(#SVGID_12_)" enable-background="new    ">
					<path fill="#850000" d="M62.097,32.242l-0.875,1.681c-0.218,0.418-0.459,0.823-0.724,1.214l0.875-1.681
						C61.638,33.065,61.879,32.66,62.097,32.242"/>
				</g>
			</g>
			<g enable-background="new    ">
				<defs>
					<path id="SVGID_13_" enable-background="new    " d="M51.637,31.662l-0.875,1.681c0.277-0.532,0.405-1.171,0.384-1.917
						c-0.04-1.423-0.665-2.528-1.873-3.323c-1.036-0.674-2.361-1.042-3.969-1.099c-0.1-0.004-0.199-0.006-0.301-0.007l0.875-1.681
						c0.102,0.001,0.202,0.003,0.301,0.007c1.607,0.056,2.933,0.425,3.969,1.099c1.208,0.795,1.833,1.9,1.873,3.323
						C52.042,30.491,51.914,31.13,51.637,31.662z"/>
				</defs>
				<clipPath id="SVGID_14_">
					<use xlink:href="#SVGID_13_"  overflow="visible"/>
				</clipPath>
				<g clip-path="url(#SVGID_14_)" enable-background="new    ">
					<path fill="#850000" d="M51.637,31.662l-0.875,1.681c0.277-0.532,0.405-1.171,0.384-1.917c-0.04-1.423-0.665-2.528-1.873-3.323
						c-1.036-0.674-2.361-1.042-3.969-1.099c-0.1-0.004-0.199-0.006-0.301-0.007l0.875-1.681c0.102,0.001,0.202,0.003,0.301,0.007
						c1.607,0.056,2.933,0.425,3.969,1.099c1.208,0.795,1.833,1.9,1.873,3.323C52.042,30.491,51.914,31.13,51.637,31.662"/>
				</g>
			</g>
			<g enable-background="new    ">
				<defs>
					<path id="SVGID_15_" enable-background="new    " d="M61.374,33.457l-0.875,1.681c-1.343,1.976-3.056,3.346-5.123,4.12
						l0.875-1.681C58.317,36.802,60.031,35.432,61.374,33.457z"/>
				</defs>
				<clipPath id="SVGID_16_">
					<use xlink:href="#SVGID_15_"  overflow="visible"/>
				</clipPath>
				<g clip-path="url(#SVGID_16_)" enable-background="new    ">
					<path fill="#850000" d="M61.374,33.457l-0.875,1.681c-1.343,1.976-3.056,3.346-5.123,4.12l0.875-1.681
						C58.317,36.802,60.031,35.432,61.374,33.457"/>
				</g>
			</g>
			<g enable-background="new    ">
				<defs>
					<path id="SVGID_17_" enable-background="new    " d="M51.105,44.492c-0.292,0.56-0.583,1.12-0.875,1.681
						c0.244-0.468,0.357-1.03,0.338-1.684c-0.06-2.135-1.685-3.257-4.874-3.369c-0.328-0.012-0.664-0.006-1.008,0.024l0.875-1.681
						c0.344-0.03,0.681-0.036,1.008-0.024c3.188,0.111,4.813,1.234,4.874,3.369C51.461,43.462,51.349,44.023,51.105,44.492z"/>
				</defs>
				<clipPath id="SVGID_18_">
					<use xlink:href="#SVGID_17_"  overflow="visible"/>
				</clipPath>
				<g clip-path="url(#SVGID_18_)" enable-background="new    ">
					<path fill="#850000" d="M51.105,44.492l-0.875,1.681c0.244-0.468,0.357-1.03,0.338-1.684c-0.06-2.135-1.685-3.257-4.874-3.369
						c-0.328-0.012-0.664-0.006-1.008,0.024l0.875-1.681c0.344-0.03,0.681-0.036,1.008-0.024c3.188,0.111,4.813,1.234,4.874,3.369
						C51.461,43.462,51.349,44.023,51.105,44.492"/>
				</g>
			</g>
			<g enable-background="new    ">
				<defs>
					<path id="SVGID_19_" enable-background="new    " d="M29.292,52.138l-0.875,1.681c-0.254-4.282-0.726-11.28-1.424-20.986
						c-0.439-5.211-1.065-12.358-1.897-21.442L25.97,9.71c0.832,9.083,1.458,16.231,1.897,21.442
						C28.566,40.858,29.038,47.856,29.292,52.138z"/>
				</defs>
				<clipPath id="SVGID_20_">
					<use xlink:href="#SVGID_19_"  overflow="visible"/>
				</clipPath>
				<g clip-path="url(#SVGID_20_)" enable-background="new    ">
					<path fill="#850000" d="M29.292,52.138l-0.875,1.681c-0.254-4.282-0.726-11.28-1.424-20.986
						c-0.439-5.211-1.065-12.358-1.897-21.442L25.97,9.71c0.832,9.083,1.458,16.231,1.897,21.442
						C28.566,40.858,29.038,47.856,29.292,52.138"/>
				</g>
			</g>
			<g enable-background="new    ">
				<defs>
					<path id="SVGID_21_" enable-background="new    " d="M60.221,48.174l-0.875,1.681c-0.891,1.711-2.548,3.033-4.975,3.965
						c-3.038,1.18-7.059,1.683-12.055,1.508c-4.305-0.15-8.938-0.65-13.9-1.509l0.875-1.681c4.962,0.859,9.595,1.359,13.9,1.509
						c4.996,0.175,9.017-0.328,12.055-1.508C57.673,51.207,59.33,49.886,60.221,48.174z"/>
				</defs>
				<clipPath id="SVGID_22_">
					<use xlink:href="#SVGID_21_"  overflow="visible"/>
				</clipPath>
				<g clip-path="url(#SVGID_22_)" enable-background="new    ">
					<path fill="#850000" d="M60.221,48.174l-0.875,1.681c-0.891,1.711-2.548,3.033-4.975,3.965
						c-3.038,1.18-7.059,1.683-12.055,1.508c-4.305-0.15-8.938-0.65-13.9-1.509l0.875-1.681c4.962,0.859,9.595,1.359,13.9,1.509
						c4.996,0.175,9.017-0.328,12.055-1.508C57.673,51.207,59.33,49.886,60.221,48.174"/>
				</g>
			</g>
			<g>
				<path fill="#F30000" d="M61.374,33.457c-1.343,1.976-3.056,3.346-5.123,4.12c1.361,0.598,2.477,1.542,3.363,2.843
					c0.877,1.3,1.341,2.662,1.381,4.102c0.101,3.566-1.81,6.106-5.749,7.619c-3.038,1.18-7.059,1.683-12.055,1.508
					c-4.305-0.15-8.938-0.65-13.9-1.509c-0.254-4.282-0.726-11.28-1.424-20.986c-0.439-5.211-1.065-12.358-1.897-21.442
					c3.63-0.55,8.244-0.728,13.834-0.533c15.589,0.545,23.526,5.806,23.808,15.793C63.705,28.274,62.961,31.108,61.374,33.457z
					 M46.313,33.627c3.882,0.136,5.785-1.163,5.708-3.882c-0.04-1.423-0.664-2.528-1.873-3.323
					c-1.036-0.674-2.361-1.042-3.969-1.099c-0.1-0.003-0.199-0.006-0.301-0.007l-0.2,8.277
					C45.896,33.609,46.106,33.621,46.313,33.627 M46.289,46.248c3.502,0.123,5.223-1.024,5.154-3.44
					c-0.06-2.135-1.685-3.257-4.874-3.369c-0.328-0.012-0.664-0.006-1.008,0.024l0.014,6.745
					C45.82,46.227,46.059,46.24,46.289,46.248"/>
			</g>
		</g>
		<g enable-background="new    ">
			<g enable-background="new    ">
				<defs>
					<path id="SVGID_23_" enable-background="new    " d="M217.78,24.921l-0.875,1.681c0.48-2.107,1.02-4.932,1.637-8.456
						l0.875-1.681C218.8,19.99,218.26,22.814,217.78,24.921z"/>
				</defs>
				<clipPath id="SVGID_24_">
					<use xlink:href="#SVGID_23_"  overflow="visible"/>
				</clipPath>
				<g clip-path="url(#SVGID_24_)" enable-background="new    ">
					<path fill="#850000" d="M217.78,24.921l-0.875,1.681c0.48-2.107,1.02-4.932,1.637-8.456l0.875-1.681
						C218.8,19.99,218.26,22.814,217.78,24.921"/>
				</g>
			</g>
			<g>
				<polygon fill="#800000" points="215.13,36.067 214.255,37.748 216.905,26.602 217.78,24.921 				"/>
			</g>
			<g enable-background="new    ">
				<defs>
					<path id="SVGID_25_" enable-background="new    " d="M196.826,27.473l-0.875,1.681c-0.995-3.25-2.257-7.229-3.797-11.929
						l0.875-1.68C194.569,20.244,195.832,24.223,196.826,27.473z"/>
				</defs>
				<clipPath id="SVGID_26_">
					<use xlink:href="#SVGID_25_"  overflow="visible"/>
				</clipPath>
				<g clip-path="url(#SVGID_26_)" enable-background="new    ">
					<path fill="#850000" d="M196.826,27.473l-0.875,1.681c-0.995-3.25-2.257-7.229-3.797-11.929l0.875-1.68
						C194.569,20.244,195.832,24.223,196.826,27.473"/>
				</g>
			</g>
			<g enable-background="new    ">
				<defs>
					<path id="SVGID_27_" enable-background="new    " d="M194.57,35.349l-0.875,1.681c0.516-1.505,1.265-4.128,2.256-7.876
						l0.875-1.681C195.835,31.221,195.086,33.844,194.57,35.349z"/>
				</defs>
				<clipPath id="SVGID_28_">
					<use xlink:href="#SVGID_27_"  overflow="visible"/>
				</clipPath>
				<g clip-path="url(#SVGID_28_)" enable-background="new    ">
					<path fill="#850000" d="M194.57,35.349l-0.875,1.681c0.516-1.505,1.265-4.128,2.256-7.876l0.875-1.681
						C195.835,31.221,195.086,33.844,194.57,35.349"/>
				</g>
			</g>
			<g enable-background="new    ">
				<defs>
					<path id="SVGID_29_" enable-background="new    " d="M177.531,36.717l-0.875,1.681c-1.902-5.305-4.693-12.637-8.374-22.007
						l0.875-1.681C172.838,24.08,175.629,31.413,177.531,36.717z"/>
				</defs>
				<clipPath id="SVGID_30_">
					<use xlink:href="#SVGID_29_"  overflow="visible"/>
				</clipPath>
				<g clip-path="url(#SVGID_30_)" enable-background="new    ">
					<path fill="#850000" d="M177.531,36.717l-0.875,1.681c-1.902-5.305-4.693-12.637-8.374-22.007l0.875-1.681
						C172.838,24.08,175.629,31.413,177.531,36.717"/>
				</g>
			</g>
			<g enable-background="new    ">
				<defs>
					<path id="SVGID_31_" enable-background="new    " d="M206.192,58.316l-0.875,1.681c-1.066-3.888-2.988-10.539-5.749-19.952
						l0.875-1.68C203.205,47.777,205.126,54.428,206.192,58.316z"/>
				</defs>
				<clipPath id="SVGID_32_">
					<use xlink:href="#SVGID_31_"  overflow="visible"/>
				</clipPath>
				<g clip-path="url(#SVGID_32_)" enable-background="new    ">
					<path fill="#850000" d="M206.192,58.316l-0.875,1.681c-1.066-3.888-2.988-10.539-5.749-19.952l0.875-1.68
						C203.205,47.777,205.126,54.428,206.192,58.316"/>
				</g>
			</g>
			<g>
				<polygon fill="#810000" points="216.547,58.678 215.671,60.358 205.317,59.997 206.192,58.316 				"/>
			</g>
			<g>
				<polygon fill="#810000" points="194.632,57.912 193.757,59.593 183.544,59.236 184.419,57.556 				"/>
			</g>
			<g>
				<path fill="#F30000" d="M229.453,16.816c-1.564,4.481-3.993,11.843-7.27,22.086c-1.423,4.766-3.299,11.36-5.636,19.775
					l-10.355-0.362c-1.066-3.888-2.987-10.539-5.749-19.952c-1.441,4.747-3.381,11.264-5.811,19.548l-10.213-0.356
					c-1.341-4.244-3.643-11.196-6.888-20.838c-1.902-5.304-4.693-12.637-8.373-22.007l19.665,0.687
					c0.458,1.818,1.249,4.757,2.381,8.816l3.367,11.135c0.516-1.505,1.265-4.128,2.256-7.876c-0.994-3.25-2.257-7.229-3.797-11.929
					l17.875,0.624c0.36,1.781,0.954,4.654,1.774,8.634c0.597,2.644,1.411,6.405,2.451,11.265l2.65-11.146
					c0.48-2.107,1.02-4.932,1.637-8.456L229.453,16.816z"/>
			</g>
			<g enable-background="new    ">
				<defs>
					<path id="SVGID_33_" enable-background="new    " d="M184.419,57.556l-0.875,1.681c-1.341-4.244-3.643-11.196-6.888-20.838
						l0.875-1.681C180.776,46.359,183.078,53.312,184.419,57.556z"/>
				</defs>
				<clipPath id="SVGID_34_">
					<use xlink:href="#SVGID_33_"  overflow="visible"/>
				</clipPath>
				<g clip-path="url(#SVGID_34_)" enable-background="new    ">
					<path fill="#850000" d="M184.419,57.556l-0.875,1.681c-1.341-4.244-3.643-11.196-6.888-20.838l0.875-1.681
						C180.776,46.359,183.078,53.312,184.419,57.556"/>
				</g>
			</g>
		</g>
		<g enable-background="new    ">
			<g enable-background="new    ">
				<defs>
					<path id="SVGID_35_" enable-background="new    " d="M153.4,44.833l-0.875,1.68c0.919-1.765,1.356-3.609,1.302-5.527
						c-0.144-5.108-2.024-7.729-5.638-7.855c-1.967-0.069-3.362,0.688-4.185,2.267l0.875-1.681c0.823-1.58,2.218-2.336,4.185-2.267
						c3.614,0.126,5.494,2.748,5.638,7.855C154.756,41.223,154.319,43.067,153.4,44.833z"/>
				</defs>
				<clipPath id="SVGID_36_">
					<use xlink:href="#SVGID_35_"  overflow="visible"/>
				</clipPath>
				<g clip-path="url(#SVGID_36_)" enable-background="new    ">
					<path fill="#850000" d="M153.4,44.833l-0.875,1.68c0.919-1.765,1.356-3.609,1.302-5.527c-0.144-5.108-2.024-7.729-5.638-7.855
						c-1.967-0.069-3.362,0.688-4.185,2.267l0.875-1.681c0.823-1.58,2.218-2.336,4.185-2.267c3.614,0.126,5.494,2.748,5.638,7.855
						C154.756,41.223,154.319,43.067,153.4,44.833"/>
				</g>
			</g>
			<g enable-background="new    ">
				<defs>
					<path id="SVGID_37_" enable-background="new    " d="M165.737,47.948c-0.292,0.56-0.583,1.121-0.875,1.681
						c-0.597,1.147-1.294,2.234-2.089,3.263c-3.543,4.564-8.172,6.739-13.903,6.539c-5.899-0.206-10.74-2.728-14.532-7.583
						c-3.562-4.566-5.435-10.099-5.618-16.587c-0.137-4.839,0.659-8.92,2.39-12.244l0.875-1.68c-1.73,3.324-2.526,7.404-2.39,12.244
						c0.183,6.488,2.056,12.021,5.618,16.587c3.792,4.854,8.633,7.376,14.532,7.583c5.731,0.2,10.36-1.974,13.903-6.539
						C164.444,50.183,165.14,49.095,165.737,47.948z"/>
				</defs>
				<clipPath id="SVGID_38_">
					<use xlink:href="#SVGID_37_"  overflow="visible"/>
				</clipPath>
				<g clip-path="url(#SVGID_38_)" enable-background="new    ">
					<path fill="#850000" d="M165.737,47.948l-0.875,1.681c-0.597,1.147-1.293,2.235-2.089,3.263
						c-3.543,4.564-8.172,6.739-13.903,6.539c-5.899-0.206-10.74-2.728-14.532-7.583c-3.562-4.566-5.435-10.099-5.618-16.587
						c-0.137-4.839,0.659-8.92,2.39-12.244l0.875-1.68c-1.73,3.324-2.526,7.404-2.39,12.244c0.183,6.488,2.056,12.021,5.618,16.587
						c3.792,4.854,8.633,7.376,14.532,7.583c5.731,0.2,10.36-1.974,13.903-6.539C164.444,50.183,165.14,49.095,165.737,47.948"/>
				</g>
			</g>
			<g>
				<path fill="#F30000" d="M162.352,18.441c3.859,4.104,5.881,9.599,6.076,16.494c0.183,6.488-1.407,11.917-4.78,16.275
					c-3.543,4.564-8.172,6.739-13.903,6.539c-5.899-0.206-10.74-2.728-14.532-7.583c-3.562-4.566-5.435-10.099-5.618-16.587
					c-0.195-6.929,1.52-12.302,5.155-16.127c3.438-3.586,8.01-5.289,13.714-5.089C154.08,12.56,158.704,14.591,162.352,18.441z
					 M153.306,45.011c0.984-1.819,1.452-3.724,1.396-5.706c-0.144-5.108-2.024-7.729-5.638-7.855
					c-3.516-0.123-5.207,2.391-5.061,7.533c0.058,2.067,0.573,3.998,1.544,5.817c1.093,2.035,2.405,3.088,3.92,3.141
					C150.947,47.992,152.229,47.013,153.306,45.011"/>
			</g>
		</g>
		<g enable-background="new    ">
			<g>
				<polygon fill="#810000" points="127.277,55.56 126.402,57.241 100.307,56.33 101.182,54.649 				"/>
			</g>
			<g enable-background="new    ">
				<defs>
					<path id="SVGID_39_" enable-background="new    " d="M101.182,54.649l-0.875,1.681c-0.219-4.315-0.659-11.439-1.329-21.363
						c-0.391-5.083-1.041-12.104-1.948-21.063l0.875-1.68c0.908,8.959,1.557,15.98,1.948,21.063
						C100.522,43.21,100.963,50.334,101.182,54.649z"/>
				</defs>
				<clipPath id="SVGID_40_">
					<use xlink:href="#SVGID_39_"  overflow="visible"/>
				</clipPath>
				<g clip-path="url(#SVGID_40_)" enable-background="new    ">
					<path fill="#850000" d="M101.182,54.649l-0.875,1.681c-0.219-4.315-0.659-11.439-1.329-21.363
						c-0.391-5.083-1.041-12.104-1.948-21.063l0.875-1.68c0.908,8.959,1.557,15.98,1.948,21.063
						C100.522,43.21,100.963,50.334,101.182,54.649"/>
				</g>
			</g>
			<g>
				<path fill="#F30000" d="M117.915,12.921L117.268,48c1.86,0.065,4.654-0.032,8.372-0.292c0.769-0.041,1.817-0.19,3.156-0.44
					c-0.174,0.73-0.49,2.107-0.946,4.13c-0.24,1.185-0.432,2.575-0.573,4.161l-26.095-0.911c-0.219-4.315-0.659-11.439-1.329-21.363
					c-0.391-5.083-1.041-12.104-1.948-21.063L117.915,12.921z"/>
			</g>
		</g>
		<g enable-background="new    ">
			<g>
				<polygon fill="#800000" points="269.745,44.177 268.87,45.858 266.667,19.827 267.542,18.146 				"/>
			</g>
			<g enable-background="new    ">
				<defs>
					<path id="SVGID_41_" enable-background="new    " d="M244.666,39.417l-0.875,1.681c-0.326-5.283-0.968-12.659-1.925-22.137
						l0.875-1.681C243.697,26.758,244.339,34.134,244.666,39.417z"/>
				</defs>
				<clipPath id="SVGID_42_">
					<use xlink:href="#SVGID_41_"  overflow="visible"/>
				</clipPath>
				<g clip-path="url(#SVGID_42_)" enable-background="new    ">
					<path fill="#850000" d="M244.666,39.417l-0.875,1.681c-0.326-5.283-0.968-12.659-1.925-22.137l0.875-1.681
						C243.697,26.758,244.339,34.134,244.666,39.417"/>
				</g>
			</g>
			<g enable-background="new    ">
				<defs>
					<path id="SVGID_43_" enable-background="new    " d="M263.823,49.725l-0.875,1.681c-0.331-0.748-0.865-1.799-1.621-3.17
						l0.875-1.681C262.958,47.926,263.492,48.977,263.823,49.725z"/>
				</defs>
				<clipPath id="SVGID_44_">
					<use xlink:href="#SVGID_43_"  overflow="visible"/>
				</clipPath>
				<g clip-path="url(#SVGID_44_)" enable-background="new    ">
					<path fill="#850000" d="M263.823,49.725l-0.875,1.681c-0.331-0.748-0.865-1.799-1.621-3.17l0.875-1.681
						C262.958,47.926,263.492,48.977,263.823,49.725"/>
				</g>
			</g>
			<g>
				<polygon fill="#800000" points="265.415,53.174 264.54,54.854 262.948,51.405 263.823,49.725 				"/>
			</g>
			<g enable-background="new    ">
				<defs>
					<path id="SVGID_45_" enable-background="new    " d="M270.114,51.299l-0.875,1.681c-0.342,0.098-1.034,0.336-2.076,0.723
						c-1.234,0.473-2.108,0.857-2.623,1.152l0.875-1.681c0.515-0.295,1.389-0.679,2.623-1.152
						C269.08,51.635,269.772,51.396,270.114,51.299z"/>
				</defs>
				<clipPath id="SVGID_46_">
					<use xlink:href="#SVGID_45_"  overflow="visible"/>
				</clipPath>
				<g clip-path="url(#SVGID_46_)" enable-background="new    ">
					<path fill="#850000" d="M270.114,51.299l-0.875,1.681c-0.342,0.098-1.034,0.336-2.076,0.723
						c-1.234,0.473-2.108,0.857-2.623,1.152l0.875-1.681c0.515-0.295,1.389-0.679,2.623-1.152
						C269.08,51.635,269.772,51.396,270.114,51.299"/>
				</g>
			</g>
			<g>
				<polygon fill="#810000" points="285.398,61.082 284.523,62.762 269.819,62.249 270.695,60.568 				"/>
			</g>
			<g>
				<polygon fill="#800000" points="270.695,60.568 269.819,62.249 269.239,52.979 270.114,51.299 				"/>
			</g>
			<g>
				<polygon fill="#800000" points="246.069,59.708 245.194,61.389 243.79,41.098 244.666,39.417 				"/>
			</g>
			<g>
				<path fill="#F30000" d="M286.312,18.802c-0.2,4.512-0.427,11.858-0.679,22.046c-0.014,4.849-0.089,11.59-0.234,20.234
					l-14.703-0.514l-0.581-9.27c-0.342,0.098-1.034,0.336-2.076,0.723c-1.234,0.474-2.108,0.857-2.623,1.152l-1.592-3.449
					c-0.331-0.748-0.865-1.799-1.621-3.17l0.104,13.721l-16.236-0.567l-1.404-20.292c-0.326-5.283-0.968-12.659-1.925-22.137
					l20.24,0.707l-0.619,26.042c0.994,0.124,1.957,0.201,2.887,0.233c0.392,0.014,0.775,0.02,1.155,0.018
					c0.823,0.012,1.938-0.026,3.342-0.104l-2.203-26.031L286.312,18.802z"/>
			</g>
			<g>
				<polygon fill="#810000" points="262.306,60.275 261.431,61.956 245.194,61.389 246.069,59.708 				"/>
			</g>
		</g>
		<g enable-background="new    ">
			<g enable-background="new    ">
				<defs>
					<path id="SVGID_47_" enable-background="new    " d="M318.232,37.357l-0.876,1.681c-0.711-0.135-2.258-0.383-4.63-0.737
						l0.875-1.681C315.974,36.974,317.521,37.223,318.232,37.357z"/>
				</defs>
				<clipPath id="SVGID_48_">
					<use xlink:href="#SVGID_47_"  overflow="visible"/>
				</clipPath>
				<g clip-path="url(#SVGID_48_)" enable-background="new    ">
					<path fill="#850000" d="M318.232,37.357l-0.876,1.681c-0.711-0.135-2.258-0.383-4.63-0.737l0.875-1.681
						C315.974,36.974,317.521,37.223,318.232,37.357"/>
				</g>
			</g>
			<g enable-background="new    ">
				<defs>
					<path id="SVGID_49_" enable-background="new    " d="M313.602,36.62l-0.875,1.681c-1.617-0.209-3.392-0.364-5.314-0.465
						l0.875-1.681C310.21,36.256,311.984,36.411,313.602,36.62z"/>
				</defs>
				<clipPath id="SVGID_50_">
					<use xlink:href="#SVGID_49_"  overflow="visible"/>
				</clipPath>
				<g clip-path="url(#SVGID_50_)" enable-background="new    ">
					<path fill="#850000" d="M313.602,36.62l-0.875,1.681c-1.617-0.209-3.392-0.364-5.314-0.465l0.875-1.681
						C310.21,36.256,311.984,36.411,313.602,36.62"/>
				</g>
			</g>
			<g enable-background="new    ">
				<defs>
					<path id="SVGID_51_" enable-background="new    " d="M316.843,49.267l-0.875,1.68c-0.562-0.146-1.967-0.365-4.195-0.646
						l0.875-1.681C314.876,48.901,316.281,49.12,316.843,49.267z"/>
				</defs>
				<clipPath id="SVGID_52_">
					<use xlink:href="#SVGID_51_"  overflow="visible"/>
				</clipPath>
				<g clip-path="url(#SVGID_52_)" enable-background="new    ">
					<path fill="#850000" d="M316.843,49.267l-0.875,1.68c-0.562-0.146-1.967-0.365-4.195-0.646l0.875-1.681
						C314.876,48.901,316.281,49.12,316.843,49.267"/>
				</g>
			</g>
			<g enable-background="new    ">
				<defs>
					<path id="SVGID_53_" enable-background="new    " d="M312.647,48.62l-0.875,1.681c-0.784-0.065-1.843-0.121-3.183-0.168
						c-0.446-0.016-0.924-0.03-1.434-0.044l0.875-1.681c0.51,0.014,0.987,0.028,1.434,0.044
						C310.805,48.499,311.863,48.555,312.647,48.62z"/>
				</defs>
				<clipPath id="SVGID_54_">
					<use xlink:href="#SVGID_53_"  overflow="visible"/>
				</clipPath>
				<g clip-path="url(#SVGID_54_)" enable-background="new    ">
					<path fill="#850000" d="M312.647,48.62l-0.875,1.681c-0.784-0.065-1.843-0.121-3.183-0.168
						c-0.446-0.016-0.924-0.03-1.434-0.044l0.875-1.681c0.51,0.014,0.987,0.028,1.434,0.044
						C310.805,48.499,311.863,48.555,312.647,48.62"/>
				</g>
			</g>
			<g enable-background="new    ">
				<defs>
					<path id="SVGID_55_" enable-background="new    " d="M290.387,39.66l-0.875,1.681c-0.299-4.944-0.865-11.869-1.709-20.775
						l0.875-1.681C289.521,27.791,290.088,34.716,290.387,39.66z"/>
				</defs>
				<clipPath id="SVGID_56_">
					<use xlink:href="#SVGID_55_"  overflow="visible"/>
				</clipPath>
				<g clip-path="url(#SVGID_56_)" enable-background="new    ">
					<path fill="#850000" d="M290.387,39.66l-0.875,1.681c-0.299-4.944-0.865-11.869-1.709-20.775l0.875-1.681
						C289.521,27.791,290.088,34.716,290.387,39.66"/>
				</g>
			</g>
			<g>
				<polygon fill="#800000" points="291.829,61.307 290.954,62.987 289.512,41.34 290.387,39.66 				"/>
			</g>
			<g>
				<polygon fill="#810000" points="317.633,62.208 316.758,63.888 290.954,62.987 291.829,61.307 				"/>
			</g>
			<g>
				<path fill="#F30000" d="M318.979,19.942l-0.747,17.415c-0.712-0.135-2.259-0.383-4.631-0.737
					c-1.617-0.209-3.392-0.364-5.314-0.465l-0.285,5.254c0.57,0.033,1.238,0.063,2.003,0.09c2.073,0.072,4.856,0.119,8.348,0.135
					c-0.193,0.67-0.494,1.93-0.901,3.769c-0.235,1.108-0.438,2.396-0.608,3.863c-0.562-0.147-1.967-0.365-4.195-0.646
					c-0.784-0.065-1.843-0.121-3.183-0.168c-0.446-0.016-0.924-0.03-1.434-0.044l-0.118,6.14c1.442,0.025,4.097,0,7.952-0.086
					c0.725-0.025,1.924-0.204,3.587-0.535c-0.144,0.562-0.459,1.922-0.956,4.07c-0.234,1.118-0.521,2.521-0.863,4.21l-25.804-0.901
					l-1.442-21.647c-0.299-4.944-0.865-11.869-1.709-20.775L318.979,19.942z"/>
			</g>
		</g>
		<g enable-background="new    ">
			<g enable-background="new    ">
				<defs>
					<path id="SVGID_57_" enable-background="new    " d="M391.416,39.913l-0.875,1.681c-0.721-0.135-2.259-0.383-4.632-0.737
						l0.875-1.681C389.157,39.53,390.695,39.778,391.416,39.913z"/>
				</defs>
				<clipPath id="SVGID_58_">
					<use xlink:href="#SVGID_57_"  overflow="visible"/>
				</clipPath>
				<g clip-path="url(#SVGID_58_)" enable-background="new    ">
					<path fill="#850000" d="M391.416,39.913l-0.875,1.681c-0.721-0.135-2.259-0.383-4.632-0.737l0.875-1.681
						C389.157,39.53,390.695,39.778,391.416,39.913"/>
				</g>
			</g>
			<g enable-background="new    ">
				<defs>
					<path id="SVGID_59_" enable-background="new    " d="M386.784,39.176l-0.875,1.681c-1.616-0.209-3.39-0.364-5.313-0.465
						l0.875-1.681C383.395,38.812,385.168,38.967,386.784,39.176z"/>
				</defs>
				<clipPath id="SVGID_60_">
					<use xlink:href="#SVGID_59_"  overflow="visible"/>
				</clipPath>
				<g clip-path="url(#SVGID_60_)" enable-background="new    ">
					<path fill="#850000" d="M386.784,39.176l-0.875,1.681c-1.616-0.209-3.39-0.364-5.313-0.465l0.875-1.681
						C383.395,38.812,385.168,38.967,386.784,39.176"/>
				</g>
			</g>
			<g enable-background="new    ">
				<defs>
					<path id="SVGID_61_" enable-background="new    " d="M390.018,51.822l-0.875,1.681c-0.562-0.147-1.957-0.365-4.194-0.646
						l0.875-1.681C388.061,51.457,389.456,51.675,390.018,51.822z"/>
				</defs>
				<clipPath id="SVGID_62_">
					<use xlink:href="#SVGID_61_"  overflow="visible"/>
				</clipPath>
				<g clip-path="url(#SVGID_62_)" enable-background="new    ">
					<path fill="#850000" d="M390.018,51.822l-0.875,1.681c-0.562-0.147-1.957-0.365-4.194-0.646l0.875-1.681
						C388.061,51.457,389.456,51.675,390.018,51.822"/>
				</g>
			</g>
			<g enable-background="new    ">
				<defs>
					<path id="SVGID_63_" enable-background="new    " d="M385.823,51.176l-0.875,1.681c-0.779-0.065-1.836-0.121-3.175-0.168
						c-0.447-0.016-0.925-0.03-1.434-0.044l0.875-1.681c0.509,0.014,0.986,0.028,1.434,0.044
						C383.987,51.055,385.044,51.11,385.823,51.176z"/>
				</defs>
				<clipPath id="SVGID_64_">
					<use xlink:href="#SVGID_63_"  overflow="visible"/>
				</clipPath>
				<g clip-path="url(#SVGID_64_)" enable-background="new    ">
					<path fill="#850000" d="M385.823,51.176l-0.875,1.681c-0.779-0.065-1.836-0.121-3.175-0.168
						c-0.447-0.016-0.925-0.03-1.434-0.044l0.875-1.681c0.509,0.014,0.986,0.028,1.434,0.044
						C383.987,51.055,385.044,51.11,385.823,51.176"/>
				</g>
			</g>
			<g enable-background="new    ">
				<defs>
					<path id="SVGID_65_" enable-background="new    " d="M363.562,42.215l-0.875,1.681c-0.289-4.943-0.856-11.869-1.71-20.775
						l0.875-1.681C362.705,30.347,363.272,37.271,363.562,42.215z"/>
				</defs>
				<clipPath id="SVGID_66_">
					<use xlink:href="#SVGID_65_"  overflow="visible"/>
				</clipPath>
				<g clip-path="url(#SVGID_66_)" enable-background="new    ">
					<path fill="#850000" d="M363.562,42.215l-0.875,1.681c-0.289-4.943-0.856-11.869-1.71-20.775l0.875-1.681
						C362.705,30.347,363.272,37.271,363.562,42.215"/>
				</g>
			</g>
			<g>
				<polygon fill="#800000" points="365.014,63.862 364.139,65.542 362.687,43.896 363.562,42.215 				"/>
			</g>
			<g>
				<polygon fill="#810000" points="390.816,64.763 389.941,66.444 364.139,65.542 365.014,63.862 				"/>
			</g>
			<g>
				<path fill="#F30000" d="M392.163,22.498l-0.747,17.415c-0.721-0.135-2.259-0.383-4.632-0.737
					c-1.616-0.209-3.39-0.364-5.313-0.465l-0.285,5.253c0.571,0.034,1.238,0.064,2.001,0.091c2.071,0.072,4.852,0.118,8.351,0.135
					c-0.193,0.67-0.494,1.93-0.903,3.768c-0.242,1.109-0.445,2.396-0.616,3.863c-0.562-0.147-1.957-0.365-4.194-0.646
					c-0.779-0.065-1.836-0.121-3.175-0.168c-0.447-0.016-0.925-0.03-1.434-0.044l-0.119,6.14c1.443,0.025,4.089-0.001,7.944-0.086
					c0.734-0.025,1.933-0.204,3.587-0.535c-0.135,0.563-0.45,1.922-0.947,4.071c-0.243,1.117-0.521,2.521-0.863,4.21l-25.803-0.901
					l-1.452-21.647c-0.289-4.943-0.856-11.868-1.71-20.775L392.163,22.498z"/>
			</g>
		</g>
		<g enable-background="new    ">
			<g enable-background="new    ">
				<defs>
					<path id="SVGID_67_" enable-background="new    " d="M347.278,44.794l-0.875,1.681c0.31-0.594,0.453-1.28,0.432-2.058
						c-0.05-1.745-0.855-3.017-2.417-3.825c-1.014-0.52-2.239-0.811-3.685-0.861c-0.195-0.007-0.395-0.009-0.597-0.007l0.875-1.681
						c0.202-0.002,0.401,0,0.597,0.007c1.445,0.051,2.671,0.342,3.685,0.862c1.562,0.808,2.368,2.08,2.417,3.825
						C347.732,43.515,347.588,44.201,347.278,44.794z"/>
				</defs>
				<clipPath id="SVGID_68_">
					<use xlink:href="#SVGID_67_"  overflow="visible"/>
				</clipPath>
				<g clip-path="url(#SVGID_68_)" enable-background="new    ">
					<path fill="#850000" d="M347.278,44.794l-0.875,1.681c0.31-0.594,0.453-1.28,0.432-2.058c-0.05-1.745-0.855-3.017-2.417-3.825
						c-1.014-0.52-2.239-0.811-3.685-0.861c-0.195-0.007-0.395-0.009-0.597-0.007l0.875-1.681c0.202-0.002,0.401,0,0.597,0.007
						c1.445,0.051,2.671,0.342,3.685,0.862c1.562,0.808,2.368,2.08,2.417,3.825C347.732,43.515,347.588,44.201,347.278,44.794"/>
				</g>
			</g>
			<g enable-background="new    ">
				<defs>
					<path id="SVGID_69_" enable-background="new    " d="M359.114,44.218l-0.875,1.681c-0.343,0.659-0.744,1.294-1.203,1.904
						c-1.681,2.218-3.831,3.784-6.435,4.684l0.875-1.681c2.604-0.899,4.754-2.466,6.435-4.684
						C358.37,45.512,358.771,44.877,359.114,44.218z"/>
				</defs>
				<clipPath id="SVGID_70_">
					<use xlink:href="#SVGID_69_"  overflow="visible"/>
				</clipPath>
				<g clip-path="url(#SVGID_70_)" enable-background="new    ">
					<path fill="#850000" d="M359.114,44.218l-0.875,1.681c-0.343,0.659-0.744,1.294-1.203,1.904
						c-1.681,2.218-3.831,3.784-6.435,4.684l0.875-1.681c2.604-0.899,4.754-2.466,6.435-4.684
						C358.37,45.512,358.771,44.877,359.114,44.218"/>
				</g>
			</g>
			<g enable-background="new    ">
				<defs>
					<path id="SVGID_71_" enable-background="new    " d="M360.9,61.129l-0.875,1.681c-0.895,0.282-2.864,1.008-5.902,2.163
						l0.875-1.68C358.036,62.137,360.006,61.411,360.9,61.129z"/>
				</defs>
				<clipPath id="SVGID_72_">
					<use xlink:href="#SVGID_71_"  overflow="visible"/>
				</clipPath>
				<g clip-path="url(#SVGID_72_)" enable-background="new    ">
					<path fill="#850000" d="M360.9,61.129l-0.875,1.681c-0.895,0.282-2.864,1.008-5.902,2.163l0.875-1.68
						C358.036,62.137,360.006,61.411,360.9,61.129"/>
				</g>
			</g>
			<g enable-background="new    ">
				<defs>
					<path id="SVGID_73_" enable-background="new    " d="M345.125,60.578l-0.875,1.681c-0.916-1.42-2.284-3.82-4.088-7.192
						l0.875-1.681C342.841,56.758,344.209,59.158,345.125,60.578z"/>
				</defs>
				<clipPath id="SVGID_74_">
					<use xlink:href="#SVGID_73_"  overflow="visible"/>
				</clipPath>
				<g clip-path="url(#SVGID_74_)" enable-background="new    ">
					<path fill="#850000" d="M345.125,60.578l-0.875,1.681c-0.916-1.42-2.284-3.82-4.088-7.192l0.875-1.681
						C342.841,56.758,344.209,59.158,345.125,60.578"/>
				</g>
			</g>
			<g enable-background="new    ">
				<defs>
					<path id="SVGID_75_" enable-background="new    " d="M354.998,63.292l-0.875,1.68c-2.127,0.865-4.129,1.718-6.008,2.549
						l0.875-1.681C350.869,65.01,352.871,64.157,354.998,63.292z"/>
				</defs>
				<clipPath id="SVGID_76_">
					<use xlink:href="#SVGID_75_"  overflow="visible"/>
				</clipPath>
				<g clip-path="url(#SVGID_76_)" enable-background="new    ">
					<path fill="#850000" d="M354.998,63.292l-0.875,1.68c-2.127,0.865-4.129,1.718-6.008,2.549l0.875-1.681
						C350.869,65.01,352.871,64.157,354.998,63.292"/>
				</g>
			</g>
			<g enable-background="new    ">
				<defs>
					<path id="SVGID_77_" enable-background="new    " d="M348.99,65.841l-0.875,1.681c-0.576-0.68-1.864-2.435-3.865-5.263
						l0.875-1.681C347.126,63.406,348.414,65.161,348.99,65.841z"/>
				</defs>
				<clipPath id="SVGID_78_">
					<use xlink:href="#SVGID_77_"  overflow="visible"/>
				</clipPath>
				<g clip-path="url(#SVGID_78_)" enable-background="new    ">
					<path fill="#850000" d="M348.99,65.841l-0.875,1.681c-0.576-0.68-1.864-2.435-3.865-5.263l0.875-1.681
						C347.126,63.406,348.414,65.161,348.99,65.841"/>
				</g>
			</g>
			<g enable-background="new    ">
				<defs>
					<path id="SVGID_79_" enable-background="new    " d="M324.729,62.455l-0.875,1.681c-0.327-4.014-0.806-10.632-1.454-19.853
						c-0.321-5.428-0.933-12.955-1.814-22.573l0.875-1.681c0.882,9.618,1.493,17.146,1.814,22.573
						C323.923,51.823,324.401,58.441,324.729,62.455z"/>
				</defs>
				<clipPath id="SVGID_80_">
					<use xlink:href="#SVGID_79_"  overflow="visible"/>
				</clipPath>
				<g clip-path="url(#SVGID_80_)" enable-background="new    ">
					<path fill="#850000" d="M324.729,62.455l-0.875,1.681c-0.327-4.014-0.806-10.632-1.454-19.853
						c-0.321-5.428-0.933-12.955-1.814-22.573l0.875-1.681c0.882,9.618,1.493,17.146,1.814,22.573
						C323.923,51.823,324.401,58.441,324.729,62.455"/>
				</g>
			</g>
			<g>
				<path fill="#F30000" d="M355.752,56.159c1.124,1.25,2.844,2.909,5.148,4.97c-0.895,0.282-2.864,1.008-5.902,2.164
					c-2.127,0.865-4.129,1.717-6.008,2.548c-0.576-0.68-1.864-2.435-3.865-5.263c-0.916-1.42-2.284-3.82-4.088-7.192l-0.073,9.636
					l-16.235-0.567c-0.327-4.014-0.806-10.632-1.454-19.853c-0.321-5.428-0.933-12.955-1.814-22.573
					c5.273-0.341,10.084-0.444,14.451-0.291c16.165,0.564,24.409,6.395,24.723,17.5c0.095,3.38-0.813,6.344-2.723,8.884
					c-1.681,2.218-3.831,3.784-6.435,4.684C352.059,51.646,353.481,53.439,355.752,56.159z M345.342,46.598
					c1.622-0.824,2.418-2.107,2.368-3.861c-0.049-1.745-0.855-3.017-2.417-3.825c-1.014-0.52-2.239-0.811-3.685-0.862
					c-0.195-0.006-0.395-0.009-0.597-0.007l0.089,9.421C342.694,47.52,344.111,47.231,345.342,46.598"/>
			</g>
			<g>
				<polygon fill="#810000" points="340.964,63.022 340.089,64.703 323.854,64.136 324.729,62.455 				"/>
			</g>
		</g>
		<g enable-background="new    ">
			<g enable-background="new    ">
				<defs>
					<path id="SVGID_81_" enable-background="new    " d="M412.695,63.295l-0.875,1.681c-0.303,0.582-0.764,1.104-1.382,1.566
						c-1.248,0.938-2.722,1.377-4.413,1.318c-1.808-0.063-3.371-0.609-4.693-1.636c-1.329-1.028-2.01-2.279-2.052-3.744
						c-0.021-0.773,0.128-1.468,0.448-2.083l0.875-1.68c-0.32,0.615-0.47,1.31-0.448,2.083c0.042,1.465,0.724,2.716,2.052,3.744
						c1.322,1.028,2.886,1.573,4.693,1.636c1.691,0.059,3.165-0.38,4.413-1.318C411.932,64.399,412.393,63.877,412.695,63.295z"/>
				</defs>
				<clipPath id="SVGID_82_">
					<use xlink:href="#SVGID_81_"  overflow="visible"/>
				</clipPath>
				<g clip-path="url(#SVGID_82_)" enable-background="new    ">
					<path fill="#850000" d="M412.695,63.295l-0.875,1.681c-0.303,0.582-0.764,1.104-1.382,1.566
						c-1.248,0.938-2.722,1.377-4.413,1.318c-1.808-0.063-3.371-0.609-4.693-1.636c-1.329-1.028-2.01-2.279-2.052-3.744
						c-0.021-0.773,0.128-1.468,0.448-2.083l0.875-1.68c-0.32,0.615-0.47,1.31-0.448,2.083c0.042,1.465,0.724,2.716,2.052,3.744
						c1.322,1.028,2.886,1.573,4.693,1.636c1.691,0.059,3.165-0.38,4.413-1.318C411.932,64.399,412.393,63.877,412.695,63.295"/>
				</g>
			</g>
			<g>
				<path fill="#F30000" d="M411.098,57.517c1.313,1.036,1.994,2.295,2.036,3.786c0.04,1.431-0.563,2.621-1.82,3.558
					c-1.248,0.938-2.722,1.377-4.413,1.318c-1.808-0.063-3.371-0.608-4.693-1.636c-1.328-1.028-2.01-2.279-2.052-3.744
					c-0.042-1.491,0.553-2.689,1.784-3.594c1.23-0.896,2.794-1.315,4.672-1.25C408.32,56.015,409.822,56.533,411.098,57.517z"/>
			</g>
		</g>
		<g enable-background="new    ">
			<g enable-background="new    ">
				<defs>
					<path id="SVGID_83_" enable-background="new    " d="M400.803,37.981l-0.875,1.681c-0.76-3.133-1.931-8.234-3.511-15.304
						l0.875-1.681C398.872,29.748,400.043,34.849,400.803,37.981z"/>
				</defs>
				<clipPath id="SVGID_84_">
					<use xlink:href="#SVGID_83_"  overflow="visible"/>
				</clipPath>
				<g clip-path="url(#SVGID_84_)" enable-background="new    ">
					<path fill="#850000" d="M400.803,37.981l-0.875,1.681c-0.76-3.133-1.931-8.234-3.511-15.304l0.875-1.681
						C398.872,29.748,400.043,34.849,400.803,37.981"/>
				</g>
			</g>
			<g enable-background="new    ">
				<defs>
					<path id="SVGID_85_" enable-background="new    " d="M403.646,52.789l-0.875,1.68c-0.546-3.006-1.49-7.947-2.844-14.807
						l0.875-1.681C402.156,44.841,403.101,49.782,403.646,52.789z"/>
				</defs>
				<clipPath id="SVGID_86_">
					<use xlink:href="#SVGID_85_"  overflow="visible"/>
				</clipPath>
				<g clip-path="url(#SVGID_86_)" enable-background="new    ">
					<path fill="#850000" d="M403.646,52.789l-0.875,1.68c-0.546-3.006-1.49-7.947-2.844-14.807l0.875-1.681
						C402.156,44.841,403.101,49.782,403.646,52.789"/>
				</g>
			</g>
			<g enable-background="new    ">
				<defs>
					<path id="SVGID_87_" enable-background="new    " d="M410.222,52.197l-0.875,1.681c-0.097,0.013-1.121,0.087-3.073,0.223
						c-1.094,0.088-2.26,0.208-3.502,0.368l0.875-1.68c1.243-0.16,2.408-0.28,3.502-0.369
						C409.101,52.285,410.125,52.211,410.222,52.197z"/>
				</defs>
				<clipPath id="SVGID_88_">
					<use xlink:href="#SVGID_87_"  overflow="visible"/>
				</clipPath>
				<g clip-path="url(#SVGID_88_)" enable-background="new    ">
					<path fill="#850000" d="M410.222,52.197l-0.875,1.681c-0.097,0.013-1.121,0.087-3.073,0.223
						c-1.094,0.088-2.26,0.208-3.502,0.368l0.875-1.68c1.243-0.16,2.408-0.28,3.502-0.369
						C409.101,52.285,410.125,52.211,410.222,52.197"/>
				</g>
			</g>
			<g>
				<path fill="#F30000" d="M403.646,52.789c-0.546-3.007-1.49-7.948-2.844-14.807c-0.76-3.132-1.931-8.234-3.511-15.304
					l17.964,0.627c-0.949,4.325-1.916,9.259-2.893,14.81c-0.485,2.513-0.972,5.043-1.457,7.574c-0.54,2.833-0.787,4.762-0.758,5.787
					c0.008,0.296,0.033,0.534,0.073,0.722c-0.097,0.014-1.121,0.087-3.073,0.223C406.055,52.508,404.89,52.628,403.646,52.789z"/>
			</g>
		</g>
	</g>
</g>
<g>
	<g>
		<g enable-background="new    ">
			<g enable-background="new    ">
				<defs>
					<path id="SVGID_89_" enable-background="new    " d="M57.546,34.251l0.875-1.681c0.5-0.958,1.189-1.78,2.072-2.464
						c1.87-1.475,4.355-2.158,7.429-2.051c1.657,0.058,3.016,0.258,4.079,0.608l-0.875,1.681c-1.063-0.35-2.422-0.55-4.079-0.608
						c-3.074-0.107-5.559,0.576-7.429,2.051C58.735,32.471,58.045,33.292,57.546,34.251z"/>
				</defs>
				<clipPath id="SVGID_90_">
					<use xlink:href="#SVGID_89_"  overflow="visible"/>
				</clipPath>
				<g clip-path="url(#SVGID_90_)" enable-background="new    ">
					<path fill="#850000" d="M72,28.664l-0.875,1.681c-1.063-0.35-2.422-0.55-4.079-0.608c-3.074-0.107-5.559,0.576-7.429,2.051
						c-0.882,0.684-1.572,1.505-2.072,2.464l0.875-1.681c0.5-0.958,1.189-1.78,2.072-2.464c1.87-1.475,4.355-2.158,7.429-2.051
						C69.578,28.113,70.938,28.313,72,28.664"/>
				</g>
			</g>
			<g enable-background="new    ">
				<defs>
					<path id="SVGID_91_" enable-background="new    " d="M40.635,22.337c0.073-0.14,0.146-0.28,0.219-0.42
						c0.219-0.42,0.438-0.84,0.656-1.26c-1.555,2.987-2.276,6.497-2.162,10.53c0.193,6.835,2.697,12.475,7.503,16.899
						c4.442,4.064,9.706,6.203,15.8,6.416c3.357,0.117,6.11-0.176,8.24-0.897l-0.875,1.681c-2.13,0.721-4.883,1.014-8.24,0.897
						c-6.094-0.213-11.357-2.352-15.799-6.416c-4.806-4.424-7.31-10.063-7.503-16.899C38.358,28.834,39.08,25.325,40.635,22.337z"/>
				</defs>
				<clipPath id="SVGID_92_">
					<use xlink:href="#SVGID_91_"  overflow="visible"/>
				</clipPath>
				<g clip-path="url(#SVGID_92_)" enable-background="new    ">
					<path fill="#850000" d="M70.89,53.605l-0.875,1.681c-2.13,0.721-4.883,1.014-8.24,0.897
						c-6.094-0.213-11.357-2.352-15.799-6.416c-4.806-4.424-7.31-10.063-7.503-16.899c-0.114-4.034,0.607-7.543,2.162-10.531
						l0.875-1.681c-1.556,2.987-2.276,6.497-2.163,10.531c0.193,6.835,2.697,12.475,7.503,16.899
						c4.442,4.064,9.706,6.203,15.8,6.416C66.007,54.62,68.76,54.326,70.89,53.605"/>
				</g>
			</g>
			<g>
				<path fill="#F30000" d="M62.646,10.456c3.649,0.127,6.294,0.422,7.944,0.886L72,28.664c-1.063-0.35-2.422-0.55-4.079-0.608
					c-3.074-0.107-5.559,0.576-7.429,2.051c-2.13,1.652-3.14,4.104-3.048,7.357c0.072,2.541,0.989,4.646,2.753,6.341
					c1.765,1.687,4.046,2.579,6.828,2.675c1.905,0.067,3.699-0.328,5.383-1.166c-0.165,0.748-0.453,2.125-0.856,4.134
					c-0.237,1.329-0.455,2.717-0.662,4.157c-2.13,0.721-4.883,1.014-8.24,0.897c-6.094-0.213-11.358-2.352-15.8-6.416
					c-4.806-4.424-7.31-10.063-7.503-16.899c-0.179-6.328,1.696-11.365,5.626-15.121C49.161,12.066,55.046,10.19,62.646,10.456z"/>
			</g>
		</g>
		<g enable-background="new    ">
			<g enable-background="new    ">
				<defs>
					<path id="SVGID_93_" enable-background="new    " d="M29.671,30.421c0.292-0.561,0.583-1.121,0.875-1.681
						c0.212-0.408,0.521-0.768,0.924-1.078c0.736-0.567,1.552-0.826,2.455-0.794c0.726,0.025,1.812,0.216,3.247,0.579l-0.875,1.681
						c-1.436-0.363-2.521-0.554-3.247-0.579c-0.903-0.031-1.719,0.228-2.456,0.794C30.191,29.654,29.883,30.013,29.671,30.421z"/>
				</defs>
				<clipPath id="SVGID_94_">
					<use xlink:href="#SVGID_93_"  overflow="visible"/>
				</clipPath>
				<g clip-path="url(#SVGID_94_)" enable-background="new    ">
					<path fill="#850000" d="M37.171,27.447l-0.875,1.681c-1.436-0.363-2.521-0.554-3.247-0.579
						c-0.903-0.031-1.719,0.228-2.456,0.794c-0.403,0.311-0.711,0.67-0.923,1.078l0.875-1.681c0.212-0.408,0.521-0.768,0.924-1.078
						c0.736-0.567,1.552-0.826,2.455-0.794C34.651,26.894,35.736,27.084,37.171,27.447"/>
				</g>
			</g>
			<g enable-background="new    ">
				<defs>
					<path id="SVGID_95_" enable-background="new    " d="M9.679,16.771l0.875-1.681c-0.876,1.683-1.282,3.67-1.217,5.961
						c0.12,4.244,2.048,7.975,5.785,11.195c1.932,1.658,3.854,3.316,5.786,4.966l-0.875,1.68c-1.931-1.65-3.854-3.308-5.785-4.966
						c-3.737-3.219-5.665-6.951-5.785-11.194C8.397,20.44,8.803,18.454,9.679,16.771z"/>
				</defs>
				<clipPath id="SVGID_96_">
					<use xlink:href="#SVGID_95_"  overflow="visible"/>
				</clipPath>
				<g clip-path="url(#SVGID_96_)" enable-background="new    ">
					<path fill="#850000" d="M20.908,37.212l-0.875,1.68c-1.931-1.65-3.854-3.308-5.785-4.966
						c-3.737-3.219-5.665-6.951-5.785-11.194c-0.064-2.291,0.341-4.278,1.217-5.961l0.875-1.681
						c-0.876,1.683-1.282,3.67-1.217,5.961c0.12,4.244,2.048,7.975,5.785,11.195C17.054,33.904,18.976,35.562,20.908,37.212"/>
				</g>
			</g>
			<g enable-background="new    ">
				<defs>
					<path id="SVGID_97_" enable-background="new    " d="M22.452,42.816c-0.292,0.561-0.583,1.121-0.875,1.681
						c0.215-0.412,0.314-0.911,0.297-1.496c-0.042-1.507-0.656-2.875-1.842-4.109l0.875-1.68c1.185,1.234,1.799,2.602,1.841,4.109
						C22.766,41.905,22.667,42.404,22.452,42.816z"/>
				</defs>
				<clipPath id="SVGID_98_">
					<use xlink:href="#SVGID_97_"  overflow="visible"/>
				</clipPath>
				<g clip-path="url(#SVGID_98_)" enable-background="new    ">
					<path fill="#850000" d="M22.452,42.816l-0.875,1.681c0.215-0.412,0.314-0.911,0.297-1.496
						c-0.042-1.507-0.656-2.875-1.842-4.109l0.875-1.68c1.185,1.234,1.799,2.602,1.841,4.109
						C22.766,41.905,22.667,42.404,22.452,42.816"/>
				</g>
			</g>
			<g enable-background="new    ">
				<defs>
					<path id="SVGID_99_" enable-background="new    " d="M15.5,47.542l-0.875,1.681c-0.303-1.034-0.714-2.419-1.241-4.148
						l0.875-1.681C14.786,45.122,15.197,46.507,15.5,47.542z"/>
				</defs>
				<clipPath id="SVGID_100_">
					<use xlink:href="#SVGID_99_"  overflow="visible"/>
				</clipPath>
				<g clip-path="url(#SVGID_100_)" enable-background="new    ">
					<path fill="#850000" d="M15.5,47.542l-0.875,1.681c-0.303-1.034-0.714-2.419-1.241-4.148l0.875-1.681
						C14.786,45.122,15.197,46.507,15.5,47.542"/>
				</g>
			</g>
			<g enable-background="new    ">
				<defs>
					<path id="SVGID_101_" enable-background="new    " d="M16.502,51.707l-0.875,1.68c-0.192-0.844-0.532-2.235-1.002-4.165
						l0.875-1.681C15.971,49.471,16.311,50.862,16.502,51.707z"/>
				</defs>
				<clipPath id="SVGID_102_">
					<use xlink:href="#SVGID_101_"  overflow="visible"/>
				</clipPath>
				<g clip-path="url(#SVGID_102_)" enable-background="new    ">
					<path fill="#850000" d="M16.502,51.707l-0.875,1.68c-0.192-0.844-0.532-2.235-1.002-4.165l0.875-1.681
						C15.971,49.471,16.311,50.862,16.502,51.707"/>
				</g>
			</g>
			<g enable-background="new    ">
				<defs>
					<path id="SVGID_103_" enable-background="new    " d="M34.532,47.115c-0.292,0.56-0.583,1.121-0.875,1.681
						c-0.574,1.101-1.402,2.079-2.485,2.934c-2.276,1.816-5.128,2.656-8.547,2.536c-3.154-0.11-5.48-0.403-6.999-0.879l0.875-1.68
						c1.518,0.476,3.845,0.769,6.999,0.879c3.418,0.119,6.271-0.721,8.547-2.536C33.131,49.194,33.959,48.216,34.532,47.115z"/>
				</defs>
				<clipPath id="SVGID_104_">
					<use xlink:href="#SVGID_103_"  overflow="visible"/>
				</clipPath>
				<g clip-path="url(#SVGID_104_)" enable-background="new    ">
					<path fill="#850000" d="M34.533,47.115l-0.875,1.681c-0.574,1.101-1.402,2.079-2.485,2.934
						c-2.276,1.816-5.128,2.656-8.547,2.536c-3.154-0.11-5.48-0.403-6.999-0.879l0.875-1.68c1.518,0.476,3.845,0.769,6.999,0.879
						c3.418,0.119,6.271-0.721,8.547-2.536C33.131,49.194,33.959,48.216,34.533,47.115"/>
				</g>
			</g>
			<g>
				<path fill="#F30000" d="M26.206,8.607c2.844,0.1,6.053,0.609,9.609,1.521l1.356,17.319c-1.435-0.363-2.521-0.554-3.247-0.579
					c-0.903-0.031-1.719,0.228-2.455,0.794c-0.884,0.68-1.309,1.596-1.277,2.74c0.025,0.881,0.896,2.604,2.624,5.186
					c1.728,2.573,2.617,4.923,2.676,7.032c0.087,3.075-1.064,5.548-3.445,7.429c-2.276,1.815-5.128,2.655-8.547,2.536
					c-3.154-0.11-5.48-0.403-6.999-0.879c-0.192-0.845-0.532-2.236-1.002-4.165c-0.304-1.034-0.715-2.419-1.241-4.148
					c2.123,0.574,3.556,0.87,4.282,0.895c2.87,0.1,4.267-0.892,4.208-2.968c-0.042-1.507-0.656-2.875-1.841-4.109
					c-1.932-1.65-3.854-3.308-5.786-4.966c-3.737-3.22-5.665-6.951-5.785-11.195c-0.125-4.43,1.507-7.724,4.906-9.882
					C17.199,9.283,21.193,8.433,26.206,8.607z"/>
			</g>
		</g>
		<g enable-background="new    ">
			<g enable-background="new    ">
				<defs>
					<path id="SVGID_105_" enable-background="new    " d="M138.64,44.292l-0.875,1.681c0.913-1.753,1.334-3.585,1.281-5.488
						c-0.144-5.108-2.023-7.729-5.637-7.855c-1.967-0.069-3.363,0.688-4.186,2.267l0.875-1.681c0.823-1.58,2.218-2.336,4.186-2.267
						c3.614,0.126,5.493,2.748,5.637,7.855C139.974,40.707,139.553,42.539,138.64,44.292z"/>
				</defs>
				<clipPath id="SVGID_106_">
					<use xlink:href="#SVGID_105_"  overflow="visible"/>
				</clipPath>
				<g clip-path="url(#SVGID_106_)" enable-background="new    ">
					<path fill="#850000" d="M138.64,44.292l-0.875,1.681c0.913-1.753,1.334-3.585,1.281-5.488
						c-0.144-5.108-2.023-7.729-5.637-7.855c-1.967-0.069-3.363,0.688-4.186,2.267l0.875-1.681c0.823-1.58,2.218-2.336,4.186-2.267
						c3.614,0.126,5.493,2.748,5.637,7.855C139.974,40.707,139.553,42.539,138.64,44.292"/>
				</g>
			</g>
			<g enable-background="new    ">
				<defs>
					<path id="SVGID_107_" enable-background="new    " d="M150.962,47.436l-0.875,1.681c-0.599,1.151-1.298,2.242-2.096,3.274
						c-3.534,4.564-8.172,6.739-13.894,6.539c-5.908-0.206-10.749-2.728-14.532-7.582c-3.571-4.567-5.444-10.1-5.627-16.588
						c-0.136-4.835,0.662-8.912,2.392-12.233l0.875-1.681c-1.73,3.322-2.528,7.399-2.392,12.233
						c0.183,6.488,2.056,12.021,5.627,16.588c3.783,4.854,8.624,7.376,14.532,7.582c5.722,0.2,10.36-1.974,13.894-6.539
						C149.665,49.678,150.363,48.587,150.962,47.436z"/>
				</defs>
				<clipPath id="SVGID_108_">
					<use xlink:href="#SVGID_107_"  overflow="visible"/>
				</clipPath>
				<g clip-path="url(#SVGID_108_)" enable-background="new    ">
					<path fill="#850000" d="M150.962,47.436l-0.875,1.681c-0.599,1.151-1.298,2.242-2.096,3.274
						c-3.534,4.564-8.172,6.739-13.894,6.539c-5.908-0.206-10.749-2.728-14.532-7.582c-3.571-4.567-5.444-10.1-5.627-16.588
						c-0.136-4.835,0.662-8.912,2.392-12.233l0.875-1.681c-1.73,3.322-2.528,7.399-2.392,12.233
						c0.183,6.488,2.056,12.021,5.627,16.588c3.783,4.854,8.624,7.376,14.532,7.582c5.722,0.2,10.36-1.974,13.894-6.539
						C149.665,49.678,150.363,48.587,150.962,47.436"/>
				</g>
			</g>
			<g>
				<path fill="#F30000" d="M147.57,17.94c3.859,4.104,5.89,9.599,6.085,16.495c0.183,6.488-1.417,11.916-4.789,16.275
					c-3.534,4.564-8.172,6.739-13.894,6.539c-5.908-0.206-10.749-2.728-14.532-7.582c-3.571-4.567-5.444-10.1-5.627-16.588
					c-0.196-6.929,1.529-12.302,5.165-16.127c3.429-3.587,8-5.289,13.714-5.089C139.299,12.058,143.931,14.089,147.57,17.94z
					 M138.524,44.509c0.993-1.819,1.453-3.724,1.396-5.706c-0.144-5.108-2.023-7.729-5.637-7.855
					c-3.517-0.123-5.207,2.391-5.062,7.533c0.058,2.066,0.582,3.998,1.553,5.817c1.093,2.036,2.397,3.088,3.92,3.141
					C136.174,47.491,137.448,46.511,138.524,44.509"/>
			</g>
		</g>
		<g enable-background="new    ">
			<g enable-background="new    ">
				<defs>
					<path id="SVGID_109_" enable-background="new    " d="M99.836,36.173l-0.875,1.681c0.31-0.595,0.454-1.282,0.431-2.063
						c-0.049-1.745-0.855-3.017-2.409-3.825c-1.012-0.52-2.246-0.811-3.693-0.861c-0.195-0.007-0.394-0.009-0.597-0.007l0.875-1.68
						c0.203-0.002,0.401,0,0.597,0.007c1.447,0.051,2.681,0.342,3.693,0.862c1.554,0.808,2.36,2.08,2.409,3.824
						C100.29,34.891,100.146,35.578,99.836,36.173z"/>
				</defs>
				<clipPath id="SVGID_110_">
					<use xlink:href="#SVGID_109_"  overflow="visible"/>
				</clipPath>
				<g clip-path="url(#SVGID_110_)" enable-background="new    ">
					<path fill="#850000" d="M99.836,36.173l-0.875,1.681c0.31-0.595,0.454-1.282,0.431-2.063c-0.049-1.745-0.855-3.017-2.409-3.825
						c-1.012-0.52-2.246-0.811-3.693-0.861c-0.195-0.007-0.394-0.009-0.597-0.007l0.875-1.68c0.203-0.002,0.401,0,0.597,0.007
						c1.447,0.051,2.681,0.342,3.693,0.862c1.554,0.808,2.36,2.08,2.409,3.824C100.29,34.891,100.146,35.578,99.836,36.173"/>
				</g>
			</g>
			<g enable-background="new    ">
				<defs>
					<path id="SVGID_111_" enable-background="new    " d="M111.667,35.608l-0.875,1.681c-0.34,0.653-0.737,1.283-1.19,1.888
						c-1.689,2.217-3.831,3.784-6.442,4.683l0.875-1.681c2.611-0.899,4.753-2.466,6.442-4.683
						C110.931,36.891,111.328,36.262,111.667,35.608z"/>
				</defs>
				<clipPath id="SVGID_112_">
					<use xlink:href="#SVGID_111_"  overflow="visible"/>
				</clipPath>
				<g clip-path="url(#SVGID_112_)" enable-background="new    ">
					<path fill="#850000" d="M111.667,35.608l-0.875,1.681c-0.34,0.653-0.737,1.283-1.19,1.888
						c-1.689,2.217-3.831,3.784-6.442,4.683l0.875-1.681c2.611-0.899,4.753-2.466,6.442-4.683
						C110.931,36.891,111.328,36.262,111.667,35.608"/>
				</g>
			</g>
			<g enable-background="new    ">
				<defs>
					<path id="SVGID_113_" enable-background="new    " d="M113.458,52.503l-0.875,1.68c-0.895,0.282-2.856,1.009-5.903,2.164
						l0.875-1.681C110.603,53.511,112.564,52.785,113.458,52.503z"/>
				</defs>
				<clipPath id="SVGID_114_">
					<use xlink:href="#SVGID_113_"  overflow="visible"/>
				</clipPath>
				<g clip-path="url(#SVGID_114_)" enable-background="new    ">
					<path fill="#850000" d="M113.458,52.503l-0.875,1.68c-0.895,0.282-2.856,1.009-5.903,2.164l0.875-1.681
						C110.603,53.511,112.564,52.785,113.458,52.503"/>
				</g>
			</g>
			<g enable-background="new    ">
				<defs>
					<path id="SVGID_115_" enable-background="new    " d="M97.691,51.952l-0.875,1.681c-0.925-1.42-2.293-3.82-4.097-7.192
						l0.875-1.681C95.398,48.132,96.767,50.532,97.691,51.952z"/>
				</defs>
				<clipPath id="SVGID_116_">
					<use xlink:href="#SVGID_115_"  overflow="visible"/>
				</clipPath>
				<g clip-path="url(#SVGID_116_)" enable-background="new    ">
					<path fill="#850000" d="M97.691,51.952l-0.875,1.681c-0.925-1.42-2.293-3.82-4.097-7.192l0.875-1.681
						C95.398,48.132,96.767,50.532,97.691,51.952"/>
				</g>
			</g>
			<g enable-background="new    ">
				<defs>
					<path id="SVGID_117_" enable-background="new    " d="M107.555,54.666l-0.875,1.681c-2.126,0.865-4.128,1.718-5.999,2.549
						l0.875-1.681C103.427,56.384,105.429,55.531,107.555,54.666z"/>
				</defs>
				<clipPath id="SVGID_118_">
					<use xlink:href="#SVGID_117_"  overflow="visible"/>
				</clipPath>
				<g clip-path="url(#SVGID_118_)" enable-background="new    ">
					<path fill="#850000" d="M107.555,54.666l-0.875,1.681c-2.126,0.865-4.128,1.718-5.999,2.549l0.875-1.681
						C103.427,56.384,105.429,55.531,107.555,54.666"/>
				</g>
			</g>
			<g enable-background="new    ">
				<defs>
					<path id="SVGID_119_" enable-background="new    " d="M101.557,57.215l-0.875,1.681c-0.576-0.68-1.865-2.435-3.865-5.263
						l0.875-1.681C99.691,54.78,100.98,56.535,101.557,57.215z"/>
				</defs>
				<clipPath id="SVGID_120_">
					<use xlink:href="#SVGID_119_"  overflow="visible"/>
				</clipPath>
				<g clip-path="url(#SVGID_120_)" enable-background="new    ">
					<path fill="#850000" d="M101.557,57.215l-0.875,1.681c-0.576-0.68-1.865-2.435-3.865-5.263l0.875-1.681
						C99.691,54.78,100.98,56.535,101.557,57.215"/>
				</g>
			</g>
			<g enable-background="new    ">
				<defs>
					<path id="SVGID_121_" enable-background="new    " d="M77.286,53.829l-0.875,1.681c-0.317-4.014-0.805-10.632-1.446-19.853
						c-0.33-5.428-0.932-12.955-1.822-22.574l0.875-1.681c0.891,9.619,1.493,17.146,1.822,22.574
						C76.481,43.197,76.969,49.815,77.286,53.829z"/>
				</defs>
				<clipPath id="SVGID_122_">
					<use xlink:href="#SVGID_121_"  overflow="visible"/>
				</clipPath>
				<g clip-path="url(#SVGID_122_)" enable-background="new    ">
					<path fill="#850000" d="M77.286,53.829l-0.875,1.681c-0.317-4.014-0.805-10.632-1.446-19.853
						c-0.33-5.428-0.932-12.955-1.822-22.574l0.875-1.681c0.891,9.619,1.493,17.146,1.822,22.574
						C76.481,43.197,76.969,49.815,77.286,53.829"/>
				</g>
			</g>
			<g>
				<path fill="#F30000" d="M108.31,47.533c1.132,1.25,2.843,2.908,5.148,4.97c-0.895,0.282-2.856,1.008-5.903,2.163
					c-2.126,0.865-4.128,1.718-5.999,2.549c-0.576-0.68-1.865-2.435-3.865-5.263c-0.925-1.42-2.293-3.82-4.097-7.192l-0.073,9.636
					l-16.236-0.567c-0.317-4.014-0.805-10.632-1.446-19.853c-0.33-5.428-0.931-12.955-1.822-22.574
					c5.273-0.34,10.093-0.443,14.451-0.291c16.166,0.564,24.409,6.396,24.723,17.5c0.096,3.38-0.812,6.344-2.714,8.884
					c-1.689,2.217-3.831,3.784-6.442,4.683C104.616,43.021,106.039,44.813,108.31,47.533z M97.899,37.971
					c1.632-0.823,2.418-2.107,2.369-3.861c-0.049-1.745-0.855-3.017-2.409-3.824c-1.012-0.52-2.246-0.811-3.693-0.862
					c-0.195-0.007-0.394-0.009-0.597-0.007l0.089,9.421C95.252,38.894,96.669,38.605,97.899,37.971"/>
			</g>
			<g>
				<polygon fill="#810000" points="93.522,54.396 92.647,56.077 76.411,55.51 77.286,53.829 				"/>
			</g>
		</g>
		<g enable-background="new    ">
			<g>
				<polygon fill="#810000" points="215.92,58.67 215.045,60.351 188.958,59.44 189.834,57.759 				"/>
			</g>
			<g enable-background="new    ">
				<defs>
					<path id="SVGID_123_" enable-background="new    " d="M189.834,57.759l-0.875,1.681c-0.219-4.315-0.659-11.439-1.329-21.363
						c-0.391-5.083-1.041-12.104-1.948-21.063l0.875-1.681c0.908,8.959,1.557,15.98,1.948,21.063
						C189.174,46.32,189.614,53.444,189.834,57.759z"/>
				</defs>
				<clipPath id="SVGID_124_">
					<use xlink:href="#SVGID_123_"  overflow="visible"/>
				</clipPath>
				<g clip-path="url(#SVGID_124_)" enable-background="new    ">
					<path fill="#850000" d="M189.834,57.759l-0.875,1.681c-0.219-4.315-0.659-11.439-1.329-21.363
						c-0.391-5.083-1.041-12.104-1.948-21.063l0.875-1.681c0.908,8.959,1.557,15.98,1.948,21.063
						C189.174,46.32,189.614,53.444,189.834,57.759"/>
				</g>
			</g>
			<g>
				<path fill="#F30000" d="M206.566,16.032l-0.647,35.079c1.86,0.065,4.654-0.032,8.372-0.292c0.769-0.041,1.817-0.19,3.156-0.44
					c-0.174,0.73-0.489,2.107-0.946,4.13c-0.241,1.185-0.432,2.575-0.582,4.16l-26.086-0.911c-0.22-4.315-0.66-11.439-1.329-21.363
					c-0.391-5.083-1.041-12.104-1.948-21.063L206.566,16.032z"/>
			</g>
		</g>
		<g enable-background="new    ">
			<g>
				<polygon fill="#810000" points="184.643,57.578 183.768,59.259 157.673,58.347 158.548,56.667 				"/>
			</g>
			<g enable-background="new    ">
				<defs>
					<path id="SVGID_125_" enable-background="new    " d="M158.548,56.667l-0.875,1.681c-0.22-4.315-0.66-11.439-1.329-21.363
						c-0.391-5.083-1.041-12.104-1.948-21.063l0.875-1.681c0.908,8.96,1.557,15.98,1.948,21.063
						C157.888,45.228,158.329,52.352,158.548,56.667z"/>
				</defs>
				<clipPath id="SVGID_126_">
					<use xlink:href="#SVGID_125_"  overflow="visible"/>
				</clipPath>
				<g clip-path="url(#SVGID_126_)" enable-background="new    ">
					<path fill="#850000" d="M158.548,56.667l-0.875,1.681c-0.22-4.315-0.66-11.439-1.329-21.363
						c-0.391-5.083-1.041-12.104-1.948-21.063l0.875-1.681c0.908,8.96,1.557,15.98,1.948,21.063
						C157.888,45.228,158.329,52.352,158.548,56.667"/>
				</g>
			</g>
			<g>
				<path fill="#F30000" d="M175.281,14.939l-0.647,35.08c1.86,0.065,4.654-0.032,8.372-0.292c0.769-0.042,1.817-0.19,3.156-0.44
					c-0.174,0.73-0.489,2.106-0.945,4.13c-0.241,1.185-0.432,2.575-0.573,4.161l-26.095-0.912
					c-0.219-4.315-0.66-11.439-1.329-21.363c-0.391-5.083-1.041-12.104-1.948-21.063L175.281,14.939z"/>
			</g>
		</g>
		<g enable-background="new    ">
			<g enable-background="new    ">
				<defs>
					<path id="SVGID_127_" enable-background="new    " d="M398.445,32.43l-0.875,1.68c-0.063-2.219-0.147-3.965-0.263-5.239
						c-0.085-1.128-0.242-2.615-0.472-4.484l0.875-1.681c0.229,1.87,0.387,3.356,0.472,4.484
						C398.298,28.464,398.383,30.211,398.445,32.43z"/>
				</defs>
				<clipPath id="SVGID_128_">
					<use xlink:href="#SVGID_127_"  overflow="visible"/>
				</clipPath>
				<g clip-path="url(#SVGID_128_)" enable-background="new    ">
					<path fill="#850000" d="M398.445,32.43l-0.875,1.68c-0.063-2.219-0.147-3.965-0.263-5.239
						c-0.085-1.128-0.242-2.615-0.472-4.484l0.875-1.681c0.229,1.87,0.387,3.356,0.472,4.484
						C398.298,28.464,398.383,30.211,398.445,32.43"/>
				</g>
			</g>
			<g enable-background="new    ">
				<defs>
					<path id="SVGID_129_" enable-background="new    " d="M396.034,57.056l-0.875,1.681c-2.274-1.569-5.668-3.913-10.172-7.049
						l0.875-1.68C390.366,53.143,393.76,55.487,396.034,57.056z"/>
				</defs>
				<clipPath id="SVGID_130_">
					<use xlink:href="#SVGID_129_"  overflow="visible"/>
				</clipPath>
				<g clip-path="url(#SVGID_130_)" enable-background="new    ">
					<path fill="#850000" d="M396.034,57.056l-0.875,1.681c-2.274-1.569-5.668-3.913-10.172-7.049l0.875-1.68
						C390.366,53.143,393.76,55.487,396.034,57.056"/>
				</g>
			</g>
			<g enable-background="new    ">
				<defs>
					<path id="SVGID_131_" enable-background="new    " d="M407.771,65.928l-0.875,1.68c-2.569-1.985-6.484-4.939-11.736-8.872
						l0.875-1.681C401.286,60.988,405.201,63.943,407.771,65.928z"/>
				</defs>
				<clipPath id="SVGID_132_">
					<use xlink:href="#SVGID_131_"  overflow="visible"/>
				</clipPath>
				<g clip-path="url(#SVGID_132_)" enable-background="new    ">
					<path fill="#850000" d="M407.771,65.928l-0.875,1.68c-2.569-1.985-6.484-4.939-11.736-8.872l0.875-1.681
						C401.286,60.988,405.201,63.943,407.771,65.928"/>
				</g>
			</g>
			<g enable-background="new    ">
				<defs>
					<path id="SVGID_133_" enable-background="new    " d="M376.708,64.285l-0.875,1.681c-0.265-3.733-0.817-10.784-1.668-21.155
						c-0.715-8.403-1.401-15.493-2.069-21.288l0.875-1.68c0.668,5.794,1.354,12.884,2.069,21.287
						C375.891,53.501,376.443,60.552,376.708,64.285z"/>
				</defs>
				<clipPath id="SVGID_134_">
					<use xlink:href="#SVGID_133_"  overflow="visible"/>
				</clipPath>
				<g clip-path="url(#SVGID_134_)" enable-background="new    ">
					<path fill="#850000" d="M376.708,64.285l-0.875,1.681c-0.265-3.733-0.817-10.784-1.668-21.155
						c-0.715-8.403-1.401-15.493-2.069-21.288l0.875-1.68c0.668,5.794,1.354,12.884,2.069,21.287
						C375.891,53.501,376.443,60.552,376.708,64.285"/>
				</g>
			</g>
			<g>
				<polygon fill="#810000" points="385.991,64.609 385.116,66.29 375.833,65.966 376.708,64.285 				"/>
			</g>
			<g>
				<path fill="#F30000" d="M408.41,23.08c-0.169,3.709-0.357,10.176-0.575,19.401c-0.101,6.792-0.119,14.61-0.064,23.447
					c-2.569-1.985-6.484-4.94-11.736-8.873c-2.274-1.569-5.668-3.913-10.172-7.048l0.129,14.602l-9.283-0.324
					c-0.265-3.733-0.817-10.784-1.668-21.155c-0.715-8.403-1.401-15.493-2.069-21.287l14.474,0.505l11.001,10.082
					c-0.063-2.219-0.147-3.966-0.263-5.239c-0.085-1.128-0.242-2.615-0.472-4.484L408.41,23.08z"/>
			</g>
		</g>
		<g enable-background="new    ">
			<g enable-background="new    ">
				<defs>
					<path id="SVGID_135_" enable-background="new    " d="M359.836,29.897l-0.875,1.68c0.471-2.107,1.02-4.931,1.629-8.456
						l0.875-1.68C360.855,24.965,360.307,27.79,359.836,29.897z"/>
				</defs>
				<clipPath id="SVGID_136_">
					<use xlink:href="#SVGID_135_"  overflow="visible"/>
				</clipPath>
				<g clip-path="url(#SVGID_136_)" enable-background="new    ">
					<path fill="#850000" d="M359.836,29.897l-0.875,1.68c0.471-2.107,1.02-4.931,1.629-8.456l0.875-1.68
						C360.855,24.965,360.307,27.79,359.836,29.897"/>
				</g>
			</g>
			<g>
				<polygon fill="#800000" points="357.177,41.042 356.302,42.723 358.961,31.577 359.836,29.897 				"/>
			</g>
			<g enable-background="new    ">
				<defs>
					<path id="SVGID_137_" enable-background="new    " d="M338.874,32.448l-0.876,1.681c-0.994-3.25-2.257-7.229-3.788-11.929
						l0.875-1.681C336.617,25.219,337.879,29.198,338.874,32.448z"/>
				</defs>
				<clipPath id="SVGID_138_">
					<use xlink:href="#SVGID_137_"  overflow="visible"/>
				</clipPath>
				<g clip-path="url(#SVGID_138_)" enable-background="new    ">
					<path fill="#850000" d="M338.874,32.448l-0.876,1.681c-0.994-3.25-2.257-7.229-3.788-11.929l0.875-1.681
						C336.617,25.219,337.879,29.198,338.874,32.448"/>
				</g>
			</g>
			<g enable-background="new    ">
				<defs>
					<path id="SVGID_139_" enable-background="new    " d="M336.617,40.324l-0.875,1.681c0.516-1.505,1.273-4.127,2.256-7.876
						l0.876-1.681C337.891,36.197,337.133,38.819,336.617,40.324z"/>
				</defs>
				<clipPath id="SVGID_140_">
					<use xlink:href="#SVGID_139_"  overflow="visible"/>
				</clipPath>
				<g clip-path="url(#SVGID_140_)" enable-background="new    ">
					<path fill="#850000" d="M336.617,40.324l-0.875,1.681c0.516-1.505,1.273-4.127,2.256-7.876l0.876-1.681
						C337.891,36.197,337.133,38.819,336.617,40.324"/>
				</g>
			</g>
			<g enable-background="new    ">
				<defs>
					<path id="SVGID_141_" enable-background="new    " d="M319.577,41.692l-0.875,1.681c-1.893-5.304-4.684-12.637-8.373-22.007
						l0.876-1.681C314.895,29.056,317.685,36.388,319.577,41.692z"/>
				</defs>
				<clipPath id="SVGID_142_">
					<use xlink:href="#SVGID_141_"  overflow="visible"/>
				</clipPath>
				<g clip-path="url(#SVGID_142_)" enable-background="new    ">
					<path fill="#850000" d="M319.577,41.692l-0.875,1.681c-1.893-5.304-4.684-12.637-8.373-22.007l0.876-1.681
						C314.895,29.056,317.685,36.388,319.577,41.692"/>
				</g>
			</g>
			<g enable-background="new    ">
				<defs>
					<path id="SVGID_143_" enable-background="new    " d="M348.247,63.291l-0.875,1.681c-1.073-3.888-2.986-10.539-5.748-19.952
						l0.875-1.681C345.261,52.752,347.174,59.403,348.247,63.291z"/>
				</defs>
				<clipPath id="SVGID_144_">
					<use xlink:href="#SVGID_143_"  overflow="visible"/>
				</clipPath>
				<g clip-path="url(#SVGID_144_)" enable-background="new    ">
					<path fill="#850000" d="M348.247,63.291l-0.875,1.681c-1.073-3.888-2.986-10.539-5.748-19.952l0.875-1.681
						C345.261,52.752,347.174,59.403,348.247,63.291"/>
				</g>
			</g>
			<g>
				<polygon fill="#810000" points="358.594,63.652 357.719,65.333 347.372,64.972 348.247,63.291 				"/>
			</g>
			<g>
				<polygon fill="#810000" points="336.68,62.887 335.804,64.568 325.6,64.211 326.475,62.531 				"/>
			</g>
			<g>
				<path fill="#F30000" d="M371.5,21.791c-1.563,4.481-3.984,11.844-7.27,22.087c-1.423,4.766-3.3,11.36-5.637,19.774
					l-10.347-0.361c-1.073-3.888-2.986-10.539-5.748-19.952c-1.441,4.748-3.382,11.264-5.819,19.548l-10.205-0.356
					c-1.35-4.244-3.651-11.196-6.897-20.838c-1.893-5.304-4.683-12.637-8.372-22.007l19.664,0.687
					c0.459,1.818,1.249,4.757,2.382,8.816l3.366,11.135c0.516-1.505,1.273-4.127,2.257-7.876c-0.995-3.25-2.257-7.229-3.789-11.929
					l17.875,0.624c0.36,1.781,0.946,4.654,1.767,8.634c0.597,2.645,1.41,6.405,2.45,11.265l2.659-11.145
					c0.471-2.107,1.02-4.932,1.629-8.456L371.5,21.791z"/>
			</g>
			<g enable-background="new    ">
				<defs>
					<path id="SVGID_145_" enable-background="new    " d="M326.475,62.531l-0.875,1.681c-1.35-4.245-3.651-11.196-6.897-20.838
						l0.875-1.681C322.823,51.334,325.125,58.287,326.475,62.531z"/>
				</defs>
				<clipPath id="SVGID_146_">
					<use xlink:href="#SVGID_145_"  overflow="visible"/>
				</clipPath>
				<g clip-path="url(#SVGID_146_)" enable-background="new    ">
					<path fill="#850000" d="M326.475,62.531l-0.875,1.681c-1.35-4.245-3.651-11.196-6.897-20.838l0.875-1.681
						C322.823,51.334,325.125,58.287,326.475,62.531"/>
				</g>
			</g>
		</g>
		<g enable-background="new    ">
			<g enable-background="new    ">
				<defs>
					<path id="SVGID_147_" enable-background="new    " d="M295.469,49.767l-0.875,1.681c0.913-1.752,1.334-3.584,1.28-5.486
						c-0.145-5.108-2.023-7.729-5.638-7.855c-1.965-0.069-3.355,0.686-4.176,2.261l0.875-1.68c0.82-1.576,2.211-2.33,4.176-2.261
						c3.614,0.126,5.493,2.748,5.638,7.855C296.803,46.183,296.382,48.015,295.469,49.767z"/>
				</defs>
				<clipPath id="SVGID_148_">
					<use xlink:href="#SVGID_147_"  overflow="visible"/>
				</clipPath>
				<g clip-path="url(#SVGID_148_)" enable-background="new    ">
					<path fill="#850000" d="M295.469,49.767l-0.875,1.681c0.913-1.752,1.334-3.584,1.28-5.486
						c-0.145-5.108-2.023-7.729-5.638-7.855c-1.965-0.069-3.355,0.686-4.176,2.261l0.875-1.68c0.82-1.576,2.211-2.33,4.176-2.261
						c3.614,0.126,5.493,2.748,5.638,7.855C296.803,46.183,296.382,48.015,295.469,49.767"/>
				</g>
			</g>
			<g enable-background="new    ">
				<defs>
					<path id="SVGID_149_" enable-background="new    " d="M307.791,52.913l-0.875,1.681c-0.6,1.151-1.298,2.242-2.096,3.273
						c-3.535,4.564-8.173,6.739-13.895,6.539c-5.908-0.206-10.749-2.728-14.532-7.582c-3.571-4.567-5.444-10.1-5.627-16.588
						c-0.137-4.834,0.661-8.911,2.392-12.233l0,0c0.146-0.28,0.291-0.56,0.438-0.84c0.146-0.28,0.291-0.56,0.438-0.84
						c-1.73,3.322-2.528,7.398-2.392,12.233c0.183,6.488,2.056,12.021,5.627,16.588c3.783,4.854,8.624,7.376,14.532,7.583
						c5.722,0.2,10.359-1.975,13.895-6.539C306.493,55.155,307.191,54.064,307.791,52.913z"/>
				</defs>
				<clipPath id="SVGID_150_">
					<use xlink:href="#SVGID_149_"  overflow="visible"/>
				</clipPath>
				<g clip-path="url(#SVGID_150_)" enable-background="new    ">
					<path fill="#850000" d="M307.791,52.913l-0.875,1.681c-0.6,1.151-1.298,2.242-2.096,3.273
						c-3.535,4.564-8.173,6.739-13.895,6.539c-5.908-0.206-10.749-2.728-14.532-7.582c-3.571-4.567-5.444-10.1-5.627-16.588
						c-0.137-4.834,0.661-8.911,2.392-12.233l0.875-1.68c-1.73,3.322-2.528,7.398-2.392,12.233
						c0.183,6.488,2.056,12.021,5.627,16.588c3.783,4.854,8.624,7.376,14.532,7.583c5.722,0.2,10.359-1.975,13.895-6.539
						C306.493,55.155,307.191,54.064,307.791,52.913"/>
				</g>
			</g>
			<g>
				<path fill="#F30000" d="M304.398,23.417c3.859,4.104,5.891,9.599,6.086,16.495c0.183,6.488-1.417,11.916-4.789,16.275
					c-3.535,4.564-8.173,6.739-13.895,6.539c-5.908-0.207-10.749-2.729-14.532-7.583c-3.571-4.567-5.444-10.1-5.627-16.588
					c-0.196-6.929,1.528-12.302,5.165-16.127c3.429-3.586,8-5.289,13.714-5.089C296.127,17.534,300.759,19.566,304.398,23.417z
					 M295.353,49.986c0.993-1.819,1.452-3.724,1.396-5.706c-0.145-5.108-2.023-7.729-5.638-7.855
					c-3.517-0.123-5.197,2.391-5.052,7.533c0.059,2.066,0.572,3.997,1.544,5.816c1.094,2.036,2.397,3.088,3.921,3.141
					C293.003,52.967,294.276,51.988,295.353,49.986"/>
			</g>
		</g>
		<g enable-background="new    ">
			<g enable-background="new    ">
				<defs>
					<path id="SVGID_151_" enable-background="new    " d="M256.907,48.01l-0.875,1.681c0.745-1.43,1.089-3.198,1.029-5.306
						c-0.076-2.702-1.045-4.733-2.915-6.076c-1.421-1.031-3.189-1.586-5.303-1.66c-0.184-0.006-0.37-0.009-0.559-0.008l0.875-1.681
						c0.188-0.001,0.375,0.002,0.559,0.008c2.113,0.074,3.882,0.629,5.303,1.661c1.87,1.343,2.839,3.374,2.915,6.076
						C257.996,44.813,257.652,46.58,256.907,48.01z"/>
				</defs>
				<clipPath id="SVGID_152_">
					<use xlink:href="#SVGID_151_"  overflow="visible"/>
				</clipPath>
				<g clip-path="url(#SVGID_152_)" enable-background="new    ">
					<path fill="#850000" d="M256.907,48.01l-0.875,1.681c0.745-1.43,1.089-3.198,1.029-5.306c-0.076-2.702-1.045-4.733-2.915-6.076
						c-1.421-1.031-3.189-1.586-5.303-1.66c-0.184-0.006-0.37-0.009-0.559-0.008l0.875-1.681c0.188-0.001,0.375,0.002,0.559,0.008
						c2.113,0.074,3.882,0.629,5.303,1.661c1.87,1.343,2.839,3.374,2.915,6.076C257.996,44.813,257.652,46.58,256.907,48.01"/>
				</g>
			</g>
			<g enable-background="new    ">
				<defs>
					<path id="SVGID_153_" enable-background="new    " d="M231.641,38.757l-0.875,1.681c-0.406-5.269-1.062-12.536-1.969-21.809
						l0.875-1.681C230.579,26.221,231.235,33.488,231.641,38.757z"/>
				</defs>
				<clipPath id="SVGID_154_">
					<use xlink:href="#SVGID_153_"  overflow="visible"/>
				</clipPath>
				<g clip-path="url(#SVGID_154_)" enable-background="new    ">
					<path fill="#850000" d="M231.641,38.757l-0.875,1.681c-0.406-5.269-1.062-12.536-1.969-21.809l0.875-1.681
						C230.579,26.221,231.235,33.488,231.641,38.757"/>
				</g>
			</g>
			<g>
				<polygon fill="#800000" points="232.998,59.267 232.123,60.947 230.766,40.438 231.641,38.757 				"/>
			</g>
			<g enable-background="new    ">
				<defs>
					<path id="SVGID_155_" enable-background="new    " d="M267.527,50.252l-0.875,1.68c-0.967,1.858-2.263,3.493-3.886,4.906
						c-4.327,3.801-10.533,5.556-18.603,5.274c-5.19-0.181-9.201-0.567-12.041-1.165l0.875-1.681
						c2.84,0.598,6.851,0.984,12.041,1.165c8.069,0.282,14.276-1.473,18.603-5.274C265.265,53.745,266.561,52.11,267.527,50.252z"/>
				</defs>
				<clipPath id="SVGID_156_">
					<use xlink:href="#SVGID_155_"  overflow="visible"/>
				</clipPath>
				<g clip-path="url(#SVGID_156_)" enable-background="new    ">
					<path fill="#850000" d="M267.527,50.252l-0.875,1.68c-0.967,1.858-2.263,3.493-3.886,4.906
						c-4.327,3.801-10.533,5.556-18.603,5.274c-5.19-0.181-9.201-0.567-12.041-1.165l0.875-1.681
						c2.84,0.598,6.851,0.984,12.041,1.165c8.069,0.282,14.276-1.473,18.603-5.274C265.265,53.745,266.561,52.11,267.527,50.252"/>
				</g>
			</g>
			<g>
				<path fill="#F30000" d="M261.856,22.625c4.998,4.025,7.593,9.726,7.801,17.104c0.187,6.632-1.817,11.775-6.016,15.428
					c-4.326,3.801-10.533,5.556-18.603,5.274c-5.19-0.181-9.201-0.567-12.041-1.165l-1.357-20.51
					c-0.406-5.269-1.062-12.536-1.969-21.809c4.156-0.422,8.497-0.549,13.032-0.391C250.8,16.84,257.184,18.857,261.856,22.625z
					 M255.209,50.158c1.909-1.643,2.821-4.124,2.728-7.453c-0.076-2.703-1.045-4.733-2.915-6.076
					c-1.421-1.031-3.189-1.587-5.303-1.661c-0.184-0.006-0.37-0.009-0.559-0.008l0.081,17.274
					C251.699,52.176,253.688,51.484,255.209,50.158"/>
			</g>
		</g>
		<g enable-background="new    ">
			<g enable-background="new    ">
				<defs>
					<path id="SVGID_157_" enable-background="new    " d="M428.828,63.872c-0.291,0.561-0.584,1.121-0.875,1.681
						c-0.303,0.583-0.764,1.105-1.382,1.567c-1.248,0.938-2.722,1.377-4.414,1.318c-1.808-0.063-3.371-0.608-4.692-1.636
						c-1.33-1.028-2.011-2.278-2.053-3.744c-0.021-0.773,0.128-1.468,0.448-2.083c0.292-0.561,0.584-1.12,0.875-1.681
						c-0.32,0.616-0.47,1.31-0.448,2.083c0.042,1.465,0.724,2.716,2.054,3.744c1.32,1.027,2.884,1.573,4.691,1.636
						c1.692,0.06,3.166-0.38,4.414-1.318C428.064,64.977,428.525,64.455,428.828,63.872z"/>
				</defs>
				<clipPath id="SVGID_158_">
					<use xlink:href="#SVGID_157_"  overflow="visible"/>
				</clipPath>
				<g clip-path="url(#SVGID_158_)" enable-background="new    ">
					<path fill="#850000" d="M428.828,63.872l-0.875,1.681c-0.303,0.583-0.764,1.105-1.382,1.567
						c-1.248,0.938-2.722,1.377-4.414,1.318c-1.808-0.063-3.371-0.608-4.692-1.636c-1.33-1.028-2.011-2.278-2.053-3.744
						c-0.021-0.773,0.128-1.468,0.448-2.083l0.875-1.681c-0.32,0.615-0.47,1.31-0.448,2.083c0.042,1.465,0.724,2.716,2.054,3.744
						c1.32,1.027,2.884,1.573,4.691,1.636c1.692,0.06,3.166-0.38,4.414-1.318C428.064,64.977,428.525,64.455,428.828,63.872"/>
				</g>
			</g>
			<g>
				<path fill="#F30000" d="M427.23,58.095c1.312,1.036,1.994,2.295,2.036,3.786c0.04,1.432-0.564,2.621-1.82,3.559
					c-1.248,0.938-2.722,1.377-4.414,1.318c-1.808-0.063-3.371-0.608-4.691-1.636c-1.33-1.028-2.012-2.279-2.054-3.744
					c-0.042-1.491,0.554-2.689,1.784-3.594c1.231-0.896,2.794-1.315,4.672-1.25C424.462,56.593,425.954,57.111,427.23,58.095z"/>
			</g>
		</g>
		<g enable-background="new    ">
			<g enable-background="new    ">
				<defs>
					<path id="SVGID_159_" enable-background="new    " d="M416.936,38.56l-0.875,1.68c-0.76-3.132-1.932-8.233-3.511-15.304
						l0.875-1.681C415.004,30.326,416.176,35.427,416.936,38.56z"/>
				</defs>
				<clipPath id="SVGID_160_">
					<use xlink:href="#SVGID_159_"  overflow="visible"/>
				</clipPath>
				<g clip-path="url(#SVGID_160_)" enable-background="new    ">
					<path fill="#850000" d="M416.936,38.56l-0.875,1.68c-0.76-3.132-1.932-8.233-3.511-15.304l0.875-1.681
						C415.004,30.326,416.176,35.427,416.936,38.56"/>
				</g>
			</g>
			<g enable-background="new    ">
				<defs>
					<path id="SVGID_161_" enable-background="new    " d="M419.778,53.366l-0.875,1.681c-0.545-3.006-1.49-7.947-2.843-14.807
						l0.875-1.68C418.288,45.419,419.233,50.36,419.778,53.366z"/>
				</defs>
				<clipPath id="SVGID_162_">
					<use xlink:href="#SVGID_161_"  overflow="visible"/>
				</clipPath>
				<g clip-path="url(#SVGID_162_)" enable-background="new    ">
					<path fill="#850000" d="M419.778,53.366l-0.875,1.681c-0.545-3.006-1.49-7.947-2.843-14.807l0.875-1.68
						C418.288,45.419,419.233,50.36,419.778,53.366"/>
				</g>
			</g>
			<g enable-background="new    ">
				<defs>
					<path id="SVGID_163_" enable-background="new    " d="M426.354,52.775l-0.875,1.681c-0.097,0.014-1.121,0.088-3.073,0.223
						c-1.095,0.088-2.26,0.208-3.503,0.368l0.875-1.681c1.244-0.16,2.408-0.28,3.503-0.368
						C425.233,52.863,426.258,52.789,426.354,52.775z"/>
				</defs>
				<clipPath id="SVGID_164_">
					<use xlink:href="#SVGID_163_"  overflow="visible"/>
				</clipPath>
				<g clip-path="url(#SVGID_164_)" enable-background="new    ">
					<path fill="#850000" d="M426.354,52.775l-0.875,1.681c-0.097,0.014-1.121,0.088-3.073,0.223
						c-1.095,0.088-2.26,0.208-3.503,0.368l0.875-1.681c1.244-0.16,2.408-0.28,3.503-0.368
						C425.233,52.863,426.258,52.789,426.354,52.775"/>
				</g>
			</g>
			<g>
				<path fill="#F30000" d="M419.778,53.366c-0.545-3.006-1.49-7.947-2.843-14.807c-0.76-3.133-1.932-8.234-3.511-15.304
					l17.964,0.627c-0.949,4.325-1.916,9.258-2.893,14.81c-0.486,2.513-0.972,5.043-1.458,7.573
					c-0.531,2.833-0.786,4.763-0.757,5.788c0.008,0.296,0.032,0.534,0.073,0.722c-0.097,0.014-1.121,0.088-3.073,0.223
					C422.187,53.086,421.022,53.207,419.778,53.366z"/>
			</g>
		</g>
	</g>
</g>
</svg>
