<?xml version="1.0" encoding="utf-8"?>
<!-- Generator: Adobe Illustrator 16.0.0, SVG Export Plug-In . SVG Version: 6.00 Build 0)  -->
<!DOCTYPE svg PUBLIC "-//W3C//DTD SVG 1.1//EN" "http://www.w3.org/Graphics/SVG/1.1/DTD/svg11.dtd">
<svg version="1.1" id="Layer_1" xmlns="http://www.w3.org/2000/svg" xmlns:xlink="http://www.w3.org/1999/xlink" x="0px" y="0px"
	 width="943.025px" height="229.564px" viewBox="0 0 943.025 229.564" enable-background="new 0 0 943.025 229.564"
	 xml:space="preserve">
<g>
	<g>
		<g>
			<path fill="#FDCB6E" d="M850.571,72.437c-0.366-3.896-2.879-7.271-6.521-8.704c-20.94-8.269-42.229-15.85-63.847-22.699
				c-2.161-0.686-4.492-0.64-6.63,0.117l-13.833,4.896v17.019l91.368,15.146L850.571,72.437z"/>
			<path fill="#FDCB6E" d="M143.825,53.202c-22.483,8.104-44.593,16.993-66.299,26.646c-3.63,1.611-5.958,5.229-5.958,9.2V94.4
				l13.745,9.541l76.001-40.237l-6.423-7.539C152.175,52.974,147.764,51.783,143.825,53.202z"/>
		</g>
		<path fill="#FDD58B" d="M958.996,130.275V247h-958V130.275c141.67-79.409,305.052-124.691,479-124.691
			C653.955,5.584,817.34,50.866,958.996,130.275z"/>
		<g opacity="0.1">
			
				<linearGradient id="SVGID_1_" gradientUnits="userSpaceOnUse" x1="619.1787" y1="985.3337" x2="-339.0702" y2="985.3337" gradientTransform="matrix(1 0 0 1 336 -745.4355)">
				<stop  offset="0" style="stop-color:#231F20;stop-opacity:0.2"/>
				<stop  offset="1" style="stop-color:#000000;stop-opacity:0.7"/>
			</linearGradient>
			<path fill="url(#SVGID_1_)" d="M0.996,232.797V247h387.25c-17.563-3.229-35.037-7.276-52.397-12.233"/>
		</g>
		
			<ellipse transform="matrix(0.9901 -0.1407 0.1407 0.9901 -4.935 42.5297)" fill="#FDCB6E" cx="298.306" cy="56.165" rx="70.904" ry="14.692"/>
		
			<ellipse transform="matrix(0.9897 0.1432 -0.1432 0.9897 14.2013 -96.8934)" fill="#FDCB6E" cx="680.259" cy="50.216" rx="44.621" ry="9.246"/>
		<path fill="#FDCB6E" d="M368.679,47.516c-0.032-0.229-0.098-0.452-0.173-0.676c-0.488,7.969-30.387,18.517-68.134,23.875
			c-37.746,5.363-69.399,3.563-72.087-3.95c-0.011,0.23-0.012,0.466,0.021,0.692c1.244,8.758,33.677,11.396,72.439,5.885
			C339.509,67.839,369.924,56.274,368.679,47.516z"/>
		<path fill="#FDCB6E" d="M678.935,59.377c-23.824-3.444-42.673-10.169-42.841-15.188c-0.039,0.12-0.077,0.241-0.097,0.366
			c-0.788,5.447,18.344,12.729,42.731,16.258c24.388,3.525,44.797,1.973,45.588-3.479c0.018-0.126,0.013-0.252,0.011-0.379
			C722.742,61.722,702.767,62.824,678.935,59.377z"/>
		<path fill="#BE9853" d="M296.239,42.352c36.631-5.205,67.652-2.715,72.077,5.453c0.185-0.547,0.252-1.078,0.178-1.604
			c-1.142-8.03-33.49-10.078-72.255-4.57c-38.763,5.509-69.262,16.483-68.12,24.518c0.062,0.435,0.232,0.849,0.471,1.248
			C231.077,58.368,259.973,47.504,296.239,42.352z"/>
		<path fill="#BE9853" d="M681.584,42.391c22.861,3.307,41.146,9.629,42.741,14.566c0.038-0.11,0.076-0.226,0.093-0.344
			c0.731-5.054-18.446-12.01-42.834-15.539c-24.389-3.529-44.752-2.295-45.482,2.759c-0.046,0.317-0.015,0.644,0.097,0.975
			C637.79,40.045,657.762,38.943,681.584,42.391z"/>
	</g>
</g>
</svg>
