<svg height="505pt" viewBox="0 0 505.38788 505" width="505pt" xmlns="http://www.w3.org/2000/svg"><path d="m493.320312 231.089844-22.246093 22.242187-29.628907 29.628907-57.996093 58c-3.023438 3.105468-5.792969 5.875-8.898438 8.894531l-6.042969 6.042969-17.457031-17.792969-199.429687-202.953125 4.113281-4.113282c2.855469-2.9375 5.457031-5.539062 8.898437-8.898437l109.867188-109.867187c2.351562-2.378907 5.554688-3.714844 8.898438-3.714844s6.546874 1.335937 8.898437 3.714844l201.023437 201.019531c4.867188 4.933593 4.867188 12.863281 0 17.796875zm0 0" fill="#ad1457"/><path d="m475.691406 213.460938-22.242187 22.246093-42.21875 42.21875-45.410157 45.40625c-3.019531 3.105469-5.789062 5.792969-8.894531 8.898438l-6.042969 6.042969-199.429687-202.953126 4.28125-4.28125c2.855469-2.9375 5.457031-5.539062 8.898437-8.898437l109.867188-109.867187c2.351562-2.378907 5.554688-3.714844 8.898438-3.714844s6.546874 1.335937 8.898437 3.714844l183.394531 183.394531c4.867188 4.933593 4.867188 12.863281 0 17.792969zm0 0" fill="#e91e63"/><path d="m471.074219 253.332031-71.761719 71.761719-220.414062-217.21875.167968-.167969 202.953125 200.097657 59.257813-59.257813zm0 0" fill="#6a1b9a"/><path d="m441.277344 248.546875-59.257813 59.257813-202.953125-200.097657 43.730469-43.730469 46.5-4.03125 3.359375-.335937c3.804688-.402344 7.589844.898437 10.34375 3.554687s4.191406 6.394532 3.921875 10.210938l-3.355469 35.925781-.335937 3.1875c-.265625 3.503907.90625 6.964844 3.253906 9.578125 2.34375 2.617188 5.65625 4.160156 9.167969 4.273438l100.300781 4.53125 5.121094.25c2.566406.160156 5.039062 1.03125 7.132812 2.519531.65625.488281 1.273438 1.019531 1.847657 1.59375 2.621093 2.664063 3.914062 6.359375 3.527343 10.074219l-9.570312 82.757812-.25 2.183594c-.714844 6.84375 4.101562 13.03125 10.910156 14.015625zm0 0" fill="#9d27b0"/><path d="m441.445312 282.960938-57.996093 58c-3.023438 3.105468-5.792969 5.875-8.898438 8.894531l-6.042969 6.042969-17.457031-17.792969 5.875-5.875c3.105469-3.105469 5.875-5.792969 8.894531-8.898438l45.410157-45.40625zm0 0" fill="#37474f"/><path d="m411.230469 277.925781-45.410157 45.40625c-3.019531 3.105469-5.789062 5.792969-8.894531 8.898438l-5.875 5.875-199.429687-202.953125 4.113281-4.113282c2.855469-2.9375 5.457031-5.539062 8.898437-8.898437l27.613282-27.613281 47.421875-4.28125 4.363281-.417969c3.71875-.316406 7.382812 1.023437 10.019531 3.660156 2.640625 2.636719 3.980469 6.304688 3.664063 10.019531l-3.191406 35.085938-.335938 3.691406c-.3125 3.414063.78125 6.808594 3.03125 9.390625 2.253906 2.585938 5.464844 4.136719 8.890625 4.292969l95.097656 4.53125 6.042969.25c3.46875.207031 6.703125 1.816406 8.953125 4.464844 2.25 2.648437 3.320313 6.097656 2.964844 9.554687l-9.148438 81.667969-.253906 2.519531c-.726563 6.667969 3.878906 12.742188 10.492187 13.847657zm0 0" fill="#607d8b"/><path d="m351.050781 338.105469-.167969.167969-199.429687-202.953126.167969-.167968zm0 0" fill="#35495e"/><path d="m197.449219 341.042969-.167969-.167969-10.15625 5.707031c-23.089844 13.78125-42.957031 32.355469-58.25 54.472657l-53.96875 69.75c-12.507812 12.589843-38.105469 7.976562-55.816406-3.105469 2.265625 3.527343 4.882812 6.816406 7.804687 9.820312 16.285157 16.285157 50.527344 26.105469 65.636719 10.914063l53.96875-69.75c15.296875-22.121094 35.160156-40.695313 58.25-54.476563l10.15625-5.707031zm0 0" fill="#f57c00"/><path d="m374.550781 349.855469-54.726562 54.726562c-11.75 11.75-28.03125 7.132813-40.875.082031-22.996094-12.957031-44.476563-28.441406-64.042969-46.164062l-17.625-17.625-51.367188-51.453125c-17.261718-19.207031-32.351562-40.261719-44.988281-62.78125-7.050781-12.84375-11.667969-29.210937.082031-40.875l54.726563-54.726563zm0 0" fill="#ff9801"/><path d="m145.914062 289.421875-5.707031 10.242187c-13.78125 23.089844-32.355469 42.957032-54.472656 58.25l-69.75 53.96875c-12.589844 12.507813-7.976563 38.105469 3.105469 55.816407 17.710937 11.082031 43.308594 15.695312 55.816406 3.105469l53.96875-69.75c15.292969-22.117188 35.160156-40.691407 58.25-54.472657l10.15625-5.707031zm-68.238281 161.15625c-4.238281 6.386719-12.199219 9.191406-19.503906 6.875-7.308594-2.320313-12.191406-9.203125-11.972656-16.863281.199219-7.296875 4.984375-13.675782 11.9375-15.898438 6.953125-2.226562 14.554687.183594 18.953125 6.011719 4.398437 5.828125 4.632812 13.796875.585937 19.875zm0 0" fill="#ff9801"/><path d="m133.910156 117.527344h.085938l-.085938.082031zm0 0" fill="#35495e"/><path d="m356.925781 332.230469-54.726562 54.726562c-11.75 11.75-28.035157 7.132813-40.875.082031-22.921875-12.929687-44.34375-28.355468-63.875-45.996093l-.167969-.167969-51.367188-51.453125c-17.261718-19.207031-32.351562-40.261719-44.988281-62.78125-7.050781-12.84375-11.667969-29.210937.082031-40.875l54.726563-54.726563zm0 0" fill="#fec108"/><path d="m298.210938 6.335938c-8.191407-8.191407-21.476563-8.191407-29.667969 0l-109.871094 109.855468c-3.21875 3.234375-5.28125 7.4375-5.875 11.960938-4.515625.59375-8.710937 2.660156-11.9375 5.875l-45.800781 45.804687c-12.289063 12.203125-12.835938 30.265625-1.535156 50.84375 11.941406 21.332031 26.085937 41.351563 42.210937 59.730469l-2.90625 5.21875c-13.175781 22.109375-30.992187 41.09375-52.214844 55.648438l-69.75 53.972656c-.277343.210937-.535156.441406-.78125.6875-6.863281 7.3125-10.484375 17.082031-10.0468748 27.101562.4726558 18.824219 7.9335938 36.800782 20.9257818 50.429688 13.613281 12.972656 31.558593 20.429687 50.359374 20.921875h.058594c10.019532.429687 19.789063-3.199219 27.09375-10.070313.25-.246094.476563-.503906.691406-.78125l54.058594-69.875c14.550782-21.210937 33.53125-39.011718 55.632813-52.164062l5.085937-2.863282c18.726563 16.59375 39.164063 31.148438 60.972656 43.417969 8.265626 4.949219 17.65625 7.722657 27.285157 8.058594 8.835937.132813 17.351562-3.332031 23.585937-9.59375l45.828125-45.820313c3.214844-3.226562 5.277344-7.421874 5.875-11.933593 4.519531-.597657 8.71875-2.660157 11.953125-5.875l109.804688-109.839844c8.191406-8.191406 8.191406-21.476563 0-29.667969zm61.507812 346.492187-45.828125 45.792969c-6.714844 6.714844-17.097656 6.238281-30.929687-1.351563-22.453126-12.644531-43.421876-27.769531-62.503907-45.089843-.066406-.058594-.152343-.066407-.21875-.125-.496093-.363282-1.03125-.675782-1.59375-.921876-.414062-.25-.847656-.46875-1.292969-.648437-.484374-.105469-.976562-.171875-1.46875-.191406-.554687-.105469-1.117187-.152344-1.679687-.144531-.441406.082031-.875.199218-1.300781.34375-.628906.128906-1.238282.320312-1.820313.582031-.078125.039062-.167969.039062-.253906.082031l-10.070313 5.675781c-24.15625 14.253907-44.914062 33.597657-60.835937 56.6875l-53.609375 69.289063c-4.21875 3.375-9.535156 5.078125-14.933594 4.785156h-.066406c-14.332031-.546875-27.992188-6.226562-38.484375-16.007812-9.796875-10.507813-15.476563-24.195313-16.003906-38.550782-.292969-5.375 1.402343-10.671875 4.757812-14.882812l69.160157-53.515625c23.128906-15.921875 42.507812-36.691407 56.800781-60.859375l5.699219-10.242188c0-.074218 0-.160156.074218-.234375.253906-.5625.445313-1.148437.5625-1.753906.164063-.449219.285156-.914063.359375-1.386719.011719-.527344-.035156-1.054687-.132812-1.578125.058593-1.019531-.238281-2.027343-.839844-2.851562-.25-.570313-.5625-1.109375-.929687-1.613281-.050782-.066407-.058594-.148438-.117188-.207032-16.875-18.730468-31.613281-39.28125-43.941406-61.273437-7.597656-13.839844-8.050782-24.230469-1.335938-30.90625l45.855469-45.851563c1.632813-1.601562 4.242187-1.601562 5.875 0l201.046875 201.023438c1.632812 1.636718 1.632812 4.289062 0 5.925781zm17.804688-17.792969c-1.632813 1.597656-4.246094 1.597656-5.875 0l-201.074219-201.035156c-1.601563-1.628906-1.601563-4.242188 0-5.875l25.421875-25.421875 48.800781-4.441406c1.238281-.109375 2.460937.335937 3.339844 1.214843.878906.882813 1.320312 2.105469 1.210937 3.34375l-3.519531 38.734376c-.515625 5.699218 1.316406 11.363281 5.074219 15.675781 3.757812 4.316406 9.113281 6.910156 14.828125 7.179687l101.125 4.820313c1.160156.050781 2.242187.582031 2.996093 1.464843.753907.882813 1.109376 2.039063.980469 3.191407l-9.375 84.179687c-1.25 11.085938 6.394531 21.210938 17.398438 23.046875l45.097656 7.511719zm109.851562-109.855468-48.832031 48.832031-56.933594-9.492188c-2.195313-.367187-3.71875-2.386719-3.472656-4.597656l9.355469-84.246094c.640624-5.753906-1.125-11.515625-4.878907-15.921875-3.753906-4.410156-9.164062-7.070312-14.945312-7.355468l-101.125-4.816407c-1.140625-.054687-2.210938-.574219-2.960938-1.433593-.757812-.859376-1.125-1.992188-1.015625-3.132813l3.515625-38.726563c.566407-6.203124-1.652343-12.332031-6.054687-16.738281-4.398438-4.40625-10.53125-6.628906-16.734375-6.066406l-28.738281 2.609375 65.820312-65.878906c1.640625-1.640625 4.296875-1.640625 5.9375 0l201.0625 201.03125c1.640625 1.636718 1.640625 4.296875 0 5.933594zm0 0"/><path d="m45.277344 422.964844c-9.988282 9.988281-9.988282 26.1875 0 36.175781 9.992187 9.992187 26.191406 9.992187 36.179687 0 9.992188-9.988281 9.992188-26.1875.003907-36.175781-4.777344-4.84375-11.292969-7.566406-18.09375-7.566406-6.796876 0-13.316407 2.722656-18.089844 7.566406zm24.339844 24.339844c-3.476563 3.335937-8.96875 3.335937-12.445313 0-3.4375-3.4375-3.433594-9.007813.003906-12.445313 3.4375-3.433594 9.007813-3.433594 12.441407.003906 3.417968 3.449219 3.40625 9.007813-.023438 12.441407zm0 0"/><path d="m161.652344 173.726562c-3.292969-3.179687-8.527344-3.132812-11.765625.105469-3.238281 3.234375-3.285157 8.472657-.105469 11.765625l42.558594 42.546875c3.292968 3.179688 8.527344 3.132813 11.765625-.105469 3.234375-3.234374 3.28125-8.472656.101562-11.765624zm0 0"/><path d="m228.523438 240.589844c-3.292969-3.179688-8.53125-3.136719-11.765626.101562-3.238281 3.238282-3.285156 8.472656-.105468 11.765625l12.15625 12.164063c2.105468 2.179687 5.226562 3.054687 8.160156 2.289062 2.9375-.769531 5.226562-3.058594 5.996094-5.996094.769531-2.933593-.105469-6.054687-2.289063-8.160156zm0 0"/></svg>