<?xml version="1.0" encoding="utf-8"?>
<!-- Generator: Adobe Illustrator 16.0.0, SVG Export Plug-In . SVG Version: 6.00 Build 0)  -->
<!DOCTYPE svg PUBLIC "-//W3C//DTD SVG 1.1//EN" "http://www.w3.org/Graphics/SVG/1.1/DTD/svg11.dtd">
<svg version="1.1" id="Layer_1" xmlns="http://www.w3.org/2000/svg" xmlns:xlink="http://www.w3.org/1999/xlink" x="0px" y="0px"
	 width="98.995px" height="98.995px" viewBox="0 0 98.995 98.995" enable-background="new 0 0 98.995 98.995" xml:space="preserve">
<g>
	<g>
		<path fill="#fdcb6e" d="M86.529,44.216l-0.016-0.007c-0.771-0.446-1.308-1.189-1.528-2.051c-0.799-3.102-2.026-6.107-3.687-8.936
			c-0.453-0.766-0.601-1.672-0.372-2.526l0,0c1.55-5.787-3.742-11.079-9.524-9.528l0,0c-0.859,0.231-1.766,0.081-2.531-0.372
			c-2.824-1.662-5.834-2.888-8.936-3.687c-0.858-0.221-1.604-0.755-2.052-1.529l-0.007-0.015c-2.993-5.186-10.478-5.186-13.469,0
			l-0.012,0.015c-0.444,0.773-1.188,1.304-2.051,1.529c-3.098,0.799-6.106,2.025-8.936,3.687c-0.762,0.453-1.669,0.604-2.527,0.372
			l0,0c-5.782-1.551-11.074,3.741-9.524,9.528l0,0c0.229,0.854,0.077,1.76-0.372,2.526c-1.66,2.829-2.887,5.834-3.686,8.936
			c-0.226,0.862-0.759,1.605-1.529,2.051l-0.015,0.007c-5.186,2.995-5.186,10.479,0,13.47l0.015,0.011
			c0.77,0.447,1.303,1.19,1.529,2.052c0.799,3.102,2.026,6.106,3.686,8.935c0.449,0.766,0.601,1.673,0.372,2.527l0,0
			c-1.55,5.782,3.742,11.078,9.524,9.524l0,0c0.858-0.229,1.766-0.077,2.527,0.372c2.829,1.66,5.838,2.888,8.936,3.687
			c0.862,0.225,1.606,0.758,2.051,1.532l0.012,0.016c2.991,5.182,10.476,5.182,13.469,0l0.007-0.016
			c0.447-0.774,1.19-1.308,2.052-1.532c3.102-0.799,6.111-2.026,8.936-3.687c0.766-0.449,1.672-0.601,2.531-0.372l0,0
			c5.782,1.554,11.074-3.742,9.524-9.524l0,0c-0.229-0.854-0.081-1.762,0.372-2.527c1.66-2.829,2.888-5.833,3.687-8.935
			c0.221-0.861,0.758-1.605,1.528-2.052l0.016-0.011C91.715,54.695,91.715,47.211,86.529,44.216z"/>
		<path fill="#cca358" d="M51.454,41.974c3.196,3.197,3.196,8.383,0,11.58c-3.196,3.197-8.38,3.197-11.581,0
			c-3.196-3.197-3.196-8.383,0-11.58C43.074,38.777,48.258,38.777,51.454,41.974z"/>
		<path fill="#cca358" d="M80.146,45.532c3.196,3.197,3.196,8.379,0,11.576c-3.196,3.201-8.383,3.201-11.579,0
			c-3.198-3.197-3.198-8.378,0-11.576C71.763,42.331,76.949,42.331,80.146,45.532z"/>
		<path fill="#cca358" d="M33.104,30.482c1.72,1.72,1.72,4.508,0,6.224c-1.72,1.72-4.504,1.72-6.225,0
			c-1.715-1.716-1.715-4.504,0-6.224C28.601,28.766,31.385,28.766,33.104,30.482z"/>
		<path fill="#cca358" d="M37.428,64.666c1.721,1.719,1.721,4.504,0,6.221c-1.715,1.724-4.504,1.724-6.224,0
			c-1.717-1.717-1.717-4.501,0-6.221C32.924,62.945,35.713,62.945,37.428,64.666z"/>
		<path fill="#cca358" d="M62.588,65.472c3.038,3.04,3.038,7.97,0,11.005c-3.042,3.043-7.971,3.043-11.009,0
			c-3.042-3.035-3.042-7.966,0-11.005C54.617,62.43,59.546,62.43,62.588,65.472z"/>
		<path fill="#cca358" d="M58.67,23.182c1.715,1.72,1.715,4.508,0,6.224c-1.722,1.717-4.509,1.717-6.226,0
			c-1.72-1.716-1.72-4.504,0-6.224C54.161,21.466,56.948,21.466,58.67,23.182z"/>
		<path opacity="0.5" fill="#726658" d="M71.402,21.168L71.402,21.168c-0.859,0.231-1.766,0.081-2.531-0.372
			c-2.824-1.662-5.834-2.888-8.936-3.687c-0.066-0.019-0.128-0.048-0.198-0.07c5.034,4.236,18.316,17.466,13.742,35.943
			c-5.606,22.64-26.401,30.453-31.134,31.812c0.862,0.225,1.606,0.758,2.051,1.532l0.012,0.016c2.991,5.182,10.476,5.182,13.469,0
			l0.007-0.016c0.447-0.774,1.19-1.308,2.052-1.532c3.102-0.799,6.111-2.026,8.936-3.687c0.766-0.449,1.672-0.601,2.531-0.372l0,0
			c5.782,1.554,11.074-3.742,9.524-9.524c-0.229-0.854-0.081-1.762,0.372-2.527c1.66-2.829,2.888-5.833,3.687-8.935
			c0.221-0.861,0.758-1.605,1.528-2.052l0.016-0.011c5.186-2.991,5.186-10.475,0-13.47l-0.016-0.007
			c-0.771-0.446-1.308-1.189-1.528-2.051c-0.799-3.102-2.026-6.107-3.687-8.936c-0.453-0.766-0.601-1.672-0.372-2.526l0,0
			C82.477,24.909,77.185,19.617,71.402,21.168z"/>
	</g>
</g>
</svg>
