<?xml version="1.0" encoding="utf-8"?>
<!-- Generator: Adobe Illustrator 16.0.0, SVG Export Plug-In . SVG Version: 6.00 Build 0)  -->
<!DOCTYPE svg PUBLIC "-//W3C//DTD SVG 1.1//EN" "http://www.w3.org/Graphics/SVG/1.1/DTD/svg11.dtd">
<svg version="1.1" id="Layer_1" xmlns="http://www.w3.org/2000/svg" xmlns:xlink="http://www.w3.org/1999/xlink" x="0px" y="0px"
	 width="158px" height="256px" viewBox="0 0 158 256" enable-background="new 0 0 158 256" xml:space="preserve">
<g>
	<g>
		<g>
			<g>
				<g>
					<g>
						<g>
							<g>
								<g>
									<g>
										<g>
											<polygon fill="#455A64" points="98.785,165.81 57.987,165.81 56.767,170.216 99.887,170.216 											"/>
											<polygon fill="#546E7A" points="56.767,170.216 53.545,181.845 102.794,181.845 99.887,170.216 											"/>
										</g>
										<path fill="#455A64" d="M105.783,185.505H50.555c-1.006,0-1.829-0.824-1.829-1.83l0,0c0-1.007,0.823-1.83,1.829-1.83
											h55.229c1.007,0,1.83,0.823,1.83,1.83l0,0C107.613,184.681,106.79,185.505,105.783,185.505z"/>
									</g>
									<g>
										<path fill="#FE5722" d="M52.51,185.505c-5.658,14.994-0.362,32.652,2.99,37.11l3.182-4.629
											c0,9.258,11.202,25.201,19.487,33.259v-65.74H52.51z"/>
										<path fill="#F3511E" d="M103.828,185.505c5.658,14.994,0.363,32.652-2.989,37.11l-3.182-4.629
											c0,9.258-11.202,25.201-19.488,33.259v-65.74H103.828z"/>
									</g>
									<g>
										<path fill="#FEC928" d="M61.878,185.505c-3.592,9.52-0.229,20.731,1.898,23.562l2.02-2.939
											c0,5.878,7.113,16.001,12.373,21.117v-41.739H61.878z"/>
										<path fill="#FEC007" d="M94.46,185.505c3.593,9.52,0.23,20.731-1.897,23.562l-2.021-2.939
											c0,5.878-7.112,16.001-12.373,21.117v-41.739H94.46z"/>
									</g>
								</g>
							</g>
							<g>
								<g>
									<g>
										<path fill="#CED7DB" d="M102.821,30.419H78.163v20.19v115.298h29.771c4.721,0,8.548-3.827,8.548-8.548V74.983
											c0-15.884-4.758-31.405-13.659-44.562L102.821,30.419z"/>
										<path fill="#EBEEF0" d="M53.508,30.419L53.508,30.419c-8.905,13.158-13.664,28.682-13.664,44.569v82.37
											c0,4.721,3.826,8.548,8.548,8.548h29.771V50.609v-20.19H53.508z"/>
										<path fill="#455A64" d="M102.821,30.419L91.79,14.115c-3.263-4.822-8.445-7.232-13.627-7.231v23.536H102.821z"/>
										<path fill="#546E7A" d="M78.163,6.883c-5.18,0.001-10.358,2.411-13.62,7.23L53.508,30.419h24.655V6.883z"/>
									</g>
									<g>
										<circle fill="#455A64" cx="78.086" cy="88.372" r="23.63"/>
										<g>
											<g>
												<path fill="#25C5D9" d="M97.08,88.372c0-4.992-1.936-9.525-5.085-12.915c0.01,0.375,0.028,0.748,0.028,1.126
													c0,12.103-5.062,23.016-13.173,30.764C88.986,106.945,97.08,98.606,97.08,88.372z"/>
												<path fill="#4DCFE1" d="M92.023,76.583c0-0.378-0.019-0.751-0.028-1.126c-2.639-2.84-6.125-4.88-10.066-5.69
													c0.038,0.519,0.064,1.041,0.064,1.569c0,11.566-9.376,20.942-20.942,20.942c-0.528,0-1.051-0.026-1.569-0.064
													c1.777,8.648,9.432,15.152,18.605,15.152c0.256,0,0.51-0.009,0.764-0.02C86.962,99.599,92.023,88.686,92.023,76.583z"/>
											</g>
											<path fill="#80DDE9" d="M81.993,71.336c0-0.528-0.026-1.05-0.064-1.569c-1.241-0.255-2.526-0.389-3.842-0.389
												c-10.49,0-18.994,8.504-18.994,18.994c0,1.316,0.134,2.601,0.389,3.842c0.519,0.038,1.041,0.064,1.569,0.064
												C72.617,92.279,81.993,82.903,81.993,71.336z"/>
										</g>
									</g>
								</g>
								<g>
									<polygon fill="#AFBDC4" points="116.482,114.792 116.482,152.438 124.156,152.438 124.156,118.821 									"/>
									<path fill="#CED7DB" d="M152.338,140.492c0-4.228-2.345-8.108-6.089-10.073l-22.093-11.598v33.618h21.864
										c3.489,0,6.317-2.828,6.317-6.317V140.492z"/>
								</g>
								<g>
									<polygon fill="#AFBDC4" points="39.843,114.792 39.843,152.438 32.169,152.438 32.169,118.821 									"/>
									<path fill="#CED7DB" d="M3.988,140.492c0-4.228,2.345-8.108,6.088-10.073l22.093-11.598v33.618H10.305
										c-3.488,0-6.316-2.828-6.316-6.317V140.492z"/>
								</g>
								<path opacity="0.15" fill="#8FA3AD" d="M80.731,135.079l30.231,30.232c-0.737,0.255-1.354,0.579-5.179,0.579
									s-25.602,0-25.602,0L80.731,135.079z"/>
								<path fill="#AFBDC4" d="M78.174,174.12L78.174,174.12c-2.305,0-4.19-1.886-4.19-4.19v-31.63c0-2.305,1.886-4.19,4.19-4.19
									l0,0c2.305,0,4.19,1.886,4.19,4.19v31.63C82.364,172.234,80.479,174.12,78.174,174.12z"/>
								<path fill="#FFFFFF" d="M78.057,171.622L78.057,171.622c-1.097,0-1.993-0.897-1.993-1.993v-16.104
									c0-1.097,0.896-1.994,1.993-1.994l0,0c1.097,0,1.993,0.897,1.993,1.994v16.104C80.05,170.725,79.153,171.622,78.057,171.622
									z"/>
							</g>
						</g>
					</g>
				</g>
			</g>
		</g>
	</g>
</g>
</svg>
