<?xml version="1.0" encoding="utf-8"?>
<!-- Generator: Adobe Illustrator 16.0.0, SVG Export Plug-In . SVG Version: 6.00 Build 0)  -->
<!DOCTYPE svg PUBLIC "-//W3C//DTD SVG 1.1//EN" "http://www.w3.org/Graphics/SVG/1.1/DTD/svg11.dtd">
<svg version="1.1" id="Layer_1" xmlns="http://www.w3.org/2000/svg" xmlns:xlink="http://www.w3.org/1999/xlink" x="0px" y="0px"
	 width="960px" height="560px" viewBox="0 0 960 560" enable-background="new 0 0 960 560" xml:space="preserve">
<g>
	<path fill="#FFFFFF" d="M450.005,70.409c2.729-1.419,5.233-3.105,8.32-3.442c0.56-0.061,1.121-0.168,1.682-0.162
		c0.849,0.01,1.676,0.225,2.049,1.039c0.388,0.845,0.168,1.682-0.463,2.363c-1.35,1.453-2.975,2.596-4.651,3.665
		c-0.889,0.567-1.803,1.105-2.748,1.581c-2.427,1.22-4.215,2.728-5.316,5.414c-1.999,4.884-7.709,7.13-13.196,5.636
		c-1.33-0.362-2.396-0.225-3.582,0.29c-3.721,1.611-7.443,3.225-11.391,4.285c-0.423,0.114-0.848,0.259-1.28,0.294
		c-1.104,0.09-2.352,0.451-3.083-0.71c-0.76-1.202,0.178-2.053,0.906-2.868c1.438-1.61,3.094-3,4.854-4.281
		c1.759-1.281,3.794-2.097,5.697-3.048c-0.843-6.882,2.028-13.231,6.606-14.75C441.703,63.294,446.602,64.714,450.005,70.409z
		 M447.734,75.679c-0.005-6.927-5.777-10.319-11.704-7.046c-0.264,0.146-0.585,0.26-0.884,0.271c-1.4,0.052-2.304,0.878-3.116,1.819
		c-3.429,3.974-2.411,9.16,2.237,11.75c1.023,0.571,1.902,0.688,2.974,0.13c2.977-1.55,5.968-3.074,9.001-4.516
		C447.438,77.521,447.961,76.764,447.734,75.679z M420.544,88.63c3.832-0.836,7.468-2.113,11.155-3.749
		c-0.924-0.826-1.641-1.467-2.356-2.106C426.155,84.483,422.93,85.943,420.544,88.63z M450.529,75.599
		c3.031-1.62,5.539-3.392,8.135-5.954c-3.174,0.577-5.532,2.005-8.325,1.917C450.403,72.913,450.459,74.094,450.529,75.599z
		 M446.248,80.147c-2.372,1.214-4.743,2.429-7.114,3.643C442.267,83.905,444.798,82.97,446.248,80.147z"/>
	<path fill="#FFFFFF" d="M657.166,446.733c-2.053,0.312-4.104,0.653-6.189,0.528c-1.385-0.082-2.739-0.383-2.834-2.045
		c-0.091-1.589,1.223-2.043,2.488-2.221c4.854-0.686,9.721-1.279,14.582-1.91c0.301-0.039,0.598-0.093,1.063-0.166
		c-0.159-2.532-0.234-4.994-0.492-7.44c-0.261-2.473-0.251-4.949-0.298-7.426c-0.017-0.856-0.229-2.063,1.077-2.182
		c1.434-0.13,1.433,1.181,1.563,2.067c0.598,4.066,1.106,8.146,1.653,12.219c0.103,0.771,0.218,1.542,0.374,2.628
		c5.002-0.842,9.798-1.393,14.475-2.591c1.225-0.314,2.447-0.794,3.509,0.313c0.465,0.483,0.587,1.086,0.275,1.684
		c-0.666,1.28-1.911,1.135-3.116,1.166c-3.041,0.085-5.973,0.771-8.892,1.528c-1.875,0.488-3.771,0.896-5.902,1.396
		c0.179,2.888,0.382,5.817,0.534,8.751c0.198,3.804,0.364,7.607,0.522,11.412c0.019,0.416-0.045,0.848-0.144,1.256
		c-0.201,0.836-0.678,1.471-1.656,1.453c-1.087-0.02-1.516-0.706-1.601-1.664c-0.366-4.155-0.758-8.309-1.097-12.465"/>
	<path fill="#FFFFFF" d="M114.566,63.776c-3.45,0.554-6.553,0.96-9.697,0.581c-0.894-0.107-1.938-0.032-1.912-1.217
		c0.023-1.073,1.017-1.007,1.842-1.084c3.063-0.288,6.159-0.352,9.219-1.229c0.479-0.722,0.144-1.585,0.152-2.403
		c0.039-3.869-0.138-7.742,0.334-11.599c0.082-0.675-0.154-1.694,0.95-1.636c0.944,0.049,0.956,0.984,0.973,1.713
		c0.104,4.47,1.019,8.853,1.382,13.447c2.839-0.343,5.543-0.298,8.163-1.053c0.835-0.241,1.715-0.381,2.583-0.457
		c0.827-0.071,1.524,0.223,1.613,1.146c0.075,0.778-0.363,1.269-1.14,1.432c-2.084,0.437-4.117,1.092-6.292,1.125
		c-1.491,0.023-2.979,0.256-4.648,0.411c0.254,3.45,0.494,6.741,0.74,10.033c0.188,2.531,0.397,5.062,0.568,7.595
		c0.064,0.953,0.284,2.101-1.122,2.313c-1.268,0.191-1.49-0.863-1.765-1.732c-1.328-4.197-1.907-8.499-1.94-12.876
		C114.556,66.853,114.566,65.42,114.566,63.776z"/>
	<path fill="#FFFFFF" d="M763.562,102.68c-0.03,3.722-3.147,6.626-7.021,6.543c-3.753-0.08-6.752-3.067-6.712-6.688
		c0.038-3.631,3.075-6.527,6.856-6.542C760.546,95.981,763.592,98.943,763.562,102.68z"/>
	<path fill="#FFFFFF" d="M827.538,311.457c1.381,0.25,2.566,0.116,3.747-0.016c1.017-0.113,2.01-0.01,2.994,0.199
		c0.868,0.185,1.557,0.623,1.467,1.59c-0.087,0.963-0.81,1.295-1.725,1.305c-1.444,0.016-2.896,0.092-4.334-0.002
		c-1.599-0.104-2.173,0.337-2.09,2.02c0.18,3.615,0.097,7.242,0.068,10.863c-0.006,0.791,0.172,1.946-1.101,1.925
		c-1.063-0.019-0.962-1.068-1.085-1.829c-0.594-3.646-0.857-7.312-0.774-11.002c0.009-0.467,0.123-0.971-0.313-1.479
		c-2.175,0.23-4.426,0.336-6.682,0.271c-0.893-0.026-1.914-0.022-1.975-1.182c-0.061-1.123,0.918-1.301,1.813-1.429
		c1.803-0.255,3.6-0.593,5.409-0.702c1.289-0.076,1.691-0.454,1.636-1.734c-0.175-3.859-0.188-7.726-0.261-11.588
		c-0.007-0.422,0-0.847,0.017-1.269c0.026-0.735,0.281-1.353,1.174-1.339c0.898,0.012,1.094,0.667,1.139,1.383
		c0.262,4.093,0.525,8.188,0.786,12.281C827.481,310.258,827.503,310.793,827.538,311.457z"/>
	<path fill="#FFFFFF" d="M281.834,407.528c0.15,3.763-4.224,5.64-7.039,5.726c-2.948,0.09-5.214-2.386-5.133-5.37
		c0.088-3.282,2.961-6.017,6.313-6.012C279.244,401.878,281.871,404.414,281.834,407.528z"/>
	<path fill="#FFFFFF" d="M174.5,375.289c-3.068,0-5.813,0-8.859,0c0.868-2.101,2.705-1.413,4.01-1.616
		c1.46-0.226,2.989-0.052,4.669-0.052c0.188-3.012-0.267-5.745-0.415-8.487c-0.049-0.902-0.209-1.799-0.301-2.7
		c-0.06-0.604-0.169-1.335,0.629-1.502c0.952-0.196,1.161,0.624,1.261,1.253c0.468,2.927,0.904,5.857,0.907,8.828
		c0,0.652,0,1.308,0,2.134c1.851-0.149,3.528-0.199,5.173-0.445c1.509-0.228,3.009-0.197,4.516-0.195
		c0.767,0,1.753,0.037,1.731,0.956c-0.024,1.041-1.056,0.778-1.779,0.737c-3.149-0.176-6.21,0.392-9.361,0.811
		c-0.04,3.501-0.099,6.814,0.589,10.089c0.117,0.561,0.361,1.16-0.364,1.371c-0.739,0.215-0.94-0.479-1.11-0.97
		c-0.861-2.482-1.132-5.064-1.29-7.658C174.457,377.009,174.5,376.17,174.5,375.289z"/>
	<path fill="#FFFFFF" d="M823.033,232.54c-0.031,2.793-2.437,5.052-5.322,4.997c-2.769-0.054-4.959-2.236-4.942-4.921
		c0.017-2.821,2.379-5.027,5.316-4.966C820.896,227.708,823.062,229.849,823.033,232.54z"/>
	<path fill="#FFFFFF" d="M857.019,168.565c2.482,0.213,4.771-0.213,7.069-0.491c0.497-0.06,0.995-0.131,1.494-0.158
		c0.455-0.024,0.945,0.039,1.044,0.557c0.117,0.625-0.347,0.827-0.899,0.911c-2.291,0.348-4.582,0.707-6.876,1.049
		c-0.496,0.075-1.011,0.062-1.657,0.551c0.651,4.556,1.328,9.267,2.004,13.978c-0.189,0.028-0.382,0.056-0.574,0.083
		c-1.133-4.611-1.813-9.311-2.602-14.105c-1.784,0.162-3.51,0.356-5.239,0.459c-0.999,0.059-2.014,0.025-3.01-0.07
		c-0.729-0.07-1.69-0.143-1.661-1.113c0.031-1.022,0.998-0.877,1.733-0.928c2.562-0.18,5.124-0.36,7.972-0.56
		c-0.354-4.959-0.696-9.815-1.042-14.669c0.221-0.019,0.44-0.037,0.66-0.055C856.502,158.736,856.414,163.617,857.019,168.565z"/>
	<path fill="#FFFFFF" d="M641.816,291.663c-0.013,2.808-1.869,4.728-4.558,4.713c-2.699-0.014-4.681-1.896-4.656-4.424
		c0.035-3.916,1.385-5.651,4.349-5.601C639.455,286.395,641.831,288.988,641.816,291.663z M636.589,289.586
		c-1.388,1.616-1.438,2.857-0.191,3.59c0.784,0.463,1.549,0.488,2.061-0.406C639.126,291.594,638.474,290.457,636.589,289.586z"/>
	<path fill="#FFFFFF" d="M122.535,271.127c-1.601,0-2.974,0.003-4.348-0.001c-0.827-0.003-1.556-0.225-1.616-1.146
		c-0.068-1.007,0.657-1.386,1.567-1.413c1.377-0.042,2.757-0.011,4.248-0.011c0-2.16-0.022-4.307,0.011-6.455
		c0.016-1.067-0.532-2.727,1.158-2.743c1.487-0.014,0.91,1.583,0.937,2.514c0.065,2.276,0.021,4.555,0.021,6.879
		c2.177,0.315,4.042-0.231,5.912-0.667c0.577-0.135,1.17-0.387,1.437,0.308c0.263,0.686-0.376,0.964-0.879,1.18
		c-1.97,0.845-4.038,1.296-6.275,1.245c-0.809,2.421,0.372,5.141-1.348,7.326c-0.194,0.246-0.549,0.269-0.988,0.024
		C122.834,275.939,122.564,273.638,122.535,271.127z"/>
	<path fill="#FFFFFF" d="M517.157,463.366c-0.112,1.579-0.187,2.966-0.32,4.345c-0.056,0.571-0.026,1.352-0.946,1.283
		c-0.8-0.062-0.862-0.783-0.97-1.368c-0.211-1.176,0.069-2.417-0.409-3.532c-0.975,0-1.854,0.058-2.722-0.015
		c-0.961-0.077-2.264,0.09-2.31-1.277c-0.041-1.226,1.177-1.214,2.076-1.386c0.86-0.165,1.731-0.281,2.809-0.451
		c-0.09-1.636-0.211-3.237-0.255-4.839c-0.023-0.84,0.001-1.698,0.158-2.521c0.134-0.687,0.612-1.252,1.449-1.161
		c0.862,0.091,1.059,0.738,1.067,1.463c0.029,1.873,0.056,3.746,0.104,5.619c0.006,0.295,0.115,0.588,0.176,0.878
		c0.787,0.425,1.485-0.143,2.223-0.104c0.904,0.046,1.662,0.296,1.829,1.229c0.18,1-0.584,1.423-1.423,1.597
		C518.91,463.285,518.092,463.284,517.157,463.366z"/>
	<path fill="#FFFFFF" d="M893.47,101.681c-2.45,0.042-4.328-1.867-4.416-4.488c-0.081-2.446,1.525-4.252,3.822-4.298
		c2.427-0.048,4.589,2.104,4.624,4.599C897.531,99.795,895.755,101.641,893.47,101.681z"/>
	<path fill="#FFFFFF" d="M702.883,416.411c-2.425-0.02-4.094-1.563-4.093-3.784c0.001-2.9,2.232-5.257,5.016-5.291
		c2.748-0.034,4.975,1.831,4.938,4.136C708.7,414.204,706.055,416.434,702.883,416.411z M703.954,413.724
		c1.345,0.053,2.824-0.956,2.761-1.975c-0.082-1.364-1.295-1.662-2.312-1.66c-1.233,0.004-2.054,0.801-2.136,2.094
		C702.197,413.335,703.029,413.576,703.954,413.724z"/>
	<path fill="#FFFFFF" d="M65.472,278.118c-0.047-2.604,1.899-4.863,4.208-4.883c2.458-0.022,4.504,1.614,4.576,3.657
		c0.105,3.027-1.749,5.233-4.412,5.249C66.976,282.154,65.522,280.818,65.472,278.118z M70.783,278.088
		c0.128-0.92-0.279-1.243-0.917-1.234c-0.875,0.012-1.055,0.767-1.196,1.359c-0.134,0.561,0.367,0.818,0.915,0.868
		C70.51,279.163,70.706,278.55,70.783,278.088z"/>
	<path fill="#FFFFFF" d="M330.194,489.022c-0.42,1.4-30.349,22.031-31.695,21.842"/>
	<path fill="#FFFFFF" d="M830.646,346.799c2.455,0.011,4.704,2.05,4.714,4.272c0.009,2.112-1.939,4.116-3.952,4.065
		c-2.296-0.059-4.525-2.146-4.563-4.267C826.805,348.55,828.448,346.79,830.646,346.799z"/>
	<path fill="#FFFFFF" d="M59.032,491.259c-0.06,3.24-3.945,5.493-6.955,4.022c-1.091-0.533-1.758-1.385-1.726-2.586
		c0.037-1.322,0.472-2.484,1.796-3.153c0.423-0.213,0.987-0.123,1.264-0.662c0.699-1.362,1.884-1.7,3.313-1.248
		C58.068,488.059,59.062,489.686,59.032,491.259z"/>
	<path fill="#FFFFFF" d="M214.974,273.75c-0.01-2.537,1.47-4.436,3.439-4.41c1.902,0.021,3.806,2.232,3.842,4.461
		c0.034,2.031-1.527,3.629-3.573,3.664C216.559,277.5,214.981,275.92,214.974,273.75z"/>
	<path fill="#FFFFFF" d="M782.728,501.689c-1.174-0.28-1.044-1.102-1.178-1.842c-0.283-1.562,0.111-3.208-1.021-4.688
		c-0.452-0.59-0.71-0.565-1.265-0.557c-1.15,0.02-2.252,0.645-3.445,0.196c-0.49-0.182-1.028-0.271-0.995-0.883
		c0.03-0.591,0.597-0.815,1.07-0.836c1.437-0.063,2.878-0.022,4.237-0.022c1.156-2.268-0.12-4.796,1.489-7.213
		c1.322,2.383,0.646,4.692,1.052,7.062c2.01-0.019,3.996-0.072,5.757-1.417c0.114,1.931,0.087,1.943-5.701,3.041
		C782.728,496.86,782.728,499.213,782.728,501.689z"/>
	<path fill="#FFFFFF" d="M109.833,517.288c-2.094,0.01-4.105-1.724-3.784-3.653c0.563-3.372,0.608-4.4,3.378-4.472
		c2.555-0.065,4.783,1.813,4.767,3.928C114.175,515.192,112.008,517.279,109.833,517.288z M111.568,513.04
		c-0.388-0.978-1.321-1.408-2.306-1.468c-1.008-0.062-1.112,0.834-1.05,1.556c0.085,0.985,0.629,1.806,1.736,1.742
		C110.914,514.816,111.381,514.026,111.568,513.04z"/>
	<path fill="#FFFFFF" d="M275.629,153.655c-2.363-0.054-4.412-1.743-4.407-3.633c0.005-2.02,1.531-3.252,3.919-3.163
		c2.104,0.079,3.653,1.758,3.575,3.875C278.648,152.528,277.415,153.696,275.629,153.655z"/>
	<path fill="#FFFFFF" d="M456.48,160.182c-2.215-0.038-3.697-1.577-3.623-3.765c0.085-2.546,1.935-4.747,3.996-4.753
		c1.881-0.006,3.489,1.841,3.502,4.025C460.373,158.234,458.66,160.218,456.48,160.182z M457.709,154.435
		c-2.133,0.409-2.92,1.202-2.482,2.524c0.285,0.866,0.906,1.486,1.943,1.182C458.28,157.817,458.521,156.172,457.709,154.435z"/>
	<path fill="#FFFFFF" d="M660.323,130.57c-0.009,0.781-0.129,1.581-1.142,1.518c-1.056-0.065-0.944-0.915-0.888-1.663
		c0.689-9.064,1.85-18.101,1.765-27.213c-0.004-0.306-0.205-0.76,0.458-0.941c0.665,0.564,0.479,1.379,0.518,2.104"/>
	<path fill="#FFFFFF" d="M91.328,177.957c0.038,1.737-1.193,3.06-2.919,3.138c-1.935,0.087-3.399-1.397-3.452-3.5
		c-0.049-1.895,1.063-3.14,2.813-3.152C89.639,174.43,91.285,176.057,91.328,177.957z"/>
	<path fill="#FFFFFF" d="M407.109,548.605c0.064-1.906,1.22-3.372,2.666-3.381c1.693-0.009,3.413,1.816,3.31,3.514
		c-0.101,1.665-1.512,3.021-3.13,3.009C408.273,551.733,407.049,550.383,407.109,548.605z"/>
	<path fill="#FFFFFF" d="M413.263,506.397c1.627,0.019,2.902,1.203,2.921,2.716c0.021,1.606-1.421,2.972-3.139,2.965
		c-1.628-0.004-3.047-1.329-3.049-2.846C409.991,507.688,411.503,506.379,413.263,506.397z"/>
	<path fill="#FFFFFF" d="M513.25,75.988c-0.02,1.269,0.159,2.717-1.813,2.719c-1.825,0.002-3.677-2.089-3.639-3.961
		c0.033-1.562,0.859-2.349,2.442-2.325C512.49,72.454,513.317,73.435,513.25,75.988z"/>
	<path fill="#FFFFFF" d="M198.35,150.063c-0.97,0-1.787,0.01-2.604-0.003c-0.512-0.008-1.104-0.041-1.051-0.715
		c0.047-0.604,0.585-0.73,1.126-0.69c0.86,0.065,1.719,0.163,2.592,0.248c0.497-1.61-0.245-3.064-0.239-4.556
		c0.004-1.017,0.021-2.118,1.406-2.12c1.369-0.003,1.434,1.079,1.43,2.107c-0.005,1.49-0.612,2.943-0.416,4.391
		c0.933,0.548,1.979-0.092,2.907,0.64c-0.573,0.478-1.21,0.309-1.771,0.392c-0.417,0.061-0.846,0.002-1.159,0.436
		C199.314,151.937,199.261,151.927,198.35,150.063z"/>
	<path fill="#FFFFFF" d="M680.396,3.861c1.017,0.014,1.105,0.59,1.239,1.114c1.198,4.673,0.642,9.339-0.083,14.003
		c-0.077,0.502-0.249,0.99-0.911,0.929c-0.563-0.053-0.648-0.48-0.603-0.942c0.472-4.81,0.614-9.62,0.1-14.436
		C680.117,4.326,680.298,4.104,680.396,3.861z"/>
	<path fill="#FFFFFF" d="M663.32,223.892c-1.569,0.015-2.767-1.166-2.813-2.774c-0.046-1.696,1.251-3.052,2.954-3.088
		c1.578-0.034,2.938,1.168,2.982,2.644C666.498,222.308,664.975,223.876,663.32,223.892z"/>
	<path fill="#FFFFFF" d="M116.91,491.089c1.488-0.021,2.642,1.156,2.651,2.71c0.014,2.055-0.968,3.683-2.255,3.742
		c-1.217,0.055-3.099-2.104-3.168-3.633C114.07,492.343,115.277,491.112,116.91,491.089z"/>
	<path fill="#FFFFFF" d="M405.767,450.28c-0.981,2.678-12.844,11.814-15.078,11.648c-0.293-0.859,0.442-1.186,0.955-1.556
		c2.758-1.987,5.534-3.953,8.323-5.901c1.626-1.136,3.242-2.275,4.572-3.743C404.811,450.431,405.052,449.997,405.767,450.28z"/>
	<path fill="#FFFFFF" d="M328.872,510.733c-0.886-0.047-1.408-0.44-1.584-1.16c-0.178-0.734,0.15-1.401,0.844-1.642
		c2.764-0.953,5.046-2.624,7.317-4.332c0.339-0.255,0.713-0.557,1.155-0.146c0.348,0.32,0.243,0.668-0.017,0.962
		c-2.08,2.352-4.663,4.172-7.096,6.149C329.321,510.704,329.021,510.695,328.872,510.733z"/>
	<path fill="#FFFFFF" d="M778.907,94.705c-0.015,1.45-1.27,2.619-2.771,2.582c-1.5-0.036-2.698-1.242-2.679-2.693
		c0.02-1.468,1.256-2.625,2.764-2.585C777.699,92.048,778.924,93.275,778.907,94.705z"/>
	<path fill="#FFFFFF" d="M653.274,282.165c1.412-0.038,2.979,1.349,3.026,2.675c0.043,1.205-1.21,2.016-3.21,2.08
		c-1.612,0.051-2.743-0.9-2.736-2.303C650.361,283.26,651.612,282.209,653.274,282.165z"/>
	<path fill="#FFFFFF" d="M829.577,374.664c1.544,0.029,3.271,1.651,3.164,3.031c-0.121,1.575-1.288,1.934-2.653,1.939
		c-1.761,0.01-3.016-1.093-3.012-2.582C827.078,375.665,828.153,374.638,829.577,374.664z"/>
	<path fill="#FFFFFF" d="M351.479,475.542c0.049,0.915-0.687,1.286-1.224,1.729c-1.995,1.645-4.028,3.244-6.048,4.857
		c-0.78,0.625-1.687,1.128-2.407,0.098c-0.718-1.029,0.083-1.655,1.007-2.09c2.489-1.167,4.686-2.762,6.908-4.322
		C350.256,475.437,350.765,474.899,351.479,475.542z"/>
	<path fill="#FFFFFF" d="M519.21,55.943c-0.014,1.384-1.269,2.836-2.469,2.663c-1.409-0.204-2.297-1.197-2.64-2.447
		c-0.257-0.942,1.435-2.454,2.516-2.451C518.183,53.711,519.222,54.607,519.21,55.943z"/>
	<path fill="#FFFFFF" d="M255.426,423.151c0.037-1.305,1.151-2.399,2.409-2.29c1.278,0.111,1.883,0.882,1.905,2.073
		c0.029,1.567-0.933,2.665-2.235,2.601C256.315,425.476,255.39,424.415,255.426,423.151z"/>
	<path fill="#FFFFFF" d="M94.5,225.29c1.305,0.133,2.09,0.854,2.132,2.203c0.039,1.294-1.055,2.278-2.39,2.223
		c-1.32-0.054-2.368-1.145-2.216-2.4C92.186,225.988,93.003,225.295,94.5,225.29z"/>
	<path fill="#FFFFFF" d="M294.49,131.256c-0.215,1.377-1.011,2.166-2.497,2.125c-1.347-0.037-2.04-0.789-2.053-2.068
		c-0.013-1.331,1.056-2.39,2.321-2.276C293.626,129.159,294.39,129.908,294.49,131.256z"/>
	<path fill="#FFFFFF" d="M248.128,247.641c-0.145,1.316-0.883,2.072-2.227,1.986c-1.307-0.087-2.053-0.897-2.057-2.173
		c-0.003-1.298,0.722-2.085,2.092-2.051C247.39,245.438,248.007,246.363,248.128,247.641z"/>
	<path fill="#FFFFFF" d="M883.268,226.091c-0.187,1.267-0.796,2.19-2.236,2.2c-1.405,0.01-1.99-0.817-1.896-2.112
		c0.093-1.282,0.682-2.255,2.135-2.241C882.623,223.953,883.189,224.864,883.268,226.091z"/>
	<path fill="#FFFFFF" d="M725.071,44.018c-0.083,2.56-5.274,5.834-7.842,5.134C719.589,46.983,723.013,46.757,725.071,44.018z"/>
	<path fill="#FFFFFF" d="M682.358,225.972c0.833,0.008,1.461,0.208,1.557,1.044c0.063,0.559-1.867,2.428-2.506,2.405
		c-0.987-0.037-1.514-0.636-1.461-1.526C680.034,226.438,681.161,226.085,682.358,225.972z"/>
	<path fill="#FFFFFF" d="M852.713,240.107c1.023,0.273,2.112,0.674,2.19,1.975c0.054,0.874-0.697,1.152-1.421,0.882
		c-0.979-0.365-2.646,0.083-2.598-1.669C850.911,240.311,851.693,240.051,852.713,240.107z"/>
	<path fill="#FFFFFF" d="M668.061,64.051c-0.837,2.378-5.007,4.74-7.056,4.137C663.124,66.411,665.688,65.81,668.061,64.051z"/>
	<path fill="#FFFFFF" d="M373.134,59.446c0.137-0.829,0.566-1.412,1.473-1.345c1.039,0.076,1.813,0.6,1.815,1.693
		c0.003,0.926-0.686,1.196-1.544,1.169C373.842,60.931,373.271,60.413,373.134,59.446z"/>
	<path fill="#FFFFFF" d="M358.125,474.021c2.788-2.602,5.973-4.716,8.911-7.122C364.495,469.768,361.347,471.949,358.125,474.021z"
		/>
	<path fill="#FFFFFF" d="M229.487,259.092c1.119,0.061,1.625,0.766,1.738,1.733c0.086,0.747-0.302,1.333-1.149,1.303
		c-1.088-0.039-1.68-0.749-1.803-1.72C228.177,259.651,228.659,259.194,229.487,259.092z"/>
	<path fill="#FFFFFF" d="M769.737,112.755c-0.104,0.831-0.594,1.368-1.441,1.383c-0.952,0.016-1.512-0.53-1.472-1.478
		c0.034-0.874,0.635-1.315,1.475-1.292C769.151,111.392,769.627,111.937,769.737,112.755z"/>
	<path fill="#FFFFFF" d="M673.135,234.173c0.079-0.675,0.44-1.168,1.163-1.14c0.611,0.025,1.018,0.482,1.024,1.084
		c0.012,0.695-0.398,1.137-1.148,1.113C673.516,235.211,673.208,234.78,673.135,234.173z"/>
	<path fill="#FFFFFF" d="M866.369,245.587c-0.164,0.777-0.858,0.758-1.444,0.813c-0.618,0.06-1.148-0.194-1.132-0.868
		c0.019-0.672,0.57-0.917,1.176-0.826C865.529,244.791,866.268,244.742,866.369,245.587z"/>
</g>
</svg>
